<svg fill="none" xmlns="http://www.w3.org/2000/svg" viewBox="0 0 40 40">
  <rect width="40" height="40" rx="12" fill="#615EFF" />
  <path
    fill-rule="evenodd"
    clip-rule="evenodd"
    d="M16.82 12.43a7.78 7.78 0 0 1 8.89-1.72 7.12 7.12 0 0 1 3.28 10.16L24.09 29c-.28.45-.73.79-1.25.92-.53.14-1.1.07-1.57-.2l5.93-9.85a5.17 5.17 0 0 0-2.37-7.38c-2.18-1-4.84-.5-6.45 1.23a5.16 5.16 0 0 0 .4 7.43l-3.46 5.76a2.02 2.02 0 0 1-1.25.93 2.15 2.15 0 0 1-1.56-.2l3.76-6.26a7.08 7.08 0 0 1-1.15-2.47l-2.3 3.84c-.28.45-.73.79-1.25.92-.53.14-1.1.07-1.57-.2l5.96-9.9c.25-.42.54-.8.86-1.15Zm6.88 3.15a2.83 2.83 0 0 1 1.1 3.95L19.08 29c-.27.45-.72.79-1.25.92-.53.14-1.1.07-1.57-.2l5.31-8.82a3.06 3.06 0 0 1-2.02-1.45 2.8 2.8 0 0 1 .54-3.45 3.03 3.03 0 0 1 2.38-.8c.43.03.85.16 1.23.37Zm-2.08 1.78a.88.88 0 0 0-.17 1.27c.1.15.26.25.44.31a.98.98 0 0 0 1.01-.26c.12-.14.2-.3.23-.48a.88.88 0 0 0-.1-.52.92.92 0 0 0-.71-.5.98.98 0 0 0-.7.18Z"
    fill="#fff"
  />
</svg>
