<svg xmlns="http://www.w3.org/2000/svg" viewBox="0 0 40 40">
  <path
    fill="#1f074f"
    d="M10.41-.02h19.11a11.3 11.3 0 0 1 10.46 10.43v19.11a11.31 11.31 0 0 1-10.43 10.46h-19.1A11.3 11.3 0 0 1-.02 29.55v-19.1A11.3 11.3 0 0 1 10.41-.02Zm0 0"
  />
  <path
    fill="#04aa60"
    d="M15.57 26.9h-.29V13.06a3.65 3.65 0 0 1 3.07-3.18c4.65-.02 9.3-.02 13.95-.02a3.59 3.59 0 0 1-3.2 3.6c-3.4.02-6.8.02-10.2.02 0 3.37 0 6.74-.02 10.11a3.65 3.65 0 0 1-2.03 2.96c-.4.2-.83.3-1.28.33Zm0 0"
  />
  <path
    fill="#faaf16"
    d="M10.67 31.73h-.29V18.06c.16-1.5.94-2.56 2.34-3.15.41-.16.84-.23 1.28-.2.02 4.66 0 9.34-.05 14a3.58 3.58 0 0 1-3.28 3.02ZM20.05 14.7h7.8v.23a3.64 3.64 0 0 1-2.14 3.09c-.36.14-.73.23-1.12.27h-4.54V14.7Zm0 0"
  />
</svg>
