<svg viewBox="0 0 40 40" fill="none" xmlns="http://www.w3.org/2000/svg">
  <rect width="40" height="40" rx="12" fill="#FF7A59" />
  <path
    d="M26.0258 15.9023V13.0444C26.3965 12.8679 26.7103 12.5877 26.9308 12.2365C27.1513 11.8853 27.2694 11.4776 27.2712 11.0607V10.9951C27.2712 9.77961 26.3041 8.79425 25.1112 8.79425H25.0468C23.8538 8.79425 22.8867 9.77961 22.8867 10.9951V11.0607C22.8886 11.4776 23.0066 11.8853 23.2271 12.2365C23.4476 12.5877 23.7615 12.8679 24.1321 13.0444V15.9023C23.0668 16.0686 22.0634 16.5187 21.2237 17.207L13.5307 11.1019C13.5856 10.9002 13.6142 10.6927 13.6174 10.4845C13.6183 9.99397 13.4765 9.51421 13.2098 9.10587C12.9431 8.69754 12.5635 8.37896 12.1191 8.19045C11.6746 8.00194 11.1853 7.95196 10.713 8.04683C10.2407 8.1417 9.80657 8.37716 9.46561 8.72342C9.12465 9.06969 8.89214 9.51121 8.7975 9.99213C8.70285 10.473 8.75032 10.9718 8.9339 11.4252C9.11748 11.8786 9.42892 12.2664 9.82883 12.5395C10.2287 12.8125 10.6992 12.9586 11.1806 12.9592C11.6017 12.9572 12.015 12.8427 12.3791 12.627L19.9544 18.633C18.5617 20.7766 18.599 23.5704 20.0483 25.6747L17.7442 28.0229C17.5579 27.9623 17.364 27.93 17.1684 27.9273C16.065 27.9283 15.1711 28.84 15.1714 29.9643C15.1716 31.0884 16.0661 31.9997 17.1695 32C18.2729 32.0003 19.1678 31.0895 19.1687 29.9653C19.1661 29.7661 19.1345 29.5684 19.0748 29.3787L21.3541 27.0555C23.3907 28.6529 26.1879 28.7905 28.3661 27.4005C30.5443 26.0104 31.6435 23.386 31.1216 20.822C30.5997 18.2578 28.5669 16.2954 26.0258 15.9023ZM25.081 25.3019C24.6599 25.3135 24.2408 25.2389 23.8485 25.0827C23.4561 24.9265 23.0985 24.6918 22.7966 24.3924C22.4948 24.093 22.2549 23.7351 22.091 23.3397C21.9272 22.9443 21.8428 22.5194 21.8428 22.0902C21.8428 21.661 21.9272 21.2362 22.091 20.8408C22.2549 20.4454 22.4948 20.0874 22.7966 19.7881C23.0985 19.4887 23.4561 19.254 23.8485 19.0978C24.2408 18.9415 24.6599 18.867 25.081 18.8786C26.7779 18.9391 28.1231 20.3578 28.1241 22.0879C28.1248 23.8178 26.7811 25.238 25.0841 25.3003"
    fill="white"
  />
</svg>
