<svg xmlns="http://www.w3.org/2000/svg" fill="none" viewBox="0 0 52 24">
  <path
    fill="#F1F252"
    d="M12 20c0 1.53.58 2.93 1.54 4H4a4 4 0 0 1-4-4V4a4 4 0 0 1 4-4h9.54A5.97 5.97 0 0 0 12 4v2.01c-3.42.11-6 2.88-6 6.28 0 3.4 2.69 6.31 6 6.31V20Z"
  />
  <path
    fill="#F1F252"
    d="M11.88 10.99v.02l.12.14v4.91c-2.13-1.19-3.87-3.98-3.9-6.36 0-1.22.62-2.06 1.67-2.08.63-.03 1.36.2 2.23.6v2.77h-.12Z"
  />
  <path
    fill="#0ABF53"
    d="M26 20c0 1.53.58 2.93 1.54 4H18a4 4 0 0 1-4-4V4a4 4 0 0 1 4-4h9.54A5.97 5.97 0 0 0 26 4v2h-5.83v3H26v6.01h-.31a.7.7 0 0 1-.69-.69V10.5h-2.59A2.41 2.41 0 0 0 20 12.91v2.68A2.41 2.41 0 0 0 22.41 18H26v2Z"
  />
  <path
    fill="#6772E5"
    d="M48 0H32a4 4 0 0 0-4 4v16a4 4 0 0 0 4 4h16a4 4 0 0 0 4-4V4a4 4 0 0 0-4-4Zm-8 17.98c-.14.02-.29.02-.44.02l-.56-.02a8.78 8.78 0 0 1-3.05-.73v-3.14c.63.34 1.34.64 2.05.83a6.26 6.26 0 0 0 2 .2c.5-.07.83-.3.83-.78 0-.41-.33-.67-.83-.89-.29-.14-.64-.26-1-.4a10.2 10.2 0 0 1-1-.38c-1.14-.52-2.2-1.29-2.2-2.96s.83-2.74 2.2-3.31a6.25 6.25 0 0 1 2-.41l.27-.01c1.1 0 2.18.17 3.28.61v3.1c-1-.54-2.27-.85-3.28-.85l-.27.01c-.54.05-.85.26-.85.71 0 .38.34.62.85.83 1.43.59 4.19.96 4.2 3.87 0 2.23-1.69 3.57-4.2 3.7Z"
  />
  <path
    fill="#1C1B18"
    d="M8.1 9.7c.03 2.38 1.77 5.17 3.9 6.36v2.54c-3.31 0-6-2.82-6-6.31a6.13 6.13 0 0 1 6-6.28v2.21c-.87-.4-1.6-.63-2.23-.6-1.05.02-1.67.86-1.67 2.08Z"
  />
</svg>
