<svg viewBox="0 0 40 40" fill="none" xmlns="http://www.w3.org/2000/svg">
  <rect width="40" height="40" rx="12" fill="#00A1E0" />
  <path
    fill-rule="evenodd"
    clip-rule="evenodd"
    d="M17.651 12.135a4.907 4.907 0 0 1 3.55-1.523c1.852 0 3.457 1.029 4.321 2.562a5.967 5.967 0 0 1 2.439-.52c3.333 0 6.039 2.727 6.039 6.091 0 3.365-2.706 6.091-6.04 6.091-.407 0-.804-.04-1.193-.118a4.42 4.42 0 0 1-3.848 2.264 4.394 4.394 0 0 1-1.934-.445 5.035 5.035 0 0 1-4.63 3.066 5.029 5.029 0 0 1-4.723-3.292c-.316.066-.638.1-.96.1C8.088 26.41 6 24.29 6 21.688c0-1.749.94-3.272 2.336-4.095A5.436 5.436 0 0 1 13.33 10c1.76 0 3.333.838 4.321 2.14"
    fill="#fff"
  />
  <path
    fill-rule="evenodd"
    clip-rule="evenodd"
    d="M22.553 16.855c.054.01.108.022.16.038.012.005.043.02.03.057l-.124.34c-.01.026-.017.042-.07.026a.678.678 0 0 0-.216-.034.565.565 0 0 0-.175.025.337.337 0 0 0-.136.085.47.47 0 0 0-.114.173c-.051.149-.076.306-.083.353l-.002.013h.518c.044 0 .058.02.053.052l-.06.337c-.01.05-.054.048-.054.048h-.535l-.366 2.069a3.091 3.091 0 0 1-.142.545c-.057.15-.117.259-.211.363a.746.746 0 0 1-.3.21c-.113.04-.25.061-.398.061a.98.98 0 0 1-.386-.066c-.02-.007-.037-.033-.026-.065l.12-.33c.017-.042.06-.026.06-.026l.002.001c.027.012.047.02.085.028a.603.603 0 0 0 .321-.013.3.3 0 0 0 .149-.115.82.82 0 0 0 .113-.23c.036-.103.069-.237.097-.401l.364-2.031h-.359c-.043 0-.057-.02-.052-.053l.06-.337c.01-.05.054-.047.054-.047h.369l.02-.11c.055-.326.165-.574.326-.736.162-.164.394-.247.687-.247.074 0 .148.005.22.017Zm-7.137 3.598c.027 0 .046-.023.046-.05V16.94c0-.027-.019-.049-.046-.049h-.43c-.028 0-.047.022-.047.05v3.463c0 .027.02.05.046.05h.43Zm-5.33-.234c-.008-.008-.022-.021-.008-.059l.113-.316c.018-.053.06-.036.076-.026l.035.023c.018.011.035.023.06.037.334.211.642.213.74.213.248 0 .404-.133.404-.31v-.01c0-.194-.24-.268-.515-.352l-.06-.02c-.38-.107-.785-.264-.785-.743v-.01c0-.455.367-.773.893-.773h.058c.308 0 .607.09.823.221.02.012.039.035.028.065l-.118.315c-.02.054-.076.018-.076.018a1.659 1.659 0 0 0-.73-.187c-.221 0-.365.119-.365.28v.009c0 .187.245.268.53.36l.05.016c.376.118.78.284.78.739v.01c0 .491-.357.797-.932.797a1.71 1.71 0 0 1-.837-.196l-.037-.021a1.235 1.235 0 0 1-.123-.075c0-.002-.002-.003-.004-.005Zm8.406 0c-.009-.009-.023-.022-.008-.06h-.001l.113-.316c.017-.05.065-.032.075-.025l.02.013.075.046c.334.212.643.213.74.213.249 0 .404-.133.404-.31v-.01c0-.194-.237-.267-.514-.352l-.06-.019c-.38-.108-.785-.265-.785-.744v-.01c0-.454.367-.772.893-.772h.058c.308 0 .607.089.823.22.02.012.038.035.027.065-.009.029-.105.286-.116.315-.02.054-.076.018-.076.018a1.663 1.663 0 0 0-.73-.186c-.222 0-.366.118-.366.279v.009c0 .187.246.268.531.36l.05.016c.377.118.78.284.78.739v.01c0 .491-.358.797-.932.797a1.71 1.71 0 0 1-.837-.196l-.038-.021c-.041-.023-.082-.046-.122-.075 0-.002-.002-.003-.004-.005Zm5.579-.371c.101-.156.153-.375.153-.653v.001c0-.277-.051-.495-.153-.649-.101-.151-.253-.225-.467-.225-.214 0-.366.073-.465.225-.1.154-.152.372-.152.65 0 .277.051.497.152.652.1.153.252.227.465.227.213 0 .365-.075.467-.228Zm.414-1.584c.098.117.171.257.218.417.046.158.07.332.07.515 0 .184-.024.357-.07.516-.048.16-.121.3-.219.416a1.032 1.032 0 0 1-.368.278c-.146.067-.319.101-.514.101a1.24 1.24 0 0 1-.514-.1 1.035 1.035 0 0 1-.368-.279 1.154 1.154 0 0 1-.218-.416 1.817 1.817 0 0 1-.07-.516c0-.184.023-.357.07-.515.047-.16.12-.3.218-.417.098-.117.222-.211.368-.28.147-.068.32-.103.514-.103.196 0 .369.035.515.103.147.068.27.163.368.28Zm4.097 1.705s.045-.018.061.029l.119.325c.015.04-.02.057-.02.057a1.944 1.944 0 0 1-.679.121c-.415 0-.735-.119-.946-.356-.212-.235-.32-.557-.32-.954 0-.185.027-.358.079-.517a1.105 1.105 0 0 1 .62-.697c.152-.068.331-.102.533-.102a1.859 1.859 0 0 1 .68.105c.012.004.043.02.03.056-.03.086-.054.151-.08.22l-.038.107c-.018.05-.056.033-.056.033a1.61 1.61 0 0 0-.507-.072c-.236 0-.416.08-.532.234-.118.157-.183.36-.184.632-.001.299.073.519.206.656.132.136.317.205.548.205.094 0 .183-.006.263-.018.079-.013.153-.038.223-.064Zm.9-1.041h-.005.005Zm0 0h1.158a.795.795 0 0 0-.108-.383.503.503 0 0 0-.454-.236.516.516 0 0 0-.464.236.935.935 0 0 0-.132.383Zm1.408-.72c.065.072.166.227.207.38h.002c.098.344.057.643.05.693l-.001.006c-.005.042-.047.042-.047.042h-1.626c.01.246.069.42.188.54.118.116.304.19.556.19.352.002.52-.063.635-.107l.032-.013s.045-.016.06.029l.107.297c.021.05.004.067-.014.078-.1.056-.348.16-.817.162-.227 0-.426-.032-.59-.095a1.072 1.072 0 0 1-.408-.27 1.064 1.064 0 0 1-.236-.413 1.753 1.753 0 0 1-.073-.519c0-.183.024-.358.071-.517.047-.162.122-.303.22-.422.099-.12.224-.215.374-.285.149-.07.333-.104.536-.104.16 0 .318.032.465.094a.947.947 0 0 1 .309.235Zm-14.403.72h-.005.005Zm.132-.383a.937.937 0 0 0-.132.383h1.158a.797.797 0 0 0-.107-.383.503.503 0 0 0-.455-.236.517.517 0 0 0-.464.236Zm1.276-.336c.066.07.167.226.208.38a1.737 1.737 0 0 1 .05.698c-.005.042-.048.042-.048.042h-1.626c.01.246.07.42.189.54.117.116.304.19.555.19.352.002.52-.063.635-.107l.032-.013s.045-.016.061.029l.106.297c.021.05.004.067-.013.078-.101.056-.348.16-.817.162-.229 0-.426-.032-.59-.095a1.073 1.073 0 0 1-.409-.27 1.074 1.074 0 0 1-.234-.413 1.74 1.74 0 0 1-.074-.519c0-.183.024-.358.071-.517.048-.162.122-.303.22-.422.1-.12.225-.215.374-.285.15-.07.333-.104.536-.104.16 0 .318.032.465.094a.947.947 0 0 1 .309.235Zm-5.01 1.682c.021.033.03.046.094.097 0 0 .146.115.476.095.232-.014.438-.058.438-.058v-.738a3.297 3.297 0 0 0-.44-.038c-.332-.004-.473.118-.471.118-.098.069-.146.171-.146.313 0 .09.017.162.05.211Zm.487-1.053c.102 0 .187.003.253.008l.001.003s.129.012.268.032v-.069c0-.216-.045-.318-.134-.386-.09-.07-.226-.105-.401-.105 0 0-.395-.005-.707.164-.014.009-.027.014-.027.014s-.039.013-.053-.027l-.115-.308c-.018-.045.014-.065.014-.065.147-.114.5-.183.5-.183.118-.024.314-.04.436-.04.324 0 .574.075.745.224.171.15.258.391.258.716v1.482s.004.043-.036.053c0 0-.06.017-.114.029a9.62 9.62 0 0 1-.409.08c-.16.026-.326.04-.493.04-.158 0-.302-.014-.43-.043a.89.89 0 0 1-.33-.143.673.673 0 0 1-.212-.255.846.846 0 0 1-.074-.37c0-.142.029-.267.086-.375a.785.785 0 0 1 .236-.267 1.04 1.04 0 0 1 .338-.157c.126-.034.26-.052.4-.052Zm13.323-.846a.046.046 0 0 1-.003.017v-.007a28.57 28.57 0 0 1-.122.34c-.01.03-.028.048-.059.045 0 0-.093-.022-.178-.022a.789.789 0 0 0-.218.03.492.492 0 0 0-.2.121.61.61 0 0 0-.143.239 1.423 1.423 0 0 0-.053.426v1.214a.05.05 0 0 1-.05.049h-.425a.05.05 0 0 1-.05-.05v-2.417c0-.027.02-.05.047-.05h.415c.028 0 .047.023.047.05v.197a.72.72 0 0 1 .274-.202.806.806 0 0 1 .419-.068c.106.007.244.036.271.047a.045.045 0 0 1 .025.024.046.046 0 0 1 .003.017Z"
    fill="#00A1E0"
  />
</svg>
