<svg viewBox="0 0 40 40" fill="none" xmlns="http://www.w3.org/2000/svg">
  <path
    d="M0 12C0 5.37259 5.37258 0 12 0H28C34.6274 0 40 5.37258 40 12V28C40 34.6274 34.6274 40 28 40H12C5.37258 40 0 34.6274 0 28V12Z"
    fill="#6772E5"
  />
  <path
    d="M18.5779 15.956C18.5779 15.099 19.2834 14.7692 20.4521 14.7692C22.1276 14.7692 24.2441 15.2748 25.9197 16.1759V11.011C24.0898 10.2857 22.282 10 20.4521 10C15.9764 10 13 12.3297 13 16.22C13 22.2857 21.3779 21.3188 21.3779 23.9343C21.3779 24.9451 20.4961 25.2748 19.2614 25.2748C17.4316 25.2748 15.0945 24.5275 13.2425 23.5166V28.7474C15.2929 29.6265 17.3654 30 19.2614 30C23.8472 30 27 27.7364 27 23.8023C26.978 17.2529 18.5779 18.4176 18.5779 15.956Z"
    fill="white"
  />
</svg>
