<svg xmlns="http://www.w3.org/2000/svg" fill="none" viewBox="0 0 16 16">
  <rect width="16" height="16" fill="#006CFA" rx="4" />
  <g fill="#fff">
    <path
      d="M12.94 8.79c-.16 1.04-.65 1.99-1.4 2.75a4.92 4.92 0 0 1-2.75 1.4l-.01-.03-.02-.06-.03-.08a2.76 2.76 0 0 1-.1-.41V12.29l-.01-.05v-.02l-.01-.06-.01-.14V11.96l-.01-.17a3.22 3.22 0 0 1 3.21-3.22h.24l.14.02h.07l.04.02H12.36l.43.11.08.03.04.02h.01s0 .02.02.02Z"
    />
    <path
      d="m13 8.05-.25-.07h-.04l-.22-.05-.07-.01H12.33l-.08-.02c-.05 0-.12 0-.17-.02H11.78a3.93 3.93 0 0 0-3.91 4.13v.1l.02.17.01.08.01.07.02.09c.03.17.07.34.12.5v.02a4.92 4.92 0 0 1-3.04-1V11.83a6.8 6.8 0 0 1 6.78-6.79H12.01c.66.84 1 1.9.99 3.01Z"
      opacity=".6"
    />
    <path
      d="M11.37 4.3h-.12l-.18.02-.06.01h-.05l-.32.05-.23.04-.14.03c-.06 0-.1.02-.17.03l-.06.02-.12.03h-.05l-.12.04-.06.02c-.04 0-.07.02-.1.03a.62.62 0 0 0-.07.02l-.12.04h-.03l-.16.07-.17.06a.33.33 0 0 0-.1.05l-.1.03-.16.07-.3.15c-.12.06-.24.12-.36.2l-.12.07-.14.08-.13.08-.11.08-.1.09-.26.18-.1.08-.17.15-.13.11-.1.1-.32.31a.89.89 0 0 0-.09.1l-.12.13-.14.17-.08.1-.19.25-.08.11-.08.12-.08.12c-.02.05-.06.09-.09.14L5.32 8l-.2.36a4.45 4.45 0 0 0-.2.46l-.05.1-.04.1c-.03.05-.04.11-.06.17l-.06.16-.01.03-.04.11c0 .03-.02.05-.03.07l-.02.1-.02.06-.04.13v.04l-.03.12-.02.06c0 .05-.03.1-.04.17a4.28 4.28 0 0 0-.06.38l-.04.32-.01.04-.01.06-.02.18v.12a4.97 4.97 0 0 1 .06-6.79l.08-.09.1-.08A5 5 0 0 1 8 3h.06c1.23.02 2.4.47 3.3 1.3Z"
      opacity=".3"
    />
  </g>
</svg>
