<svg fill="currentColor" viewBox="0 0 16 16" xmlns="http://www.w3.org/2000/svg">
  <path
    fill-rule="evenodd"
    clip-rule="evenodd"
    d="M10.5527 1.79915C10.9397 1.40544 11.5738 1.3998 11.9678 1.78645L15.7002 5.45345C15.7013 5.45449 15.7021 5.4563 15.7031 5.45735C15.7143 5.46838 15.7247 5.47999 15.7354 5.49153C15.7475 5.5048 15.7601 5.51772 15.7715 5.53157C15.8431 5.61836 15.8992 5.71778 15.9385 5.82552C15.9615 5.88859 15.9773 5.95397 15.9873 6.02083C15.9944 6.06873 16 6.11745 16 6.16731C16 6.44665 15.8849 6.69877 15.7002 6.8802L11.9678 10.5472C11.5737 10.9342 10.9397 10.9285 10.5527 10.5345C10.1663 10.1406 10.1719 9.50733 10.5654 9.12044L12.5537 7.16731H4.7334C4.00276 7.16731 3.30521 7.45234 2.79395 7.95442C2.28332 8.45593 2.00004 9.13299 2 9.8343C2.00009 10.5355 2.2835 11.2118 2.79395 11.7132C3.30522 12.2154 4.00272 12.5003 4.7334 12.5003H5.66699C6.21897 12.5005 6.66673 12.9484 6.66699 13.5003C6.66699 14.0525 6.21913 14.5001 5.66699 14.5003H4.7334C3.4838 14.5003 2.28158 14.0131 1.39258 13.14C0.503207 12.2663 8.77671e-05 11.0776 0 9.8343C4.12721e-05 8.59082 0.503017 7.40135 1.39258 6.52766C2.28157 5.65459 3.48383 5.16731 4.7334 5.16731H12.5547L10.5654 3.21419C10.1717 2.82717 10.1658 2.19308 10.5527 1.79915Z"
  />
</svg>
