<svg width="16" height="16" viewBox="0 0 16 16" fill="none" xmlns="http://www.w3.org/2000/svg">
  <path
    fill-rule="evenodd"
    clip-rule="evenodd"
    d="M0 1V9C0 9.6 0.5 10 1 10H12.8L10.3 12.3C10.1 12.5 10 12.7 10 13C10 13.3 10.1 13.5 10.3 13.7C10.3 13.8 10.5 13.9 10.6 13.9C10.7 13.9 10.9 13.9 11 13.9C11.1 13.9 11.3 13.9 11.4 13.9C11.5 13.9 11.6 13.8 11.7 13.7L15.6 10.1C15.9 9.8 16 9.4 16 9C16 8.6 15.8 8.2 15.6 7.9L11.7 4.3C11.5 4.1 11.2 4 11 4C10.8 4 10.5 4.1 10.3 4.3C10.3 4.3 10.1 4.5 10.1 4.6C10.1 4.7 10.1 4.8 10.1 5C10.1 5.2 10.1 5.3 10.1 5.4C10.1 5.5 10.2 5.6 10.3 5.7L12.8 8H2V1C2 0.4 1.6 0 1 0C0.5 0 0 0.4 0 1Z"
    fill="#66758F"
  />
</svg>
