<svg xmlns="http://www.w3.org/2000/svg" fill="currentColor" viewBox="0 0 16 16">
  <path
    fill-rule="evenodd"
    d="M8 16A8 8 0 1 0 8 0a8 8 0 0 0 0 16ZM4.08 7.59a.94.94 0 0 1 .23-.33.98.98 0 0 1 .7-.29c.26 0 .52.1.7.29L7 8.76V5a.99.99 0 0 1 1-1 .99.99 0 0 1 1 1v3.75l1.29-1.48a.98.98 0 0 1 .7-.29c.26 0 .52.1.7.29.1.09.17.2.22.33.05.13.08.26.08.39a1.05 1.05 0 0 1-.3.72l-2.64 2.85a1.5 1.5 0 0 1-2.12 0L4.29 8.71a.94.94 0 0 1-.23-.33 1.05 1.05 0 0 1-.08-.39c0-.13.03-.27.08-.39l.02-.01Z"
    clip-rule="evenodd"
  />
</svg>
