<svg fill="currentColor" viewBox="0 0 16 16" xmlns="http://www.w3.org/2000/svg">
  <path
    d="M3.245 7.00001H15C15.2652 7.00001 15.5196 7.10537 15.7071 7.29291C15.8946 7.48044 16 7.7348 16 8.00001C16 8.26523 15.8946 8.51958 15.7071 8.70712C15.5196 8.89466 15.2652 9.00001 15 9.00001H3.25L5.75 11.295C5.93625 11.4824 6.04079 11.7358 6.04079 12C6.04079 12.2642 5.93625 12.5177 5.75 12.705C5.65679 12.801 5.54526 12.8774 5.42201 12.9295C5.29876 12.9816 5.16631 13.0085 5.0325 13.0085C4.89868 13.0085 4.76623 12.9816 4.64298 12.9295C4.51974 12.8774 4.40821 12.801 4.315 12.705L0.444997 9.06001C0.164096 8.77876 0.00631714 8.39751 0.00631714 8.00001C0.00631714 7.60251 0.164096 7.22126 0.444997 6.94001L4.295 3.29001C4.4866 3.10221 4.7442 2.99701 5.0125 2.99701C5.28079 2.99701 5.53839 3.10221 5.73 3.29001C5.82297 3.38289 5.89673 3.49317 5.94706 3.61457C5.99738 3.73597 6.02328 3.8661 6.02328 3.99751C6.02328 4.12893 5.99738 4.25906 5.94706 4.38045C5.89673 4.50185 5.82297 4.61214 5.73 4.70501L3.245 7.00001Z"
  />
</svg>
