<svg viewBox="0 0 16 16" xmlns="http://www.w3.org/2000/svg">
  <path
    fill="currentColor"
    clip-rule="evenodd"
    d="M3.24662 12.998L4.72736 14.2929C5.12256 14.6839 5.12256 15.3158 4.72736 15.7068C4.33117 16.0977 3.68984 16.0977 3.29465 15.7068L0.444222 13.06C0.158079 12.7761 0 12.4011 0 11.9991C0 11.5982 0.158079 11.2212 0.444222 10.9392L3.29465 8.29247C3.68984 7.90151 4.33117 7.90151 4.72736 8.29247C5.12256 8.68244 5.12256 9.31538 4.72736 9.70634L3.24862 10.9982H14.9995C15.5518 10.9982 16 11.4462 16 11.9981C16 12.5501 15.5518 12.998 14.9995 12.998H3.24662ZM12.7534 4.99878L11.2726 6.29366C10.8774 6.68462 10.8774 7.31656 11.2726 7.70753C11.6688 8.09849 12.3102 8.09849 12.7054 7.70753L15.5558 5.06078C15.8419 4.7768 16 4.40184 16 3.99988C16 3.59891 15.8419 3.22195 15.5558 2.93997L12.7054 0.293223C12.3102 -0.0977408 11.6688 -0.0977408 11.2726 0.293223C10.8774 0.683186 10.8774 1.31613 11.2726 1.70709L12.7514 2.99897H1.0005C0.448224 2.99897 0 3.44693 0 3.99888C0 4.55082 0.448224 4.99878 1.0005 4.99878H12.7534Z"
  />
</svg>
