<svg fill="currentColor" viewBox="0 0 16 16" xmlns="http://www.w3.org/2000/svg">
  <path
    fill-rule="evenodd"
    clip-rule="evenodd"
    d="M4.03223 1.78645C4.42619 1.39979 5.06033 1.40545 5.44727 1.79915C5.83417 2.19309 5.82738 2.82717 5.43359 3.21418L3.44434 5.16731H11.2666C12.5162 5.16731 13.7184 5.65459 14.6074 6.52766C15.497 7.40134 16 8.59082 16 9.8343C15.9999 11.0776 15.4968 12.2663 14.6074 13.14C13.7184 14.0131 12.5162 14.5003 11.2666 14.5003H10.333C9.78087 14.5001 9.33301 14.0525 9.33301 13.5003C9.33327 12.9484 9.78104 12.5005 10.333 12.5003H11.2666C11.9973 12.5003 12.6948 12.2154 13.2061 11.7132C13.7165 11.2118 13.9999 10.5355 14 9.8343C14 9.13299 13.7167 8.45592 13.2061 7.95442C12.6948 7.45234 11.9972 7.16731 11.2666 7.16731H3.44531L5.43359 9.12044C5.82748 9.50729 5.83384 10.1404 5.44727 10.5345C5.06028 10.9285 4.42625 10.9342 4.03223 10.5472L0.298828 6.8802C0.295214 6.87665 0.29164 6.87306 0.288086 6.86946C0.222334 6.80278 0.166154 6.72683 0.121094 6.64387C0.116792 6.63593 0.113458 6.62751 0.109375 6.61946C0.0402653 6.48355 0 6.33023 0 6.16731C8.22828e-06 6.1175 0.00467796 6.06869 0.0117188 6.02083C0.0216399 5.9539 0.038567 5.88866 0.0615234 5.82551C0.0754538 5.78729 0.0910769 5.75007 0.109375 5.71419C0.157859 5.6187 0.221038 5.52988 0.298828 5.45344L4.03223 1.78645Z"
  />
</svg>
