<svg fill="currentColor" viewBox="0 0 16 16" xmlns="http://www.w3.org/2000/svg">
  <path
    d="M15.555 6.93999L11.705 3.29499C11.6118 3.19898 11.5003 3.12265 11.377 3.07053C11.2538 3.0184 11.1213 2.99155 10.9875 2.99155C10.8537 2.99155 10.7212 3.0184 10.598 3.07053C10.4747 3.12265 10.3632 3.19898 10.27 3.29499C10.0837 3.48235 9.97921 3.7358 9.97921 3.99999C9.97921 4.26417 10.0837 4.51763 10.27 4.70499L12.77 6.99999H1C0.734784 6.99999 0.48043 7.10535 0.292893 7.29288C0.105357 7.48042 0 7.73477 0 7.99999C0 8.26521 0.105357 8.51956 0.292893 8.7071C0.48043 8.89463 0.734784 8.99999 1 8.99999H12.755L10.255 11.295C10.162 11.3879 10.0883 11.4981 10.0379 11.6195C9.98762 11.7409 9.96171 11.8711 9.96171 12.0025C9.96171 12.1339 9.98762 12.264 10.0379 12.3854C10.0883 12.5068 10.162 12.6171 10.255 12.71C10.4466 12.8978 10.7042 13.003 10.9725 13.003C11.2408 13.003 11.4984 12.8978 11.69 12.71L15.54 9.05999C15.8209 8.77874 15.9787 8.39749 15.9787 7.99999C15.9787 7.60249 15.8209 7.22124 15.54 6.93999H15.555Z"
  />
</svg>
