<svg fill="currentColor" viewBox="0 0 16 16" xmlns="http://www.w3.org/2000/svg">
  <path
    d="M12.705 10.27C12.5176 10.0838 12.2642 9.97921 12 9.97921C11.7358 9.97921 11.4824 10.0838 11.295 10.27L8.99999 12.75V1C8.99999 0.734784 8.89463 0.48043 8.7071 0.292893C8.51956 0.105357 8.26521 0 7.99999 0C7.73477 0 7.48042 0.105357 7.29288 0.292893C7.10535 0.48043 6.99999 0.734784 6.99999 1V12.755L4.70499 10.255C4.51763 10.0688 4.26417 9.96421 3.99999 9.96421C3.7358 9.96421 3.48235 10.0688 3.29499 10.255C3.19898 10.3482 3.12265 10.4597 3.07053 10.583C3.0184 10.7062 2.99155 10.8387 2.99155 10.9725C2.99155 11.1063 3.0184 11.2388 3.07053 11.362C3.12265 11.4853 3.19898 11.5968 3.29499 11.69L6.93999 15.54C7.22124 15.8209 7.60249 15.9787 7.99999 15.9787C8.39749 15.9787 8.77874 15.8209 9.05999 15.54L12.705 11.69C12.7987 11.597 12.8731 11.4864 12.9239 11.3646C12.9746 11.2427 13.0008 11.112 13.0008 10.98C13.0008 10.848 12.9746 10.7173 12.9239 10.5954C12.8731 10.4736 12.7987 10.363 12.705 10.27Z"
  />
</svg>
