<svg fill="currentColor" viewBox="0 0 16 16" xmlns="http://www.w3.org/2000/svg">
  <path
    d="M12.6895 4.29037L9.05349 0.438853C8.77294 0.157841 8.39263 0 7.9961 0C7.59958 0 7.21927 0.157841 6.93872 0.438853L3.30269 4.29037C3.20692 4.38362 3.13078 4.4952 3.07878 4.61849C3.02679 4.74179 3 4.87429 3 5.00816C3 5.14203 3.02679 5.27453 3.07878 5.39783C3.13078 5.52112 3.20692 5.6327 3.30269 5.72594C3.4896 5.91227 3.74242 6.01685 4.00596 6.01685C4.26949 6.01685 4.52232 5.91227 4.70922 5.72594L6.99857 3.24496V14.9996C6.99857 15.2649 7.10367 15.5194 7.29074 15.707C7.47781 15.8946 7.73154 16 7.9961 16C8.26067 16 8.5144 15.8946 8.70147 15.707C8.88854 15.5194 8.99364 15.2649 8.99364 14.9996V3.23996L11.283 5.74095C11.4699 5.92727 11.7227 6.03186 11.9863 6.03186C12.2498 6.03186 12.5026 5.92727 12.6895 5.74095C12.7876 5.64749 12.8657 5.535 12.9191 5.41031C12.9725 5.28562 13 5.15135 13 5.01566C13 4.87997 12.9725 4.7457 12.9191 4.62101C12.8657 4.49633 12.7876 4.38383 12.6895 4.29037Z"
  />
</svg>
