<svg fill="currentColor" viewBox="0 0 16 16" xmlns="http://www.w3.org/2000/svg">
  <path
    fill-rule="evenodd"
    clip-rule="evenodd"
    d="M2 8.0303C2 4.69986 4.69986 2 8.0303 2C11.1033 2 12.4935 2.97016 13.1886 4.02129C13.9419 5.16042 14.0606 6.64595 14.0606 8.0303V9.24242C14.0606 9.76127 13.6401 10.1818 13.1212 10.1818C12.6024 10.1818 12.1818 9.76127 12.1818 9.24242V4.87879C12.1818 4.3265 11.7341 3.87879 11.1818 3.87879C10.7559 3.87879 10.3922 4.14504 10.248 4.52017C9.60646 4.11395 8.84584 3.87878 8.0303 3.87878C5.73751 3.87878 3.87878 5.73751 3.87878 8.0303C3.87878 10.3231 5.73751 12.1818 8.0303 12.1818C9.11177 12.1818 10.0967 11.7683 10.8355 11.0907C11.3744 11.7563 12.1981 12.1818 13.1212 12.1818C14.7446 12.1818 16.0606 10.8658 16.0606 9.24242V8.0303C16.0606 6.62677 15.9672 4.59715 14.8568 2.91811C13.6883 1.15105 11.5633 0 8.0303 0C3.59529 0 0 3.59529 0 8.0303C0 12.4654 3.5953 16.0606 8.0303 16.0606C8.58259 16.0606 9.0303 15.6129 9.0303 15.0606C9.0303 14.5083 8.58259 14.0606 8.0303 14.0606C4.69986 14.0606 2 11.3608 2 8.0303ZM5.87878 8.0303C5.87878 6.84207 6.84207 5.87878 8.0303 5.87878C9.21852 5.87878 10.1818 6.84207 10.1818 8.0303C10.1818 9.21852 9.21852 10.1818 8.0303 10.1818C6.84207 10.1818 5.87878 9.21852 5.87878 8.0303Z"
  />
</svg>
