<svg fill="currentColor" viewBox="0 0 16 16" xmlns="http://www.w3.org/2000/svg">
  <path
    fill-rule="evenodd"
    clip-rule="evenodd"
    d="M6.79509 3.73498L8.0219 2.54498C8.54294 2.05121 9.2339 1.77593 9.95225 1.77593C10.6706 1.77593 11.3616 2.05121 11.8826 2.54498C12.1241 2.77812 12.3162 3.05741 12.4474 3.36622C12.5786 3.67503 12.6462 4.00704 12.6462 4.34248C12.6462 4.67793 12.5786 5.00994 12.4474 5.31875C12.3162 5.62756 12.1241 5.90685 11.8826 6.13998L10.3804 7.63998L11.4069 8.75998L11.5671 8.93498L13.0944 7.43498C13.5099 7.0344 13.8404 6.55435 14.0662 6.02346C14.2919 5.49258 14.4082 4.92173 14.4082 4.34498C14.4082 3.76823 14.2919 3.19739 14.0662 2.6665C13.8404 2.13562 13.5099 1.65557 13.0944 1.25498C12.2553 0.4513 11.1375 0.00256348 9.97478 0.00256348C8.81205 0.00256348 7.69431 0.4513 6.85518 1.25498L5.60834 2.43998L6.74502 3.67498L6.79509 3.73498ZM11.8075 10.65L13.1645 12.15L14.2411 13.325C14.3721 13.4679 14.4586 13.6458 14.4903 13.837C14.5219 14.0282 14.4972 14.2244 14.4192 14.4018C14.3413 14.5792 14.2134 14.7302 14.0511 14.8364C13.8887 14.9426 13.699 14.9994 13.505 15C13.3656 15.0003 13.2277 14.9715 13.1001 14.9156C12.9725 14.8596 12.858 14.7777 12.7639 14.675L11.447 13.24L9.99982 11.665L9.1736 10.785L5.34796 6.61498L4.23131 5.39999L2.87431 3.89999L1.76767 2.67498C1.58953 2.47916 1.49636 2.22083 1.50856 1.95656C1.52076 1.69229 1.63734 1.44361 1.83277 1.26498C1.87976 1.21921 1.93184 1.17895 1.988 1.14498L2.02806 1.07998L2.14323 1.02498H2.21333L2.32349 0.999985H2.40361H2.48874H2.62394L2.70405 1.04998L2.81922 1.08498H2.89434L3.01451 1.15498L3.06959 1.18498C3.1271 1.22485 3.17927 1.2719 3.22482 1.32498L4.5668 2.78499L5.99391 4.35499L6.82013 5.21999L10.6458 9.38999L11.8075 10.65ZM4.4223 9.65446C4.40449 8.97713 4.65425 8.31999 5.11762 7.825L6.29937 9.115C6.18472 9.26983 6.13107 9.46133 6.14861 9.65309C6.16616 9.84484 6.25367 10.0235 6.39451 10.155C6.53252 10.2797 6.70262 10.3636 6.88572 10.3971C7.06881 10.4307 7.25765 10.4126 7.43104 10.345L8.43251 11.435L8.64783 11.67C8.1404 12.0424 7.51761 12.224 6.88921 12.1829C6.26081 12.1417 5.66713 11.8804 5.21276 11.445C4.72403 10.975 4.4401 10.3318 4.4223 9.65446ZM14.9981 8.76911C15.1022 8.81693 15.1956 8.88526 15.2726 8.96999C15.4282 9.14644 15.5094 9.37617 15.4991 9.61106C15.4889 9.84595 15.388 10.0677 15.2175 10.23L13.9056 11.5L12.7339 10.2L14.0458 8.93499C14.1276 8.85479 14.2247 8.7919 14.3314 8.75009C14.4381 8.70829 14.5521 8.68842 14.6667 8.69169C14.7812 8.69496 14.894 8.72129 14.9981 8.76911ZM9.85461 13C8.99196 13.8015 7.8553 14.2437 6.67698 14.2363C5.49867 14.2289 4.36769 13.7723 3.51525 12.96C3.10574 12.571 2.77969 12.1029 2.55689 11.5841C2.3341 11.0654 2.21922 10.5069 2.21922 9.94249C2.21922 9.37808 2.3341 8.81956 2.55689 8.30084C2.77969 7.78212 3.10574 7.31403 3.51525 6.92499L3.92085 6.49999L3.49022 6.05499L2.7341 5.22499L2.3285 5.61999C1.75004 6.1794 1.29009 6.8492 0.975978 7.5896C0.661865 8.33 0.5 9.1259 0.5 9.92999C0.5 10.7341 0.661865 11.53 0.975978 12.2704C1.29009 13.0108 1.75004 13.6806 2.3285 14.24C3.49821 15.3618 5.05509 15.9916 6.67693 15.9991C8.29876 16.0065 9.86138 15.391 11.0414 14.28L10.7109 13.915L9.85461 13ZM7.98685 5.02499L8.27728 4.74499C8.35895 4.66557 8.45576 4.60334 8.56198 4.56199C8.66819 4.52065 8.78164 4.50102 8.8956 4.50429C9.00955 4.50755 9.12169 4.53364 9.22535 4.581C9.32902 4.62836 9.4221 4.69603 9.49908 4.77999C9.65843 4.95335 9.7439 5.18187 9.73736 5.41709C9.73081 5.65231 9.63277 5.87574 9.46403 6.03999L9.1736 6.31999L7.98685 5.02499Z"
  />
</svg>
