<svg fill="currentColor" viewBox="0 0 16 16" xmlns="http://www.w3.org/2000/svg">
  <path
    fill-rule="evenodd"
    clip-rule="evenodd"
    d="M14.7071 4.7071C14.5196 4.89464 14.2652 5 14 5H2C1.73479 5 1.48043 4.89464 1.29289 4.7071C1.10536 4.51957 1 4.26521 1 4C0.999744 3.80427 1.05693 3.61277 1.16447 3.44923C1.27202 3.28569 1.42519 3.15731 1.605 3.08L7.21 0.159998C7.45956 0.0526979 7.72836 -0.00263977 8 -0.00263977C8.27165 -0.00263977 8.54045 0.0526979 8.79 0.159998L14.385 3.08C14.4289 3.09769 14.4682 3.12504 14.5 3.16C14.6483 3.24552 14.7721 3.36766 14.8596 3.51474C14.9472 3.66181 14.9955 3.8289 15 4C15 4.26521 14.8946 4.51957 14.7071 4.7071ZM11 7V12C11 12.2652 11.1054 12.5196 11.2929 12.7071C11.4804 12.8946 11.7348 13 12 13C12.2652 13 12.5196 12.8946 12.7071 12.7071C12.8946 12.5196 13 12.2652 13 12V7C13 6.73478 12.8946 6.48043 12.7071 6.29289C12.5196 6.10536 12.2652 6 12 6C11.7348 6 11.4804 6.10536 11.2929 6.29289C11.1054 6.48043 11 6.73478 11 7ZM14.7071 14.2929C14.5196 14.1054 14.2652 14 14 14H2C1.73478 14 1.48043 14.1054 1.29289 14.2929C1.10536 14.4804 1 14.7348 1 15C1 15.2652 1.10536 15.5196 1.29289 15.7071C1.48043 15.8946 1.73478 16 2 16H14C14.2652 16 14.5196 15.8946 14.7071 15.7071C14.8946 15.5196 15 15.2652 15 15C15 14.7348 14.8946 14.4804 14.7071 14.2929ZM7 12V7C7 6.73478 7.10536 6.48043 7.29289 6.29289C7.48043 6.10536 7.73478 6 8 6C8.26522 6 8.51957 6.10536 8.70711 6.29289C8.89464 6.48043 9 6.73478 9 7V12C9 12.2652 8.89464 12.5196 8.70711 12.7071C8.51957 12.8946 8.26522 13 8 13C7.73478 13 7.48043 12.8946 7.29289 12.7071C7.10536 12.5196 7 12.2652 7 12ZM3 7V12C3 12.2652 3.10536 12.5196 3.29289 12.7071C3.48043 12.8946 3.73478 13 4 13C4.26522 13 4.51957 12.8946 4.70711 12.7071C4.89464 12.5196 5 12.2652 5 12V7C5 6.73478 4.89464 6.48043 4.70711 6.29289C4.51957 6.10536 4.26522 6 4 6C3.73478 6 3.48043 6.10536 3.29289 6.29289C3.10536 6.48043 3 6.73478 3 7Z"
  />
</svg>
