<svg fill="currentColor" viewBox="0 0 16 16" xmlns="http://www.w3.org/2000/svg">
  <path
    fill-rule="evenodd"
    clip-rule="evenodd"
    d="M14.9944 14C15.4273 14.0026 15.8127 13.726 15.949 13.315C16.0844 12.907 15.944 12.458 15.6002 12.2C14.5906 11.4469 13.9973 10.2598 14.0008 9V6C14.0008 2.68629 11.3155 0 8.00304 0C4.69058 0 2.00531 2.68629 2.00531 6V9C2.00579 10.2605 1.41051 11.4471 0.399913 12.2C0.055699 12.4583 -0.0847009 12.9079 0.0513617 13.3162C0.187424 13.7246 0.569418 14 0.999686 14H5.99779C5.99779 15.1046 6.89289 16 7.99704 16C9.10119 16 9.99628 15.1046 9.99628 14H14.9944ZM12.1665 6.00499V9.00499C12.1668 10.0623 12.4554 11.0995 13.0011 12.005H3.00493C3.54959 11.0992 3.83745 10.0621 3.83762 9.00499V6.00499C3.92258 3.76565 5.76194 1.99412 8.00204 1.99412C10.2421 1.99412 12.0815 3.76565 12.1665 6.00499Z"
  />
</svg>
