<svg viewBox="0 0 14 16" fill="currentColor" xmlns="http://www.w3.org/2000/svg">
  <path
    fill-rule="evenodd"
    clip-rule="evenodd"
    d="M3 2.99939H2V13.9909H12V2.99939H11C10.9996 4.10461 10.1044 4.99804 9 4.99804H5C3.89556 4.99804 3.00037 4.10461 3 2.99939ZM11 0.99939H13C13.5523 0.99939 14 1.4471 14 1.99939V13.9916C14 15.0971 13.1047 15.9909 12 15.9909H2C0.895329 15.9909 0 15.0971 0 13.9916V1.99939C0 1.4471 0.447715 0.99939 1 0.99939H3C3.00033 0.447385 3.44792 0 4 0H10C10.5521 0 10.9997 0.447385 11 0.99939ZM5 2H9V2.99804H5V2ZM3 7.99731C3 7.44503 3.44772 6.99731 4 6.99731H5C5.55228 6.99731 6 7.44503 6 7.99731C6 8.5496 5.55228 8.99731 5 8.99731H4C3.44772 8.99731 3 8.5496 3 7.99731ZM8 6.99731C7.44772 6.99731 7 7.44503 7 7.99731C7 8.5496 7.44772 8.99731 8 8.99731H10C10.5523 8.99731 11 8.5496 11 7.99731C11 7.44503 10.5523 6.99731 10 6.99731H8ZM8 9.99731C7.44772 9.99731 7 10.445 7 10.9973C7 11.5496 7.44772 11.9973 8 11.9973H10C10.5523 11.9973 11 11.5496 11 10.9973C11 10.445 10.5523 9.99731 10 9.99731H8ZM4 9.99731C3.44772 9.99731 3 10.445 3 10.9973C3 11.5496 3.44772 11.9973 4 11.9973H5C5.55228 11.9973 6 11.5496 6 10.9973C6 10.445 5.55228 9.99731 5 9.99731H4Z"
  />
</svg>
