<svg viewBox="0 0 16 16" fill="none" xmlns="http://www.w3.org/2000/svg">
<path d="M9 0C10.1935 0 11.3377 0.474446 12.1816 1.31836C13.0256 2.16227 13.5 3.30653 13.5 4.5C13.5 5.65866 13.0512 6.76937 12.2529 7.60547C12.5893 7.80013 12.9021 8.03878 13.1816 8.31836C14.0256 9.16227 14.5 10.3065 14.5 11.5C14.5 12.6935 14.0256 13.8377 13.1816 14.6816C12.3377 15.5256 11.1935 16 10 16H3C2.44772 16 2 15.5523 2 15V1C2 0.447715 2.44772 0 3 0H9ZM4 9V14H10C10.663 14 11.2987 13.7364 11.7676 13.2676C12.2364 12.7987 12.5 12.163 12.5 11.5C12.5 10.837 12.2364 10.2013 11.7676 9.73242C11.2987 9.26358 10.663 9 10 9H4ZM4 7H9C9.66304 7 10.2987 6.73642 10.7676 6.26758C11.2364 5.79874 11.5 5.16304 11.5 4.5C11.5 3.83696 11.2364 3.20126 10.7676 2.73242C10.2987 2.26358 9.66304 2 9 2H4V7Z" fill="currentColor"/>
</svg>
