<svg viewBox="0 0 16 16" fill="currentColor" xmlns="http://www.w3.org/2000/svg">
  <path
    d="M16 3.42806C16 3.38806 15.98 3.34806 15.98 3.30806C15.97 3.23806 15.96 3.16806 15.94 3.10806C15.92 3.04806 15.89 2.99806 15.86 2.93806C15.83 2.87806 15.8 2.82806 15.75 2.77806C15.7 2.72806 15.65 2.68806 15.6 2.64806C15.57 2.61806 15.54 2.58806 15.51 2.56806C15.47 2.54806 15.44 2.53806 15.4 2.51806C13.11 1.23806 10.33 1.16806 8 2.29806C5.67 1.16806 2.9 1.23806 0.61 2.50806C0.57 2.52806 0.54 2.53806 0.5 2.55806C0.46 2.57806 0.44 2.61806 0.41 2.63806C0.35 2.68806 0.3 2.72806 0.25 2.77806C0.21 2.82806 0.18 2.87806 0.14 2.93806C0.12 2.98806 0.09 3.03806 0.07 3.09806C0.04 3.16806 0.03 3.23806 0.02 3.29806C0.02 3.34806 0 3.37806 0 3.42806V13.4981C0 13.5181 0.01 13.5381 0.01 13.5581C0.01 13.6281 0.03 13.6881 0.05 13.7481C0.07 13.8181 0.08 13.8781 0.11 13.9381C0.12 13.9581 0.12 13.9781 0.13 13.9981C0.15 14.0381 0.19 14.0581 0.21 14.0881C0.25 14.1481 0.29 14.1981 0.35 14.2481C0.4 14.2881 0.45 14.3181 0.51 14.3481C0.57 14.3781 0.62 14.4081 0.68 14.4281C0.75 14.4481 0.81 14.4581 0.88 14.4681C0.92 14.4781 0.96 14.4981 1 14.4981C1.02 14.4981 1.04 14.4881 1.06 14.4881C1.13 14.4881 1.19 14.4681 1.25 14.4481C1.32 14.4281 1.38 14.4181 1.44 14.3881C1.46 14.3781 1.48 14.3781 1.5 14.3681C3.35 13.3081 5.65 13.3081 7.5 14.3681C7.52 14.3781 7.55 14.3881 7.57 14.3981C7.6 14.4081 7.62 14.4181 7.65 14.4281C7.77 14.4681 7.88 14.4981 7.99 14.4981C7.99 14.4981 7.99 14.4981 8 14.4981C8.01 14.4981 8 14.4981 8.01 14.4981C8.12 14.4981 8.24 14.4681 8.35 14.4281C8.38 14.4181 8.41 14.4081 8.43 14.3981C8.45 14.3881 8.48 14.3781 8.5 14.3681C10.35 13.3081 12.65 13.3081 14.5 14.3681C14.52 14.3781 14.55 14.3881 14.57 14.3981C14.6 14.4081 14.62 14.4181 14.65 14.4281C14.77 14.4681 14.88 14.4981 15 14.4981C15.12 14.4981 15.23 14.4681 15.34 14.4281C15.37 14.4181 15.39 14.4081 15.42 14.3981C15.52 14.3481 15.62 14.2881 15.7 14.2081L15.71 14.1981C15.77 14.1381 15.82 14.0781 15.86 14.0081C15.87 13.9881 15.87 13.9681 15.88 13.9481C15.91 13.8881 15.93 13.8281 15.94 13.7581C15.96 13.6881 15.98 13.6281 15.98 13.5581C15.98 13.5381 15.99 13.5181 15.99 13.4981V3.42806H16ZM2 11.9881V4.03806C3.59 3.31806 5.41 3.31806 7 4.03806V11.9681C5.38 11.4481 3.62 11.4581 2 11.9881ZM9 11.9781V4.03806C10.58 3.31806 12.42 3.31806 14 4.03806V11.9781C12.38 11.4581 10.62 11.4481 9 11.9781Z"
  />
</svg>
