<svg fill="currentColor" viewBox="0 0 16 16" xmlns="http://www.w3.org/2000/svg">
  <path
    fill-rule="evenodd"
    clip-rule="evenodd"
    d="M7.60358 0.0848394C7.85593 -0.0282798 8.14456 -0.0282798 8.3969 0.0848394L15.4061 3.22688C15.5311 3.27943 15.6427 3.35743 15.7346 3.45438C15.8993 3.62817 16.0002 3.86289 16.0002 4.12119V11.8572C16.0014 11.909 15.9983 11.9606 15.9912 12.0115C15.952 12.2983 15.7873 12.5452 15.5542 12.695C15.5076 12.725 15.4582 12.7511 15.4066 12.7729L8.3969 15.9151C8.14456 16.0282 7.85592 16.0282 7.60358 15.9151L0.593698 12.7728C0.54316 12.7515 0.494805 12.726 0.449062 12.6968C0.216331 12.5483 0.0512073 12.3033 0.010177 12.0181C0.00240214 11.9649 -0.000978836 11.9108 0.000244147 11.8565V4.12121V4.12119C0.000244147 3.86701 0.0980384 3.63567 0.258052 3.46275C0.284166 3.43451 0.31202 3.40775 0.3415 3.38267C0.41674 3.31858 0.501896 3.26579 0.594345 3.22691L7.60358 0.0848394ZM1.93964 5.61857V11.2508L7.03055 13.5329V7.90071L1.93964 5.61857ZM8.96994 7.9007L14.0609 5.61857V11.2508L8.96994 13.5329V7.9007ZM3.34051 4.12121L8.00024 6.21005L12.66 4.12121L8.00024 2.03237L3.34051 4.12121Z"
  />
</svg>
