<svg fill="currentColor" viewBox="0 0 16 16" xmlns="http://www.w3.org/2000/svg">
  <path
    d="M5 9C4.80222 9 4.60888 8.94135 4.44443 8.83147C4.27998 8.72159 4.15181 8.56541 4.07612 8.38268C4.00043 8.19996 3.98063 7.99889 4.01921 7.80491C4.0578 7.61093 4.15304 7.43275 4.29289 7.29289C4.43275 7.15304 4.61093 7.0578 4.80491 7.01921C4.99889 6.98063 5.19996 7.00043 5.38268 7.07612C5.56541 7.15181 5.72159 7.27998 5.83147 7.44443C5.94135 7.60888 6 7.80222 6 8C6 8.26522 5.89464 8.51957 5.70711 8.70711C5.51957 8.89464 5.26522 9 5 9ZM5 12C4.80222 12 4.60888 11.9414 4.44443 11.8315C4.27998 11.7216 4.15181 11.5654 4.07612 11.3827C4.00043 11.2 3.98063 10.9989 4.01921 10.8049C4.0578 10.6109 4.15304 10.4327 4.29289 10.2929C4.43275 10.153 4.61093 10.0578 4.80491 10.0192C4.99889 9.98063 5.19996 10.0004 5.38268 10.0761C5.56541 10.1518 5.72159 10.28 5.83147 10.4444C5.94135 10.6089 6 10.8022 6 11C6 11.2652 5.89464 11.5196 5.70711 11.7071C5.51957 11.8946 5.26522 12 5 12ZM8 9C7.80222 9 7.60888 8.94135 7.44443 8.83147C7.27998 8.72159 7.15181 8.56541 7.07612 8.38268C7.00043 8.19996 6.98063 7.99889 7.01921 7.80491C7.0578 7.61093 7.15304 7.43275 7.29289 7.29289C7.43275 7.15304 7.61093 7.0578 7.80491 7.01921C7.99889 6.98063 8.19996 7.00043 8.38268 7.07612C8.56541 7.15181 8.72159 7.27998 8.83147 7.44443C8.94135 7.60888 9 7.80222 9 8C9 8.26522 8.89464 8.51957 8.70711 8.70711C8.51957 8.89464 8.26522 9 8 9ZM8 12C7.80222 12 7.60888 11.9414 7.44443 11.8315C7.27998 11.7216 7.15181 11.5654 7.07612 11.3827C7.00043 11.2 6.98063 10.9989 7.01921 10.8049C7.0578 10.6109 7.15304 10.4327 7.29289 10.2929C7.43275 10.153 7.61093 10.0578 7.80491 10.0192C7.99889 9.98063 8.19996 10.0004 8.38268 10.0761C8.56541 10.1518 8.72159 10.28 8.83147 10.4444C8.94135 10.6089 9 10.8022 9 11C9 11.2652 8.89464 11.5196 8.70711 11.7071C8.51957 11.8946 8.26522 12 8 12ZM11 9C10.8022 9 10.6089 8.94135 10.4444 8.83147C10.28 8.72159 10.1518 8.56541 10.0761 8.38268C10.0004 8.19996 9.98063 7.99889 10.0192 7.80491C10.0578 7.61093 10.153 7.43275 10.2929 7.29289C10.4327 7.15304 10.6109 7.0578 10.8049 7.01921C10.9989 6.98063 11.2 7.00043 11.3827 7.07612C11.5654 7.15181 11.7216 7.27998 11.8315 7.44443C11.9414 7.60888 12 7.80222 12 8C12 8.26522 11.8946 8.51957 11.7071 8.70711C11.5196 8.89464 11.2652 9 11 9ZM11 12C10.8022 12 10.6089 11.9414 10.4444 11.8315C10.28 11.7216 10.1518 11.5654 10.0761 11.3827C10.0004 11.2 9.98063 10.9989 10.0192 10.8049C10.0578 10.6109 10.153 10.4327 10.2929 10.2929C10.4327 10.153 10.6109 10.0578 10.8049 10.0192C10.9989 9.98063 11.2 10.0004 11.3827 10.0761C11.5654 10.1518 11.7216 10.28 11.8315 10.4444C11.9414 10.6089 12 10.8022 12 11C12 11.2652 11.8946 11.5196 11.7071 11.7071C11.5196 11.8946 11.2652 12 11 12ZM14 4H12V5C12 5.26522 11.8946 5.51957 11.7071 5.70711C11.5196 5.89464 11.2652 6 11 6C10.7348 6 10.4804 5.89464 10.2929 5.70711C10.1054 5.51957 10 5.26522 10 5V4H6V5C6 5.26522 5.89464 5.51957 5.70711 5.70711C5.51957 5.89464 5.26522 6 5 6C4.73478 6 4.48043 5.89464 4.29289 5.70711C4.10536 5.51957 4 5.26522 4 5V4H2V14H14V4ZM14 16H2C1.46957 16 0.960859 15.7893 0.585786 15.4142C0.210714 15.0391 0 14.5304 0 14V4C0 3.46957 0.210714 2.96086 0.585786 2.58579C0.960859 2.21071 1.46957 2 2 2H4V1C4 0.734784 4.10536 0.48043 4.29289 0.292893C4.48043 0.105357 4.73478 0 5 0C5.26522 0 5.51957 0.105357 5.70711 0.292893C5.89464 0.48043 6 0.734784 6 1V2H10V1C10 0.734784 10.1054 0.48043 10.2929 0.292893C10.4804 0.105357 10.7348 0 11 0C11.2652 0 11.5196 0.105357 11.7071 0.292893C11.8946 0.48043 12 0.734784 12 1V2H14C14.5304 2 15.0391 2.21071 15.4142 2.58579C15.7893 2.96086 16 3.46957 16 4V14C16 14.5304 15.7893 15.0391 15.4142 15.4142C15.0391 15.7893 14.5304 16 14 16Z"
  />
</svg>
