<svg fill="currentColor" viewBox="0 0 16 16" xmlns="http://www.w3.org/2000/svg">
  <path
    fill-rule="evenodd"
    clip-rule="evenodd"
    d="M5 14C5.19667 14.0002 5.39139 13.9609 5.5726 13.8844C5.75382 13.808 5.91786 13.696 6.055 13.555L15.7 3.71499C15.7952 3.62185 15.8709 3.51063 15.9226 3.38785C15.9743 3.26507 16.0009 3.1332 16.0009 2.99999C16.0009 2.86677 15.9743 2.73491 15.9226 2.61212C15.8709 2.48934 15.7952 2.37812 15.7 2.28499C15.6071 2.19201 15.4968 2.11825 15.3754 2.06793C15.254 2.0176 15.1239 1.9917 14.9925 1.9917C14.8611 1.9917 14.731 2.0176 14.6096 2.06793C14.4882 2.11825 14.3779 2.19201 14.285 2.28499L5 11.775L1.7 8.30499C1.51263 8.11874 1.25918 8.01419 0.994996 8.01419C0.73081 8.01419 0.477358 8.11874 0.289996 8.30499C0.19475 8.39812 0.119071 8.50934 0.0674035 8.63212C0.0157357 8.75491 -0.0108795 8.88678 -0.0108795 9.01999C-0.0108795 9.1532 0.0157357 9.28507 0.0674035 9.40785C0.119071 9.53063 0.19475 9.64186 0.289996 9.73499L3.94 13.56C4.22103 13.8414 4.60231 13.9996 5 14Z"
  />
</svg>
