<svg fill="currentColor" viewBox="0 0 16 16" xmlns="http://www.w3.org/2000/svg">
  <path
    d="M15.71 3.795C15.6171 3.70202 15.5068 3.62826 15.3854 3.57794C15.264 3.52761 15.1339 3.50171 15.0025 3.50171C14.8711 3.50171 14.741 3.52761 14.6196 3.57794C14.4982 3.62826 14.3879 3.70202 14.295 3.795L8 10.27L1.705 3.795C1.51764 3.60874 1.26419 3.5042 1 3.5042C0.735815 3.5042 0.482363 3.60874 0.295001 3.795C0.199755 3.88813 0.124076 3.99935 0.0724084 4.12213C0.0207406 4.24492 -0.00587463 4.37678 -0.00587463 4.51C-0.00587463 4.64321 0.0207406 4.77508 0.0724084 4.89786C0.124076 5.02064 0.199755 5.13186 0.295001 5.225L6.94 12.055C7.22125 12.3359 7.6025 12.4937 8 12.4937C8.3975 12.4937 8.77875 12.3359 9.06 12.055L15.71 5.225C15.8052 5.13186 15.8809 5.02064 15.9326 4.89786C15.9843 4.77508 16.0109 4.64321 16.0109 4.51C16.0109 4.37678 15.9843 4.24492 15.9326 4.12213C15.8809 3.99935 15.8052 3.88813 15.71 3.795Z"
  />
</svg>
