<svg fill="currentColor" viewBox="0 0 16 16" xmlns="http://www.w3.org/2000/svg">
  <path
    d="M5.73 8.00002L12.23 1.70502C12.4163 1.51765 12.5208 1.2642 12.5208 1.00002C12.5208 0.73583 12.4163 0.482379 12.23 0.295016C12.1369 0.19977 12.0257 0.124091 11.9029 0.0724236C11.7801 0.0207559 11.6482 -0.00585937 11.515 -0.00585938C11.3818 -0.00585937 11.2499 0.0207559 11.1271 0.0724236C11.0044 0.124091 10.8931 0.19977 10.8 0.295016L3.945 6.94002C3.6641 7.22127 3.50632 7.60251 3.50632 8.00002C3.50632 8.39752 3.6641 8.77877 3.945 9.06002L10.775 15.71C10.967 15.8952 11.2233 15.9986 11.49 15.9986C11.7567 15.9986 12.013 15.8952 12.205 15.71C12.298 15.6171 12.3717 15.5069 12.4221 15.3855C12.4724 15.2641 12.4983 15.1339 12.4983 15.0025C12.4983 14.8711 12.4724 14.741 12.4221 14.6196C12.3717 14.4982 12.298 14.3879 12.205 14.295L5.73 8.00002Z"
  />
</svg>
