<svg fill="currentColor" viewBox="0 0 16 16" xmlns="http://www.w3.org/2000/svg">
  <path
    d="M15.705 10.775L9.06 3.945C8.77875 3.6641 8.3975 3.50632 8 3.50632C7.60249 3.50632 7.22125 3.6641 6.94 3.945L0.289996 10.775C0.19475 10.8681 0.119071 10.9794 0.0674035 11.1021C0.0157357 11.2249 -0.0108795 11.3568 -0.0108795 11.49C-0.0108795 11.6232 0.0157357 11.7551 0.0674035 11.8779C0.119071 12.0006 0.19475 12.1119 0.289996 12.205C0.382869 12.298 0.493158 12.3717 0.614556 12.4221C0.735954 12.4724 0.866081 12.4983 0.997496 12.4983C1.12891 12.4983 1.25904 12.4724 1.38044 12.4221C1.50183 12.3717 1.61212 12.298 1.705 12.205L8 5.73L14.295 12.23C14.4824 12.4162 14.7358 12.5208 15 12.5208C15.2642 12.5208 15.5176 12.4162 15.705 12.23C15.8041 12.1365 15.8831 12.0238 15.9371 11.8987C15.991 11.7736 16.0189 11.6387 16.0189 11.5025C16.0189 11.3662 15.991 11.2314 15.9371 11.1063C15.8831 10.9812 15.8041 10.8685 15.705 10.775Z"
  />
</svg>
