<svg viewBox="0 0 16 16" fill="none" xmlns="http://www.w3.org/2000/svg">
  <path
    d="M6.7256 3.30037L10.5607 6.94427C10.842 7.22505 11 7.60566 11 8.0025C11 8.39933 10.842 8.77994 10.5607 9.06072L6.7256 12.6996C6.63234 12.7947 6.52097 12.8703 6.39802 12.9218C6.27507 12.9734 6.14303 13 6.00964 13C5.87625 13 5.7442 12.9734 5.62126 12.9218C5.49831 12.8703 5.38694 12.7947 5.29368 12.6996C5.10718 12.5126 5.0025 12.2596 5.0025 11.9958L5 8.0025V4.00669C5 3.87549 5.02594 3.74558 5.07633 3.62439C5.12672 3.50319 5.20058 3.39309 5.29368 3.30037C5.38694 3.20529 5.49831 3.12973 5.62126 3.07815C5.7442 3.02657 5.87625 3 6.00964 3C6.14303 3 6.27507 3.02657 6.39802 3.07815C6.52097 3.12973 6.63234 3.20529 6.7256 3.30037Z"
    fill="currentColor"
  />
</svg>
