<svg fill="currentColor" viewBox="0 0 16 16" xmlns="http://www.w3.org/2000/svg">
  <path
    d="M12.055 6.94001L5.225 0.290011C5.13187 0.194765 5.02065 0.119086 4.89786 0.0674187C4.77508 0.015751 4.64321 -0.0108643 4.51 -0.0108643C4.37679 -0.0108643 4.24492 0.015751 4.12214 0.0674187C3.99935 0.119086 3.88813 0.194765 3.795 0.290011C3.70202 0.382884 3.62826 0.493173 3.57794 0.614571C3.52762 0.735969 3.50171 0.866096 3.50171 0.997511C3.50171 1.12893 3.52762 1.25905 3.57794 1.38045C3.62826 1.50185 3.70202 1.61214 3.795 1.70501L10.27 8.00001L3.795 14.295C3.60875 14.4824 3.50421 14.7358 3.50421 15C3.50421 15.2642 3.60875 15.5176 3.795 15.705C3.88813 15.8003 3.99935 15.8759 4.12214 15.9276C4.24492 15.9793 4.37679 16.0059 4.51 16.0059C4.64321 16.0059 4.77508 15.9793 4.89786 15.9276C5.02065 15.8759 5.13187 15.8003 5.225 15.705L12.055 9.06001C12.3359 8.77876 12.4937 8.39751 12.4937 8.00001C12.4937 7.60251 12.3359 7.22126 12.055 6.94001Z"
  />
</svg>
