<svg fill="currentColor" viewBox="0 0 16 16" xmlns="http://www.w3.org/2000/svg">
  <path
    fill-rule="evenodd"
    clip-rule="evenodd"
    d="M4.295 12.71C4.19976 12.6169 4.12408 12.5056 4.07241 12.3829C4.02074 12.2601 3.99413 12.1282 3.99413 11.995C3.99413 11.8618 4.02074 11.7299 4.07241 11.6071C4.12408 11.4844 4.19976 11.3731 4.295 11.28C4.48215 11.0953 4.73453 10.9917 4.9975 10.9917C5.26047 10.9917 5.51285 11.0953 5.7 11.28L8 13.905L10.3 11.27C10.4872 11.0853 10.7395 10.9817 11.0025 10.9817C11.2655 10.9817 11.5179 11.0853 11.705 11.27C11.8002 11.3631 11.8759 11.4744 11.9276 11.5971C11.9793 11.7199 12.0059 11.8518 12.0059 11.985C12.0059 12.1182 11.9793 12.2501 11.9276 12.3729C11.8759 12.4956 11.8002 12.6069 11.705 12.7L9.255 15.34L9.06 15.55C8.77875 15.8309 8.3975 15.9887 8 15.9887C7.6025 15.9887 7.22125 15.8309 6.94 15.55L4.295 12.71ZM11.705 3.29C11.8002 3.38313 11.8759 3.49436 11.9276 3.61714C11.9793 3.73992 12.0059 3.87179 12.0059 4.005C12.0059 4.13821 11.9793 4.27008 11.9276 4.39287C11.8759 4.51565 11.8002 4.62687 11.705 4.72C11.5179 4.90474 11.2655 5.00832 11.0025 5.00832C10.7395 5.00832 10.4872 4.90474 10.3 4.72L8 2.095L5.7 4.73C5.51285 4.91474 5.26047 5.01832 4.9975 5.01832C4.73453 5.01832 4.48215 4.91474 4.295 4.73C4.19976 4.63687 4.12408 4.52565 4.07241 4.40286C4.02074 4.28008 3.99413 4.14821 3.99413 4.015C3.99413 3.88179 4.02074 3.74992 4.07241 3.62714C4.12408 3.50436 4.19976 3.39313 4.295 3.3L6.745 0.660002L6.94 0.450002C7.22125 0.169101 7.6025 0.011322 8 0.011322C8.3975 0.011322 8.77875 0.169101 9.06 0.450002L11.705 3.29Z"
  />
</svg>
