<svg fill="currentColor" viewBox="0 0 16 16" xmlns="http://www.w3.org/2000/svg">
  <path
    fill-rule="evenodd"
    clip-rule="evenodd"
    d="M10.83 11.83C10.698 11.8301 10.5674 11.8041 10.4455 11.7535C10.3237 11.7028 10.213 11.6286 10.12 11.535L8 9.415L5.88 11.535C5.78709 11.6279 5.67679 11.7016 5.5554 11.7519C5.43401 11.8022 5.3039 11.8281 5.1725 11.8281C5.04111 11.8281 4.911 11.8022 4.78961 11.7519C4.66821 11.7016 4.55791 11.6279 4.465 11.535C4.37209 11.4421 4.29839 11.3318 4.24811 11.2104C4.19783 11.089 4.17195 10.9589 4.17195 10.8275C4.17195 10.6961 4.19783 10.566 4.24811 10.4446C4.29839 10.3232 4.37209 10.2129 4.465 10.12L6.585 8L4.465 5.88C4.34083 5.75609 4.25144 5.6017 4.20581 5.43231C4.16017 5.26293 4.15989 5.08453 4.205 4.915C4.25024 4.74457 4.33974 4.58912 4.46443 4.46443C4.58912 4.33974 4.74457 4.25024 4.915 4.205C5.08453 4.15989 5.26293 4.16017 5.43231 4.20581C5.6017 4.25144 5.75609 4.34083 5.88 4.465L8 6.585L10.12 4.465C10.2439 4.34083 10.3983 4.25144 10.5677 4.20581C10.7371 4.16017 10.9155 4.15989 11.085 4.205C11.2554 4.25024 11.4109 4.33974 11.5356 4.46443C11.6603 4.58912 11.7498 4.74457 11.795 4.915C11.8401 5.08453 11.8398 5.26293 11.7942 5.43231C11.7486 5.6017 11.6592 5.75609 11.535 5.88L9.415 8L11.535 10.12C11.6286 10.213 11.7028 10.3237 11.7535 10.4455C11.8041 10.5674 11.8301 10.698 11.83 10.83C11.83 11.0952 11.7246 11.3496 11.5371 11.5371C11.3496 11.7246 11.0952 11.83 10.83 11.83ZM8 2C6.81332 2 5.65328 2.3519 4.66658 3.01119C3.67989 3.67047 2.91085 4.60755 2.45673 5.7039C2.0026 6.80026 1.88378 8.00666 2.11529 9.17055C2.3468 10.3344 2.91825 11.4035 3.75736 12.2426C4.59648 13.0818 5.66558 13.6532 6.82946 13.8847C7.99335 14.1162 9.19975 13.9974 10.2961 13.5433C11.3925 13.0892 12.3295 12.3201 12.9888 11.3334C13.6481 10.3467 14 9.18669 14 8C14 6.4087 13.3679 4.88258 12.2426 3.75736C11.1174 2.63214 9.5913 2 8 2ZM8 16C6.41775 16 4.87103 15.5308 3.55544 14.6518C2.23985 13.7727 1.21447 12.5233 0.608967 11.0615C0.00346625 9.59966 -0.15496 7.99113 0.153721 6.43928C0.462403 4.88743 1.22433 3.46197 2.34315 2.34315C3.46197 1.22433 4.88743 0.462403 6.43928 0.153721C7.99113 -0.15496 9.59966 0.00346625 11.0615 0.608967C12.5233 1.21447 13.7727 2.23985 14.6518 3.55544C15.5308 4.87103 16 6.41775 16 8C16 10.1217 15.1571 12.1566 13.6569 13.6569C12.1566 15.1571 10.1217 16 8 16Z"
  />
</svg>
