<svg fill="currentColor" viewBox="0 0 16 16" xmlns="http://www.w3.org/2000/svg">
  <path
    d="M8 0C3.6 0 0 3.6 0 8C0 12.4 3.6 16 8 16C12.4 16 16 12.4 16 8C16 3.6 12.4 0 8 0ZM10.85 11.85C10.6 11.85 10.35 11.75 10.15 11.55L8 9.4L5.9 11.5C5.5 11.9 4.9 11.9 4.5 11.5C4.1 11.1 4.1 10.5 4.5 10.1L6.6 8L4.5 5.9C4.25 5.65 4.15 5.3 4.25 4.95C4.35 4.6 4.6 4.35 4.95 4.25C5.3 4.15 5.65 4.25 5.9 4.5L8 6.6L10.1 4.5C10.35 4.25 10.7 4.15 11.05 4.25C11.4 4.35 11.65 4.6 11.75 4.95C11.85 5.3 11.75 5.65 11.5 5.9L9.4 8L11.5 10.1C11.7 10.3 11.8 10.55 11.8 10.8C11.85 11.4 11.4 11.85 10.85 11.85Z"
  />
</svg>
