<svg fill="currentColor" viewBox="0 0 16 16" xmlns="http://www.w3.org/2000/svg">
  <path
    d="M6.58847 8.00421L0.295157 1.7059C0.108808 1.51844 0.00421143 1.26485 0.00421143 1.00053C0.00421143 0.736203 0.108808 0.482618 0.295157 0.295157C0.482618 0.108808 0.736203 0.00421143 1.00053 0.00421143C1.26485 0.00421143 1.51844 0.108808 1.7059 0.295157L8.00421 6.58847L14.3025 0.295157C14.49 0.108808 14.7436 0.00421143 15.0079 0.00421143C15.2722 0.00421143 15.5258 0.108808 15.7133 0.295157C15.8996 0.482618 16.0042 0.736203 16.0042 1.00053C16.0042 1.26485 15.8996 1.51844 15.7133 1.7059L9.41996 8.00421L15.7133 14.3025C15.8772 14.4939 15.9628 14.7401 15.9531 14.9919C15.9434 15.2437 15.839 15.4826 15.6608 15.6608C15.4826 15.839 15.2437 15.9434 14.9919 15.9531C14.7401 15.9628 14.4939 15.8772 14.3025 15.7133L8.00421 9.41996L1.7059 15.7133C1.51844 15.8996 1.26485 16.0042 1.00053 16.0042C0.736203 16.0042 0.482618 15.8996 0.295157 15.7133C0.108808 15.5258 0.00421143 15.2722 0.00421143 15.0079C0.00421143 14.7436 0.108808 14.49 0.295157 14.3025L6.58847 8.00421Z"
  />
</svg>
