<svg viewBox="0 0 16 16" xmlns="http://www.w3.org/2000/svg">
  <path
    fill="currentColor"
    clip-rule="evenodd"
    d="M9.19611 2.01943C9.73767 2.12774 10.0889 2.65457 9.98058 3.19613L7.98058 13.1961C7.87226 13.7377 7.34544 14.0889 6.80388 13.9806C6.26232 13.8723 5.9111 13.3455 6.01941 12.8039L8.01941 2.80389C8.12773 2.26233 8.65455 1.91112 9.19611 2.01943ZM12.7259 11.6996C12.6329 11.7947 12.5218 11.8702 12.3992 11.9218C12.2766 11.9734 12.1449 12 12.0119 12C11.8789 12 11.7472 11.9734 11.6246 11.9218C11.502 11.8702 11.3909 11.7947 11.2979 11.6996C11.1134 11.5127 11.01 11.2607 11.01 10.9981C11.01 10.7355 11.1134 10.4835 11.2979 10.2966L13.9192 8L11.2879 5.70337C11.1034 5.5165 11 5.26448 11 5.0019C11 4.73932 11.1034 4.48731 11.2879 4.30043C11.3809 4.20533 11.492 4.12976 11.6146 4.07817C11.7372 4.02658 11.8689 4 12.0019 4C12.1349 4 12.2666 4.02658 12.3892 4.07817C12.5118 4.12976 12.6229 4.20533 12.7159 4.30043L15.3522 6.74684L15.5619 6.94155C15.8424 7.22239 16 7.60308 16 8C16 8.39692 15.8424 8.77761 15.5619 9.05845L12.7259 11.6996ZM3.2741 4.30043C3.3671 4.20533 3.47817 4.12976 3.60078 4.07817C3.72339 4.02658 3.85507 4 3.9881 4C4.12113 4 4.25281 4.02658 4.37542 4.07817C4.49803 4.12976 4.6091 4.20533 4.7021 4.30043C4.88658 4.48731 4.99001 4.73932 4.99001 5.0019C4.99001 5.26448 4.88658 5.5165 4.7021 5.70337L2.08077 8L4.71209 10.2966C4.89656 10.4835 5 10.7355 5 10.9981C5 11.2607 4.89656 11.5127 4.71209 11.6996C4.61908 11.7947 4.50802 11.8702 4.38541 11.9218C4.2628 11.9734 4.13111 12 3.99809 12C3.86506 12 3.73338 11.9734 3.61076 11.9218C3.48815 11.8702 3.37709 11.7947 3.28408 11.6996L0.647773 9.25316L0.438066 9.05845C0.157557 8.77761 0 8.39692 0 8C0 7.60308 0.157557 7.22239 0.438066 6.94155L3.2741 4.30043Z"
  />
</svg>
