<svg fill="currentColor" viewBox="0 0 16 16" xmlns="http://www.w3.org/2000/svg">
  <path
    fill-rule="evenodd"
    clip-rule="evenodd"
    d="M10.7082 4.29274C11.099 4.68318 11.0991 5.31634 10.7085 5.70695L9.41528 7L14.9995 7C15.552 7 16 7.44772 16 8C16 8.55228 15.552 9 14.9995 9L9.41528 9L10.7085 10.293C11.0991 10.6837 11.099 11.3168 10.7082 11.7073C10.3173 12.0977 9.68383 12.0976 9.29318 11.707L6.29329 8.7074L6.29315 8.70726L6.29284 8.70695C6.19198 8.60611 6.11717 8.48909 6.06841 8.36426C6.03087 8.26837 6.00771 8.16527 6.00159 8.05762C6.00141 8.05448 6.00125 8.05133 6.00109 8.04819C5.99935 8.0118 5.99958 7.97533 6.00179 7.93896C6.00815 7.8334 6.0309 7.73225 6.06752 7.63803C6.11626 7.51234 6.19137 7.39451 6.29284 7.29305L6.29309 7.29279L6.29315 7.29274L6.29327 7.29262L9.29318 4.29305C9.68383 3.90244 10.3173 3.9023 10.7082 4.29274ZM4 7.99999C4 9.10456 3.10457 9.99999 2 9.99999C0.895431 9.99999 0 9.10456 0 7.99999C0 6.89542 0.895431 5.99999 2 5.99999C3.10457 5.99999 4 6.89542 4 7.99999Z"
  />
</svg>
