<svg viewBox="0 0 12 12" xmlns="http://www.w3.org/2000/svg">
  <path
    fill="currentColor"
    d="M9.375 6.75H8.25V5.25H9.375C10.8225 5.25 12 4.0725 12 2.625C12 1.1775 10.8225 0 9.375 0C7.9275 0 6.75 1.1775 6.75 2.625V3.75H5.25V2.625C5.25 1.1775 4.0725 0 2.625 0C1.1775 0 0 1.1775 0 2.625C0 4.0725 1.1775 5.25 2.625 5.25H3.75V6.75H2.625C1.1775 6.75 0 7.9275 0 9.375C0 10.8225 1.1775 12 2.625 12C4.0725 12 5.25 10.8225 5.25 9.375V8.25H6.75V9.375C6.75 10.8225 7.9275 12 9.375 12C10.8225 12 12 10.8225 12 9.375C12 7.9275 10.8225 6.75 9.375 6.75ZM8.25 2.625C8.25 2.0025 8.7525 1.5 9.375 1.5C9.9975 1.5 10.5 2.0025 10.5 2.625C10.5 3.2475 9.9975 3.75 9.375 3.75H8.25V2.625ZM3.75 9.375C3.75 9.9975 3.2475 10.5 2.625 10.5C2.0025 10.5 1.5 9.9975 1.5 9.375C1.5 8.7525 2.0025 8.25 2.625 8.25H3.75V9.375ZM3.75 3.75H2.625C2.0025 3.75 1.5 3.2475 1.5 2.625C1.5 2.0025 2.0025 1.5 2.625 1.5C3.2475 1.5 3.75 2.0025 3.75 2.625V3.75ZM6.75 6.75H5.25V5.25H6.75V6.75ZM9.375 10.5C8.7525 10.5 8.25 9.9975 8.25 9.375V8.25H9.375C9.9975 8.25 10.5 8.7525 10.5 9.375C10.5 9.9975 9.9975 10.5 9.375 10.5Z"
  />
</svg>
