<svg fill="currentColor" viewBox="0 0 16 16" xmlns="http://www.w3.org/2000/svg">
  <path
    fill-rule="evenodd"
    clip-rule="evenodd"
    d="M1 0C0.447715 0 0 0.447715 0 1V15C0 15.5523 0.447715 16 1 16C1.55228 16 2 15.5523 2 15V2H10V5V15C10 15.5523 10.4477 16 11 16C11.5523 16 12 15.5523 12 15V6H14V15C14 15.5523 14.4477 16 15 16C15.5523 16 16 15.5523 16 15V5C16 4.44772 15.5523 4 15 4H12V1C12 0.447715 11.5523 0 11 0H1ZM5 8C4.44772 8 4 8.44771 4 9C4 9.55228 4.44772 10 5 10H7C7.55228 10 8 9.55228 8 9C8 8.44771 7.55228 8 7 8H5ZM5 12C4.44772 12 4 12.4477 4 13C4 13.5523 4.44772 14 5 14H7C7.55228 14 8 13.5523 8 13C8 12.4477 7.55228 12 7 12H5ZM4 5C4 4.44772 4.44772 4 5 4H7C7.55228 4 8 4.44772 8 5C8 5.55228 7.55228 6 7 6H5C4.44772 6 4 5.55228 4 5Z"
  />
</svg>
