<svg viewBox="0 0 16 16" fill="currentColor" xmlns="http://www.w3.org/2000/svg">
  <path
    d="M14 10.18V10C14 8.35 12.65 7 11 7H9V5.82C10.16 5.4 11 4.3 11 3C11 1.35 9.65 0 8 0C6.35 0 5 1.35 5 3C5 4.3 5.84 5.4 7 5.82V7H5C3.35 7 2 8.35 2 10V10.18C0.84 10.59 0 11.7 0 13C0 14.65 1.35 16 3 16C4.65 16 6 14.65 6 13C6 11.7 5.16 10.59 4 10.18V10C4 9.45 4.45 9 5 9H11C11.55 9 12 9.45 12 10V10.18C10.84 10.59 10 11.7 10 13C10 14.65 11.35 16 13 16C14.65 16 16 14.65 16 13C16 11.7 15.16 10.59 14 10.18ZM8 2C8.55 2 9 2.45 9 3C9 3.55 8.55 4 8 4C7.45 4 7 3.55 7 3C7 2.45 7.45 2 8 2ZM3 14C2.45 14 2 13.55 2 13C2 12.82 2.05 12.65 2.14 12.5C2.31 12.2 2.63 12 3 12C3.37 12 3.69 12.2 3.86 12.5C3.95 12.65 4 12.82 4 13C4 13.55 3.55 14 3 14ZM13 14C12.45 14 12 13.55 12 13C12 12.82 12.05 12.65 12.14 12.5C12.31 12.2 12.63 12 13 12C13.37 12 13.69 12.2 13.86 12.5C13.95 12.65 14 12.82 14 13C14 13.55 13.55 14 13 14Z"
    fill="currentColor"
  />
</svg>
