<svg viewBox="0 0 16 16" fill="currentColor" xmlns="http://www.w3.org/2000/svg">
  <path
    fill-rule="evenodd"
    clip-rule="evenodd"
    d="M8.89476 2.15841L8.89521 2.15803L8.89476 2.15841ZM8.8953 2.15785L8.89521 2.15803C8.89786 2.15575 8.91232 2.14333 8.94237 2.12449C8.97788 2.10225 9.02334 2.0785 9.07474 2.05714C9.12613 2.03579 9.175 2.02035 9.21572 2.01091C9.24992 2.00298 9.26875 2.00149 9.27227 2.00121C9.27267 2.00118 9.27288 2.00116 9.27288 2.00116L9.27262 2.00115H14V6.72779L14 6.72747C14 6.72747 14 6.72766 13.9999 6.72803C13.9997 6.73145 13.9983 6.75069 13.9902 6.78573C13.9807 6.82662 13.9654 6.8755 13.9441 6.92679C13.9229 6.97809 13.8993 7.02334 13.8772 7.0586C13.8566 7.09154 13.8439 7.10545 13.8439 7.1055C13.8439 7.10551 13.8441 7.1053 13.8446 7.10487L13.8297 7.11997L7.35844 13.8433L2.15629 8.64159L8.8801 2.17279L8.8953 2.15785ZM9.272 0C8.9271 0 8.58422 0.094129 8.30777 0.208987C8.03462 0.322472 7.72995 0.49623 7.48763 0.736318L0.492898 7.46576L0.480554 7.47784C-0.159908 8.11567 -0.160185 9.15611 0.479724 9.79429L0.480554 9.79512L6.2057 15.5198L6.20655 15.5207C6.84442 16.1601 7.88379 16.1599 8.5213 15.5198L8.53329 15.5076L15.2643 8.51438C15.5049 8.27155 15.6786 7.96621 15.7919 7.69263C15.9066 7.41553 16 7.07274 16 6.72813V1.63752C16 0.735356 15.2667 0 14.363 0H9.272ZM11.0001 6.00107C11.5531 6.00107 12.0001 5.5541 12.0001 5.00114C12.0001 4.44819 11.5531 4.00122 11.0001 4.00122C10.4471 4.00122 10.0001 4.44819 10.0001 5.00114C10.0001 5.5541 10.4471 6.00107 11.0001 6.00107Z"
  />
</svg>
