<svg fill="currentColor" viewBox="0 0 16 16" xmlns="http://www.w3.org/2000/svg">
  <path
    fill-rule="evenodd"
    clip-rule="evenodd"
    d="M2.64286 2V14H13.3582L13.3571 2H2.64286ZM4.78571 10H11.2143C11.8057 10 12.2857 10.447 12.2857 11C12.2857 11.553 11.8057 12 11.2143 12H4.78571C4.19428 12 3.71428 11.553 3.71428 11C3.71428 10.447 4.19428 10 4.78571 10ZM11.2143 7H4.78571C4.19428 7 3.71428 7.447 3.71428 8C3.71428 8.553 4.19428 9 4.78571 9H11.2143C11.8057 9 12.2857 8.553 12.2857 8C12.2857 7.447 11.8057 7 11.2143 7ZM9.07143 6H4.78571C4.19428 6 3.71428 5.553 3.71428 5C3.71428 4.447 4.19428 4 4.78571 4H9.07143C9.66286 4 10.1429 4.447 10.1429 5C10.1429 5.553 9.66286 6 9.07143 6ZM13.3571 0H2.64286C1.46107 0 0.5 0.897 0.5 2V14C0.5 15.103 1.46107 16 2.64286 16H13.3571C14.5389 16 15.5 15.103 15.5 14V2C15.5 0.897 14.5389 0 13.3571 0Z"
  />
</svg>
