<svg fill="currentColor" viewBox="0 0 16 16" xmlns="http://www.w3.org/2000/svg">
  <path
    fill-rule="evenodd"
    clip-rule="evenodd"
    d="M2 10C2.39556 10 2.78224 9.8827 3.11114 9.66294C3.44004 9.44318 3.69638 9.13082 3.84776 8.76537C3.99913 8.39992 4.03874 7.99778 3.96157 7.60982C3.8844 7.22186 3.69392 6.86549 3.41421 6.58579C3.13451 6.30608 2.77814 6.1156 2.39018 6.03843C2.00222 5.96126 1.60009 6.00087 1.23463 6.15224C0.869181 6.30362 0.556824 6.55996 0.337061 6.88886C0.117298 7.21776 0 7.60444 0 8C0 8.53043 0.210714 9.03914 0.585786 9.41421C0.960859 9.78929 1.46957 10 2 10ZM8 10C8.39556 10 8.78224 9.8827 9.11114 9.66294C9.44004 9.44318 9.69638 9.13082 9.84776 8.76537C9.99913 8.39992 10.0387 7.99778 9.96157 7.60982C9.8844 7.22186 9.69392 6.86549 9.41421 6.58579C9.13451 6.30608 8.77814 6.1156 8.39018 6.03843C8.00222 5.96126 7.60009 6.00087 7.23463 6.15224C6.86918 6.30362 6.55682 6.55996 6.33706 6.88886C6.1173 7.21776 6 7.60444 6 8C6 8.53043 6.21071 9.03914 6.58579 9.41421C6.96086 9.78929 7.46957 10 8 10ZM14 10C14.3956 10 14.7822 9.8827 15.1111 9.66294C15.44 9.44318 15.6964 9.13082 15.8478 8.76537C15.9991 8.39992 16.0387 7.99778 15.9616 7.60982C15.8844 7.22186 15.6939 6.86549 15.4142 6.58579C15.1345 6.30608 14.7781 6.1156 14.3902 6.03843C14.0022 5.96126 13.6001 6.00087 13.2346 6.15224C12.8692 6.30362 12.5568 6.55996 12.3371 6.88886C12.1173 7.21776 12 7.60444 12 8C12 8.53043 12.2107 9.03914 12.5858 9.41421C12.9609 9.78929 13.4696 10 14 10Z"
  />
</svg>
