<svg viewBox="0 0 16 16" fill="none" xmlns="http://www.w3.org/2000/svg">
<path fill-rule="evenodd" clip-rule="evenodd" d="M5 4C5.39556 4 5.78224 3.8827 6.11114 3.66294C6.44004 3.44318 6.69638 3.13082 6.84776 2.76537C6.99913 2.39992 7.03874 1.99778 6.96157 1.60982C6.8844 1.22186 6.69392 0.865493 6.41421 0.585788C6.13451 0.306083 5.77814 0.115601 5.39018 0.0384303C5.00222 -0.0387401 4.60009 0.000866562 4.23463 0.152242C3.86918 0.303617 3.55682 0.559963 3.33706 0.888861C3.1173 1.21776 3 1.60444 3 2C3 2.53043 3.21071 3.03914 3.58579 3.41421C3.96086 3.78929 4.46957 4 5 4ZM5 10C5.39556 10 5.78224 9.8827 6.11114 9.66294C6.44004 9.44318 6.69638 9.13082 6.84776 8.76537C6.99913 8.39992 7.03874 7.99778 6.96157 7.60982C6.8844 7.22186 6.69392 6.86549 6.41421 6.58579C6.13451 6.30608 5.77814 6.1156 5.39018 6.03843C5.00222 5.96126 4.60009 6.00087 4.23463 6.15224C3.86918 6.30362 3.55682 6.55996 3.33706 6.88886C3.1173 7.21776 3 7.60444 3 8C3 8.53043 3.21071 9.03914 3.58579 9.41422C3.96086 9.78929 4.46957 10 5 10ZM5 16C5.39556 16 5.78224 15.8827 6.11114 15.6629C6.44004 15.4432 6.69638 15.1308 6.84776 14.7654C6.99913 14.3999 7.03874 13.9978 6.96157 13.6098C6.8844 13.2219 6.69392 12.8655 6.41421 12.5858C6.13451 12.3061 5.77814 12.1156 5.39018 12.0384C5.00222 11.9613 4.60009 12.0009 4.23463 12.1522C3.86918 12.3036 3.55682 12.56 3.33706 12.8889C3.1173 13.2178 3 13.6044 3 14C3 14.5304 3.21071 15.0391 3.58579 15.4142C3.96086 15.7893 4.46957 16 5 16Z" fill="currentColor"/>
<path fill-rule="evenodd" clip-rule="evenodd" d="M11 4C11.3956 4 11.7822 3.8827 12.1111 3.66294C12.44 3.44318 12.6964 3.13082 12.8478 2.76537C12.9991 2.39992 13.0387 1.99778 12.9616 1.60982C12.8844 1.22186 12.6939 0.865493 12.4142 0.585788C12.1345 0.306083 11.7781 0.115601 11.3902 0.0384303C11.0022 -0.0387401 10.6001 0.000866562 10.2346 0.152242C9.86918 0.303617 9.55682 0.559963 9.33706 0.888861C9.1173 1.21776 9 1.60444 9 2C9 2.53043 9.21071 3.03914 9.58579 3.41421C9.96086 3.78929 10.4696 4 11 4ZM11 10C11.3956 10 11.7822 9.8827 12.1111 9.66294C12.44 9.44318 12.6964 9.13082 12.8478 8.76537C12.9991 8.39992 13.0387 7.99778 12.9616 7.60982C12.8844 7.22186 12.6939 6.86549 12.4142 6.58579C12.1345 6.30608 11.7781 6.1156 11.3902 6.03843C11.0022 5.96126 10.6001 6.00087 10.2346 6.15224C9.86918 6.30362 9.55682 6.55996 9.33706 6.88886C9.1173 7.21776 9 7.60444 9 8C9 8.53043 9.21071 9.03914 9.58579 9.41422C9.96086 9.78929 10.4696 10 11 10ZM11 16C11.3956 16 11.7822 15.8827 12.1111 15.6629C12.44 15.4432 12.6964 15.1308 12.8478 14.7654C12.9991 14.3999 13.0387 13.9978 12.9616 13.6098C12.8844 13.2219 12.6939 12.8655 12.4142 12.5858C12.1345 12.3061 11.7781 12.1156 11.3902 12.0384C11.0022 11.9613 10.6001 12.0009 10.2346 12.1522C9.86918 12.3036 9.55682 12.56 9.33706 12.8889C9.1173 13.2178 9 13.6044 9 14C9 14.5304 9.21071 15.0391 9.58579 15.4142C9.96086 15.7893 10.4696 16 11 16Z" fill="currentColor"/>
</svg>
