<svg fill="currentColor" viewBox="0 0 16 16" xmlns="http://www.w3.org/2000/svg">
  <path
    fill-rule="evenodd"
    clip-rule="evenodd"
    d="M2 7C2.39556 7 2.78224 6.88271 3.11114 6.66294C3.44004 6.44318 3.69638 6.13082 3.84776 5.76537C3.99913 5.39992 4.03874 4.99778 3.96157 4.60982C3.8844 4.22186 3.69392 3.86549 3.41421 3.58579C3.13451 3.30608 2.77814 3.1156 2.39018 3.03843C2.00222 2.96126 1.60009 3.00087 1.23463 3.15224C0.869181 3.30362 0.556824 3.55996 0.337061 3.88886C0.117298 4.21776 0 4.60444 0 5C0 5.53044 0.210714 6.03914 0.585787 6.41422C0.96086 6.78929 1.46957 7 2 7ZM2 13C2.39556 13 2.78224 12.8827 3.11114 12.6629C3.44004 12.4432 3.69638 12.1308 3.84776 11.7654C3.99913 11.3999 4.03874 10.9978 3.96157 10.6098C3.8844 10.2219 3.69392 9.86549 3.41421 9.58579C3.13451 9.30608 2.77814 9.1156 2.39018 9.03843C2.00222 8.96126 1.60009 9.00087 1.23463 9.15224C0.869181 9.30362 0.556824 9.55996 0.337061 9.88886C0.117298 10.2178 0 10.6044 0 11C0 11.5304 0.210714 12.0391 0.585786 12.4142C0.960859 12.7893 1.46957 13 2 13Z"
  />
  <path
    fill-rule="evenodd"
    clip-rule="evenodd"
    d="M8 7C8.39556 7 8.78224 6.88271 9.11114 6.66294C9.44004 6.44318 9.69638 6.13082 9.84776 5.76537C9.99913 5.39992 10.0387 4.99778 9.96157 4.60982C9.8844 4.22186 9.69392 3.86549 9.41421 3.58579C9.13451 3.30608 8.77814 3.1156 8.39018 3.03843C8.00222 2.96126 7.60009 3.00087 7.23463 3.15224C6.86918 3.30362 6.55682 3.55996 6.33706 3.88886C6.1173 4.21776 6 4.60444 6 5C6 5.53044 6.21071 6.03914 6.58579 6.41422C6.96086 6.78929 7.46957 7 8 7ZM8 13C8.39556 13 8.78224 12.8827 9.11114 12.6629C9.44004 12.4432 9.69638 12.1308 9.84776 11.7654C9.99913 11.3999 10.0387 10.9978 9.96157 10.6098C9.8844 10.2219 9.69392 9.86549 9.41421 9.58579C9.13451 9.30608 8.77814 9.1156 8.39018 9.03843C8.00222 8.96126 7.60008 9.00087 7.23463 9.15224C6.86918 9.30362 6.55682 9.55996 6.33706 9.88886C6.1173 10.2178 6 10.6044 6 11C6 11.5304 6.21071 12.0391 6.58579 12.4142C6.96086 12.7893 7.46957 13 8 13Z"
  />
  <path
    fill-rule="evenodd"
    clip-rule="evenodd"
    d="M14 7C14.3956 7 14.7822 6.8827 15.1111 6.66294C15.44 6.44318 15.6964 6.13082 15.8478 5.76537C15.9991 5.39992 16.0387 4.99778 15.9616 4.60982C15.8844 4.22186 15.6939 3.86549 15.4142 3.58579C15.1345 3.30608 14.7781 3.1156 14.3902 3.03843C14.0022 2.96126 13.6001 3.00087 13.2346 3.15224C12.8692 3.30362 12.5568 3.55996 12.3371 3.88886C12.1173 4.21776 12 4.60444 12 5C12 5.53043 12.2107 6.03914 12.5858 6.41421C12.9609 6.78929 13.4696 7 14 7ZM14 13C14.3956 13 14.7822 12.8827 15.1111 12.6629C15.44 12.4432 15.6964 12.1308 15.8478 11.7654C15.9991 11.3999 16.0387 10.9978 15.9616 10.6098C15.8844 10.2219 15.6939 9.86549 15.4142 9.58579C15.1345 9.30608 14.7781 9.1156 14.3902 9.03843C14.0022 8.96126 13.6001 9.00087 13.2346 9.15224C12.8692 9.30362 12.5568 9.55996 12.3371 9.88886C12.1173 10.2178 12 10.6044 12 11C12 11.5304 12.2107 12.0391 12.5858 12.4142C12.9609 12.7893 13.4696 13 14 13Z"
  />
</svg>
