<svg fill="currentColor" viewBox="0 0 16 16" xmlns="http://www.w3.org/2000/svg">
  <path
    d="M4.705 4.265C4.61213 4.17202 4.50184 4.09826 4.38044 4.04794C4.25904 3.99762 4.12892 3.97171 3.9975 3.97171C3.86608 3.97171 3.73596 3.99762 3.61456 4.04794C3.49316 4.09826 3.38287 4.17202 3.29 4.265C3.10219 4.4566 2.997 4.7142 2.997 4.9825C2.997 5.2508 3.10219 5.5084 3.29 5.7L6.94 9.55C7.22125 9.8309 7.6025 9.98868 8 9.98868C8.3975 9.98868 8.77875 9.8309 9.06 9.55L12.705 5.7C12.801 5.60679 12.8773 5.49526 12.9295 5.37201C12.9816 5.24877 13.0084 5.11631 13.0084 4.9825C13.0084 4.84869 12.9816 4.71623 12.9295 4.59299C12.8773 4.46974 12.801 4.35821 12.705 4.265C12.5176 4.07875 12.2642 3.97421 12 3.97421C11.7358 3.97421 11.4824 4.07875 11.295 4.265L9 6.765V1C9 0.734784 8.89464 0.48043 8.70711 0.292893C8.51957 0.105357 8.26522 0 8 0C7.73478 0 7.48043 0.105357 7.29289 0.292893C7.10536 0.48043 7 0.734784 7 1V6.745L4.705 4.265ZM2 14H14V9C14 8.73478 14.1054 8.48043 14.2929 8.29289C14.4804 8.10536 14.7348 8 15 8C15.2652 8 15.5196 8.10536 15.7071 8.29289C15.8946 8.48043 16 8.73478 16 9V14C16 14.5304 15.7893 15.0391 15.4142 15.4142C15.0391 15.7893 14.5304 16 14 16H2C1.46957 16 0.960859 15.7893 0.585786 15.4142C0.210714 15.0391 0 14.5304 0 14V9C0 8.73478 0.105357 8.48043 0.292893 8.29289C0.48043 8.10536 0.734784 8 1 8C1.26522 8 1.51957 8.10536 1.70711 8.29289C1.89464 8.48043 2 8.73478 2 9V14Z"
  />
</svg>
