<svg fill="currentColor" viewBox="0 0 16 16" xmlns="http://www.w3.org/2000/svg">
  <path
    fill-rule="evenodd"
    clip-rule="evenodd"
    d="M10.6462 6.59L6.82449 10.76L5.99913 11.665L4.5535 13.24L3.23793 14.675C3.14395 14.7777 3.02956 14.8596 2.90208 14.9156C2.7746 14.9716 2.63684 15.0003 2.49761 15C2.30377 14.9995 2.11426 14.9426 1.95212 14.8364C1.78998 14.7302 1.6622 14.5793 1.58431 14.4018C1.50642 14.2244 1.48177 14.0282 1.51337 13.837C1.54497 13.6458 1.63144 13.468 1.76229 13.325L2.83776 12.17L4.19335 10.67L5.36886 9.41L9.19052 5.24L10.0009 4.355L11.4265 2.785L12.7921 1.325C12.8376 1.27192 12.8897 1.22487 12.9472 1.185L13.0022 1.155L13.1172 1.035H13.1923L13.3073 1H13.3873H13.5024H13.5874H13.6675L13.7575 1.06H13.8275L13.9426 1.115L14.0026 1.145C14.0657 1.17762 14.1245 1.21793 14.1777 1.265C14.3729 1.44363 14.4894 1.6923 14.5016 1.95657C14.5137 2.22085 14.4207 2.47918 14.2427 2.675L13.1172 3.9L11.7616 5.375L10.6462 6.59ZM3.45302 10.0004C2.91869 9.43936 2.4627 8.80865 2.09743 8.12544C2.63266 7.03544 4.44845 4.00044 8 4.00044C8.29664 4.00201 8.5927 4.02709 8.88538 4.07544L10.4411 2.38044C9.65231 2.12674 8.82858 1.9985 8 2.00044C2.37755 2.00044 0.156586 7.53544 0.0665466 7.77044C-0.0238779 8.00571 -0.0220913 8.26643 0.0715488 8.50044C0.562898 9.61296 1.24895 10.6289 2.09743 11.5004L3.45302 10.0004ZM13.8425 4.58502C14.7233 5.51406 15.4314 6.5926 15.9335 7.77002C16.0239 8.00529 16.0221 8.26601 15.9284 8.50002C15.8384 8.74002 13.6074 14 8 14C7.16887 14.0026 6.34225 13.8778 5.54893 13.63L7.10961 11.93C7.4044 11.9742 7.70193 11.9976 8 12C11.5265 12 13.3523 9.15002 13.9026 8.14002C13.5291 7.39347 13.0544 6.70195 12.492 6.08502L13.8425 4.58502ZM4.99869 8C4.99358 8.09826 4.99358 8.19673 4.99869 8.295L8 5C7.204 5 6.44061 5.31607 5.87775 5.87868C5.3149 6.44129 4.99869 7.20435 4.99869 8ZM8 11C8.796 11 9.55939 10.6839 10.1222 10.1213C10.6851 9.55871 11.0013 8.79565 11.0013 8C11.0064 7.90173 11.0064 7.80326 11.0013 7.705L8 11Z"
  />
</svg>
