<svg fill="currentColor" viewBox="0 0 16 16" xmlns="http://www.w3.org/2000/svg">
  <path
    fill-rule="evenodd"
    clip-rule="evenodd"
    d="M7.9975 7.00033C7.79971 7.00033 7.60635 7.05899 7.44189 7.16887C7.27743 7.27876 7.14925 7.43495 7.07356 7.61769C6.99787 7.80043 6.97806 8.00151 7.01665 8.1955C7.05524 8.3895 7.15048 8.56769 7.29035 8.70755C7.43021 8.84741 7.6084 8.94266 7.8024 8.98125C7.99639 9.01984 8.19747 9.00003 8.38021 8.92434C8.56295 8.84865 8.71914 8.72047 8.82903 8.55601C8.93891 8.39155 8.99757 8.19819 8.99757 8.0004C8.99757 7.73517 8.8922 7.48079 8.70465 7.29325C8.51711 7.1057 8.26273 7.00033 7.9975 7.00033ZM7.9975 11.0006C8.59088 11.0006 9.17094 10.8246 9.66432 10.495C10.1577 10.1653 10.5422 9.69674 10.7693 9.14853C10.9964 8.60031 11.0558 7.99707 10.9401 7.41509C10.8243 6.83311 10.5385 6.29852 10.119 5.87894C9.69938 5.45935 9.16479 5.17361 8.58281 5.05785C8.00083 4.94208 7.39759 5.0015 6.84937 5.22858C6.30116 5.45565 5.83259 5.8402 5.50293 6.33358C5.17326 6.82696 4.9973 7.40702 4.9973 8.0004C4.9973 8.7961 5.31339 9.55921 5.87604 10.1219C6.43868 10.6845 7.2018 11.0006 7.9975 11.0006ZM7.9975 14.0008C2.39213 14.0008 0.161979 8.74045 0.0719726 8.50043C-0.0239909 8.26135 -0.0239909 7.99446 0.0719726 7.75538C0.156978 7.53537 2.37713 2 7.9975 2C13.6179 2 15.838 7.53537 15.928 7.77038C16.024 8.00946 16.024 8.27635 15.928 8.51543C15.833 8.74045 13.6029 14.0008 7.9975 14.0008ZM2.09711 8.12541C2.64214 9.16048 4.45226 12.0007 7.9975 12.0007C11.5427 12.0007 13.3479 9.15048 13.8979 8.12041C13.3579 7.03033 11.5477 4.00013 7.9975 4.00013C4.44726 4.00013 2.63214 7.03534 2.09711 8.12541Z"
  />
</svg>
