<svg xmlns="http://www.w3.org/2000/svg" fill="currentColor" viewBox="0 0 9.75 12"><path d="m6.054 0 .076.004a1 1 0 0 1 .141.032q.037.01.07.023.023.01.045.022a.8.8 0 0 1 .196.136l2.945 2.917.003.003a.75.75 0 0 1 .22.53v6.416c0 .51-.205 1-.567 1.358A1.94 1.94 0 0 1 7.82 12H1.93c-.51 0-1-.2-1.362-.559A1.91 1.91 0 0 1 0 10.083V1.917c0-.51.205-1 .567-1.358A1.94 1.94 0 0 1 1.93 0zM1.929 1.5a.44.44 0 0 0-.306.125.4.4 0 0 0-.123.292v8.166c0 .108.044.214.123.293.08.079.19.124.306.124H7.82a.44.44 0 0 0 .306-.124.41.41 0 0 0 .123-.293V4.417H6.644c-.353 0-.694-.139-.946-.388a1.33 1.33 0 0 1-.394-.945V1.5zm4.875 1.417h.373l-.373-.37z"/></svg>