<svg fill="currentColor" viewBox="0 0 16 16" xmlns="http://www.w3.org/2000/svg">
  <path
    fill-rule="evenodd"
    clip-rule="evenodd"
    d="M11.4837 0.124845C11.8547 0.329981 12.0561 0.74685 11.9864 1.16518L11.1806 5.99951H14C14.4046 5.99951 14.7692 6.24336 14.924 6.61733C15.0787 6.99129 14.9931 7.42171 14.7069 7.70782L6.70692 15.7071C6.39946 16.0146 5.92872 16.0881 5.54227 15.889C5.15582 15.6899 4.94216 15.2638 5.01367 14.8348L5.81946 10.0005H2.00004C1.5848 10.0005 1.21277 9.74372 1.06526 9.35534C0.917759 8.96696 1.02548 8.52779 1.33592 8.25186L10.3359 0.252532C10.6528 -0.0291261 11.1127 -0.0802913 11.4837 0.124845ZM4.63152 7.99934H7.00004C7.29401 7.99934 7.57309 8.12876 7.7631 8.35321C7.9531 8.57765 8.03478 8.87438 7.98642 9.16451L7.49955 12.0855L11.5847 8.00065H10C9.70607 8.00065 9.42699 7.87122 9.23699 7.64678C9.04699 7.42234 8.96531 7.12561 9.01367 6.83548L9.54805 3.62947L4.63152 7.99934Z"
  />
</svg>
