<svg xmlns="http://www.w3.org/2000/svg" fill="currentColor" viewBox="0 0 12 9.75"><path d="M0 1.85C0 1.358.197.887.545.54.893.195 1.365 0 1.855 0h2.21c.199 0 .39.078.53.218L6.034 1.65h3.558a1.848 1.848 0 0 1 1.855 1.85v.59q.078.052.146.116l.097.102.086.113q.08.117.132.248l.045.134.03.139q.034.211 0 .422l-.004.018-.55 2.866A1.85 1.85 0 0 1 9.607 9.75H1.855A1.848 1.848 0 0 1 0 7.9zm2.94 6.4h6.666a.36.36 0 0 0 .228-.081.35.35 0 0 0 .122-.204l.502-2.615H4.032zM1.5 7.816l1.177-3.123.039-.092a1.3 1.3 0 0 1 .44-.52l.083-.053c.199-.117.425-.178.657-.178h6.052V3.5a.35.35 0 0 0-.104-.247.36.36 0 0 0-.252-.103H5.724a.75.75 0 0 1-.529-.218L3.755 1.5h-1.9a.36.36 0 0 0-.252.104.35.35 0 0 0-.103.246z"/></svg>