<svg xmlns="http://www.w3.org/2000/svg" fill="currentColor" viewBox="0 0 11.898 9.75"><path d="M4.243 0c.208 0 .408.082.553.227L6.22 1.65h3.668c.504 0 .984.198 1.337.546.347.343.542.804.547 1.284h.001l.125 4.4v.02c0 .487-.196.957-.548 1.304a1.9 1.9 0 0 1-1.338.546H1.886c-.504 0-.985-.198-1.338-.546A1.83 1.83 0 0 1 0 7.9V1.85C0 1.363.196.893.548.546A1.9 1.9 0 0 1 1.886 0zm-2.7 7.9c0 .096.039.187.105.252a.34.34 0 0 0 .238.098h8.126a.34.34 0 0 0 .238-.098.36.36 0 0 0 .105-.252l-.125-4.38V3.5a.36.36 0 0 0-.104-.252.34.34 0 0 0-.238-.098H5.894a.78.78 0 0 1-.553-.227L3.917 1.5H1.886a.34.34 0 0 0-.238.098.36.36 0 0 0-.105.252z"/></svg>