<svg xmlns="http://www.w3.org/2000/svg" width="12" height="11" viewBox="0 0 12 11" fill="none">
  <path d="M6.52417 8.86328C6.93838 8.86328 7.27417 9.19704 7.27417 9.6084V10.1299C7.27409 10.5412 6.93833 10.875 6.52417 10.875C6.11017 10.8748 5.77425 10.5411 5.77417 10.1299V9.6084C5.77417 9.19716 6.11012 8.86347 6.52417 8.86328ZM2.84937 0C3.32675 0 3.78524 0.188198 4.1228 0.523438C4.46028 0.858665 4.65015 1.31405 4.65015 1.78809V5.83105C5.01418 6.12565 5.30063 6.50723 5.48218 6.94238C5.72221 7.51798 5.76466 8.15701 5.60229 8.75879C5.43982 9.36031 5.08224 9.89235 4.58472 10.2715C4.08701 10.6507 3.47668 10.8564 2.84937 10.8564C2.22207 10.8564 1.61169 10.6507 1.11401 10.2715C0.616591 9.89238 0.259887 9.3602 0.0974121 8.75879C-0.0649471 8.15703 -0.0234605 7.51796 0.216553 6.94238C0.398153 6.50706 0.685351 6.12571 1.04956 5.83105V1.78809C1.04956 1.31409 1.23948 0.858657 1.5769 0.523438C1.91438 0.188462 2.37222 6.22567e-05 2.84937 0ZM8.98706 7.88281C9.27996 7.59198 9.75473 7.59195 10.0476 7.88281L10.4148 8.24805C10.7074 8.53895 10.7076 9.01001 10.4148 9.30078C10.122 9.5916 9.64716 9.59148 9.35425 9.30078L8.98706 8.93555C8.69417 8.64467 8.69417 8.17369 8.98706 7.88281ZM2.54956 6.21875C2.54956 6.48474 2.40644 6.73117 2.17456 6.86426C1.91732 7.01183 1.71598 7.24012 1.60229 7.5127C1.48866 7.7853 1.46876 8.08806 1.54565 8.37305C1.62264 8.6579 1.79246 8.90931 2.02808 9.08887C2.26377 9.26845 2.5523 9.36616 2.84937 9.36621C3.14646 9.36621 3.4359 9.26843 3.67163 9.08887C3.90705 8.90931 4.07713 8.65777 4.15405 8.37305C4.23095 8.08803 4.21009 7.78532 4.09644 7.5127C3.98275 7.24019 3.78232 7.01181 3.52515 6.86426C3.2931 6.73121 3.15015 6.48485 3.15015 6.21875V4.61816H2.54956V6.21875ZM6.52417 2.60742C7.27998 2.60746 8.00535 2.90576 8.53979 3.43652C9.07404 3.96725 9.37472 4.68704 9.37476 5.4375C9.37466 6.18788 9.07399 6.9078 8.53979 7.43848C8.00537 7.9691 7.27988 8.26754 6.52417 8.26758C6.11018 8.26732 5.77417 7.93366 5.77417 7.52246C5.77436 7.11142 6.1103 6.77761 6.52417 6.77734C6.88206 6.77731 7.22613 6.637 7.47925 6.38574C7.73229 6.1344 7.87466 5.79291 7.87476 5.4375C7.87472 5.08201 7.73234 4.74065 7.47925 4.48926C7.22611 4.23786 6.88216 4.09672 6.52417 4.09668L6.35229 4.10742C6.29546 4.11449 6.239 4.12471 6.18335 4.13867C5.78181 4.23943 5.37375 3.99737 5.27222 3.59863C5.17106 3.20013 5.41407 2.79532 5.81519 2.69434C6.04677 2.63623 6.28532 2.60732 6.52417 2.60742ZM11.2498 4.69238C11.6639 4.69247 11.9998 5.02619 11.9998 5.4375C11.9997 5.84872 11.6638 6.18253 11.2498 6.18262H10.7244C10.3103 6.18249 9.97446 5.8487 9.97437 5.4375C9.97437 5.02622 10.3103 4.69251 10.7244 4.69238H11.2498ZM9.35425 1.57422C9.64715 1.28343 10.1219 1.28337 10.4148 1.57422C10.7075 1.86508 10.7075 2.33613 10.4148 2.62695L10.0476 2.99219C9.75478 3.2829 9.27994 3.28281 8.98706 2.99219C8.6942 2.70134 8.69425 2.22936 8.98706 1.93848L9.35425 1.57422ZM2.84937 1.48926C2.76995 1.48932 2.69364 1.52142 2.63745 1.57715C2.58136 1.633 2.54956 1.70919 2.54956 1.78809V3.12793H3.15015V1.78809C3.15015 1.70924 3.11828 1.63299 3.06226 1.57715C3.006 1.52128 2.92893 1.48926 2.84937 1.48926ZM6.52417 0C6.93838 0 7.27417 0.333757 7.27417 0.745117V1.2666C7.27396 1.67778 6.93825 2.01074 6.52417 2.01074C6.11025 2.01055 5.77438 1.67767 5.77417 1.2666V0.745117C5.77417 0.333874 6.11012 0.000189833 6.52417 0Z" fill="currentColor" />
</svg>
