<svg fill="currentColor" viewBox="0 0 16 16" xmlns="http://www.w3.org/2000/svg">
  <path
    fill="currentColor"
    clip-rule="evenodd"
    d="M7.23971 3.23565C7.13438 3.3267 7.01089 3.49325 7.05132 3.9005C7.11268 4.51842 7.13375 5.23564 7.11381 6H9.04189H9.04217C9.18637 6 9.32338 6.03095 9.44702 6.08662C9.56442 6.13932 9.67345 6.21594 9.76664 6.31612C9.771 6.3208 9.77532 6.32553 9.7796 6.3303L11.5246 8.2634L13.2723 6.32733C13.6412 5.91868 14.2692 5.88856 14.675 6.26007C15.0808 6.63157 15.1107 7.26402 14.7418 7.67268L12.8666 9.75001L14.7418 11.8273C15.1107 12.236 15.0808 12.8684 14.675 13.2399C14.2692 13.6115 13.6412 13.5813 13.2723 13.1727L11.5246 11.2366L9.77692 13.1727C9.40802 13.5813 8.78002 13.6115 8.37424 13.2399C7.96845 12.8684 7.93855 12.236 8.30744 11.8273L10.1826 9.75001L8.60291 8H6.97577C6.88224 8.84287 6.74328 9.68926 6.55805 10.4797C6.30291 11.5684 5.9435 12.6246 5.44569 13.4332C4.96364 14.2162 4.19756 15 3.08438 15C2.61336 15 1.94335 14.8175 1.47424 14.2207C0.982781 13.5955 0.884159 12.7401 1.1281 11.7575C1.2611 11.2217 1.80022 10.8959 2.33225 11.0299C2.86428 11.1638 3.18775 11.7067 3.05474 12.2425C2.97824 12.5507 2.97837 12.7444 2.99298 12.8519C3.00014 12.9045 3.01074 12.9367 3.01777 12.9539C3.02467 12.9706 3.03005 12.9777 3.03131 12.9793L3.03141 12.9794C3.03263 12.981 3.03592 12.9852 3.04925 12.9909C3.06603 12.998 3.08162 12.9997 3.08407 13L3.08438 13C3.16277 13 3.40621 12.9505 3.75784 12.3793C4.09371 11.8337 4.39213 11.0149 4.62521 10.0203C4.7763 9.37555 4.89299 8.68783 4.97638 8H3.08436C2.53596 8 2.09139 7.55228 2.09139 7C2.09139 6.44772 2.53596 6 3.08436 6H5.12716C5.14735 5.29842 5.12957 4.64665 5.07524 4.0995C4.97715 3.11162 5.29822 2.27817 5.94629 1.718C6.55348 1.19316 7.33981 1 8.04922 1C9.69442 1 11.0281 2.34315 11.0281 4C11.0281 4.55228 10.5836 5 10.0352 5C9.48676 5 9.04219 4.55228 9.04219 4C9.04219 3.44772 8.59762 3 8.04922 3C7.66183 3 7.38592 3.10928 7.23971 3.23565Z"
  />
</svg>
