<svg viewBox="0 0 16 16" fill="currentColor" xmlns="http://www.w3.org/2000/svg">
  <path
    d="M16 8.00041C16 3.80041 12.75 0.350405 8.63 0.0304052C8.51 0.000405183 8.38 0.000405184 8.26 0.0104052C8.17 0.0104052 8.09 0.000405184 8 0.000405184C7.92 0.000405184 7.84 0.0104052 7.76 0.0104052C7.63 -0.00959482 7.5 0.000405183 7.37 0.0304052C3.25 0.350405 0 3.80041 0 8.00041C0 12.2004 3.25 15.6404 7.36 15.9704C7.44 15.9904 7.53 16.0004 7.61 16.0004C7.64 16.0004 7.68 15.9904 7.71 15.9904C7.81 15.9904 7.9 16.0004 8 16.0004C8.1 16.0004 8.19 15.9904 8.28 15.9904C8.31 15.9904 8.35 16.0004 8.38 16.0004C8.46 16.0004 8.55 15.9904 8.63 15.9704C12.75 15.6404 16 12.2004 16 8.00041ZM6.7 9.33041C6.6 8.4404 6.6 7.55041 6.7 6.66041H9.3C9.4 7.55041 9.4 8.4404 9.3 9.33041H6.7ZM8.92 11.3304C8.7 12.1304 8.39 12.9104 8 13.6604C7.61 12.9104 7.3 12.1304 7.08 11.3304H8.92ZM2 8.00041C2 7.54041 2.06 7.10041 2.15 6.67041H4.69C4.61 7.56041 4.61 8.45041 4.69 9.34041H2.15C2.06 8.90041 2 8.46041 2 8.00041ZM7.08 4.67041C7.3 3.87041 7.61 3.0904 8 2.3404C8.39 3.0904 8.7 3.87041 8.92 4.67041H7.08ZM11.31 6.67041H13.85C13.94 7.10041 14 7.54041 14 8.00041C14 8.46041 13.94 8.9004 13.85 9.33041H11.31C11.39 8.45041 11.39 7.55041 11.31 6.67041ZM12.99 4.67041H10.98C10.8 3.91041 10.56 3.17041 10.25 2.45041C11.37 2.90041 12.32 3.68041 12.99 4.67041ZM5.75 2.44041C5.44 3.17041 5.2 3.91041 5.02 4.67041H3.01C3.68 3.68041 4.63 2.90041 5.75 2.44041ZM3.01 11.3304H5.02C5.2 12.0904 5.44 12.8304 5.75 13.5504C4.63 13.1004 3.68 12.3204 3.01 11.3304ZM10.25 13.5604C10.56 12.8404 10.8 12.0904 10.98 11.3404H12.99C12.32 12.3204 11.37 13.1004 10.25 13.5604Z"
  />
</svg>
