<svg fill="currentColor" viewBox="0 0 16 16" xmlns="http://www.w3.org/2000/svg">
  <path
    d="M8.40039 2C8.95249 2.00021 9.40039 2.44785 9.40039 3V13C9.40039 13.5522 8.95249 13.9998 8.40039 14C7.84811 14 7.40039 13.5523 7.40039 13V9H3V13C3 13.5523 2.55228 14 2 14C1.44772 14 1 13.5523 1 13V3C1 2.44772 1.44772 2 2 2C2.55228 2 3 2.44772 3 3V7H7.40039V3C7.40039 2.44772 7.84811 2 8.40039 2ZM13.2793 5.64062C13.562 5.34651 13.9955 5.253 14.374 5.40527C14.7523 5.55771 14.9999 5.92516 15 6.33301V13C14.9998 13.552 14.552 13.9998 14 14C13.448 13.9998 13.0002 13.552 13 13V8.79785C12.615 9.08781 12.0669 9.06524 11.708 8.7207C11.3098 8.33834 11.2967 7.70602 11.6787 7.30762L13.2793 5.64062Z"
  />
</svg>
