<svg fill="currentColor" viewBox="0 0 16 16" xmlns="http://www.w3.org/2000/svg">
  <path
    d="M13.3535 5.33301C14.0592 5.33316 14.7341 5.61696 15.2295 6.11816C15.7244 6.61908 16 7.29671 16 8C15.9999 8.45736 15.8474 8.88694 15.6924 9.21582C15.5306 9.55894 15.3249 9.8787 15.1357 10.1377C15.1321 10.1427 15.1278 10.1474 15.124 10.1523L13.7207 12H15C15.5522 12.0001 16 12.4478 16 13C16 13.5522 15.5522 13.9999 15 14H11.7061C11.3262 14 10.9794 13.7846 10.8105 13.4443C10.6417 13.1041 10.6804 12.698 10.9102 12.3955L13.5205 8.95801L13.7197 8.66211C13.7813 8.56182 13.8368 8.46083 13.8828 8.36328C13.9811 8.15479 13.9998 8.03533 14 8C14 7.81962 13.9291 7.64851 13.8066 7.52441C13.6845 7.40084 13.5211 7.33316 13.3535 7.33301C13.1858 7.33301 13.0217 7.40075 12.8994 7.52441C12.7769 7.64851 12.7061 7.81962 12.7061 8C12.7058 8.55201 12.2581 8.9999 11.7061 9C11.1539 9 10.7063 8.55207 10.7061 8C10.7061 7.29656 10.9824 6.61911 11.4775 6.11816C11.973 5.61698 12.6478 5.33301 13.3535 5.33301ZM7.58789 2C8.14018 2 8.58789 2.44772 8.58789 3V12.999C8.58789 13.5513 8.14018 13.999 7.58789 13.999C7.03576 13.9988 6.58789 13.5512 6.58789 12.999V9H2V12.999C2 13.5513 1.55228 13.999 1 13.999C0.447715 13.999 0 13.5513 0 12.999V3C0 2.44772 0.447715 2 1 2C1.55228 2 2 2.44772 2 3V7H6.58789V3C6.58789 2.44783 7.03576 2.00018 7.58789 2Z"
  />
</svg>
