<svg fill="currentColor" viewBox="0 0 16 16" xmlns="http://www.w3.org/2000/svg">
  <path
    d="M7.58789 2C8.14018 2 8.58789 2.44772 8.58789 3V13C8.58789 13.5523 8.14017 14 7.58789 14C7.03576 13.9998 6.58789 13.5522 6.58789 13V9H2V13C2 13.5523 1.55228 14 1 14C0.447716 14 0 13.5523 0 13V3C0 2.44772 0.447715 2 1 2C1.55228 2 2 2.44772 2 3V7H6.58789V3C6.58789 2.44783 7.03576 2.00018 7.58789 2ZM12.3359 5.53809C12.821 5.33483 13.3563 5.28096 13.8721 5.38477C14.3876 5.48863 14.8602 5.74449 15.2295 6.11816C15.5986 6.49173 15.8489 6.96665 15.9502 7.48145C16.0514 7.99629 15.9986 8.53089 15.7998 9.0166C15.7036 9.25145 15.5733 9.46935 15.417 9.66602C15.5736 9.86311 15.7035 10.0821 15.7998 10.3174C15.9985 10.803 16.0513 11.3368 15.9502 11.8516C15.8489 12.3663 15.5985 12.8413 15.2295 13.2148C14.8602 13.5885 14.3876 13.8444 13.8721 13.9482C13.3563 14.052 12.821 13.9991 12.3359 13.7959C11.8512 13.5927 11.4388 13.2486 11.1494 12.8105C10.8602 12.3725 10.7062 11.8585 10.7061 11.334C10.7061 10.7817 11.1538 10.334 11.7061 10.334C12.2583 10.3341 12.7061 10.7818 12.7061 11.334C12.7062 11.4682 12.7459 11.5992 12.8184 11.709C12.8908 11.8184 12.9927 11.9023 13.1094 11.9512C13.2261 12 13.3545 12.0131 13.4775 11.9883C13.6005 11.9634 13.7155 11.9017 13.8066 11.8096C13.898 11.7172 13.9614 11.5973 13.9873 11.4658C14.0131 11.3343 13.9995 11.1974 13.9492 11.0742C13.8988 10.9514 13.814 10.8481 13.708 10.7764C13.6021 10.7047 13.4786 10.6671 13.3535 10.667C13.2499 10.667 13.1496 10.6513 13.0557 10.6221C12.9618 10.5928 12.8737 10.55 12.7939 10.4961C12.7142 10.4423 12.6431 10.3767 12.582 10.3027C12.4801 10.1792 12.4073 10.031 12.374 9.86816C12.3607 9.80316 12.3536 9.73592 12.3535 9.66699C12.3535 9.6326 12.355 9.59795 12.3584 9.56445C12.3891 9.26185 12.5545 8.99866 12.7939 8.83691C12.9536 8.72901 13.1464 8.66602 13.3535 8.66602C13.4786 8.6659 13.6021 8.62828 13.708 8.55664C13.814 8.48484 13.8989 8.38173 13.9492 8.25879C13.9996 8.13559 14.0132 7.99871 13.9873 7.86719C13.9614 7.73592 13.8978 7.61676 13.8066 7.52441C13.7155 7.43224 13.6005 7.37058 13.4775 7.3457C13.3545 7.32094 13.226 7.33302 13.1094 7.38184C12.9926 7.43079 12.8909 7.51532 12.8184 7.625C12.7458 7.73486 12.7061 7.86567 12.7061 8C12.7059 8.55207 12.2581 8.9999 11.7061 9C11.1539 9 10.7062 8.55214 10.7061 8C10.7061 7.47531 10.8601 6.96058 11.1494 6.52246C11.4388 6.08454 11.8513 5.74131 12.3359 5.53809Z"
  />
</svg>
