<svg fill="currentColor" viewBox="0 0 16 16" xmlns="http://www.w3.org/2000/svg">
  <path
    d="M7.58789 2C8.14018 2 8.58789 2.44772 8.58789 3V13C8.58789 13.5523 8.14018 14 7.58789 14C7.03576 13.9998 6.58789 13.5522 6.58789 13V9H2V13C2 13.5523 1.55228 14 1 14C0.447715 14 0 13.5523 0 13V3C0 2.44772 0.447715 2 1 2C1.55228 2 2 2.44772 2 3V7H6.58789V3C6.58789 2.44783 7.03576 2.00018 7.58789 2ZM13.3418 5.7832C13.5848 5.41476 14.041 5.24836 14.4639 5.375C14.8866 5.50192 15.1766 5.89159 15.1768 6.33301V10.3486C15.6446 10.4321 15.9998 10.8412 16 11.333C16 11.8249 15.6446 12.2328 15.1768 12.3164V13C15.1766 13.552 14.7287 13.9997 14.1768 14C13.6247 13.9999 13.1769 13.5521 13.1768 13V12.333H10.8828C10.515 12.333 10.1764 12.1314 10.002 11.8076C9.82758 11.4839 9.84563 11.0903 10.0479 10.7832L13.3418 5.7832ZM12.7383 10.333H13.1768V9.66797L12.7383 10.333Z"
  />
</svg>
