<svg fill="currentColor" viewBox="0 0 16 16" xmlns="http://www.w3.org/2000/svg">
  <path
    fill-rule="evenodd"
    clip-rule="evenodd"
    d="M7.25855 1.13459C7.34954 0.606839 6.99547 0.105248 6.46771 0.0142568C5.93995 -0.0767348 5.43835 0.277329 5.34735 0.805081L4.81739 3.87883H1.93942C1.40387 3.87883 0.969727 4.31297 0.969727 4.84851C0.969727 5.38405 1.40387 5.81818 1.93942 5.81818H4.48301L3.73066 10.1817H0.969697C0.434148 10.1817 0 10.6159 0 11.1514C0 11.687 0.434148 12.1211 0.969697 12.1211H3.39628L2.92311 14.8654C2.83212 15.3932 3.18619 15.8948 3.71395 15.9857C4.24171 16.0767 4.74331 15.7227 4.83431 15.1949L5.36429 12.1211H9.21446L8.74129 14.8654C8.6503 15.3932 9.00437 15.8948 9.53213 15.9857C10.0599 16.0767 10.5615 15.7227 10.6525 15.1949L11.1825 12.1211H14.0606C14.5962 12.1211 15.0303 11.687 15.0303 11.1514C15.0303 10.6159 14.5962 10.1817 14.0606 10.1817H11.5168L12.2692 5.81818H15.0303C15.5659 5.81818 16 5.38405 16 4.84851C16 4.31297 15.5659 3.87883 15.0303 3.87883H12.6036L13.0767 1.13459C13.1677 0.606839 12.8137 0.105248 12.2859 0.0142568C11.7581 -0.0767348 11.2565 0.277329 11.1655 0.805081L10.6356 3.87883H6.7854L7.25855 1.13459ZM6.45102 5.81818L5.69867 10.1817H9.54884L10.3012 5.81818H6.45102Z"
  />
</svg>
