<svg xmlns="http://www.w3.org/2000/svg" width="16" height="16" viewBox="0 0 16 16" fill="currentColor">
  <g clip-path="url(#clip0_5839_1254)">
    <path d="M7.89087 -0.00012207C9.85987 -0.0224953 11.7688 0.678662 13.2532 1.97058C14.7376 3.26267 15.6942 5.05567 15.9387 7.00671C16.1831 8.95757 15.6983 10.9297 14.5784 12.5468C13.4582 14.164 11.7807 15.3135 9.86646 15.7753C7.95228 16.237 5.93391 15.9791 4.19751 15.0516C3.36203 14.6053 2.62092 14.0173 2.00024 13.3231V14.2899C2.00003 14.842 1.5524 15.2899 1.00024 15.2899C0.44817 15.2898 0.000455695 14.842 0.000244141 14.2899V10.4003C0.000556882 9.84831 0.448233 9.40036 1.00024 9.40027H4.89868C5.45077 9.40027 5.89837 9.84825 5.89868 10.4003C5.89868 10.9526 5.45097 11.4003 4.89868 11.4003H3.02661C3.56646 12.182 4.28769 12.8327 5.13989 13.288C6.44365 13.9843 7.95988 14.1777 9.39771 13.8309C10.8354 13.4841 12.0938 12.6209 12.9338 11.4081C13.7739 10.1953 14.1366 8.71682 13.9534 7.25476C13.77 5.79283 13.0535 4.44884 11.9397 3.47937C10.8257 2.50987 9.39252 1.98205 7.91333 1.9989C6.43425 2.01581 5.01348 2.57568 3.92212 3.57019C2.83077 4.56483 2.14511 5.92564 1.99536 7.39148C1.93909 7.94074 1.448 8.34015 0.898682 8.28406C0.349503 8.22787 -0.0507154 7.73754 0.00512695 7.18835C0.204933 5.23233 1.12012 3.41825 2.57446 2.09265C4.02891 0.767097 5.92175 0.0223534 7.89087 -0.00012207ZM7.97876 3.95593C8.53084 3.95601 8.97853 4.40389 8.97876 4.95593V7.65222L10.2444 8.91492C10.6352 9.30485 10.636 9.93796 10.2463 10.329C9.85639 10.7198 9.22329 10.7207 8.83228 10.3309L7.27271 8.77527C7.08475 8.58772 6.97882 8.33278 6.97876 8.06726V4.95593C6.97899 4.40384 7.42662 3.95593 7.97876 3.95593Z" fill="#66758F"/>
  </g>

  <defs>
    <clipPath id="clip0_5839_1254">
      <rect width="16" height="16" fill="white"/>
    </clipPath>
  </defs>
</svg>

