<svg xmlns="http://www.w3.org/2000/svg" fill="none" viewBox="0 0 16 16">
  <path
    fill="currentColor"
    fill-rule="evenodd"
    d="M3.333 3c-.365 0-.708.14-.955.379A1.21 1.21 0 0 0 2 4.25v7.5c0 .32.131.634.378.871.247.239.59.379.955.379h9.334c.365 0 .708-.14.955-.379A1.21 1.21 0 0 0 14 11.75v-7.5c0-.32-.131-.634-.378-.871A1.378 1.378 0 0 0 12.667 3H3.333ZM.99 1.94A3.378 3.378 0 0 1 3.333 1h9.334c.872 0 1.716.334 2.344.94A3.21 3.21 0 0 1 16 4.25v7.5a3.21 3.21 0 0 1-.99 2.31 3.378 3.378 0 0 1-2.343.94H3.333a3.378 3.378 0 0 1-2.344-.94A3.21 3.21 0 0 1 0 11.75v-7.5c0-.874.36-1.704.99-2.31ZM3 11.2a1 1 0 0 1 1-1h8a1 1 0 1 1 0 2H4a1 1 0 0 1-1-1ZM10.4 7a1 1 0 1 0 0 2H12a1 1 0 1 0 0-2h-1.6Zm-1-2.2a1 1 0 0 1 1-1H12a1 1 0 1 1 0 2h-1.6a1 1 0 0 1-1-1Zm-3.8-1a2.6 2.6 0 1 0 0 5.2 2.6 2.6 0 0 0 0-5.2Zm-.424 2.176a.6.6 0 1 1 .848.848.6.6 0 0 1-.848-.848Z"
    clip-rule="evenodd"
  />
</svg>
