<svg viewBox="0 0 16 16" fill="none" xmlns="http://www.w3.org/2000/svg">
<g clip-path="url(#clip0_2828_51)">
<path fill-rule="evenodd" clip-rule="evenodd" d="M2.39052 2.39052C2.64057 2.14048 2.97971 2 3.33333 2H12.6667C13.0203 2 13.3594 2.14048 13.6095 2.39052C13.8595 2.64057 14 2.97971 14 3.33333V8.69676L13.3739 8.07065L13.3602 8.05719C12.8491 7.56542 12.2077 7.25684 11.5001 7.25684C10.7925 7.25684 10.1511 7.56542 9.64005 8.05719L9.62634 8.07065L9.55554 8.14144L7.92933 6.51523L7.91561 6.50177C7.40457 6.01 6.76319 5.70142 6.05556 5.70142C5.34792 5.70142 4.70654 6.01 4.1955 6.50177L4.18178 6.51523L2 8.69701V3.33333C2 2.97971 2.14048 2.64057 2.39052 2.39052ZM10.9698 9.55565L11.8182 10.4041C12.2087 10.7946 12.2087 11.4278 11.8182 11.8183C11.4277 12.2089 10.7945 12.2089 10.404 11.8183L6.52279 7.93711C6.31495 7.73937 6.15276 7.70142 6.05556 7.70142C5.95835 7.70142 5.79616 7.73937 5.58833 7.93711L2 11.5254V12.6667C2 13.0203 2.14048 13.3594 2.39052 13.6095C2.64057 13.8595 2.97971 14 3.33333 14H12.6667C13.0203 14 13.3594 13.8595 13.6095 13.6095C13.8595 13.3594 14 13.0203 14 12.6667V11.5252L11.9673 9.49253C11.7595 9.29479 11.5973 9.25684 11.5001 9.25684C11.4029 9.25684 11.2407 9.29479 11.0329 9.49253L10.9698 9.55565ZM16 11.1259V12.6667C16 13.5507 15.6488 14.3986 15.0237 15.0237C14.3986 15.6488 13.5507 16 12.6667 16H3.33333C2.44928 16 1.60143 15.6488 0.976311 15.0237C0.351189 14.3986 0 13.5507 0 12.6667V11.1112V3.33333C0 2.44928 0.35119 1.60143 0.976311 0.976311C1.60143 0.35119 2.44928 0 3.33333 0H12.6667C13.5507 0 14.3986 0.351189 15.0237 0.976311C15.6488 1.60143 16 2.44928 16 3.33333V11.0963C16.0001 11.1061 16.0001 11.116 16 11.1259ZM10.3335 3.88892C9.78121 3.88892 9.3335 4.33663 9.3335 4.88892C9.3335 5.4412 9.78121 5.88892 10.3335 5.88892H10.3413C10.8936 5.88892 11.3413 5.4412 11.3413 4.88892C11.3413 4.33663 10.8936 3.88892 10.3413 3.88892H10.3335Z" fill="currentColor"/>
</g>
<defs>
<clipPath id="clip0_2828_51">
<rect width="16.0001" height="16" fill="white"/>
</clipPath>
</defs>
</svg>
