<svg fill="currentColor" viewBox="0 0 16 16" xmlns="http://www.w3.org/2000/svg">
  <path
    d="M4.98828 3.99976C5.12109 3.99978 5.25257 4.02643 5.375 4.07788C5.49761 4.12947 5.60915 4.20543 5.70215 4.30054C5.88653 4.48737 5.9902 4.73923 5.99023 5.00171C5.99023 5.26418 5.88648 5.51603 5.70215 5.70288L3.08105 7.99976L5.71191 10.2966C5.89634 10.4835 5.99994 10.7353 6 10.9978C6 11.2604 5.89639 11.5131 5.71191 11.7C5.61906 11.7948 5.50809 11.8701 5.38574 11.9216C5.26313 11.9732 5.13107 11.9998 4.99805 11.9998C4.86504 11.9998 4.73295 11.9732 4.61035 11.9216C4.48802 11.8701 4.37702 11.7948 4.28418 11.7L1.64746 9.25269L1.43848 9.05835C1.15797 8.77751 1 8.39667 1 7.99976C1.00005 7.6029 1.15801 7.22196 1.43848 6.94116L4.27441 4.30054C4.36738 4.20549 4.47804 4.12946 4.60059 4.07788C4.7232 4.02629 4.85526 3.99976 4.98828 3.99976ZM11.002 3.99976C11.135 3.99976 11.267 4.02629 11.3896 4.07788C11.5122 4.12947 11.6229 4.20549 11.7158 4.30054L14.3525 6.74683L14.5615 6.94116C14.842 7.22194 14.9999 7.60293 15 7.99976C15 8.39667 14.842 8.77751 14.5615 9.05835L11.7256 11.7C11.6327 11.7948 11.5218 11.8701 11.3994 11.9216C11.2768 11.9732 11.1447 11.9998 11.0117 11.9998C10.8789 11.9997 10.7475 11.9731 10.625 11.9216C10.5025 11.8701 10.3908 11.795 10.2979 11.7C10.1134 11.5131 10.0098 11.2604 10.0098 10.9978C10.0098 10.7353 10.1135 10.4834 10.2979 10.2966L12.9189 7.99976L10.2881 5.70386C10.1036 5.51698 10 5.26429 10 5.00171C10.0001 4.7392 10.1037 4.48737 10.2881 4.30054C10.381 4.20549 10.4917 4.12946 10.6143 4.07788C10.7369 4.02629 10.8689 3.99976 11.002 3.99976Z"
  />
</svg>
