<svg fill="currentColor" viewBox="0 0 16 16" xmlns="http://www.w3.org/2000/svg">
  <path
    fill-rule="evenodd"
    clip-rule="evenodd"
    d="M15 1C15.5523 1 16 1.44772 16 2V9.99728V10C16 10.5523 15.5523 11 15 11C14.9702 11 14.9407 10.9987 14.9115 10.9961H3.24496L5.74595 13.2885C5.93227 13.4757 6.03686 13.7288 6.03686 13.9927C6.03686 14.2566 5.93227 14.5098 5.74595 14.6969C5.6527 14.7928 5.54113 14.869 5.41783 14.9211C5.29454 14.9732 5.16203 15 5.02817 15C4.8943 15 4.76179 14.9732 4.6385 14.9211C4.5152 14.869 4.40363 14.7928 4.31038 14.6969L0.438853 11.0561C0.157841 10.7751 0 10.3943 0 9.99728C0 9.60024 0.157841 9.21943 0.438853 8.9385L4.29037 5.29267C4.48205 5.10508 4.73976 5 5.00816 5C5.27656 5 5.53426 5.10508 5.72594 5.29267C5.81895 5.38544 5.89274 5.4956 5.94309 5.61686C5.99343 5.73812 6.01934 5.86809 6.01934 5.99936C6.01934 6.13062 5.99343 6.2606 5.94309 6.38186C5.89274 6.50312 5.81895 6.61328 5.72594 6.70605L3.23996 8.99843H14V3H11C10.4477 3 10 2.55228 10 2C10 1.44772 10.4477 1 11 1H15Z"
  />
</svg>
