<svg fill="currentColor" viewBox="0 0 16 16" xmlns="http://www.w3.org/2000/svg">
  <path
    d="M1 11.9912C1.55228 11.9912 2 12.4389 2 12.9912V13.001C1.9998 13.5531 1.55216 14.001 1 14.001C0.447837 14.001 0.000197863 13.5531 0 13.001V12.9912C0 12.4389 0.447715 11.9912 1 11.9912ZM15 11.9912C15.5523 11.9912 16 12.4389 16 12.9912C15.9998 13.5433 15.5521 13.9912 15 13.9912H4.7334C4.18124 13.9912 3.7336 13.5433 3.7334 12.9912C3.7334 12.4389 4.18111 11.9912 4.7334 11.9912H15ZM1 6.49512C1.5522 6.49512 1.99987 6.94294 2 7.49512V7.50488C2 8.05717 1.55228 8.50488 1 8.50488C0.447715 8.50488 0 8.05717 0 7.50488V7.49512C0.00013192 6.94294 0.447797 6.49512 1 6.49512ZM15 6.49512C15.5522 6.49515 15.9999 6.94297 16 7.49512C16 8.04738 15.5523 8.49508 15 8.49512H4.7334C4.18111 8.49512 3.7334 8.0474 3.7334 7.49512C3.73353 6.94294 4.1812 6.49512 4.7334 6.49512H15ZM1 1C1.55228 1 2 1.44772 2 2V2.00977C2 2.56205 1.55228 3.00977 1 3.00977C0.447715 3.00977 0 2.56205 0 2.00977V2C0 1.44772 0.447715 1 1 1ZM15 1C15.5523 1.00003 16 1.44774 16 2C16 2.55226 15.5523 2.99997 15 3H4.7334C4.18111 3 3.7334 2.55228 3.7334 2C3.7334 1.44772 4.18111 1 4.7334 1H15Z"
  />
</svg>
