<svg fill="currentColor" viewBox="0 0 16 16" xmlns="http://www.w3.org/2000/svg">
  <path
    fill-rule="evenodd"
    clip-rule="evenodd"
    d="M2.7502 8.74992C3.47949 8.74992 4.17882 9.03992 4.69453 9.55558C5.21026 10.0713 5.5002 10.7706 5.5002 11.4999C5.50019 12.0681 5.25112 12.5004 5.01289 12.8036C4.79966 13.075 4.50017 13.3515 4.33223 13.5194C4.31093 13.5407 4.28896 13.5617 4.26582 13.581L3.76289 13.9999H4.5002C5.05248 13.9999 5.5002 14.4476 5.5002 14.9999C5.50018 15.5522 5.05247 15.9999 4.5002 15.9999H1.0002C0.579384 15.9998 0.203148 15.7364 0.0597693 15.3407C-0.0834888 14.945 0.0363442 14.5009 0.359574 14.2314L2.95723 12.0653C3.00286 12.0201 3.04808 11.9765 3.08907 11.9364C3.14326 11.8834 3.19198 11.8367 3.2375 11.7909C3.33007 11.6978 3.39414 11.6274 3.44063 11.5683C3.47554 11.5238 3.49077 11.4949 3.49825 11.4804C3.49324 11.2886 3.4165 11.1057 3.28047 10.9696C3.13983 10.8291 2.94906 10.7499 2.7502 10.7499C2.55138 10.75 2.36052 10.829 2.21993 10.9696C2.07936 11.1103 2.0002 11.3011 2.0002 11.4999C2.00018 12.0522 1.55247 12.4999 1.0002 12.4999C0.448037 12.4998 0.000214448 12.0521 0.000198992 11.4999C0.000198992 10.7706 0.290224 10.0713 0.805863 9.55558C1.32153 9.03991 2.02094 8.74998 2.7502 8.74992ZM15.0002 12.2499C15.5525 12.2499 16.0002 12.6976 16.0002 13.2499C16.0002 13.8022 15.5525 14.2499 15.0002 14.2499H8.0002C7.44804 14.2498 7.00021 13.8021 7.0002 13.2499C7.0002 12.6977 7.44803 12.25 8.0002 12.2499H15.0002ZM15.0002 6.99992C15.5525 6.99992 16.0002 7.44763 16.0002 7.99992C16.0002 8.55219 15.5525 8.99992 15.0002 8.99992H7.1252C6.57304 8.99978 6.12521 8.55211 6.1252 7.99992C6.1252 7.44771 6.57303 7.00005 7.1252 6.99992H15.0002ZM2.04317 0.292886C2.32912 0.00693307 2.75938 -0.0785917 3.13301 0.0760891C3.50661 0.2309 3.7502 0.595501 3.7502 0.999917V6.24992C3.75017 6.80218 3.30246 7.24992 2.7502 7.24992C2.19804 7.24979 1.75023 6.8021 1.7502 6.24992V3.41398L1.70723 3.45695C1.31669 3.84733 0.683644 3.84742 0.293168 3.45695C-0.0972218 3.06647 -0.0971839 2.43339 0.293168 2.04289L2.04317 0.292886ZM15.0002 1.74992C15.5525 1.74992 16.0002 2.19763 16.0002 2.74992C16.0002 3.30219 15.5525 3.74992 15.0002 3.74992H7.1252C6.57304 3.74978 6.12521 3.30211 6.1252 2.74992C6.1252 2.19771 6.57303 1.75005 7.1252 1.74992H15.0002Z"
  />
</svg>
