<svg viewBox="0 0 16 16" xmlns="http://www.w3.org/2000/svg">
  <path
    fill="currentColor"
    clip-rule="evenodd"
    d="M2 14H7C7.27 14 7.52 14.11 7.71 14.29C7.89 14.48 8 14.73 8 15C8 15.27 7.89 15.52 7.71 15.71C7.52 15.89 7.27 16 7 16H2C1.47 16 0.96 15.79 0.59 15.41C0.21 15.04 0 14.53 0 14V2C0 1.47 0.21 0.96 0.59 0.59C0.96 0.21 1.47 0 2 0H7C7.27 0 7.52 0.11 7.71 0.29C7.89 0.48 8 0.73 8 1C8 1.27 7.89 1.52 7.71 1.71C7.52 1.89 7.27 2 7 2H2V14ZM11.7057 3.3003L15.5596 6.94394C15.8398 7.22422 16 7.61461 16 8.005C16 8.40541 15.8398 8.78579 15.5696 9.05606L11.7157 12.7097C11.5255 12.8899 11.2653 13 10.995 13C10.7247 13 10.4645 12.8999 10.2743 12.7097C10.1742 12.6196 10.1041 12.5095 10.0541 12.3894C10.004 12.2693 9.97397 12.1391 9.97397 12.009C9.97397 11.8789 10.004 11.7487 10.0541 11.6286C10.1041 11.5085 10.1842 11.3984 10.2743 11.3083L12.7568 9.00601H7.001C6.74074 9.00601 6.48048 8.90591 6.29029 8.71572C6.11011 8.52553 6 8.27528 6 8.005C6 7.74474 6.11011 7.48448 6.29029 7.3043C6.48048 7.11411 6.74074 7.004 7.001 7.004H12.7768L10.2743 4.71171C10.0841 4.52152 9.98398 4.26126 9.98398 4.001C9.98398 3.74074 10.0841 3.49049 10.2643 3.3003C10.3644 3.21021 10.4745 3.13013 10.5946 3.08008C10.7147 3.03003 10.8549 3 10.985 3C11.1151 3 11.2553 3.03003 11.3754 3.08008C11.5055 3.13013 11.6156 3.2002 11.7057 3.3003Z"
  />
</svg>
