<svg fill="currentColor" viewBox="0 0 16 16" xmlns="http://www.w3.org/2000/svg">
  <path
    d="M1.99999 7.00001C1.99999 6.0111 2.29324 5.04441 2.84265 4.22216C3.39205 3.39991 4.17295 2.75905 5.08658 2.38061C6.00021 2.00218 7.00554 1.90316 7.97545 2.09608C8.94535 2.28901 9.83627 2.76521 10.5355 3.46448C11.2348 4.16374 11.711 5.05465 11.9039 6.02456C12.0968 6.99446 11.9978 7.9998 11.6194 8.91343C11.241 9.82706 10.6001 10.608 9.77785 11.1574C8.9556 11.7068 7.9889 12 6.99999 12C5.67391 12 4.40214 11.4732 3.46446 10.5355C2.52678 9.59786 1.99999 8.32609 1.99999 7.00001ZM14.295 15.7C14.4824 15.8863 14.7358 15.9908 15 15.9908C15.2642 15.9908 15.5176 15.8863 15.705 15.7C15.8002 15.6069 15.8759 15.4957 15.9276 15.3729C15.9793 15.2501 16.0059 15.1182 16.0059 14.985C16.0059 14.8518 15.9793 14.7199 15.9276 14.5971C15.8759 14.4744 15.8002 14.3631 15.705 14.27L12.625 11.19C13.6894 9.76662 14.1751 7.9929 13.9844 6.22582C13.7937 4.45873 12.9408 2.82946 11.5973 1.6659C10.2538 0.502338 8.51937 -0.10914 6.74317 -0.0454717C4.96697 0.0181966 3.28081 0.752285 2.02404 2.00906C0.767269 3.26583 0.0331808 4.95198 -0.0304876 6.72819C-0.0941559 8.50439 0.517322 10.2388 1.68088 11.5823C2.84445 12.9258 4.47372 13.7788 6.2408 13.9694C8.00788 14.1601 9.78161 13.6744 11.205 12.61L14.295 15.7Z"
  />
</svg>
