<svg viewBox="0 0 16 16" fill="currentColor" xmlns="http://www.w3.org/2000/svg">
  <path
    fill-rule="evenodd"
    clip-rule="evenodd"
    d="M2.17353 3.65659C2.27768 3.55511 2.41479 3.5 2.55556 3.5H13.4444C13.5852 3.5 13.7223 3.5551 13.8265 3.65658L7.99998 7.58053L2.17353 3.65659ZM8.29369e-05 4.0507C-0.000159419 4.06268 -0.000186672 4.07465 9.60426e-10 4.08661V11.9286C9.60426e-10 12.6073 0.266805 13.2602 0.744925 13.7432C1.22338 14.2266 1.87448 14.5 2.55556 14.5H13.4444C14.1255 14.5 14.7766 14.2266 15.2551 13.7432C15.7332 13.2602 16 12.6073 16 11.9286V4.08385C16.0001 4.07398 16.0001 4.0641 15.9999 4.05422C15.9955 3.38167 15.7292 2.73567 15.2551 2.25675C14.7766 1.77341 14.1255 1.5 13.4444 1.5H2.55556C1.87449 1.5 1.22338 1.77341 0.744925 2.25675C0.271673 2.73483 0.00545555 3.37942 8.29369e-05 4.0507ZM14 5.95097V11.9286C14 12.0834 13.939 12.2298 13.8337 12.3362C13.7287 12.4423 13.5885 12.5 13.4444 12.5H2.55556C2.41151 12.5 2.27129 12.4423 2.1663 12.3362C2.06097 12.2298 2 12.0834 2 11.9286V5.951L7.44138 9.6156C7.77906 9.84302 8.2209 9.84302 8.55858 9.6156L14 5.95097Z"
  />
</svg>
