<svg fill="currentColor" viewBox="0 0 16 16" xmlns="http://www.w3.org/2000/svg">
  <path
    fill-rule="evenodd"
    clip-rule="evenodd"
    d="M4.93675 0.0848028L0.575865 2.02297C0.225681 2.17861 0 2.52588 0 2.90909V15.0303C0 15.3585 0.166061 15.6645 0.441296 15.8434C0.71653 16.0222 1.06357 16.0497 1.36353 15.9164L5.36964 14.1359L10.3296 15.9395C10.3562 15.9494 10.3832 15.9581 10.4104 15.9655C10.4308 15.9711 10.4513 15.976 10.4719 15.9802C10.5342 15.993 10.5975 15.9996 10.6609 16C10.697 16.0002 10.7331 15.9984 10.7691 15.9946C10.8073 15.9905 10.8454 15.9842 10.8831 15.9755C10.9042 15.9707 10.9252 15.9652 10.946 15.9589C10.987 15.9466 11.0272 15.9315 11.0665 15.9137L15.4241 13.977C15.7743 13.8214 16 13.4741 16 13.0909V0.969699C16 0.64145 15.8339 0.335484 15.5587 0.156616C15.2835 -0.0222512 14.9364 -0.0497353 14.6365 0.0835794L10.6304 1.86407L5.66977 0.060221C5.63433 0.0471124 5.59827 0.0361282 5.56176 0.0272838C5.37499 -0.0179692 5.17681 -0.00720447 4.99313 0.0616319C4.97414 0.0687482 4.95533 0.0764732 4.93675 0.0848028ZM11.6364 13.5382V3.53926L14.0606 2.46183V12.4607L11.6364 13.5382ZM9.69696 3.58829L6.30304 2.35414V12.4117L9.69696 13.6459V3.58829ZM1.93939 3.53927V13.5382L4.36363 12.4607V2.46183L1.93939 3.53927Z"
  />
</svg>
