<svg viewBox="0 0 16 16" xmlns="http://www.w3.org/2000/svg" width="16" height="16" fill="none">
  <path
    fill="#191919"
    fill-rule="evenodd"
    d="m8.806.116-.33 4.053a4.131 4.131 0 0 0-1.058.018l-.187-1.965a.108.108 0 0 1 .107-.115h.334L7.512.12c-.005-.062.044-.116.102-.116h1.09c.062 0 .11.054.102.116V.116Zm-2.749.2C6.04.258 5.977.222 5.92.244L4.897.618a.104.104 0 0 0-.058.142l.831 1.813-.315.116c-.058.022-.085.089-.058.142l.85 1.782c.306-.169.64-.297.991-.377L6.062.316h-.005ZM3.55 1.444 5.902 4.76c-.298.196-.57.427-.8.693l-1.41-1.386a.107.107 0 0 1 .004-.156l.258-.213L2.553 2.28a.104.104 0 0 1 .009-.156l.831-.697a.103.103 0 0 1 .152.017h.004Zm-1.975 1.92c-.049-.035-.12-.017-.15.036l-.544.942a.105.105 0 0 0 .045.147l1.806.853-.17.29a.102.102 0 0 0 .05.146l1.796.822c.13-.333.303-.644.516-.924L1.574 3.364Zm-1.33 2.56c.01-.062.072-.097.13-.084l3.935 1.027a3.89 3.89 0 0 0-.169 1.049l-1.97-.16a.103.103 0 0 1-.093-.125l.058-.329-1.988-.186C.084 7.11.044 7.053.053 6.99L.24 5.92l.005.004ZM.099 8.582c-.063.005-.103.062-.094.125l.192 1.07c.008.063.07.099.129.085l1.93-.502.058.329c.008.062.07.098.129.084l1.903-.524a3.85 3.85 0 0 1-.2-1.04l-4.052.373h.005ZM.729 11.4a.105.105 0 0 1 .045-.147l3.673-1.742c.138.329.325.636.547.911l-1.61 1.147a.105.105 0 0 1-.15-.031l-.17-.294-1.64 1.134c-.05.035-.121.018-.152-.036L.725 11.4h.004Zm4.452-.764-2.86 2.893a.104.104 0 0 0 .01.155l.835.698c.05.04.116.031.152-.018l1.156-1.626.258.218c.049.04.12.03.156-.023l1.12-1.626a3.993 3.993 0 0 1-.822-.671H5.18Zm-.565 4.644c-.057-.022-.084-.089-.057-.142l1.694-3.698c.311.16.65.28 1 .347l-.497 1.91a.105.105 0 0 1-.138.072l-.316-.116-.53 1.925c-.017.058-.08.093-.137.07l-1.023-.373.004.005Zm2.918-3.444-.33 4.053c-.004.062.045.115.103.115h1.09a.102.102 0 0 0 .102-.115l-.16-1.987h.333a.108.108 0 0 0 .107-.115l-.187-1.965a3.652 3.652 0 0 1-1.058.014ZM11.457.861a.103.103 0 0 0-.058-.142L10.376.347c-.058-.023-.12.013-.138.07l-.53 1.925-.315-.115c-.058-.023-.12.013-.138.07L8.757 4.21c.356.071.69.19 1 .347l1.7-3.694Zm2.232 1.614-2.86 2.893a3.882 3.882 0 0 0-.822-.671l1.12-1.627a.108.108 0 0 1 .156-.022l.258.218 1.156-1.627a.103.103 0 0 1 .152-.018l.836.698c.049.04.049.111.009.156h-.005Zm1.548 2.275a.102.102 0 0 0 .044-.147l-.547-.942a.11.11 0 0 0-.15-.035L12.941 4.76l-.169-.289c-.031-.053-.102-.071-.151-.031l-1.61 1.147c.222.275.404.582.547.91l3.674-1.741.004-.005Zm.578 1.476.187 1.07a.107.107 0 0 1-.093.125l-4.052.378a3.812 3.812 0 0 0-.2-1.04l1.903-.524a.102.102 0 0 1 .13.084l.057.329 1.93-.502c.058-.014.12.022.13.084l.008-.004Zm-.182 3.933c.058.013.12-.022.129-.085l.186-1.07a.107.107 0 0 0-.093-.125l-1.988-.187.058-.329a.107.107 0 0 0-.094-.124l-1.97-.16a3.89 3.89 0 0 1-.169 1.049l3.936 1.027.005.004Zm-1.05 2.444a.11.11 0 0 1-.151.036l-3.349-2.311c.213-.28.387-.591.516-.925l1.797.823c.057.026.08.093.049.146l-.17.29 1.806.852a.105.105 0 0 1 .045.147l-.543.942Zm-4.479-1.364 2.353 3.316a.103.103 0 0 0 .151.017l.832-.697a.107.107 0 0 0 .009-.156l-1.4-1.418.257-.213c.049-.04.049-.111.005-.156l-1.41-1.386a3.839 3.839 0 0 1-.8.693h.003Zm-.022 4.515c-.058.023-.12-.013-.138-.07l-1.076-3.92c.351-.08.685-.21.992-.378l.85 1.782c.026.058 0 .124-.058.142l-.316.116.832 1.813c.026.058 0 .12-.058.142l-1.023.373h-.005Z"
    clip-rule="evenodd"
  />
</svg>
