<svg fill="currentColor" viewBox="0 0 16 16" xmlns="http://www.w3.org/2000/svg">
  <path
    d="M14 14H2V2H6C6.26522 2 6.51957 1.89464 6.70711 1.70711C6.89464 1.51957 7 1.26522 7 1C7 0.734784 6.89464 0.48043 6.70711 0.292893C6.51957 0.105357 6.26522 0 6 0L2 0C1.46957 0 0.960859 0.210714 0.585786 0.585786C0.210714 0.960859 0 1.46957 0 2L0 14C0 14.5304 0.210714 15.0391 0.585786 15.4142C0.960859 15.7893 1.46957 16 2 16H14C14.5304 16 15.0391 15.7893 15.4142 15.4142C15.7893 15.0391 16 14.5304 16 14V10C16 9.73478 15.8946 9.48043 15.7071 9.29289C15.5196 9.10536 15.2652 9 15 9C14.7348 9 14.4804 9.10536 14.2929 9.29289C14.1054 9.48043 14 9.73478 14 10V14ZM14 3.4V6C14 6.26522 14.1054 6.51957 14.2929 6.70711C14.4804 6.89464 14.7348 7 15 7C15.2652 7 15.5196 6.89464 15.7071 6.70711C15.8946 6.51957 16 6.26522 16 6V2C16 1.46957 15.7893 0.960859 15.4142 0.585786C15.0391 0.210714 14.5304 0 14 0L10 0C9.73478 0 9.48043 0.105357 9.29289 0.292893C9.10536 0.48043 9 0.734784 9 1C9 1.26522 9.10536 1.51957 9.29289 1.70711C9.48043 1.89464 9.73478 2 10 2H12.565L7.295 7.27C7.10875 7.45736 7.00421 7.71081 7.00421 7.975C7.00421 8.23919 7.10875 8.49264 7.295 8.68C7.38813 8.77525 7.49935 8.85092 7.62214 8.90259C7.74492 8.95426 7.87679 8.98088 8.01 8.98088C8.14321 8.98088 8.27508 8.95426 8.39786 8.90259C8.52065 8.85092 8.63187 8.77525 8.725 8.68L14 3.4Z"
  />
</svg>
