<svg fill="currentColor" viewBox="0 0 16 16" xmlns="http://www.w3.org/2000/svg">
  <path
    d="M8.28 4.74499C8.36155 4.66557 8.45822 4.60334 8.56428 4.56199C8.67034 4.52064 8.78362 4.50102 8.89741 4.50428C9.01119 4.50755 9.12316 4.53363 9.22668 4.58099C9.33019 4.62835 9.42314 4.69602 9.5 4.77999C9.65912 4.95335 9.74446 5.18186 9.73792 5.41708C9.73139 5.6523 9.6335 5.87573 9.465 6.03999L6.405 8.99999C6.32595 9.07346 6.2629 9.16244 6.21978 9.26137C6.17667 9.36031 6.15442 9.46707 6.15442 9.57499C6.15442 9.68291 6.17667 9.78967 6.21978 9.8886C6.2629 9.98754 6.32595 10.0765 6.405 10.15C6.58844 10.3144 6.82614 10.4054 7.0725 10.4054C7.31886 10.4054 7.55655 10.3144 7.74 10.15L11.88 6.14999C12.1212 5.91685 12.313 5.63756 12.444 5.32875C12.575 5.01994 12.6425 4.68793 12.6425 4.35249C12.6425 4.01705 12.575 3.68503 12.444 3.37622C12.313 3.06741 12.1212 2.78812 11.88 2.55499C11.3597 2.06121 10.6698 1.78593 9.9525 1.78593C9.23521 1.78593 8.54528 2.06121 8.025 2.55499L3.525 6.91999C3.11609 7.30903 2.79052 7.77712 2.56805 8.29584C2.34559 8.81456 2.23087 9.37308 2.23087 9.93749C2.23087 10.5019 2.34559 11.0604 2.56805 11.5791C2.79052 12.0979 3.11609 12.5659 3.525 12.955C4.38418 13.7739 5.52557 14.2307 6.7125 14.2307C7.89942 14.2307 9.04082 13.7739 9.9 12.955L14.04 8.95499C14.1216 8.87479 14.2186 8.8119 14.3252 8.7701C14.4317 8.72829 14.5456 8.70842 14.66 8.71169C14.7743 8.71496 14.8869 8.7413 14.9909 8.78912C15.0948 8.83694 15.1881 8.90526 15.265 8.98999C15.4215 9.16364 15.5051 9.39084 15.4986 9.62449C15.4921 9.85814 15.3959 10.0803 15.23 10.245L11.09 14.245C9.91321 15.3738 8.34566 16.0041 6.715 16.0041C5.08434 16.0041 3.51678 15.3738 2.34 14.245C1.76239 13.6856 1.30312 13.0158 0.98947 12.2754C0.675821 11.535 0.514194 10.7391 0.514194 9.93499C0.514194 9.13089 0.675821 8.335 0.98947 7.5946C1.30312 6.8542 1.76239 6.1844 2.34 5.62499L6.84 1.25999C7.67789 0.456305 8.79398 0.00756836 9.955 0.00756836C11.116 0.00756836 12.2321 0.456305 13.07 1.25999C13.4849 1.66057 13.8149 2.14062 14.0403 2.67151C14.2657 3.20239 14.3819 3.77324 14.3819 4.34999C14.3819 4.92674 14.2657 5.49758 14.0403 6.02847C13.8149 6.55935 13.4849 7.0394 13.07 7.43999L8.925 11.44C8.42744 11.9194 7.76342 12.1872 7.0725 12.1872C6.38158 12.1872 5.71756 11.9194 5.22 11.44C4.9685 11.1983 4.7684 10.9083 4.63172 10.5874C4.49504 10.2665 4.42459 9.92129 4.42459 9.57249C4.42459 9.22369 4.49504 8.87848 4.63172 8.55757C4.7684 8.23666 4.9685 7.94667 5.22 7.70499L8.28 4.74499Z"
  />
</svg>
