<svg fill="currentColor" viewBox="0 0 16 16" xmlns="http://www.w3.org/2000/svg">
  <path
    fill-rule="evenodd"
    clip-rule="evenodd"
    d="M16.015 7.99001C16.015 12.4083 12.4333 15.99 8.01498 15.99C3.59671 15.99 0.0149841 12.4083 0.0149841 7.99001C0.0149841 3.57173 3.59671 -0.00999451 8.01498 -0.00999451C12.4333 -0.00999451 16.015 3.57173 16.015 7.99001ZM5 10.5C5 10.7652 5.10536 11.0196 5.29289 11.2071C5.48043 11.3946 5.73478 11.5 6 11.5C6.26522 11.5 6.51957 11.3946 6.70711 11.2071C6.89464 11.0196 7 10.7652 7 10.5V5.5C7 5.23478 6.89464 4.98043 6.70711 4.79289C6.51957 4.60536 6.26522 4.5 6 4.5C5.73478 4.5 5.48043 4.60536 5.29289 4.79289C5.10536 4.98043 5 5.23478 5 5.5V10.5ZM9 10.5C9 10.7652 9.10536 11.0196 9.29289 11.2071C9.48043 11.3946 9.73478 11.5 10 11.5C10.2652 11.5 10.5196 11.3946 10.7071 11.2071C10.8946 11.0196 11 10.7652 11 10.5V5.5C11 5.23478 10.8946 4.98043 10.7071 4.79289C10.5196 4.60536 10.2652 4.5 10 4.5C9.73478 4.5 9.48043 4.60536 9.29289 4.79289C9.10536 4.98043 9 5.23478 9 5.5V10.5Z"
  />
</svg>
