<svg fill="currentColor" viewBox="0 0 16 16" xmlns="http://www.w3.org/2000/svg">
  <path
    fill-rule="evenodd"
    clip-rule="evenodd"
    d="M3.50042 1.34824C4.81601 0.469192 6.36273 0 7.94498 0C10.0667 0 12.1015 0.842855 13.6018 2.34315C15.1021 3.84344 15.945 5.87827 15.945 8C15.945 9.58225 15.4758 11.129 14.5967 12.4446C13.7177 13.7602 12.4683 14.7855 11.0064 15.391C9.54464 15.9965 7.93611 16.155 6.38426 15.8463C4.83241 15.5376 3.40695 14.7757 2.28813 13.6569C1.16931 12.538 0.40738 11.1126 0.0986982 9.56072C-0.209984 8.00887 -0.0515569 6.40034 0.553944 4.93853C1.15945 3.47672 2.18483 2.22729 3.50042 1.34824ZM4.61156 12.9888C5.59825 13.6481 6.75829 14 7.94498 14C9.53628 14 11.0624 13.3679 12.1876 12.2426C13.3128 11.1174 13.945 9.5913 13.945 8C13.945 6.81331 13.5931 5.65327 12.9338 4.66658C12.2745 3.67988 11.3374 2.91085 10.2411 2.45672C9.14472 2.0026 7.93832 1.88378 6.77444 2.11529C5.61055 2.3468 4.54145 2.91824 3.70234 3.75736C2.86322 4.59647 2.29178 5.66557 2.06027 6.82946C1.82876 7.99334 1.94758 9.19974 2.4017 10.2961C2.85583 11.3925 3.62486 12.3295 4.61156 12.9888ZM5.94499 4.5C5.67978 4.5 5.42542 4.60536 5.23788 4.79289C5.05035 4.98043 4.94499 5.23478 4.94499 5.5V10.5C4.94499 10.7652 5.05035 11.0196 5.23788 11.2071C5.42542 11.3946 5.67978 11.5 5.94499 11.5C6.21021 11.5 6.46456 11.3946 6.6521 11.2071C6.83963 11.0196 6.94499 10.7652 6.94499 10.5V5.5C6.94499 5.23478 6.83963 4.98043 6.6521 4.79289C6.46456 4.60536 6.21021 4.5 5.94499 4.5ZM9.94499 4.5C9.67978 4.5 9.42542 4.60536 9.23789 4.79289C9.05035 4.98043 8.94499 5.23478 8.94499 5.5V10.5C8.94499 10.7652 9.05035 11.0196 9.23789 11.2071C9.42542 11.3946 9.67978 11.5 9.94499 11.5C10.2102 11.5 10.4646 11.3946 10.6521 11.2071C10.8396 11.0196 10.945 10.7652 10.945 10.5V5.5C10.945 5.23478 10.8396 4.98043 10.6521 4.79289C10.4646 4.60536 10.2102 4.5 9.94499 4.5Z"
  />
</svg>
