<svg fill="currentColor" viewBox="0 0 16 16" xmlns="http://www.w3.org/2000/svg">
  <path
    d="M14.175 1.265C14.3701 1.44363 14.4865 1.6923 14.4987 1.95657C14.5109 2.22085 14.4179 2.47918 14.24 2.675L3.24 14.675C3.14606 14.7777 3.03172 14.8596 2.9043 14.9156C2.77687 14.9716 2.63917 15.0003 2.5 15C2.30624 14.9995 2.11681 14.9426 1.95475 14.8364C1.79268 14.7302 1.66495 14.5793 1.5871 14.4018C1.50924 14.2244 1.48461 14.0282 1.51619 13.837C1.54777 13.6458 1.63421 13.468 1.765 13.325L12.765 1.325C12.9443 1.13056 13.1934 1.01508 13.4576 1.00384C13.7219 0.992591 13.9798 1.0865 14.175 1.265ZM13 14C13.1978 14 13.3911 13.9414 13.5556 13.8315C13.72 13.7216 13.8482 13.5654 13.9239 13.3827C13.9996 13.2 14.0194 12.9989 13.9808 12.8049C13.9422 12.6109 13.847 12.4327 13.7071 12.2929C13.5673 12.153 13.3891 12.0578 13.1951 12.0192C13.0011 11.9806 12.8 12.0004 12.6173 12.0761C12.4346 12.1518 12.2784 12.28 12.1685 12.4444C12.0587 12.6089 12 12.8022 12 13C12 13.2652 12.1054 13.5196 12.2929 13.7071C12.4804 13.8946 12.7348 14 13 14ZM13 10C13.5933 10 14.1734 10.1759 14.6667 10.5056C15.1601 10.8352 15.5446 11.3038 15.7716 11.8519C15.9987 12.4001 16.0581 13.0033 15.9424 13.5853C15.8266 14.1672 15.5409 14.7018 15.1213 15.1213C14.7018 15.5409 14.1672 15.8266 13.5853 15.9424C13.0033 16.0581 12.4001 15.9987 11.852 15.7716C11.3038 15.5446 10.8352 15.1601 10.5056 14.6667C10.1759 14.1734 10 13.5933 10 13C10 12.2044 10.3161 11.4413 10.8787 10.8787C11.4413 10.3161 12.2044 10 13 10ZM2 3C2 3.19778 2.05865 3.39112 2.16853 3.55557C2.27841 3.72002 2.43459 3.84819 2.61732 3.92388C2.80004 3.99957 3.00111 4.01937 3.19509 3.98079C3.38907 3.9422 3.56726 3.84696 3.70711 3.70711C3.84696 3.56725 3.9422 3.38907 3.98079 3.19509C4.01937 3.00111 3.99957 2.80004 3.92388 2.61732C3.84819 2.43459 3.72002 2.27841 3.55557 2.16853C3.39112 2.05865 3.19778 2 3 2C2.73478 2 2.48043 2.10536 2.29289 2.29289C2.10536 2.48043 2 2.73478 2 3ZM6 3C6 3.59334 5.82405 4.17336 5.49441 4.66671C5.16477 5.16006 4.69623 5.54458 4.14805 5.77164C3.59987 5.9987 2.99667 6.05811 2.41473 5.94236C1.83279 5.8266 1.29824 5.54088 0.878681 5.12132C0.459123 4.70176 0.173401 4.16721 0.0576455 3.58527C-0.0581102 3.00333 0.00129986 2.40013 0.228363 1.85195C0.455426 1.30377 0.839943 0.835235 1.33329 0.505591C1.82664 0.175947 2.40666 0 3 0C3.79565 0 4.55871 0.31607 5.12132 0.87868C5.68393 1.44129 6 2.20435 6 3Z"
  />
</svg>
