<svg fill="currentColor" viewBox="0 0 16 16" xmlns="http://www.w3.org/2000/svg">
  <path
    fill-rule="evenodd"
    clip-rule="evenodd"
    d="M8.39448 2.0195L8.70648 1.7075C9.09748 1.3165 9.09748 0.6835 8.70648 0.2925C8.31648 -0.0975 7.68348 -0.0975 7.29248 0.2925L5.29348 2.2925C4.90348 2.6835 4.90348 3.3165 5.29348 3.7065L7.29248 5.7075C7.48848 5.9025 7.74448 5.9995 7.99948 5.9995C8.25548 5.9995 8.51148 5.9025 8.70648 5.7075C9.09748 5.3165 9.09748 4.6835 8.70648 4.2925L8.46048 4.0465C10.9985 4.2835 12.9995 6.4015 12.9995 8.9995H13V8.99997C13 9.55225 13.4477 9.99997 14 9.99997C14.5523 9.99997 15 9.55225 15 8.99997C15 8.98853 14.9998 8.97714 14.9994 8.9658C14.9818 5.25514 12.0594 2.22588 8.39448 2.0195ZM3 7.00001V7C3 6.44772 2.55228 6 2 6C1.44772 6 1 6.44772 1 7L1.00004 7.00927C1.00489 10.7311 3.93208 13.7732 7.60504 13.98L7.29304 14.292C6.90204 14.683 6.90204 15.316 7.29304 15.707C7.68304 16.097 8.31603 16.097 8.70704 15.707L10.706 13.707C11.096 13.316 11.096 12.683 10.706 12.293L8.70704 10.292C8.51104 10.097 8.25504 10 8.00004 10C7.74404 10 7.48804 10.097 7.29304 10.292C6.90204 10.683 6.90204 11.316 7.29304 11.707L7.53904 11.953C5.00104 11.716 3.00004 9.59801 3.00004 7.00001H3ZM8 9C8.55228 9 9 8.55229 9 8C9 7.44772 8.55228 7 8 7C7.44772 7 7 7.44772 7 8C7 8.55229 7.44772 9 8 9Z"
  />
</svg>
