<svg viewBox="0 0 16 16" fill="currentColor" xmlns="http://www.w3.org/2000/svg">
  <path
    fill-rule="evenodd"
    clip-rule="evenodd"
    d="M12.8069 0.284018C13.1856 0.662708 13.1856 1.27669 12.8069 1.65538L10.9471 3.51516L12.4848 5.05289L14.3446 3.19311C14.7233 2.81442 15.3373 2.81442 15.716 3.19311C16.0947 3.5718 16.0947 4.18578 15.716 4.56447L13.8562 6.42425L14.7766 7.3447C15.7059 8.27392 15.4614 9.83843 14.2934 10.4401L14.2934 10.4401L8.73288 13.3047C7.60826 13.884 6.23815 13.6701 5.34361 12.7756L4.96969 12.4017L1.65538 15.716C1.27669 16.0947 0.662708 16.0947 0.284018 15.716C-0.0946726 15.3373 -0.0946726 14.7233 0.284018 14.3446L3.59833 11.0303L3.22445 10.6564C2.32991 9.76189 2.11603 8.39178 2.69537 7.26716L5.55989 1.70659L5.55991 1.70655C6.16168 0.538545 7.72619 0.294315 8.65531 1.22336L8.65534 1.22339L9.57575 2.1438L11.4355 0.284018C11.8142 -0.0946726 12.4282 -0.0946726 12.8069 0.284018ZM4.41945 8.15531L7.28394 2.59479L7.28401 2.59478L13.4053 8.71606L13.4052 8.71608L13.4052 8.71609L7.84472 11.5806C7.46985 11.7737 7.01315 11.7024 6.71497 11.4042L4.5958 9.28507C4.29762 8.98689 4.22633 8.53018 4.41945 8.15531Z"
  />
</svg>
