<svg fill="currentColor" viewBox="0 0 16 16" xmlns="http://www.w3.org/2000/svg">
  <path
    fill-rule="evenodd"
    clip-rule="evenodd"
    d="M5.29153 10.293C4.90088 10.6837 4.90101 11.3168 5.29184 11.7073C5.68266 12.0977 6.31617 12.0976 6.70682 11.707L9.70685 8.70726L9.70716 8.70695C9.80839 8.60573 9.88338 8.48823 9.93213 8.36288C9.96935 8.26739 9.99231 8.16478 9.99841 8.05766C10.0006 8.01986 10.0006 7.98197 9.99851 7.94417C9.9926 7.83688 9.96977 7.73409 9.93264 7.63844C9.8839 7.51259 9.80874 7.39462 9.70716 7.29305L9.70685 7.29274L9.70642 7.29231L6.70682 4.29305C6.31617 3.90244 5.68266 3.9023 5.29184 4.29274C4.90101 4.68318 4.90088 5.31634 5.29153 5.70695L6.58472 7L1.00055 7C0.44796 7 3.97973e-07 7.44771 3.49691e-07 8C3.01409e-07 8.55228 0.44796 9 1.00055 9L6.58472 9L5.29153 10.293ZM14 6C12.8954 6 12 6.89543 12 8C12 9.10457 12.8954 10 14 10C15.1046 10 16 9.10457 16 8C16 6.89543 15.1046 6 14 6Z"
  />
</svg>
