<svg viewBox="0 0 16 16" fill="currentColor" xmlns="http://www.w3.org/2000/svg">
  <path
    fill-rule="evenodd"
    clip-rule="evenodd"
    d="M6.44444 2C6.2971 2 6.15579 2.05853 6.05161 2.16272C5.94742 2.26691 5.88889 2.40821 5.88889 2.55556V3.33333C5.88889 3.80483 5.70159 4.25701 5.36819 4.59041C5.03479 4.92381 4.58261 5.11111 4.11111 5.11111H2V7H2.55556C3.23333 7 3.88335 7.26925 4.36261 7.74851C4.84187 8.22776 5.11111 8.87778 5.11111 9.55556C5.11111 10.2333 4.84187 10.8833 4.36261 11.3626C3.88335 11.8419 3.23333 12.1111 2.55556 12.1111H2V14H3.88889V13.4444C3.88889 12.7667 4.15814 12.1167 4.63739 11.6374C5.11665 11.1581 5.76667 10.8889 6.44444 10.8889C7.12222 10.8889 7.77224 11.1581 8.2515 11.6374C8.73075 12.1167 9 12.7667 9 13.4444V14H10.8889V11.8889C10.8889 11.4174 11.0762 10.9652 11.4096 10.6318C11.743 10.2984 12.1952 10.1111 12.6667 10.1111H13.4444C13.5918 10.1111 13.7331 10.0526 13.8373 9.94839C13.9415 9.8442 14 9.7029 14 9.55556C14 9.40821 13.9415 9.26691 13.8373 9.16272C13.7331 9.05853 13.5918 9 13.4444 9H12.6667C12.1952 9 11.743 8.8127 11.4096 8.4793C11.0762 8.1459 10.8889 7.69372 10.8889 7.22222V5.11111H8.77778C8.30628 5.11111 7.8541 4.92381 7.5207 4.59041C7.1873 4.25702 7 3.80483 7 3.33333V2.55556C7 2.40821 6.94147 2.26691 6.83728 2.16272C6.73309 2.05853 6.59179 2 6.44444 2ZM4.63739 0.748505C5.11665 0.269245 5.76667 0 6.44444 0C7.12222 0 7.77224 0.269245 8.2515 0.748505C8.73075 1.22776 9 1.87778 9 2.55556V3.11111H11.1111C11.5826 3.11111 12.0348 3.29841 12.3682 3.63181C12.7016 3.96521 12.8889 4.41739 12.8889 4.88889V7H13.4444C14.1222 7 14.7722 7.26925 15.2515 7.74851C15.7308 8.22776 16 8.87778 16 9.55556C16 10.2333 15.7308 10.8833 15.2515 11.3626C14.7722 11.8419 14.1222 12.1111 13.4444 12.1111H12.8889V14.2222C12.8889 14.6937 12.7016 15.1459 12.3682 15.4793C12.0348 15.8127 11.5826 16 11.1111 16H8.77778C8.30628 16 7.8541 15.8127 7.5207 15.4793C7.1873 15.1459 7 14.6937 7 14.2222V13.4444C7 13.2971 6.94147 13.1558 6.83728 13.0516C6.73309 12.9474 6.59179 12.8889 6.44444 12.8889C6.2971 12.8889 6.1558 12.9474 6.05161 13.0516C5.94742 13.1558 5.88889 13.2971 5.88889 13.4444V14.2222C5.88889 14.6937 5.70159 15.1459 5.36819 15.4793C5.03479 15.8127 4.58261 16 4.11111 16H1.77778C1.30628 16 0.854099 15.8127 0.520699 15.4793C0.1873 15.1459 0 14.6937 0 14.2222V11.8889C0 11.4174 0.1873 10.9652 0.520699 10.6318C0.854099 10.2984 1.30628 10.1111 1.77778 10.1111H2.55556C2.7029 10.1111 2.84421 10.0526 2.94839 9.94839C3.05258 9.84421 3.11111 9.7029 3.11111 9.55556C3.11111 9.40821 3.05258 9.26691 2.94839 9.16272C2.84421 9.05853 2.7029 9 2.55556 9H1.77778C1.30628 9 0.854096 8.8127 0.520699 8.4793C0.187301 8.1459 0 7.69372 0 7.22222V4.88889C0 4.41739 0.187301 3.96521 0.520699 3.63181C0.854096 3.29841 1.30628 3.11111 1.77778 3.11111H3.88889V2.55556C3.88889 1.87778 4.15813 1.22776 4.63739 0.748505Z"
  />
</svg>
