<svg fill="currentColor" viewBox="0 0 16 16" xmlns="http://www.w3.org/2000/svg">
  <path
    fill-rule="evenodd"
    clip-rule="evenodd"
    d="M8 12.8C7.84177 12.8 7.6871 12.7531 7.55554 12.6652C7.42398 12.5773 7.32144 12.4523 7.26089 12.3062C7.20034 12.16 7.1845 11.9991 7.21537 11.8439C7.24624 11.6887 7.32243 11.5462 7.43431 11.4343C7.54619 11.3224 7.68874 11.2462 7.84392 11.2154C7.99911 11.1845 8.15996 11.2004 8.30614 11.2609C8.45232 11.3215 8.57727 11.424 8.66517 11.5555C8.75308 11.6871 8.8 11.8418 8.8 12C8.8 12.2122 8.71571 12.4157 8.56568 12.5657C8.41565 12.7157 8.21217 12.8 8 12.8ZM8 4.8C7.57565 4.8 7.16868 4.96857 6.86863 5.26863C6.56857 5.56869 6.4 5.97566 6.4 6.4C6.4 6.61218 6.31571 6.81566 6.16568 6.96569C6.01565 7.11572 5.81217 7.2 5.6 7.2C5.38782 7.2 5.18434 7.11572 5.03431 6.96569C4.88428 6.81566 4.8 6.61218 4.8 6.4C4.80132 5.55172 5.13889 4.73855 5.73872 4.13872C6.33855 3.53889 7.15171 3.20133 8 3.2C8.41186 3.18186 8.82315 3.24685 9.20935 3.39111C9.59554 3.53536 9.94873 3.75592 10.2478 4.03963C10.5469 4.32334 10.7859 4.66439 10.9503 5.04243C11.1147 5.42047 11.2014 5.82776 11.205 6.24C11.2181 6.6594 11.1288 7.07567 10.945 7.45287C10.7612 7.83007 10.4884 8.15686 10.15 8.405L9.735 8.75C9.65 8.825 9.56 8.895 9.45 8.98L9.325 9.08L9.215 9.165C9.07788 9.24164 8.96635 9.35694 8.89433 9.49654C8.82231 9.63614 8.79298 9.79385 8.81 9.95C8.81 10.1622 8.72571 10.3657 8.57568 10.5157C8.42565 10.6657 8.22217 10.75 8.01 10.75C7.79782 10.75 7.59434 10.6657 7.44431 10.5157C7.29428 10.3657 7.21 10.1622 7.21 9.95C7.19008 9.55379 7.27144 9.15903 7.44641 8.80297C7.62137 8.44692 7.88417 8.14132 8.21 7.915C8.18 7.94 8.585 7.625 8.71 7.535L9.12 7.19C9.2811 7.09129 9.41259 6.95093 9.50059 6.78374C9.58858 6.61654 9.62984 6.42869 9.62 6.24C9.61255 6.0376 9.5642 5.8388 9.47785 5.65559C9.3915 5.47238 9.26893 5.30856 9.11755 5.174C8.96618 5.03944 8.78911 4.93693 8.59704 4.87265C8.40497 4.80838 8.20188 4.78366 8 4.8ZM8 16C6.41775 16 4.87103 15.5308 3.55543 14.6518C2.23984 13.7727 1.21446 12.5233 0.60896 11.0615C0.00345862 9.59966 -0.154968 7.99113 0.153714 6.43928C0.462395 4.88743 1.22432 3.46197 2.34314 2.34315C3.46196 1.22433 4.88743 0.462403 6.43927 0.153721C7.99112 -0.15496 9.59965 0.00346625 11.0615 0.608967C12.5233 1.21447 13.7727 2.23985 14.6518 3.55544C15.5308 4.87103 16 6.41775 16 8C16 10.1217 15.1571 12.1566 13.6569 13.6569C12.1566 15.1571 10.1217 16 8 16ZM8 14C9.18668 14 10.3467 13.6481 11.3334 12.9888C12.3201 12.3295 13.0891 11.3925 13.5433 10.2961C13.9974 9.19975 14.1162 7.99335 13.8847 6.82946C13.6532 5.66558 13.0818 4.59648 12.2426 3.75736C11.4035 2.91825 10.3344 2.3468 9.17054 2.11529C8.00665 1.88378 6.80025 2.0026 5.7039 2.45673C4.60754 2.91085 3.67047 3.67989 3.01118 4.66658C2.35189 5.65328 2 6.81332 2 8C2 9.5913 2.63214 11.1174 3.75736 12.2426C4.88257 13.3679 6.4087 14 8 14Z"
  />
</svg>
