<svg xmlns="http://www.w3.org/2000/svg" fill="none" viewBox="0 0 10 10">
  <path
    fill="currentColor"
    fill-rule="evenodd"
    d="M1.563 0C.873 0 .313.566.313 1.264v7.083c0 .99 1.072 1.595 1.905 1.077l.75-.468 1.377.857c.402.25.908.25 1.31 0l1.376-.857.751.468c.833.518 1.905-.088 1.905-1.077V1.264C9.688.566 9.127 0 8.438 0H1.564Zm0 1.264h6.875v7.083l-.752-.467a1.238 1.238 0 0 0-1.31 0L5 8.736 3.624 7.88a1.238 1.238 0 0 0-1.31 0l-.752.467V1.264Zm1.562 4.674h3.75a.625.625 0 1 1 0 1.25h-3.75a.625.625 0 1 1 0-1.25Zm3.75-1.875h-3.75a.625.625 0 1 0 0 1.25h3.75a.625.625 0 1 0 0-1.25Zm-1.25-.625h-2.5a.625.625 0 1 1 0-1.25h2.5a.625.625 0 1 1 0 1.25Z"
    clip-rule="evenodd"
  />
</svg>
