<svg fill="currentColor" viewBox="0 0 16 16" xmlns="http://www.w3.org/2000/svg">
  <path
    fill-rule="evenodd"
    clip-rule="evenodd"
    d="M15.78 8.375C15.6864 8.25806 15.5677 8.16365 15.4327 8.09874C15.2977 8.03384 15.1498 8.00009 15 8C14.768 7.98008 14.5369 8.04746 14.3519 8.18895C14.167 8.33044 14.0415 8.53586 14 8.765C13.8137 10.2143 13.1049 11.5458 12.0067 12.5096C10.9084 13.4735 9.4962 14.0034 8.03499 14H7.99999C7.01278 14.0025 6.04021 13.7614 5.1685 13.298C4.2968 12.8347 3.55289 12.1634 3.00275 11.3436C2.45261 10.5239 2.11322 9.58115 2.01469 8.59887C1.91616 7.61659 2.06152 6.62517 2.4379 5.71252C2.81427 4.79987 3.41002 3.99419 4.17232 3.36692C4.93463 2.73965 5.83994 2.31016 6.80797 2.11654C7.77601 1.92293 8.77686 1.97116 9.72179 2.25697C10.6667 2.54277 11.5265 3.05733 12.225 3.755L10.685 5.29C10.285 5.69 10.415 6 10.965 6H15.5C15.6326 6 15.7598 5.94732 15.8535 5.85355C15.9473 5.75978 16 5.6326 16 5.5V0.999996C16 0.449996 15.68 0.314996 15.29 0.699996L13.645 2.34C12.7141 1.41011 11.5682 0.724199 10.3088 0.343032C9.04943 -0.0381363 7.71548 -0.102791 6.42515 0.154797C5.13483 0.412384 3.92795 0.98426 2.91147 1.81976C1.89498 2.65525 1.10027 3.72857 0.597738 4.94461C0.0952076 6.16066 -0.099622 7.48188 0.0305115 8.79121C0.160645 10.1006 0.611723 11.3576 1.34378 12.4509C2.07584 13.5443 3.06627 14.4401 4.22732 15.0592C5.38838 15.6783 6.6842 16.0014 7.99999 16H8.03499C9.95535 16.014 11.8167 15.3368 13.279 14.092C14.7414 12.8473 15.7072 11.118 16 9.22C16.0296 9.07168 16.0252 8.91858 15.9871 8.77222C15.949 8.62585 15.8782 8.49004 15.78 8.375Z"
  />
</svg>
