<svg fill="currentColor" viewBox="0 0 16 16" xmlns="http://www.w3.org/2000/svg">
  <path
    d="M8 0C6.41775 0 4.87103 0.469192 3.55544 1.34824C2.23985 2.22729 1.21447 3.47672 0.608967 4.93853C0.00346625 6.40034 -0.15496 8.00887 0.153721 9.56072C0.462403 11.1126 1.22433 12.538 2.34315 13.6569C3.46197 14.7757 4.88743 15.5376 6.43928 15.8463C7.99113 16.155 9.59966 15.9965 11.0615 15.391C12.5233 14.7855 13.7727 13.7602 14.6518 12.4446C15.5308 11.129 16 9.58225 16 8C16 5.87827 15.1571 3.84344 13.6569 2.34315C12.1566 0.842855 10.1217 0 8 0V0ZM8 14C6.81332 14 5.65328 13.6481 4.66658 12.9888C3.67989 12.3295 2.91085 11.3925 2.45673 10.2961C2.0026 9.19974 1.88378 7.99334 2.11529 6.82946C2.3468 5.66557 2.91825 4.59647 3.75736 3.75736C4.59648 2.91824 5.66558 2.3468 6.82946 2.11529C7.99335 1.88378 9.19975 2.0026 10.2961 2.45672C11.3925 2.91085 12.3295 3.67988 12.9888 4.66658C13.6481 5.65327 14 6.81331 14 8C14 9.5913 13.3679 11.1174 12.2426 12.2426C11.1174 13.3679 9.5913 14 8 14ZM11.925 7.12C11.8731 6.99714 11.7984 6.88518 11.705 6.79L9.705 4.79C9.5137 4.62617 9.26763 4.54057 9.01595 4.55029C8.76427 4.56001 8.52554 4.66434 8.34744 4.84244C8.16935 5.02053 8.06501 5.25927 8.05529 5.51095C8.04557 5.76262 8.13118 6.0087 8.295 6.2L8.585 6.495H8C6.93914 6.495 5.92172 6.91643 5.17158 7.66657C4.42143 8.41672 4 9.43413 4 10.495C4 10.7602 4.10536 11.0146 4.2929 11.2021C4.48043 11.3896 4.73479 11.495 5 11.495C5.26522 11.495 5.51957 11.3896 5.70711 11.2021C5.89465 11.0146 6 10.7602 6 10.495C6 9.96457 6.21072 9.45586 6.58579 9.08079C6.96086 8.70571 7.46957 8.495 8 8.495H8.585L8.295 8.79C8.19032 8.87965 8.1053 8.98997 8.04528 9.11403C7.98526 9.23809 7.95153 9.37323 7.94621 9.51095C7.94089 9.64867 7.96409 9.786 8.01437 9.91432C8.06464 10.0426 8.1409 10.1592 8.23835 10.2566C8.33581 10.3541 8.45236 10.4304 8.58068 10.4806C8.70901 10.5309 8.84634 10.5541 8.98406 10.5488C9.12178 10.5435 9.25691 10.5097 9.38097 10.4497C9.50504 10.3897 9.61536 10.3047 9.705 10.2L11.705 8.2C11.7984 8.10482 11.8731 7.99286 11.925 7.87C12.025 7.62654 12.025 7.35346 11.925 7.11"
  />
</svg>
