<svg fill="currentColor" viewBox="0 0 16 16" xmlns="http://www.w3.org/2000/svg">
  <path
    fill-rule="evenodd"
    clip-rule="evenodd"
    d="M15.3727 0.078074C15.6075 0.188726 15.7925 0.383726 15.8911 0.624593C15.9525 0.746296 15.9895 0.878935 16 1.01496V5.65777C16 5.93386 15.8908 6.19864 15.6963 6.39387C15.5018 6.58909 15.2381 6.69876 14.9631 6.69876C14.688 6.69876 14.4243 6.58909 14.2298 6.39387C14.0354 6.19864 13.9261 5.93386 13.9261 5.65777V3.50813L9.86649 7.5836C9.77736 7.70292 9.66372 7.80161 9.53328 7.873C9.40284 7.94439 9.25864 7.98681 9.11045 7.99738C8.96226 8.00795 8.81353 7.98644 8.67435 7.93428C8.53516 7.88213 8.40876 7.80056 8.30371 7.6951C8.19866 7.58964 8.11741 7.46275 8.06546 7.32302C8.01351 7.18329 7.99208 7.03399 8.00261 6.88522C8.01314 6.73645 8.05539 6.59169 8.1265 6.46074C8.19761 6.32979 8.29593 6.21571 8.41478 6.12622L12.4744 2.08198H10.3331C10.0581 2.08198 9.79435 1.9723 9.59989 1.77708C9.40543 1.58186 9.29618 1.31708 9.29618 1.04099C9.29618 0.764901 9.40543 0.500122 9.59989 0.304899C9.79435 0.109676 10.0581 0 10.3331 0H14.9838C15.1172 0.000669347 15.2492 0.0271785 15.3727 0.078074ZM7.82027 8.4664C7.93473 8.63708 7.99719 8.83765 8 9.04351C7.99128 9.30704 7.88204 9.5571 7.69494 9.7418L3.57659 13.884H5.73307C6.01206 13.884 6.27963 13.9954 6.4769 14.1938C6.67418 14.3923 6.78501 14.6614 6.78501 14.942C6.78501 15.2226 6.67418 15.4917 6.4769 15.6901C6.27963 15.8885 6.01206 16 5.73307 16H1.04142C0.902626 15.9998 0.765159 15.9728 0.636423 15.9206C0.535957 15.8697 0.443744 15.8037 0.362918 15.7249H0.33662C0.24145 15.6288 0.164772 15.5158 0.110453 15.3916C0.0447186 15.2598 0.00709678 15.1157 0 14.9684V10.2497C0 9.96905 0.110828 9.69993 0.308105 9.50152C0.505382 9.3031 0.772948 9.19163 1.05194 9.19163C1.33093 9.19163 1.5985 9.3031 1.79577 9.50152C1.99305 9.69993 2.10388 9.96905 2.10388 10.2497V12.4345L6.22222 8.29231C6.37037 8.15024 6.5565 8.05472 6.75782 8.01746C6.95914 7.98021 7.16688 8.00284 7.3556 8.08259C7.54432 8.16233 7.70581 8.29572 7.82027 8.4664Z"
  />
</svg>
