<svg fill="currentColor" viewBox="0 0 16 16" xmlns="http://www.w3.org/2000/svg">
  <path
    d="M7.5 9.02499C7.40487 8.7936 7.22647 8.60628 7 8.49999C6.88099 8.4511 6.75366 8.42563 6.625 8.42499H2.14C1.87478 8.42499 1.62043 8.53034 1.43289 8.71788C1.24536 8.90542 1.14 9.15977 1.14 9.42499C1.14 9.6902 1.24536 9.94456 1.43289 10.1321C1.62043 10.3196 1.87478 10.425 2.14 10.425H4.205L0.29 14.31C0.175383 14.396 0.0805751 14.5055 0.0119973 14.6313C-0.0565806 14.7571 -0.0973273 14.8962 -0.107484 15.0391C-0.11764 15.182 -0.0969691 15.3254 -0.0468703 15.4597C0.00322841 15.5939 0.0815851 15.7158 0.182894 15.8171C0.284202 15.9184 0.406097 15.9968 0.540325 16.0469C0.674552 16.097 0.817978 16.1176 0.96089 16.1075C1.1038 16.0973 1.24286 16.0566 1.36866 15.988C1.49445 15.9194 1.60404 15.8246 1.69 15.71L5.605 11.795V13.86C5.605 14.1252 5.71036 14.3796 5.89789 14.5671C6.08543 14.7546 6.33978 14.86 6.605 14.86C6.87022 14.86 7.12457 14.7546 7.31211 14.5671C7.49964 14.3796 7.605 14.1252 7.605 13.86V9.39999C7.59491 9.26931 7.55924 9.1419 7.5 9.02499Z"
  />
  <path
    d="M16 1.00001C15.9973 0.805443 15.938 0.615879 15.8291 0.454555C15.7203 0.293232 15.5668 0.167159 15.3874 0.0917902C15.208 0.0164211 15.0105 -0.00496966 14.8192 0.0302398C14.6278 0.0654493 14.4508 0.155729 14.31 0.290014L10.395 4.20501V2.14001C10.395 1.8748 10.2896 1.62044 10.1021 1.43291C9.91457 1.24537 9.66022 1.14001 9.395 1.14001C9.12978 1.14001 8.87543 1.24537 8.68789 1.43291C8.50036 1.62044 8.395 1.8748 8.395 2.14001V6.60001C8.40175 6.73921 8.43751 6.87545 8.5 7.00001C8.55164 7.11737 8.62453 7.22416 8.715 7.31501H8.74C8.81684 7.38945 8.9045 7.45182 9 7.50001C9.12238 7.54932 9.25306 7.57478 9.385 7.57501H13.845C14.1102 7.57501 14.3646 7.46966 14.5521 7.28212C14.7396 7.09458 14.845 6.84023 14.845 6.57501C14.845 6.3098 14.7396 6.05544 14.5521 5.86791C14.3646 5.68037 14.1102 5.57501 13.845 5.57501H11.795L15.71 1.66001C15.8879 1.48544 15.9917 1.2491 16 1.00001Z"
  />
</svg>
