<svg fill="currentColor" viewBox="0 0 16 16" xmlns="http://www.w3.org/2000/svg">
  <path
    d="M10.55 15.5L13.84 10.255C13.9602 10.0688 14.0151 9.84788 13.9961 9.62705C13.9771 9.40623 13.8852 9.19797 13.735 9.035L13.185 8.42C15.855 5.105 16.65 1.70001 15.465 0.515005C14.28 -0.669995 10.875 0.145005 7.56 2.81501L6.945 2.26501C6.78204 2.11477 6.57378 2.02294 6.35295 2.00394C6.13212 1.98493 5.91124 2.03983 5.725 2.16001L0.500002 5.45001C0.341177 5.5419 0.210699 5.67573 0.122855 5.83683C0.035011 5.99794 -0.00681206 6.1801 0.00196502 6.36339C0.0107421 6.54668 0.0697809 6.72401 0.172617 6.87599C0.275453 7.02796 0.418122 7.1487 0.585002 7.22501L2.76 8.315C2.65198 8.63755 2.59463 8.97489 2.59 9.315C2.61122 9.84614 2.74108 10.3673 2.97155 10.8463C3.20202 11.3253 3.52821 11.752 3.93 12.1C4.27803 12.5018 4.70471 12.828 5.18371 13.0585C5.66271 13.2889 6.18387 13.4188 6.715 13.44C7.05512 13.4354 7.39246 13.378 7.715 13.27L8.805 15.445C8.88686 15.603 9.00937 15.7362 9.15991 15.831C9.31044 15.9259 9.48355 15.9788 9.66137 15.9844C9.83919 15.99 10.0153 15.9481 10.1715 15.8629C10.3277 15.7778 10.4584 15.6525 10.55 15.5ZM9.655 6.34501C9.3619 6.05304 9.16205 5.68065 9.08075 5.27501C8.99946 4.86937 9.04037 4.44873 9.19832 4.06636C9.35627 3.68399 9.62415 3.3571 9.96802 3.12709C10.3119 2.89708 10.7163 2.7743 11.13 2.7743C11.5437 2.7743 11.9481 2.89708 12.292 3.12709C12.6359 3.3571 12.9037 3.68399 13.0617 4.06636C13.2196 4.44873 13.2605 4.86937 13.1793 5.27501C13.098 5.68065 12.8981 6.05304 12.605 6.34501C12.2126 6.734 11.6825 6.95226 11.13 6.95226C10.5775 6.95226 10.0474 6.734 9.655 6.34501Z"
  />
</svg>
