<svg fill="currentColor" viewBox="0 0 16 16" xmlns="http://www.w3.org/2000/svg">
  <path
    d="M9.5 8H0.5C0.223858 8 0 8.22386 0 8.5V15.5C0 15.7761 0.223858 16 0.5 16H9.5C9.77614 16 10 15.7761 10 15.5V8.5C10 8.22386 9.77614 8 9.5 8Z"
  />
  <path
    fill-rule="evenodd"
    clip-rule="evenodd"
    d="M15.9285 7.51088C15.9265 7.50238 15.924 7.49388 15.922 7.48537C15.5565 5.91537 14.668 4.54437 13.4465 3.56838C13.444 3.56638 13.443 3.56337 13.4405 3.56137C13.4375 3.55837 13.4325 3.55838 13.429 3.55538C12.316 2.67138 10.928 2.13387 9.419 2.05087L9.7475 1.72388C10.1425 1.32938 10.1425 0.689875 9.7475 0.295875C9.3525 -0.098625 8.7125 -0.098625 8.3175 0.295875L6.296 2.31288C6.1065 2.50238 6 2.75887 6 3.02688C6 3.29488 6.1065 3.55137 6.296 3.74088L8.3175 5.75887C8.515 5.95638 8.7735 6.05487 9.0325 6.05487C9.2915 6.05487 9.55 5.95638 9.7475 5.75887C10.1425 5.36487 10.1425 4.72587 9.7475 4.33138L9.4925 4.07638C11.6805 4.27637 13.4735 5.85588 13.9575 7.94637C13.958 7.94887 13.957 7.95138 13.9575 7.95388C14.0375 8.29088 14.28 8.54288 14.5835 8.65888C14.698 8.70288 14.8195 8.73038 14.9475 8.73038C15.019 8.73038 15.1 8.73037 15.1695 8.71087C15.7115 8.57987 16.053 8.05237 15.9285 7.51088Z"
  />
</svg>
