<svg xmlns="http://www.w3.org/2000/svg" fill="currentColor" viewBox="0 0 16 16">
  <path
    fill-rule="evenodd"
    clip-rule="evenodd"
    d="M15 12h-2a.91.91 0 0 0-.46.13L10 10.01V8.56l2.14-1.07A1 1 0 0 0 13 8h2a1 1 0 0 0 1-1V5a1 1 0 0 0-1-1h-2a1 1 0 0 0-1 1v1.44L9.85 7.51A.98.98 0 0 0 9 7h-.5V4H9a1 1 0 0 0 1-1V1a1 1 0 0 0-1-1H7a1 1 0 0 0-1 1v2a1 1 0 0 0 1 1h.5v3H7a1 1 0 0 0-.86.51L4 6.44V5a1 1 0 0 0-1-1H1a1 1 0 0 0-1 1v2a1 1 0 0 0 1 1h2a1 1 0 0 0 .86-.51L6 8.56v1.45l-2.54 2.12A.91.91 0 0 0 3 12H1a1 1 0 0 0-1 1v2a1 1 0 0 0 1 1h2a1 1 0 0 0 1-1v-2.01l2.54-2.12c.14.08.29.13.46.13h2c.17 0 .32-.05.46-.13L12 12.99V15a1 1 0 0 0 1 1h2a1 1 0 0 0 1-1v-2a1 1 0 0 0-1-1Z"
  />
</svg>
