<svg fill="currentColor" viewBox="0 0 16 16" xmlns="http://www.w3.org/2000/svg">
  <path
    d="M2.99915 6C3.44913 6.00041 3.89343 5.89959 4.29915 5.705C4.32169 5.73085 4.34682 5.7543 4.37415 5.775L7.33415 8.145L4.42415 10.18C4.37859 10.2139 4.33517 10.2507 4.29415 10.29C3.88917 10.099 3.44693 9.99996 2.99915 10C2.40581 10 1.82579 10.176 1.33244 10.5056C0.839096 10.8352 0.454578 11.3038 0.227515 11.852C0.000452384 12.4001 -0.0589576 13.0033 0.056798 13.5853C0.172554 14.1672 0.458276 14.7018 0.877833 15.1213C1.29739 15.5409 1.83194 15.8266 2.41388 15.9424C2.99583 16.0581 3.59903 15.9987 4.1472 15.7716C4.69538 15.5446 5.16392 15.1601 5.49356 14.6667C5.82321 14.1734 5.99915 13.5933 5.99915 13C5.99793 12.5577 5.90069 12.121 5.71415 11.72L8.95915 9.445L14.3742 13.785C14.5817 13.9508 14.8466 14.0273 15.1105 13.9978C15.3745 13.9682 15.6159 13.835 15.7817 13.6275C15.9474 13.42 16.0239 13.1551 15.9944 12.8911C15.9649 12.6272 15.8317 12.3858 15.6242 12.22L10.6642 8.25L15.5742 4.815C15.6818 4.73949 15.7736 4.64351 15.8442 4.53254C15.9148 4.42157 15.9628 4.29778 15.9856 4.16824C16.0083 4.03871 16.0053 3.90596 15.9768 3.77757C15.9482 3.64919 15.8947 3.52769 15.8192 3.42C15.7436 3.31232 15.6477 3.22056 15.5367 3.14997C15.4257 3.07938 15.3019 3.03134 15.1724 3.00859C15.0429 2.98584 14.9101 2.98883 14.7817 3.01738C14.6533 3.04593 14.5318 3.09949 14.4242 3.175L9.03915 6.95L5.70915 4.285C5.98759 3.6976 6.0677 3.03566 5.93743 2.3988C5.80716 1.76194 5.47356 1.18462 4.98683 0.753734C4.5001 0.322852 3.88659 0.0617214 3.23863 0.00964504C2.59067 -0.0424313 1.94332 0.117365 1.39403 0.464982C0.844729 0.812599 0.423204 1.32923 0.192893 1.93711C-0.0374177 2.54499 -0.0640516 3.21124 0.117 3.83556C0.298052 4.45989 0.676993 5.00852 1.19679 5.39887C1.71658 5.78923 2.3491 6.00019 2.99915 6ZM2.99915 14C2.80137 14 2.60803 13.9414 2.44358 13.8315C2.27913 13.7216 2.15096 13.5654 2.07527 13.3827C1.99959 13.2 1.97978 12.9989 2.01837 12.8049C2.05695 12.6109 2.15219 12.4327 2.29205 12.2929C2.4319 12.153 2.61008 12.0578 2.80406 12.0192C2.99804 11.9806 3.19911 12.0004 3.38184 12.0761C3.56456 12.1518 3.72074 12.28 3.83062 12.4444C3.9405 12.6089 3.99915 12.8022 3.99915 13C3.99915 13.2652 3.8938 13.5196 3.70626 13.7071C3.51872 13.8946 3.26437 14 2.99915 14ZM2.99915 2C3.19694 2 3.39027 2.05865 3.55472 2.16853C3.71917 2.27841 3.84735 2.43459 3.92303 2.61732C3.99872 2.80005 4.01852 3.00111 3.97994 3.19509C3.94135 3.38907 3.84611 3.56726 3.70626 3.70711C3.56641 3.84696 3.38823 3.9422 3.19424 3.98079C3.00026 4.01937 2.7992 3.99957 2.61647 3.92388C2.43374 3.84819 2.27757 3.72002 2.16768 3.55557C2.0578 3.39112 1.99915 3.19778 1.99915 3C1.99915 2.73479 2.10451 2.48043 2.29205 2.2929C2.47958 2.10536 2.73394 2 2.99915 2Z"
  />
</svg>
