<svg fill="currentColor" viewBox="0 0 16 16" xmlns="http://www.w3.org/2000/svg">
  <path
    d="M8 5C6.35 5 5 6.35 5 8C5 9.65 6.35 11 8 11C9.65 11 11 9.65 11 8C11 6.35 9.65 5 8 5ZM8 9C7.45 9 7 8.55 7 8C7 7.45 7.45 7 8 7C8.55 7 9 7.45 9 8C9 8.55 8.55 9 8 9Z"
  />
  <path
    d="M14.5 8.45C14.6 8.2 14.6 7.90001 14.55 7.60001L15.7 6.60001C16.05 6.30001 16.15 5.75001 15.9 5.35001L14.35 2.75001C14.1 2.35001 13.65 2.15001 13.2 2.30001L11.65 2.80001C11.4 2.65001 11.15 2.50001 10.9 2.40001L10.6 0.900006C10.5 0.400006 10.1 0.100006 9.60001 0.100006H6.50001C6.00001 0.100006 5.60001 0.450006 5.50001 0.900006L5.20001 2.40001C4.95001 2.50001 4.70001 2.65001 4.45001 2.80001L2.90001 2.30001C2.40001 2.10001 1.90001 2.30001 1.70001 2.70001L0.150012 5.30001C-0.099988 5.70001 1.19517e-05 6.25001 0.350012 6.55001L1.50001 7.55001C1.45001 7.85001 1.45001 8.15001 1.50001 8.45L0.350012 9.45C1.19517e-05 9.75 -0.099988 10.3 0.150012 10.7L1.70001 13.35C1.95001 13.75 2.40001 13.95 2.85001 13.8L4.40001 13.3C4.65001 13.45 4.90001 13.6 5.15001 13.7L5.45001 15.2C5.55001 15.7 5.95001 16 6.45001 16H9.55001C10.05 16 10.45 15.65 10.55 15.2L10.85 13.7C11.1 13.6 11.35 13.45 11.6 13.3L13.15 13.8C13.6 13.95 14.1 13.75 14.3 13.35L15.85 10.75C16.1 10.35 16 9.8 15.65 9.5L14.5 8.45ZM12.45 7.30001V7.45001C12.5 7.65001 12.5 7.80001 12.5 8.00001C12.5 8.20001 12.45 8.35001 12.45 8.55V8.7C12.4 9.05 12.5 9.4 12.8 9.65L13.75 10.45L13 11.6L11.75 11.2C11.45 11.1 11.1 11.15 10.8 11.35C10.45 11.65 10.05 11.85 9.65001 12.05C9.35001 12.15 9.10001 12.45 9.05001 12.8L8.75001 14H7.30001L7.00001 12.75C6.95001 12.4 6.70001 12.15 6.40001 12C6.00001 11.85 5.60001 11.6 5.25001 11.3C5.00001 11.1 4.65001 11.05 4.30001 11.15L3.00001 11.6L2.30001 10.4L3.25001 9.60001C3.50001 9.40001 3.60001 9 3.55001 8.65V8.5C3.50001 8.35001 3.50001 8.20001 3.45001 8.00001C3.45001 7.80001 3.50001 7.65001 3.50001 7.45001V7.30001C3.55001 6.95001 3.45001 6.60001 3.15001 6.35001L2.25001 5.55001L3.00001 4.40001L4.25001 4.80001C4.55001 4.90001 4.90001 4.85001 5.20001 4.65001C5.55001 4.35001 5.95001 4.15001 6.35001 4.00001C6.65001 3.90001 6.90001 3.60001 6.95001 3.25001L7.25001 2.00001H8.70001L9.00001 3.25001C9.05001 3.60001 9.30001 3.85001 9.60001 4.00001C10 4.15001 10.4 4.40001 10.75 4.65001C11 4.85001 11.35 4.90001 11.7 4.80001L13 4.40001L13.75 5.60001L12.8 6.40001C12.5 6.60001 12.4 6.95001 12.45 7.30001Z"
  />
</svg>
