<svg viewBox="0 0 16 16" fill="currentColor" xmlns="http://www.w3.org/2000/svg">
  <path
    d="M4.98039 2C4.83738 2 4.70023 2.05853 4.59911 2.16272C4.49799 2.2669 4.44118 2.40821 4.44118 2.55556V13.4444C4.44118 13.5918 4.49799 13.7331 4.59911 13.8373C4.70023 13.9415 4.83738 14 4.98039 14H11.0196C11.1626 14 11.2998 13.9415 11.4009 13.8373C11.502 13.7331 11.5588 13.5918 11.5588 13.4444V2.55556C11.5588 2.40821 11.502 2.26691 11.4009 2.16272C11.2998 2.05853 11.1626 2 11.0196 2H9.70144C9.60335 2.44533 9.21681 2.77777 8.7549 2.77777H7.24509C6.78319 2.77777 6.39664 2.44533 6.29856 2H4.98039ZM3.22649 0.748505C3.69165 0.269245 4.32255 0 4.98039 0H11.0196C11.6774 0 12.3083 0.269245 12.7735 0.748505C13.2387 1.22776 13.5 1.87778 13.5 2.55556V13.4444C13.5 14.1222 13.2387 14.7722 12.7735 15.2515C12.3083 15.7308 11.6774 16 11.0196 16H4.98039C4.32255 16 3.69165 15.7308 3.22649 15.2515C2.76133 14.7722 2.5 14.1222 2.5 13.4444V2.55556C2.5 1.87778 2.76133 1.22776 3.22649 0.748505ZM7.99999 10.8889C8.53603 10.8889 8.97058 11.3366 8.97058 11.8889V11.8967C8.97058 12.449 8.53603 12.8967 7.99999 12.8967C7.46395 12.8967 7.0294 12.449 7.0294 11.8967V11.8889C7.0294 11.3366 7.46395 10.8889 7.99999 10.8889Z"
  />
</svg>
