<svg xmlns="http://www.w3.org/2000/svg" fill="currentColor" viewBox="0 0 14 14">
  <path
    d="m13.22 2.13-.94-.23a.25.25 0 0 1-.18-.18l-.22-.94a.39.39 0 0 0-.76.02l-.22.92c-.02.09-.1.16-.19.18l-.93.23a.39.39 0 0 0 .02.75l.92.22c.09.02.16.1.18.19l.23.93c.04.17.2.28.37.28.18 0 .33-.11.38-.3l.22-.92c.02-.09.1-.16.19-.18l.93-.23c.17-.04.28-.2.28-.37a.39.39 0 0 0-.28-.38Zm-1.57 4.25-2.8-.68a.75.75 0 0 1-.55-.56l-.68-2.8a1.17 1.17 0 0 0-2.25.04L4.7 5.14a.75.75 0 0 1-.56.56l-2.8.67a1.17 1.17 0 0 0 .04 2.26l2.77.67c.28.07.49.28.56.55l.67 2.8a1.16 1.16 0 0 0 2.25-.04l.67-2.76a.75.75 0 0 1 .55-.56l2.8-.67c.51-.14.85-.6.85-1.12 0-.53-.34-.98-.85-1.13ZM1.9 12.2l.47.11c.08.03.14.1.14.19s-.06.16-.14.19l-.47.1a.12.12 0 0 0-.09.1l-.11.46a.2.2 0 0 1-.19.15.19.19 0 0 1-.19-.14l-.1-.47a.12.12 0 0 0-.1-.09l-.46-.11a.2.2 0 0 1 0-.38l.46-.11a.12.12 0 0 0 .09-.1l.11-.45a.2.2 0 0 1 .38 0l.11.46c.01.04.05.08.1.09Z"
    fill="#FFAB00"
  />
</svg>
