<svg fill="currentColor" viewBox="0 0 16 16" xmlns="http://www.w3.org/2000/svg">
  <path
    fill-rule="evenodd"
    clip-rule="evenodd"
    d="M3.68499 16C3.46804 15.9986 3.25745 15.9266 3.08499 15.795C2.91731 15.6639 2.79189 15.4864 2.72432 15.2846C2.65675 15.0828 2.65003 14.8656 2.70499 14.66L3.86499 10.16L0.364986 7.215C0.200239 7.07146 0.0822054 6.8819 0.0260697 6.67072C-0.030066 6.45955 -0.0217366 6.2364 0.0499864 6.03C0.105582 5.82669 0.223996 5.64615 0.38832 5.51415C0.552643 5.38215 0.754472 5.30545 0.964986 5.295L5.46499 5.055L7.06499 0.68C7.13189 0.481739 7.25931 0.30946 7.42929 0.187427C7.59926 0.0653944 7.80324 -0.000244141 8.01249 -0.000244141C8.22173 -0.000244141 8.42571 0.0653944 8.59569 0.187427C8.76566 0.30946 8.89308 0.481739 8.95999 0.68L10.57 5.055L15.07 5.295C15.279 5.31047 15.4784 5.38903 15.6417 5.52027C15.8051 5.65151 15.9248 5.82926 15.985 6.03C16.0496 6.23443 16.0527 6.45332 15.9941 6.65953C15.9354 6.86573 15.8175 7.05018 15.655 7.19L12.155 10.13L13.32 14.63C13.3744 14.8361 13.3669 15.0536 13.2984 15.2555C13.23 15.4573 13.1035 15.6345 12.935 15.765C12.7702 15.8885 12.5714 15.9582 12.3655 15.9644C12.1597 15.9707 11.957 15.9133 11.785 15.8L7.99999 13.265L4.23999 15.825C4.07643 15.9371 3.88324 15.998 3.68499 16Z"
  />
</svg>
