<svg fill="currentColor" viewBox="0 0 16 16" xmlns="http://www.w3.org/2000/svg">
  <path
    d="M2 8C1.99998 9.24554 2.39181 10.4595 3.12 11.47L11.47 3.12C10.5732 2.48421 9.51886 2.10704 8.42224 2.02967C7.32561 1.9523 6.2288 2.17772 5.25157 2.68129C4.27434 3.18487 3.45424 3.94726 2.88083 4.88522C2.30741 5.82318 2.00271 6.90065 2 8ZM14 8C14 6.75447 13.6082 5.54049 12.88 4.53L4.53 12.88C5.42685 13.5158 6.48115 13.893 7.57777 13.9703C8.6744 14.0477 9.7712 13.8223 10.7484 13.3187C11.7257 12.8151 12.5458 12.0527 13.1192 11.1148C13.6926 10.1768 13.9973 9.09935 14 8ZM8 16C6.41775 16 4.87103 15.5308 3.55544 14.6518C2.23985 13.7727 1.21447 12.5233 0.608967 11.0615C0.00346625 9.59966 -0.15496 7.99113 0.153721 6.43928C0.462403 4.88743 1.22433 3.46197 2.34315 2.34315C3.46197 1.22433 4.88743 0.462403 6.43928 0.153721C7.99113 -0.15496 9.59966 0.00346625 11.0615 0.608967C12.5233 1.21447 13.7727 2.23985 14.6518 3.55544C15.5308 4.87103 16 6.41775 16 8C16 10.1217 15.1571 12.1566 13.6569 13.6569C12.1566 15.1571 10.1217 16 8 16Z"
  />
</svg>
