<svg fill="currentColor" viewBox="0 0 16 16" xmlns="http://www.w3.org/2000/svg">
  <path
    d="M8 0.000976562C9.00744 -0.0131892 10.02 0.14116 10.8779 0.462891C11.7108 0.775289 12.4987 1.28533 12.8887 2.04199C13.1416 2.53291 12.9489 3.13567 12.458 3.38867C11.9671 3.64164 11.3643 3.44891 11.1113 2.95801C11.0478 2.83475 10.7967 2.56784 10.1758 2.33496C9.5841 2.11308 8.81971 1.98728 8.01562 2H7C6.33696 2 5.70126 2.26359 5.23242 2.73242C4.76359 3.20126 4.50001 3.83697 4.5 4.5C4.5 5.16304 4.76359 5.79874 5.23242 6.26758C5.70126 6.73642 6.33696 7 7 7H15C15.5523 7 16 7.44772 16 8C16 8.55229 15.5523 9 15 9H12.7412C13.2322 9.73457 13.5 10.6034 13.5 11.5C13.5 12.6935 13.0255 13.8377 12.1816 14.6816C11.3377 15.5256 10.1935 16 9 16H7.5V15.999C6.49256 16.0132 5.48002 15.8588 4.62207 15.5371C3.78915 15.2247 3.00126 14.7147 2.61133 13.958C2.35836 13.4671 2.55109 12.8643 3.04199 12.6113C3.5329 12.3584 4.13567 12.5511 4.38867 13.042C4.45218 13.1652 4.70334 13.4322 5.32422 13.665C5.9159 13.8869 6.68029 14.0127 7.48438 14H9C9.66304 14 10.2987 13.7364 10.7676 13.2676C11.2364 12.7987 11.5 12.163 11.5 11.5C11.5 10.837 11.2364 10.2013 10.7676 9.73242C10.2987 9.26359 9.66303 9 9 9H1C0.447715 9 0 8.55229 0 8C0 7.44772 0.447715 7 1 7H3.25879C2.76776 6.26543 2.5 5.3966 2.5 4.5C2.50001 3.30653 2.97445 2.16227 3.81836 1.31836C4.66227 0.474453 5.80653 0 7 0H8V0.000976562Z"
  />
</svg>
