<svg fill="currentColor" viewBox="0 0 16 16" xmlns="http://www.w3.org/2000/svg">
  <path
    d="M13.376 6.08496C13.7314 6.1287 14.076 6.2398 14.3896 6.41309C14.7035 6.58651 14.9816 6.81937 15.2061 7.09961C15.4306 7.37999 15.5976 7.70262 15.6953 8.04883C15.7929 8.39506 15.8193 8.75749 15.7725 9.11426C15.7256 9.47107 15.6067 9.81453 15.4238 10.124C15.3896 10.1819 15.3488 10.2363 15.3037 10.2861L13.7529 12H15C15.5522 12 15.9998 12.4479 16 13C15.9999 13.5522 15.5522 14 15 14H11.5C11.1046 14 10.7463 13.7666 10.5859 13.4053C10.4258 13.044 10.4936 12.6222 10.7588 12.3291L13.7295 9.04492C13.7582 8.98301 13.7804 8.91933 13.7891 8.85352C13.8005 8.76631 13.7946 8.67734 13.7705 8.5918C13.7463 8.50613 13.7044 8.42318 13.6455 8.34961C13.5865 8.27596 13.511 8.21178 13.4229 8.16309C13.3347 8.11439 13.2355 8.0821 13.1318 8.06934C13.0281 8.0566 12.9225 8.06438 12.8223 8.09082C12.7221 8.11725 12.6298 8.1616 12.5508 8.2207C12.4719 8.27976 12.4083 8.3523 12.3613 8.43164C12.0804 8.90707 11.4667 9.06502 10.9912 8.78418C10.516 8.50319 10.3579 7.88944 10.6387 7.41406C10.8215 7.10477 11.0645 6.83517 11.3516 6.62012C11.6387 6.40508 11.9659 6.24765 12.3125 6.15625C12.6589 6.06494 13.0205 6.04127 13.376 6.08496ZM7.22949 1.3623C7.58154 0.936932 8.21221 0.877558 8.6377 1.22949C9.06309 1.58156 9.1225 2.21221 8.77051 2.6377L5.79785 6.23047L8.77051 9.82422C9.12251 10.2498 9.06323 10.8804 8.6377 11.2324C8.21215 11.5844 7.58152 11.5242 7.22949 11.0986L4.5 7.79883L1.77051 11.0986C1.41846 11.5241 0.787834 11.5844 0.362305 11.2324C-0.0631553 10.8804 -0.122459 10.2497 0.229492 9.82422L3.20117 6.23047L0.229492 2.6377C-0.122436 2.21223 -0.063023 1.58155 0.362305 1.22949C0.787775 0.877514 1.41843 0.936961 1.77051 1.3623L4.5 4.66113L7.22949 1.3623Z"
  />
</svg>
