<svg fill="currentColor" viewBox="0 0 16 16" xmlns="http://www.w3.org/2000/svg">
  <path
    d="M7.22949 3.91113C7.5817 3.4859 8.21236 3.42632 8.6377 3.77832C9.06293 4.13053 9.12253 4.76119 8.77051 5.18652L5.79785 8.77441L8.77051 12.3623C9.12265 12.7876 9.06297 13.4183 8.6377 13.7705C8.21236 14.1226 7.58173 14.063 7.22949 13.6377L4.5 10.3418L1.77051 13.6377C1.41827 14.063 0.787637 14.1226 0.362305 13.7705C-0.0629516 13.4183 -0.122638 12.7876 0.229492 12.3623L3.20117 8.77441L0.229492 5.18652C-0.122506 4.76119 -0.0629206 4.13052 0.362305 3.77832C0.787628 3.4263 1.41829 3.48592 1.77051 3.91113L4.5 7.20605L7.22949 3.91113ZM12.3125 1.09277C13.0106 0.90891 13.757 0.999501 14.3896 1.34863C14.7035 1.52186 14.9815 1.75508 15.2061 2.03516C15.4306 2.31526 15.5976 2.63741 15.6953 2.9834C15.7931 3.3296 15.8194 3.69207 15.7725 4.04883C15.7255 4.40554 15.6058 4.74832 15.4229 5.05762C15.3886 5.11544 15.3488 5.16991 15.3037 5.21973L13.7559 6.92871H15C15.5521 6.92871 15.9997 7.37672 16 7.92871C16 8.481 15.5523 8.92871 15 8.92871H11.5C11.1047 8.92871 10.7463 8.69626 10.5859 8.33496C10.4257 7.97349 10.4934 7.55087 10.7588 7.25781L13.7305 3.97559C13.7585 3.91473 13.7805 3.85261 13.7891 3.78809C13.8005 3.7013 13.7945 3.61251 13.7705 3.52734C13.7464 3.44203 13.7043 3.35953 13.6455 3.28613C13.5865 3.21262 13.5111 3.14829 13.4229 3.09961C13.2435 3.00074 13.0264 2.97365 12.8223 3.02734C12.6186 3.08098 12.455 3.20738 12.3604 3.36719C12.0792 3.84245 11.4665 3.9998 10.9912 3.71875C10.516 3.43751 10.3585 2.82392 10.6396 2.34863C11.0092 1.72439 11.614 1.27678 12.3125 1.09277Z"
  />
</svg>
