<svg fill="currentColor" viewBox="0 0 16 16" xmlns="http://www.w3.org/2000/svg">
  <path
    fill-rule="evenodd"
    clip-rule="evenodd"
    d="M9.70648 1.7075L9.39448 2.0195C13.0594 2.22588 15.9818 5.25514 15.9994 8.9658C15.9998 8.97714 16 8.98853 16 8.99997C16 9.55225 15.5523 9.99997 15 9.99997C14.4477 9.99997 14 9.55225 14 8.99997V8.9995H13.9995C13.9995 6.4015 11.9985 4.2835 9.46048 4.0465L9.70648 4.2925C10.0975 4.6835 10.0975 5.3165 9.70648 5.7075C9.51148 5.9025 9.25548 5.9995 8.99948 5.9995C8.74448 5.9995 8.48848 5.9025 8.29248 5.7075L6.29348 3.7065C5.90348 3.3165 5.90348 2.6835 6.29348 2.2925L8.29248 0.2925C8.68348 -0.0975 9.31648 -0.0975 9.70648 0.2925C10.0975 0.6835 10.0975 1.3165 9.70648 1.7075ZM2 7V7.00001H2.00004C2.00004 9.59801 4.00104 11.716 6.53904 11.953L6.29304 11.707C5.90204 11.316 5.90204 10.683 6.29304 10.292C6.48804 10.097 6.74404 10 7.00004 10C7.25504 10 7.51104 10.097 7.70704 10.292L9.70604 12.293C10.096 12.683 10.096 13.316 9.70604 13.707L7.70704 15.707C7.31603 16.097 6.68304 16.097 6.29304 15.707C5.90204 15.316 5.90204 14.683 6.29304 14.292L6.60504 13.98C2.93208 13.7732 0.00489136 10.7311 4.21065e-05 7.00927L0 7C0 6.44772 0.447715 6 1 6C1.55228 6 2 6.44772 2 7Z"
  />
</svg>
