<svg viewBox="0 0 16 16" fill="none" xmlns="http://www.w3.org/2000/svg">
  <path
    fill-rule="evenodd"
    clip-rule="evenodd"
    d="M1.74403 2.74604C1.90388 2.59101 2.12544 2.5 2.36111 2.5H13.6389C13.8746 2.5 14.0961 2.59101 14.256 2.74604C14.415 2.9003 14.5 3.10456 14.5 3.3125V12.6875C14.5 12.8954 14.415 13.0997 14.256 13.254C14.0961 13.409 13.8746 13.5 13.6389 13.5H2.36111C2.12544 13.5 1.90388 13.409 1.74403 13.254C1.58496 13.0997 1.5 12.8954 1.5 12.6875V3.3125C1.5 3.10455 1.58496 2.9003 1.74403 2.74604ZM2.36111 1C1.74219 1 1.14417 1.23823 0.699738 1.66926C0.254522 2.10104 0 2.69164 0 3.3125V12.6875C0 13.3084 0.254522 13.899 0.699738 14.3307C1.14417 14.7618 1.74219 15 2.36111 15H13.6389C14.2578 15 14.8558 14.7618 15.3003 14.3307C15.7455 13.899 16 13.3084 16 12.6875V3.3125C16 2.69164 15.7455 2.10104 15.3003 1.66926C14.8558 1.23823 14.2578 1 13.6389 1H2.36111ZM4.26224 5.14382C4.55098 4.84683 5.02581 4.84014 5.3228 5.12888L7.7228 7.46221C7.86804 7.60342 7.94999 7.79738 7.94999 7.99996C7.94999 8.20253 7.86804 8.39649 7.7228 8.53771L5.3228 10.871C5.02581 11.1598 4.55098 11.1531 4.26224 10.8561C3.9735 10.5591 3.98019 10.0843 4.27718 9.79555L6.12407 7.99996L4.27718 6.20437C3.98019 5.91563 3.9735 5.44081 4.26224 5.14382ZM8.04999 10.3334C8.04999 9.91916 8.38577 9.58337 8.79999 9.58337H11.2C11.6142 9.58337 11.95 9.91916 11.95 10.3334C11.95 10.7476 11.6142 11.0834 11.2 11.0834H8.79999C8.38577 11.0834 8.04999 10.7476 8.04999 10.3334Z"
    fill="#66758F"
  />
</svg>
