<svg fill="currentColor" viewBox="0 0 16 16" xmlns="http://www.w3.org/2000/svg">
  <path
    d="M8.7998 1C9.89364 1 10.9552 1.40704 11.7471 2.14941C12.5409 2.89381 13 3.9177 13 5V14C13 14.5523 12.5523 15 12 15C11.4477 15 11 14.5523 11 14V9.75H5V14C5 14.5523 4.55228 15 4 15C3.44772 15 3 14.5523 3 14V5C3 3.9177 3.45908 2.89381 4.25293 2.14941C5.0448 1.40704 6.10636 1 7.2002 1H8.7998ZM7.2002 3C6.59664 3 6.02946 3.22556 5.62109 3.6084C5.21501 3.98917 5 4.49122 5 5V7.75H11V5C11 4.49122 10.785 3.98917 10.3789 3.6084C9.97054 3.22556 9.40336 3 8.7998 3H7.2002Z"
  />
</svg>
