<svg fill="currentColor" viewBox="0 0 16 16" xmlns="http://www.w3.org/2000/svg">
  <path
    d="M15 0C15.5523 0 16 0.447715 16 1V15C16 15.5523 15.5523 16 15 16H1C0.447715 16 0 15.5523 0 15V1C0 0.447715 0.447715 0 1 0H15ZM2 2V14H14V2H2ZM8 3.88867C8.41652 3.8888 8.79006 4.1472 8.93652 4.53711L11.2695 10.7598C11.4634 11.2768 11.2015 11.8528 10.6846 12.0469C10.1675 12.2407 9.59137 11.979 9.39746 11.4619L9.05762 10.5557H6.94336L6.60352 11.4619C6.40962 11.979 5.8325 12.2407 5.31543 12.0469C4.79866 11.8528 4.53665 11.2767 4.73047 10.7598L7.06445 4.53711L7.12891 4.39746C7.30407 4.08678 7.63552 3.88879 8 3.88867ZM7.69336 8.55566H8.30762L8 7.73633L7.69336 8.55566Z"
  />
</svg>
