<svg fill="currentColor" viewBox="0 0 16 16" xmlns="http://www.w3.org/2000/svg">
  <path
    d="M15 14C15.5523 14 16 14.4477 16 15C16 15.5523 15.5523 16 15 16H1C0.447715 16 0 15.5523 0 15C0 14.4477 0.447715 14 1 14H15ZM13 0C13.5523 0 14 0.447715 14 1V6C14 7.5913 13.3674 9.11697 12.2422 10.2422C11.117 11.3674 9.5913 12 8 12C6.4087 12 4.88303 11.3674 3.75781 10.2422C2.63259 9.11697 2 7.5913 2 6V1C2 0.447715 2.44772 0 3 0C3.55228 0 4 0.447715 4 1V6C4 7.06087 4.42173 8.07798 5.17188 8.82812C5.92202 9.57827 6.93913 10 8 10C9.06087 10 10.078 9.57827 10.8281 8.82812C11.5783 8.07798 12 7.06087 12 6V1C12 0.447715 12.4477 0 13 0Z"
  />
</svg>
