<svg fill="currentColor" viewBox="0 0 16 16" xmlns="http://www.w3.org/2000/svg">
<path d="M15 7.99609C15.5522 7.99609 15.9998 8.44371 16 8.99609V14.0039C15.9998 15.0995 15.1008 16 13.999 16H2.00098C0.89445 16 0.000177315 15.1082 0 14.0039V8.99609C0.0002042 8.44371 0.447841 7.99609 1 7.99609C1.55216 7.99609 1.9998 8.44371 2 8.99609V14.0039C2 14.0019 13.9582 13.999 13.999 13.999C13.9957 13.9931 14 8.99609 14 8.99609C14.0002 8.44371 14.4478 7.99609 15 7.99609ZM8 0C8.40081 6.45599e-05 8.77765 0.158158 9.05957 0.444336L12.707 4.29883C13.0977 4.69431 13.0978 5.33598 12.707 5.73242C12.3171 6.1279 11.684 6.12784 11.293 5.73242L9.00098 3.25098V9.00391C9.00087 9.55646 8.55281 10.0048 8.00098 10.0049C7.44904 10.0049 7.00109 9.55653 7.00098 9.00391V3.24902L4.70605 5.73242C4.31509 6.1279 3.683 6.12783 3.29199 5.73242C2.90099 5.33591 2.901 4.69434 3.29199 4.29883L6.93848 0.444336C7.22248 0.157964 7.598 0 8 0Z" />
</svg>
