<svg viewBox="0 0 16 16" fill="currentColor" xmlns="http://www.w3.org/2000/svg">
  <path
    clip-rule="evenodd"
    d="M3.52824 4.10256C3.52824 2.92435 4.48337 1.96923 5.66157 1.96923C6.83978 1.96923 7.79491 2.92435 7.79491 4.10256C7.79491 5.28077 6.83978 6.23589 5.66157 6.23589C4.48337 6.23589 3.52824 5.28077 3.52824 4.10256ZM5.66157 0C3.39579 0 1.55901 1.83678 1.55901 4.10256C1.55901 6.36834 3.39579 8.20512 5.66157 8.20512C7.92735 8.20512 9.76413 6.36834 9.76413 4.10256C9.76413 1.83678 7.92735 0 5.66157 0ZM2.59407 11.9479C2.99414 11.5478 3.53677 11.3231 4.10256 11.3231H7.22051C7.7863 11.3231 8.32892 11.5478 8.729 11.9479C9.12908 12.348 9.35384 12.8906 9.35384 13.4564V15.0154C9.35384 15.5592 9.79467 16 10.3385 16C10.8822 16 11.3231 15.5592 11.3231 15.0154V13.4564C11.3231 12.3683 10.8908 11.3248 10.1215 10.5554C9.35208 9.78607 8.30857 9.35384 7.22051 9.35384H4.10256C3.01449 9.35384 1.97099 9.78607 1.20161 10.5554C0.432233 11.3248 0 12.3683 0 13.4564V15.0154C0 15.5592 0.440827 16 0.984614 16C1.5284 16 1.96923 15.5592 1.96923 15.0154V13.4564C1.96923 12.8906 2.19399 12.348 2.59407 11.9479ZM10.164 0.84171C10.2989 0.314916 10.8353 -0.00279277 11.3621 0.132088C12.2446 0.358038 13.0268 0.871268 13.5853 1.59087C14.1439 2.31046 14.4471 3.1955 14.4471 4.10644C14.4471 5.01739 14.1439 5.90242 13.5853 6.62202C13.0268 7.34162 12.2446 7.85485 11.3621 8.0808C10.8353 8.21568 10.2989 7.89797 10.164 7.37118C10.0292 6.84438 10.3469 6.30799 10.8737 6.17311C11.3326 6.05561 11.7393 5.78873 12.0297 5.41454C12.3202 5.04035 12.4779 4.58013 12.4779 4.10644C12.4779 3.63275 12.3202 3.17253 12.0297 2.79834C11.7393 2.42415 11.3326 2.15727 10.8737 2.03978C10.3469 1.9049 10.0292 1.3685 10.164 0.84171ZM12.923 9.50204C12.3965 9.36611 11.8595 9.68274 11.7236 10.2093C11.5876 10.7358 11.9043 11.2728 12.4308 11.4087C12.8867 11.5265 13.2908 11.7917 13.5802 12.1631C13.8691 12.5338 14.0275 12.9896 14.0308 13.4595V15.0154C14.0308 15.5592 14.4716 16 15.0154 16C15.5592 16 16 15.5592 16 15.0154L16 13.4564L16 13.4508C15.9948 12.5453 15.6901 11.667 15.1336 10.9527C14.577 10.2385 13.7998 9.7284 12.923 9.50204Z"
  />
</svg>
