<svg fill="currentColor" viewBox="0 0 16 16" xmlns="http://www.w3.org/2000/svg">
  <path
    fill-rule="evenodd"
    clip-rule="evenodd"
    d="M5 12H4V11C4 10.448 3.552 10 3 10C2.448 10 2 10.448 2 11V12H1C0.448 12 0 12.448 0 13C0 13.552 0.448 14 1 14H2V15C2 15.552 2.448 16 3 16C3.552 16 4 15.552 4 15V14H5C5.552 14 6 13.552 6 13C6 12.448 5.552 12 5 12ZM9 8C7.3435 8 6 6.6565 6 5C6 3.3435 7.3435 2 9 2C10.6565 2 12 3.3435 12 5C12 6.6565 10.6565 8 9 8ZM16 15C16 14.7825 15.987 14.5685 15.9675 14.356C15.963 14.3075 15.957 14.2595 15.9515 14.211C15.929 14.012 15.9005 13.8155 15.862 13.622C15.8595 13.6105 15.858 13.5985 15.8555 13.587C15.81 13.3675 15.7545 13.1525 15.689 12.941C15.6845 12.927 15.6795 12.9125 15.6755 12.8985C15.1145 11.124 13.864 9.653 12.24 8.801C13.315 7.8835 14 6.521 14 5C14 2.243 11.757 0 9 0C6.243 0 4 2.243 4 5C4 6.5245 4.6875 7.889 5.7665 8.8065C5.5895 8.9 5.415 8.998 5.247 9.105L5.173 9.1505C4.917 9.3315 4.749 9.628 4.749 9.9655C4.749 10.5175 5.197 10.9655 5.749 10.9655C5.9635 10.9655 6.16 10.895 6.323 10.7805C6.325 10.779 6.3275 10.778 6.33 10.777C6.335 10.7735 6.341 10.771 6.346 10.7675C6.5315 10.6515 6.7245 10.5465 6.9255 10.4545C6.93 10.4525 6.935 10.45 6.94 10.448C7.3485 10.2625 7.787 10.1325 8.2455 10.063C8.2645 10.06 8.2835 10.0565 8.303 10.054C8.531 10.0225 8.763 10.004 9 10.004C11.761 10.004 14 12.2425 14 15.004H14.0005C14.003 15.554 14.449 16 15 16C15.551 16 15.997 15.554 15.9995 15.004H16V15.0015V15Z"
  />
</svg>
