<svg fill="currentColor" viewBox="0 0 16 16" xmlns="http://www.w3.org/2000/svg">
  <path
    d="M11.25 8.80001C12.0267 8.13566 12.5812 7.24925 12.8387 6.26016C13.0962 5.27107 13.0444 4.22681 12.6903 3.26805C12.3362 2.30928 11.6968 1.48206 10.8582 0.89781C10.0196 0.313556 9.02207 0.000335693 8 0.000335693C6.97793 0.000335693 5.98042 0.313556 5.1418 0.89781C4.30319 1.48206 3.66377 2.30928 3.30967 3.26805C2.95557 4.22681 2.90379 5.27107 3.16132 6.26016C3.41884 7.24925 3.9733 8.13566 4.75 8.80001C3.61879 9.393 2.67138 10.2842 2.01037 11.377C1.34937 12.4699 0.999963 13.7228 1 15C1 15.2652 1.10536 15.5196 1.29289 15.7071C1.48043 15.8946 1.73478 16 2 16C2.26522 16 2.51957 15.8946 2.70711 15.7071C2.89464 15.5196 3 15.2652 3 15C3 13.6739 3.52678 12.4022 4.46447 11.4645C5.40215 10.5268 6.67392 10 8 10C9.32608 10 10.5979 10.5268 11.5355 11.4645C12.4732 12.4022 13 13.6739 13 15C13 15.2652 13.1054 15.5196 13.2929 15.7071C13.4804 15.8946 13.7348 16 14 16C14.2652 16 14.5196 15.8946 14.7071 15.7071C14.8946 15.5196 15 15.2652 15 15C15 13.7228 14.6506 12.4699 13.9896 11.377C13.3286 10.2842 12.3812 9.393 11.25 8.80001ZM8 8.00001C7.40666 8.00001 6.82664 7.82406 6.33329 7.49442C5.83994 7.16477 5.45542 6.69624 5.22836 6.14806C5.0013 5.59988 4.94189 4.99668 5.05764 4.41474C5.1734 3.83279 5.45912 3.29824 5.87868 2.87869C6.29824 2.45913 6.83279 2.17341 7.41473 2.05765C7.99667 1.9419 8.59987 2.00131 9.14805 2.22837C9.69623 2.45543 10.1648 2.83995 10.4944 3.3333C10.8241 3.82664 11 4.40666 11 5.00001C11 5.79566 10.6839 6.55872 10.1213 7.12133C9.55871 7.68394 8.79565 8.00001 8 8.00001Z"
  />
</svg>
