<svg viewBox="0 0 16 16" fill="currentColor" xmlns="http://www.w3.org/2000/svg">
  <path
    fill-rule="evenodd"
    clip-rule="evenodd"
    d="M13 1.00057C13 0.668593 12.8355 0.358233 12.5607 0.172088C12.286 -0.0140569 11.9369 -0.0517482 11.6288 0.0714746L1.77682 4.01197C0.776708 4.12295 0 4.97103 0 6.00016V13.9995C0 15.104 0.894679 16 2 16H14C15.1053 16 16 15.104 16 13.9995V6.00016C16 4.89564 15.1053 3.99967 14 3.99967H13V1.00057ZM11.9952 6.00081C11.9968 6.00082 11.9984 6.00082 12 6.00082C12.0016 6.00082 12.0032 6.00082 12.0049 6.00081H14V13.9989H2V6.00109C2.00793 6.00109 2.01586 6.001 2.0238 6.00081H11.9952ZM11 3.99967V2.47809L7.19578 3.99967H11ZM13 9.99983C13 10.5518 12.553 10.9997 12 10.9997C11.447 10.9997 11 10.5518 11 9.99983C11 9.44787 11.447 8.99991 12 8.99991C12.553 8.99991 13 9.44787 13 9.99983Z"
  />
</svg>
