<svg fill="currentColor" viewBox="0 0 16 16" xmlns="http://www.w3.org/2000/svg">
  <path
    fill-rule="evenodd"
    clip-rule="evenodd"
    d="M7.12534 5.54374C7.12534 5.06922 7.51723 4.68409 8.00008 4.68409C8.48294 4.68409 8.87483 5.06922 8.87483 5.54374V8.73673C8.87483 9.21125 8.48294 9.59638 8.00008 9.59638C7.51723 9.59638 7.12534 9.21125 7.12534 8.73673V5.54374ZM7.12534 11.4385C7.12534 10.964 7.51623 10.5788 8.00008 10.5788C8.48394 10.5788 8.87483 10.964 8.87483 11.4385C8.87483 11.913 8.48394 12.2981 8.00008 12.2981C7.51623 12.2981 7.12534 11.913 7.12534 11.4385ZM13.8983 12.6608C13.8333 12.7738 13.6404 13.0351 13.2465 13.0351H2.75354C2.35966 13.0351 2.16672 12.7738 2.10174 12.6618C2.03676 12.5488 1.90779 12.2511 2.11073 11.919L7.35819 3.32255C7.55514 2.99932 7.87304 2.96494 8 2.96494H8.00101C8.12797 2.96494 8.44487 2.99932 8.64182 3.32255L13.8883 11.919C14.0912 12.2511 13.9623 12.5488 13.8983 12.6608ZM15.6028 10.9081L10.3563 2.31158C9.85546 1.49123 8.97471 1 8.001 1H8C7.02629 1 6.14554 1.49025 5.64369 2.31158L0.397231 10.9081C-0.119617 11.754 -0.132613 12.7708 0.361242 13.6295C0.856096 14.4872 1.75083 15 2.75354 15H13.2465C14.2502 15 15.1439 14.4872 15.6388 13.6285C16.1326 12.7708 16.1196 11.753 15.6028 10.9081Z"
  />
</svg>
