<svg fill="currentColor" viewBox="0 0 16 16" xmlns="http://www.w3.org/2000/svg">
  <path
    fill-rule="evenodd"
    clip-rule="evenodd"
    d="M13.3536 0.5C14.8287 0.500262 15.9999 1.65829 16.0001 3.11621V12.8838C16 13.1457 15.8945 13.3968 15.7071 13.582L14.0606 15.21C14.0546 15.2159 14.0472 15.2208 14.0411 15.2266C14.0312 15.2359 14.0211 15.245 14.0108 15.2539C13.9964 15.2664 13.9818 15.2785 13.9669 15.29C13.9619 15.2939 13.9573 15.298 13.9522 15.3018C13.7749 15.4333 13.5641 15.4992 13.3526 15.499V15.5H11.294C9.9013 15.4999 8.81493 14.7949 7.98348 13.6582C7.86172 13.847 7.73333 14.0437 7.59676 14.2461L7.59578 14.2451C7.34318 14.6196 7.02329 14.9772 6.59871 15.1934C6.13267 15.4306 5.63336 15.451 5.16219 15.2959C4.73244 15.1543 4.36225 14.8795 4.04891 14.585C3.8663 14.4133 3.68441 14.2157 3.50105 13.999C2.91559 14.4694 2.249 14.9239 1.51473 15.3594C1.04134 15.64 0.426903 15.4881 0.142655 15.0205C-0.141462 14.5525 0.0120633 13.945 0.485429 13.6641C1.14862 13.2707 1.70367 12.8901 2.16512 12.5264C2.05807 12.417 1.94786 12.3012 1.84285 12.1797C1.32324 11.5783 0.842504 10.7798 0.823319 9.64453C0.792317 7.81084 1.8438 6.19732 3.47078 6.19727C3.80147 6.19726 4.66221 6.15246 5.30965 6.79199C5.92365 7.39885 6.11726 8.37579 6.11726 9.62793C6.1172 10.6933 5.68858 11.6832 4.93269 12.6084C5.11871 12.8366 5.28282 13.016 5.42781 13.1523C5.57225 13.2881 5.67552 13.3544 5.73641 13.3887C5.77896 13.3482 5.84668 13.2759 5.93269 13.1484C6.47086 12.351 6.85777 11.7121 7.10555 11.2217L7.17879 11.0977C7.36965 10.8264 7.68886 10.6651 8.02937 10.6748C8.41856 10.6861 8.76561 10.9197 8.91902 11.2734C9.55459 12.7389 10.2443 13.3243 10.9083 13.4775C10.7784 13.3073 10.7062 13.0995 10.7061 12.8838V3.11621C10.7064 1.65813 11.8783 0.5 13.3536 0.5ZM12.7061 5.73242V12.4746L13.3526 13.1133L14.0001 12.4746V5.73242H12.7061ZM3.47078 8.17383C3.44935 8.17418 2.80167 8.32919 2.82332 9.61133C2.83227 10.1426 3.03503 10.5154 3.36434 10.8965C3.42861 10.9708 3.49737 11.0408 3.56746 11.1133C3.95458 10.5656 4.11721 10.0694 4.11726 9.62793C4.11726 9.0645 4.06906 8.69709 4.00789 8.46387C3.96244 8.29072 3.91652 8.21889 3.90047 8.19727C3.86962 8.19051 3.76429 8.17383 3.47078 8.17383ZM13.3536 2.47656C12.9828 2.47656 12.7063 2.74985 12.7061 3.11621V3.75586H14.0001V3.11621C13.9999 2.75001 13.7241 2.47681 13.3536 2.47656Z"
  />
</svg>
