<svg width="66" height="40" viewBox="0 0 66 40" fill="none" xmlns="http://www.w3.org/2000/svg">
<g clip-path="url(#clip0_154_1008)">
<path d="M8.04688 14C12.5403 14.0002 16.2093 17.5776 16.3174 22.0146L16.3145 29.8203C16.2935 34.2968 12.6521 37.9383 8.15527 37.999V38H8.04102V37.999C5.88556 37.9758 3.82515 37.1117 2.30469 35.5938L4.49902 33.415C5.4525 34.3671 6.74568 34.9069 8.09766 34.918C10.9229 34.8882 13.2292 32.5971 13.2295 29.7842V22.2168C13.2295 19.3851 10.8979 17.0812 8.04688 17.0811C5.19571 17.0811 2.87598 19.385 2.87598 22.2168C2.87616 25.0484 5.19583 27.3516 8.04688 27.3516H10.7676V30.4336H8.04688C3.48485 30.4336 -0.226383 26.7473 -0.226562 22.2168C-0.226562 17.6862 3.48474 14 8.04688 14ZM57.543 14.041C62.1045 14.0411 65.7899 17.7269 65.791 22.2578V37.5898H62.6885V21.8125H62.6934C62.4651 19.1886 60.2426 17.1231 57.543 17.123C54.6919 17.123 52.3722 19.4267 52.3721 22.2578C52.3721 25.0891 54.6918 27.3936 57.543 27.3936H60.373V30.4746H57.543C52.9813 30.4746 49.2705 26.7889 49.2705 22.2578C49.2707 17.7269 52.9814 14.041 57.543 14.041ZM39.2764 14.041C43.8374 14.0411 47.5496 17.7274 47.5498 22.2578C47.5498 26.7884 43.8379 30.4745 39.2764 30.4746C34.7147 30.4746 31.0039 26.7889 31.0039 22.2578C31.0041 17.7269 34.7148 14.041 39.2764 14.041ZM27.0039 14.0234C27.2878 14.0253 27.572 14.0418 27.8545 14.0732C28.9895 14.2018 30.0859 14.5618 31.0752 15.1328L29.5264 17.8037C28.9078 17.4575 28.2232 17.2417 27.5166 17.1709C27.3388 17.1547 27.1627 17.1436 26.9844 17.1436C26.8947 17.1431 26.8004 17.1462 26.708 17.1494C26.6154 17.1527 26.5228 17.1609 26.4307 17.166C26.0667 17.1956 25.7058 17.2588 25.3535 17.3545C24.6566 17.5459 24.0118 17.8679 23.4736 18.2988C22.9406 18.7228 22.5149 19.264 22.2295 19.8799C22.088 20.1869 21.982 20.5097 21.9141 20.8408C21.8797 21.0089 21.8537 21.1787 21.8369 21.3496C21.8318 21.4369 21.8184 21.5222 21.8184 21.6104L21.8145 21.7422L21.8125 21.8086V21.8926L21.7988 27.3965L21.7793 30.1475H18.6768L18.6572 27.3965L18.6436 21.8926V21.8047L18.6455 21.6982L18.6504 21.4863C18.6523 21.3449 18.6694 21.2025 18.6787 21.0605C18.7048 20.7749 18.7455 20.491 18.8018 20.21C18.9153 19.6408 19.098 19.0867 19.3447 18.5605C19.8396 17.5044 20.574 16.5766 21.4912 15.8506C22.3948 15.1321 23.4402 14.6268 24.5244 14.3359C25.0639 14.1917 25.6157 14.0972 26.1729 14.0537C26.3111 14.0454 26.4492 14.0316 26.5879 14.0293C26.7266 14.027 26.8624 14.0234 27.0039 14.0234ZM39.2764 17.123C36.4253 17.123 34.1056 19.4267 34.1055 22.2578C34.1055 25.0891 36.4252 27.3936 39.2764 27.3936C42.1279 27.3934 44.4473 25.0895 44.4473 22.2578C44.4471 19.4263 42.1273 17.1232 39.2764 17.123Z" fill="#202020"/>
</g>
<defs>
<clipPath id="clip0_154_1008">
<rect width="66" height="40" fill="white"/>
</clipPath>
</defs>
</svg>
