<svg xmlns="http://www.w3.org/2000/svg" fill="none" viewBox="0 0 40 12">
  <path
    fill="#8C95A6"
    d="M34.925 9.08a2.764 2.764 0 0 1-1.162-1.162c-.278-.502-.41-1.08-.41-1.732 0-.652.14-1.23.41-1.731a2.86 2.86 0 0 1 1.162-1.163c.508-.268 1.089-.41 1.752-.41s1.244.134 1.752.41c.507.276.892.66 1.162 1.163.27.501.409 1.079.409 1.731 0 .661-.14 1.238-.41 1.74a2.84 2.84 0 0 1-1.162 1.155c-.507.267-1.088.41-1.751.41-.663 0-1.252-.134-1.752-.41Zm2.898-1.547c.278-.343.425-.795.425-1.339 0-.552-.139-.995-.425-1.338-.287-.343-.663-.519-1.146-.519-.475 0-.851.176-1.138.519-.286.343-.425.786-.425 1.338 0 .553.139 1.004.425 1.339.287.343.663.519 1.138.519.483 0 .86-.176 1.146-.52ZM32.756 2.966v6.257c0 .845-.278 1.522-.819 2.024-.548.502-1.4.753-2.553.753-.892 0-1.613-.2-2.161-.602-.549-.402-.843-.97-.884-1.707h1.743c.082.31.246.544.483.711.238.168.557.251.95.251.49 0 .875-.125 1.146-.376.27-.251.409-.628.409-1.113v-.677c-.459.594-1.113.886-1.948.886a2.834 2.834 0 0 1-1.498-.401 2.77 2.77 0 0 1-1.04-1.138c-.253-.485-.376-1.062-.376-1.715 0-.644.123-1.213.376-1.706.246-.494.598-.87 1.048-1.138.442-.268.95-.401 1.506-.401.827 0 1.482.326 1.965.978l.147-.886h1.506Zm-2.12 4.492c.278-.335.418-.77.418-1.305 0-.544-.14-.987-.418-1.33-.278-.343-.655-.51-1.121-.51-.467 0-.843.167-1.122.51-.286.334-.425.778-.425 1.321 0 .544.139.987.425 1.322.287.335.655.502 1.122.502.466-.008.843-.176 1.121-.51ZM25.61 2.966v6.45h-1.538l-.148-.904c-.499.644-1.154.962-1.964.962a2.834 2.834 0 0 1-1.498-.402c-.442-.268-.786-.652-1.04-1.154-.253-.502-.376-1.08-.376-1.749 0-.652.123-1.23.376-1.731a2.75 2.75 0 0 1 1.048-1.163 2.87 2.87 0 0 1 1.506-.41c.426 0 .802.084 1.13.251.327.167.597.402.81.686l.172-.853h1.522v.017ZM23.49 7.54c.279-.334.418-.786.418-1.338 0-.56-.14-1.012-.418-1.355-.278-.343-.654-.519-1.12-.519-.468 0-.844.176-1.122.519-.287.343-.426.794-.426 1.355 0 .552.14.995.426 1.338.286.343.654.51 1.121.51.467 0 .843-.175 1.122-.51ZM13.75 9.415V.632h1.842V7.8h3.413v1.614H13.75Z"
  />
  <g fill="#8C95A6">
    <path
      d="M9.937 5.847a4.987 4.987 0 0 1-1.401 2.778 4.898 4.898 0 0 1-2.75 1.417c0-.009-.01-.018-.01-.027v-.01c-.008-.017-.008-.026-.017-.053l-.027-.081a2.818 2.818 0 0 1-.098-.415v-.01c0-.018-.01-.036-.01-.054v-.009c.001-.018-.008-.036-.008-.045V9.32c0-.018-.009-.036-.009-.063-.009-.045-.009-.09-.009-.144V9.05c0-.055-.009-.109-.009-.172 0-1.786 1.447-3.248 3.215-3.248H9.036c.044 0 .098.009.143.018a.22.22 0 0 1 .07.01c.019 0 .037.008.046.008h.009c.017 0 .035 0 .053.01h.009a3.587 3.587 0 0 1 .5.134c.018.01.027.01.045.019h.009c0 .009.009.018.017.018Z"
    />
    <path
      d="M10 5.107h-.009c-.08-.027-.16-.045-.241-.072-.009 0-.018-.01-.036-.01a1.629 1.629 0 0 0-.223-.045h-.009c-.018 0-.045-.009-.062-.009h-.018c-.027 0-.054-.009-.072-.009-.026 0-.062-.009-.08-.009-.054-.009-.116-.009-.17-.018H8.786c-2.17 0-3.929 1.778-3.929 3.97 0 .063 0 .127.01.199v.045c0 .018 0 .036.008.054.009.054.009.117.018.171 0 .027.009.055.009.082 0 .027.009.054.009.072.009.036.009.063.018.09.026.171.071.343.125.514v.01A4.883 4.883 0 0 1 2.009 9.14V8.923c0-3.78 3.045-6.857 6.786-6.857H9.009c.66.848 1 1.922.991 3.04Z"
      opacity=".6"
    />
    <path
      d="M8.366 1.308c-.036 0-.08.01-.116.01-.063 0-.116.008-.179.017-.017 0-.044 0-.062.01-.018 0-.027 0-.045.008-.107.01-.214.027-.321.045-.08.01-.152.028-.232.037l-.143.027c-.054.009-.107.027-.17.036-.018.009-.044.009-.062.018l-.116.027c-.018 0-.027.009-.045.009a.508.508 0 0 0-.125.036c-.018.009-.045.009-.063.018l-.098.027a.611.611 0 0 0-.071.027c-.045.01-.08.027-.116.036-.01 0-.018.01-.027.01-.054.017-.107.035-.16.062-.063.018-.117.046-.17.064a.328.328 0 0 0-.099.045c-.035.009-.062.027-.098.036-.053.027-.116.045-.17.072-.098.045-.196.09-.294.144a7.29 7.29 0 0 0-.366.199c-.036.027-.08.045-.116.072-.045.027-.09.054-.143.09-.045.027-.09.054-.125.081-.036.027-.08.055-.116.082l-.107.08c-.09.064-.17.127-.25.19-.036.027-.063.054-.099.082l-.17.144c-.044.036-.088.081-.133.117-.036.027-.063.063-.098.09-.107.109-.215.208-.322.325a.895.895 0 0 0-.089.1c-.045.045-.08.09-.116.135-.054.054-.098.117-.143.171-.027.036-.054.063-.08.1-.063.08-.125.17-.188.252l-.08.108c-.027.036-.054.082-.08.118-.027.045-.054.08-.08.126-.028.045-.063.09-.09.144-.027.036-.045.082-.072.118-.071.117-.134.243-.196.36-.054.1-.098.199-.143.298-.027.054-.053.109-.071.172-.01.027-.027.063-.036.099-.018.036-.027.072-.045.1-.026.053-.044.116-.062.17-.018.055-.036.109-.063.163 0 .01-.009.018-.009.027-.017.036-.026.081-.035.117-.01.027-.018.055-.027.073l-.027.099c-.009.018-.009.045-.018.063-.009.045-.027.09-.035.126 0 .01-.01.027-.01.045-.008.037-.017.082-.026.118 0 .018-.01.036-.018.063-.009.054-.027.108-.036.171-.009.045-.018.09-.027.145a2.13 2.13 0 0 0-.035.234c-.018.109-.027.217-.045.325 0 .018 0 .027-.009.045 0 .018 0 .036-.009.063-.009.063-.009.118-.018.18 0 .037-.009.082-.009.118C.473 7.534.018 6.361 0 5.116A5.05 5.05 0 0 1 1.375 1.57c.027-.036.062-.063.09-.09l.089-.09A4.981 4.981 0 0 1 5 0h.062a4.982 4.982 0 0 1 3.304 1.308Z"
      opacity=".3"
    />
  </g>
</svg>
