<svg viewBox="0 0 136 104" fill="none" xmlns="http://www.w3.org/2000/svg">
  <rect width="136" height="104" fill="white" />
  <path
    d="M9.27 92.48L12.94 92.43L16.61 92.4L23.96 92.33L38.65 92.24C43.55 92.2 48.45 92.21 53.34 92.2L68.03 92.17L82.72 92.2L90.07 92.21L93.74 92.22L97.41 92.24L112.1 92.33L119.45 92.4L123.12 92.44L126.79 92.49C126.94 92.49 127.06 92.62 127.06 92.77C127.06 92.92 126.94 93.04 126.79 93.04L123.12 93.09L119.45 93.13L112.1 93.2L97.41 93.29L93.74 93.31L90.07 93.32L82.72 93.33L68.03 93.36L53.34 93.33C48.44 93.32 43.54 93.32 38.65 93.29L23.96 93.2L16.61 93.13L12.94 93.1L9.27 93.05C9.12 93.03 9 92.9 9 92.75C9 92.6 9.12 92.49 9.27 92.48Z"
    fill="#19212E"
  />
  <path
    d="M75.2 92.52C74.94 92.76 74.66 92.97 74.36 93.17C74.04 93.39 73.68 93.59 73.29 93.63C72.9 93.67 72.47 93.9 72.26 93.57C72.05 93.23 72.17 91.92 72.43 91.61C72.98 90.96 73.85 90.82 74.58 90.75C75.2 90.69 75.94 91.86 75.2 92.52Z"
    fill="white"
  />
  <path
    d="M79.7 90.61C81.85 89.97 83.24 90.34 84.63 91.02C86.02 91.7 87.1 92.79 87.38 94.32C87.66 95.85 87.39 97.19 86.02 97.93C85.13 98.41 83.32 98.39 82.31 98.39C80.79 98.4 78.66 98.54 77.15 98.39C75.41 98.22 74.47 98.13 73.23 96.89C72.45 96.11 71.94 94.05 71.95 92.95"
    fill="white"
  />
  <path
    d="M79.64 90.42C80.24 90.1 80.9 89.88 81.6 89.8C82.3 89.71 83.04 89.79 83.72 89.99C84.06 90.09 84.39 90.22 84.7 90.36C85.01 90.5 85.33 90.67 85.63 90.87C86.23 91.26 86.79 91.75 87.21 92.36C87.42 92.66 87.6 93 87.74 93.35C87.77 93.44 87.81 93.53 87.83 93.61L87.91 93.88C87.95 94.06 87.99 94.25 88.02 94.42C88.07 94.77 88.1 95.13 88.09 95.5C88.08 95.87 88.02 96.25 87.89 96.63C87.76 97 87.56 97.36 87.3 97.67C87.04 97.98 86.72 98.22 86.39 98.4C86.31 98.45 86.21 98.49 86.12 98.54C86.03 98.58 85.93 98.61 85.84 98.64C85.66 98.7 85.48 98.74 85.3 98.78C84.95 98.85 84.6 98.89 84.26 98.91C83.58 98.96 82.91 98.95 82.27 98.94C81.63 98.93 80.98 98.95 80.33 98.95C79.68 98.96 79.02 98.96 78.36 98.94C78.03 98.93 77.7 98.91 77.36 98.88L77.11 98.85L76.87 98.82L76.38 98.76C76.05 98.72 75.72 98.66 75.38 98.58C75.04 98.5 74.7 98.38 74.38 98.22C74.06 98.06 73.76 97.85 73.5 97.63C73.37 97.52 73.24 97.4 73.12 97.28C73.06 97.22 73 97.16 72.94 97.09L72.85 96.98C72.82 96.94 72.8 96.9 72.77 96.87C72.56 96.57 72.42 96.25 72.3 95.93C72.18 95.61 72.08 95.29 72 94.96C71.85 94.31 71.75 93.65 71.77 92.96C71.77 92.85 71.87 92.76 71.98 92.77C72.09 92.77 72.17 92.86 72.17 92.96V92.97C72.2 93.59 72.34 94.22 72.53 94.82C72.62 95.12 72.73 95.42 72.86 95.7C72.99 95.98 73.14 96.25 73.31 96.47C73.33 96.5 73.35 96.53 73.38 96.55L73.45 96.62C73.49 96.67 73.55 96.72 73.61 96.77C73.72 96.88 73.84 96.97 73.96 97.06C74.2 97.25 74.45 97.4 74.72 97.51C75.25 97.75 75.85 97.83 76.49 97.89L76.97 97.93L77.21 97.95L77.44 97.96C77.75 97.98 78.07 97.98 78.39 97.98C79.03 97.98 79.67 97.96 80.32 97.93C80.97 97.9 81.62 97.87 82.28 97.86C82.93 97.85 83.57 97.84 84.18 97.78C84.49 97.75 84.79 97.71 85.07 97.65C85.21 97.62 85.35 97.58 85.47 97.54C85.53 97.52 85.59 97.49 85.65 97.47C85.7 97.44 85.75 97.43 85.81 97.39C86.28 97.12 86.6 96.74 86.75 96.25C86.91 95.76 86.91 95.19 86.81 94.61C86.79 94.46 86.76 94.33 86.73 94.19L86.67 93.99C86.65 93.92 86.62 93.86 86.6 93.8C86.5 93.55 86.37 93.3 86.21 93.08C85.89 92.63 85.46 92.24 84.96 91.93C84.71 91.77 84.46 91.64 84.18 91.5C83.9 91.37 83.63 91.25 83.35 91.15C82.8 90.95 82.23 90.82 81.63 90.77C81.03 90.72 80.41 90.76 79.76 90.81C79.65 90.82 79.55 90.73 79.54 90.62C79.53 90.53 79.57 90.46 79.64 90.42Z"
    fill="#19212E"
  />
  <path
    d="M79.78 94.4001C79.94 94.7201 80.05 95.0801 80.11 95.4401C80.14 95.6201 80.16 95.8101 80.16 95.9901C80.17 96.1701 80.16 96.3601 80.14 96.5401C80.11 96.9101 80.03 97.2701 79.93 97.6201C79.83 97.9701 79.69 98.3001 79.37 98.5501C79.3 98.6001 79.21 98.5901 79.15 98.5201C79.13 98.5001 79.12 98.4701 79.12 98.4501C79.06 98.0501 79.16 97.7301 79.26 97.4201C79.36 97.1001 79.44 96.7801 79.5 96.4601C79.53 96.3001 79.55 96.1401 79.57 95.9701C79.58 95.8901 79.59 95.8101 79.59 95.7201C79.59 95.6401 79.6 95.5601 79.6 95.4701C79.6 95.1401 79.58 94.8101 79.53 94.4701C79.52 94.4001 79.57 94.3301 79.65 94.3201C79.7 94.3201 79.76 94.3501 79.78 94.4001Z"
    fill="#19212E"
  />
  <path
    d="M83.18 93.64C83.52 93.95 83.73 94.37 83.86 94.79C84 95.21 84.06 95.65 84.09 96.08C84.13 96.51 84.11 96.98 84.01 97.41C83.96 97.63 83.88 97.84 83.78 98.04C83.67 98.24 83.53 98.42 83.35 98.56C83.29 98.61 83.19 98.6 83.14 98.53C83.12 98.5 83.11 98.47 83.11 98.44C83.12 97.99 83.2 97.62 83.28 97.25C83.32 97.06 83.35 96.87 83.37 96.68C83.39 96.49 83.39 96.3 83.39 96.1C83.39 95.9 83.38 95.7 83.37 95.5C83.36 95.3 83.34 95.11 83.31 94.91C83.25 94.52 83.16 94.14 82.97 93.8C82.93 93.74 82.96 93.65 83.02 93.62C83.07 93.6 83.14 93.61 83.18 93.64Z"
    fill="#19212E"
  />
  <path
    d="M52.22 83.82C50.26 84.53 47.93 84.12 46.34 82.78C45.83 82.35 45.39 81.83 44.85 81.43C44.31 81.03 43.65 80.73 42.99 80.85C41.9 81.04 41.27 82.33 41.48 83.41C41.69 84.49 42.51 85.36 43.42 85.99C45.97 87.77 49.48 88.09 52.31 86.8"
    fill="white"
  />
  <path
    d="M52.29 84.01C50.23 85.01 47.52 84.63 45.7 83.03C45.26 82.65 44.89 82.27 44.51 81.98C44.14 81.7 43.73 81.51 43.38 81.49C43.2 81.47 43.05 81.5 42.9 81.57C42.76 81.63 42.62 81.74 42.5 81.88C42.26 82.16 42.11 82.57 42.11 82.96C42.11 83.06 42.11 83.15 42.13 83.25C42.14 83.35 42.17 83.45 42.2 83.55C42.26 83.75 42.36 83.95 42.47 84.14C42.7 84.53 43.03 84.88 43.41 85.2C43.6 85.36 43.8 85.51 44.01 85.65C44.22 85.8 44.44 85.92 44.66 86.05C45.11 86.29 45.57 86.51 46.06 86.66C48.01 87.32 50.2 87.33 52.22 86.61L52.39 86.97C51.41 87.51 50.3 87.85 49.17 87.96L48.95 88C48.88 88.01 48.81 88.01 48.74 88.01C48.6 88.02 48.45 88.03 48.31 88.03C48.02 88.02 47.74 88.03 47.45 88C46.88 87.96 46.31 87.86 45.75 87.71C45.19 87.56 44.65 87.35 44.12 87.11C43.86 86.97 43.6 86.85 43.35 86.69C43.1 86.54 42.85 86.37 42.62 86.19C42.15 85.82 41.71 85.39 41.36 84.85C41.18 84.58 41.04 84.28 40.93 83.97C40.88 83.81 40.84 83.65 40.81 83.48C40.78 83.3 40.77 83.13 40.77 82.95C40.78 82.25 41.01 81.57 41.47 81.01C41.7 80.73 42.01 80.49 42.36 80.34C42.72 80.19 43.12 80.13 43.48 80.16C43.85 80.19 44.19 80.3 44.49 80.44C44.79 80.58 45.07 80.76 45.31 80.96C45.79 81.35 46.16 81.78 46.52 82.13C47.22 82.82 48.1 83.32 49.08 83.58C50.06 83.84 51.11 83.87 52.14 83.63L52.29 84.01Z"
    fill="#19212E"
  />
  <path
    d="M76.99 66.73C81.12 67.15 88.36 66.41 92.48 65.99C94.39 65.8 96.36 65.49 97.93 64.4C99.51 63.31 100.55 61.23 99.88 59.44C99.43 58.24 98.31 57.39 97.1 56.99C95.89 56.59 94.58 56.59 93.31 56.67C90.32 56.86 84.28 58.19 81.46 59.2"
    fill="white"
  />
  <path
    d="M77.02 66.46C78.95 66.49 80.88 66.35 82.81 66.19C84.74 66.02 86.67 65.82 88.6 65.61L91.5 65.29C92.48 65.18 93.42 65.09 94.33 64.92C96.14 64.6 97.85 63.89 98.72 62.45C99.17 61.76 99.41 60.94 99.31 60.2C99.26 59.83 99.13 59.47 98.91 59.15C98.7 58.82 98.41 58.53 98.09 58.28C97.93 58.15 97.75 58.04 97.56 57.94C97.38 57.84 97.18 57.75 96.98 57.68C96.58 57.53 96.15 57.43 95.7 57.36C95.26 57.29 94.8 57.27 94.33 57.26C93.86 57.25 93.38 57.26 92.91 57.3C91.97 57.36 91.01 57.49 90.05 57.64C89.09 57.78 88.14 57.95 87.19 58.13C86.24 58.31 85.29 58.51 84.34 58.73C83.4 58.95 82.45 59.18 81.53 59.46L81.35 58.96C82.27 58.6 83.2 58.29 84.15 58.01C85.09 57.73 86.04 57.47 86.99 57.24C88.9 56.78 90.81 56.35 92.8 56.13C93.3 56.08 93.8 56.04 94.3 56.02C94.81 56 95.32 56.01 95.85 56.07C96.37 56.13 96.9 56.23 97.42 56.4C97.68 56.49 97.94 56.59 98.19 56.71C98.44 56.83 98.68 56.97 98.91 57.13C99.14 57.29 99.36 57.47 99.56 57.67C99.76 57.87 99.95 58.09 100.12 58.34C100.45 58.82 100.69 59.4 100.78 59.99C100.88 60.58 100.84 61.18 100.7 61.74C100.56 62.3 100.33 62.83 100.04 63.3C99.74 63.78 99.38 64.21 98.97 64.59C98.76 64.78 98.54 64.96 98.31 65.11C98.08 65.26 97.85 65.4 97.61 65.53C96.65 66.04 95.62 66.33 94.62 66.52C94.12 66.61 93.61 66.68 93.12 66.74C92.62 66.79 92.14 66.83 91.65 66.88C90.68 66.97 89.7 67.05 88.73 67.12C86.78 67.26 84.82 67.36 82.85 67.37C81.87 67.38 80.88 67.36 79.9 67.31C78.92 67.25 77.93 67.17 76.95 67L77.02 66.46Z"
    fill="#19212E"
  />
  <path
    d="M76.87 93.6C79.34 93.03 81.42 91.37 82.49 89.07C84.09 85.63 84.38 81.84 84.08 77.69C83.69 72.3 81.75 67.12 79.13 62.38C78.8 61.79 78.22 61.38 77.55 61.28C70.8 60.23 62.6 62.47 55.86 63.62C55.05 63.76 54.32 64.53 54.25 65.35C54.04 67.97 52.61 69.81 51.22 72.99C49.79 76.28 48.83 78.54 48.99 82.12C49.05 83.54 49.27 85.03 49.64 86.51C50.58 90.33 53.69 93.22 57.56 93.88C64.62 95.07 71.01 94.96 76.87 93.6Z"
    fill="white"
  />
  <path
    d="M76.74 93.02C77.82 92.77 78.85 92.28 79.73 91.6C80.61 90.92 81.33 90.05 81.83 89.06C81.96 88.82 82.07 88.55 82.18 88.28C82.29 88.01 82.39 87.74 82.49 87.47C82.58 87.2 82.68 86.93 82.75 86.65L82.87 86.23L82.97 85.81C83.04 85.53 83.09 85.24 83.15 84.96C83.2 84.67 83.25 84.39 83.29 84.1C83.33 83.81 83.37 83.52 83.39 83.23C83.42 82.94 83.44 82.65 83.46 82.36C83.53 81.2 83.52 80.02 83.45 78.85C83.39 77.67 83.26 76.52 83.07 75.36C82.88 74.21 82.63 73.06 82.31 71.94C81.99 70.81 81.62 69.7 81.2 68.6C80.78 67.5 80.32 66.42 79.81 65.36L79.42 64.57L79.02 63.78C78.89 63.52 78.74 63.26 78.6 63L78.49 62.81C78.47 62.78 78.45 62.74 78.44 62.72L78.4 62.66C78.35 62.58 78.29 62.5 78.22 62.43C78.08 62.29 77.92 62.18 77.74 62.1C77.65 62.06 77.56 62.04 77.46 62.02L77.42 62.01L77.37 62H77.28L77.07 61.97C76.79 61.93 76.5 61.9 76.21 61.87C75.92 61.85 75.63 61.82 75.34 61.81C74.18 61.74 73.01 61.75 71.84 61.82C69.5 61.95 67.15 62.3 64.81 62.71C62.47 63.12 60.13 63.6 57.77 64.04C57.18 64.15 56.59 64.25 55.99 64.36C55.67 64.41 55.3 64.69 55.12 65.02C55.07 65.1 55.04 65.19 55.02 65.27C55.01 65.3 55 65.34 55 65.37V65.4L54.99 65.46L54.98 65.58C54.95 65.9 54.89 66.23 54.83 66.55C54.69 67.19 54.49 67.8 54.25 68.38C53.77 69.54 53.18 70.59 52.66 71.65C52.4 72.18 52.15 72.71 51.91 73.24C51.67 73.79 51.43 74.33 51.2 74.88C50.74 75.97 50.34 77.06 50.07 78.16C49.94 78.71 49.84 79.27 49.78 79.84C49.71 80.4 49.7 80.98 49.7 81.55C49.71 82.7 49.83 83.86 50.04 85C50.09 85.29 50.15 85.57 50.21 85.86L50.31 86.29C50.34 86.43 50.38 86.56 50.42 86.7C50.58 87.24 50.78 87.76 51.02 88.26C51.27 88.76 51.56 89.23 51.9 89.68C52.24 90.12 52.61 90.54 53.02 90.92C53.84 91.68 54.8 92.28 55.83 92.7C56.35 92.91 56.88 93.07 57.43 93.18C57.7 93.23 58 93.28 58.29 93.33C58.58 93.38 58.87 93.43 59.17 93.47C60.34 93.64 61.52 93.79 62.69 93.89C65.05 94.1 67.41 94.16 69.77 94.03C70.95 93.96 72.12 93.85 73.29 93.68C74.43 93.49 75.59 93.28 76.74 93.02ZM77.01 94.17C75.83 94.44 74.63 94.66 73.43 94.84C72.23 95.02 71.02 95.13 69.81 95.21C67.39 95.37 64.96 95.34 62.55 95.15C61.34 95.05 60.14 94.92 58.94 94.76C58.64 94.72 58.34 94.67 58.04 94.63C57.74 94.58 57.45 94.54 57.13 94.48C56.5 94.36 55.89 94.17 55.3 93.93C54.11 93.46 53.01 92.76 52.07 91.9C51.6 91.47 51.17 90.99 50.79 90.48C50.41 89.97 50.07 89.42 49.78 88.85C49.5 88.28 49.26 87.68 49.09 87.07C49.05 86.92 49.01 86.76 48.97 86.61C48.93 86.46 48.9 86.31 48.86 86.16C48.79 85.86 48.73 85.56 48.67 85.26C48.44 84.05 48.3 82.82 48.28 81.58C48.26 80.33 48.39 79.07 48.68 77.85C48.97 76.63 49.4 75.47 49.87 74.35C50.1 73.79 50.34 73.24 50.58 72.69C50.82 72.13 51.08 71.58 51.35 71.03C51.88 69.94 52.45 68.89 52.88 67.84C53.09 67.31 53.27 66.79 53.38 66.25C53.44 65.98 53.48 65.71 53.51 65.44L53.52 65.34V65.29L53.53 65.21C53.54 65.1 53.56 64.99 53.59 64.89C53.65 64.68 53.72 64.48 53.82 64.31C54.02 63.95 54.28 63.65 54.6 63.4C54.92 63.16 55.3 62.97 55.73 62.89C56.32 62.79 56.9 62.68 57.48 62.57C62.16 61.68 66.87 60.6 71.74 60.31C72.96 60.24 74.18 60.23 75.41 60.3C75.72 60.31 76.02 60.35 76.33 60.37C76.64 60.41 76.94 60.43 77.25 60.48L77.48 60.51L77.6 60.53L77.66 60.54L77.73 60.55C77.93 60.59 78.12 60.64 78.31 60.72C78.68 60.87 79.02 61.1 79.3 61.39C79.44 61.53 79.57 61.69 79.67 61.86L79.75 61.99C79.78 62.04 79.79 62.06 79.81 62.1L79.92 62.3C80.06 62.57 80.21 62.83 80.35 63.1L80.77 63.91L81.17 64.73C81.69 65.83 82.17 66.95 82.61 68.08C83.48 70.35 84.13 72.73 84.5 75.15C84.68 76.36 84.78 77.59 84.82 78.8C84.86 80.02 84.85 81.24 84.75 82.46C84.65 83.68 84.46 84.9 84.16 86.1L84.04 86.55L83.93 87C83.85 87.3 83.74 87.59 83.64 87.88C83.53 88.17 83.42 88.46 83.3 88.75C83.17 89.03 83.06 89.32 82.9 89.6C82.32 90.74 81.47 91.75 80.46 92.54C79.44 93.33 78.26 93.89 77.01 94.17Z"
    fill="#19212E"
  />
  <path
    d="M58.16 93.55C57.85 93.72 57.62 94 57.32 94.2C57 94.42 56.64 94.62 56.25 94.66C55.86 94.7 55.43 94.93 55.22 94.6C55.01 94.26 55.13 92.95 55.39 92.64C55.94 91.99 57.93 91.91 58.65 91.78C59.42 91.65 62.97 90.92 58.16 93.55Z"
    fill="white"
  />
  <path
    d="M62.66 91.6399C64.81 90.9999 66.2 91.3699 67.59 92.0499C68.98 92.7399 70.06 93.8199 70.34 95.3499C70.62 96.8799 70.35 98.2199 68.98 98.9599C68.09 99.4399 66.28 99.4199 65.27 99.4199C63.75 99.4299 61.62 99.5699 60.11 99.4199C58.37 99.2499 57.43 99.1599 56.19 97.9199C55.41 97.1399 54.9 95.0799 54.91 93.9799"
    fill="white"
  />
  <path
    d="M62.6 91.45C62.91 91.34 63.23 91.23 63.56 91.16C63.89 91.08 64.22 91.03 64.56 91C65.24 90.94 65.95 91.02 66.61 91.22C66.94 91.32 67.26 91.44 67.57 91.57C67.88 91.7 68.19 91.86 68.49 92.04C69.09 92.4 69.65 92.86 70.08 93.45C70.3 93.74 70.48 94.06 70.63 94.4C70.66 94.49 70.7 94.57 70.73 94.66L70.82 94.92C70.87 95.1 70.91 95.28 70.94 95.45C71 95.8 71.04 96.16 71.03 96.53C71.02 96.9 70.97 97.28 70.85 97.66C70.73 98.03 70.53 98.4 70.26 98.71C70 99.02 69.68 99.27 69.34 99.45C69.26 99.5 69.16 99.54 69.06 99.59C68.97 99.63 68.87 99.66 68.78 99.69C68.6 99.75 68.42 99.79 68.24 99.82C67.89 99.89 67.54 99.92 67.2 99.95C66.52 100 65.85 99.99 65.21 99.98C64.57 99.97 63.92 99.99 63.27 99.99C62.62 100 61.96 100 61.3 99.97C60.97 99.96 60.64 99.94 60.3 99.9L60.05 99.87L59.81 99.84L59.32 99.78C58.99 99.73 58.66 99.68 58.32 99.6C57.98 99.52 57.64 99.4 57.32 99.24C57 99.08 56.7 98.87 56.44 98.65C56.31 98.54 56.18 98.42 56.06 98.3C56 98.24 55.94 98.18 55.88 98.1L55.8 98C55.77 97.96 55.75 97.92 55.72 97.89C55.51 97.59 55.37 97.27 55.25 96.95C55.13 96.63 55.03 96.31 54.96 95.98C54.81 95.33 54.71 94.67 54.73 93.98C54.73 93.87 54.83 93.78 54.94 93.79C55.04 93.79 55.13 93.88 55.13 93.98V93.99C55.16 94.61 55.31 95.24 55.49 95.84C55.58 96.14 55.69 96.44 55.82 96.72C55.95 97 56.1 97.27 56.27 97.49C56.29 97.52 56.31 97.55 56.34 97.57L56.41 97.64C56.45 97.69 56.52 97.74 56.57 97.79C56.68 97.89 56.8 97.99 56.92 98.08C57.16 98.26 57.41 98.42 57.68 98.53C58.21 98.77 58.81 98.85 59.44 98.9L59.92 98.94L60.16 98.96L60.39 98.97C60.7 99 61.02 99 61.33 99C61.97 99 62.61 98.98 63.26 98.95C63.91 98.92 64.56 98.89 65.22 98.87C65.87 98.86 66.51 98.85 67.12 98.8C67.43 98.77 67.73 98.73 68.01 98.67C68.15 98.64 68.29 98.6 68.41 98.56C68.47 98.54 68.53 98.51 68.58 98.49C68.63 98.46 68.68 98.45 68.74 98.41C69.21 98.15 69.52 97.76 69.69 97.28C69.77 97.04 69.82 96.77 69.83 96.5C69.84 96.22 69.83 95.93 69.79 95.64C69.77 95.49 69.74 95.35 69.72 95.22L69.67 95C69.65 94.93 69.63 94.87 69.61 94.8C69.52 94.54 69.39 94.28 69.24 94.04C68.93 93.56 68.5 93.15 68 92.8C67.75 92.63 67.49 92.48 67.21 92.33C66.93 92.19 66.65 92.06 66.37 91.95C66.08 91.84 65.79 91.76 65.49 91.71C65.19 91.65 64.89 91.61 64.58 91.61C63.96 91.6 63.34 91.68 62.71 91.82C62.6 91.84 62.49 91.77 62.47 91.67C62.45 91.58 62.51 91.48 62.6 91.45Z"
    fill="#19212E"
  />
  <path
    d="M62.74 95.43C62.9 95.75 63.01 96.11 63.07 96.47C63.1 96.65 63.12 96.84 63.12 97.02C63.13 97.2 63.12 97.39 63.1 97.57C63.07 97.94 62.99 98.3 62.89 98.65C62.79 99 62.65 99.33 62.33 99.58C62.26 99.63 62.17 99.62 62.11 99.55C62.09 99.53 62.08 99.5 62.08 99.48C62.02 99.08 62.12 98.76 62.22 98.45C62.32 98.13 62.4 97.81 62.46 97.49C62.49 97.33 62.51 97.17 62.53 97C62.54 96.92 62.55 96.84 62.55 96.75C62.55 96.67 62.56 96.59 62.56 96.5C62.56 96.17 62.54 95.84 62.49 95.5C62.48 95.43 62.53 95.36 62.61 95.35C62.66 95.35 62.72 95.38 62.74 95.43Z"
    fill="#19212E"
  />
  <path
    d="M66.14 94.6699C66.48 94.9799 66.69 95.3999 66.82 95.8199C66.96 96.2399 67.02 96.6799 67.05 97.1099C67.09 97.5399 67.07 98.0099 66.97 98.4399C66.92 98.6599 66.84 98.8699 66.74 99.0699C66.63 99.2699 66.49 99.4499 66.31 99.5899C66.25 99.6399 66.15 99.6299 66.1 99.5599C66.08 99.5299 66.07 99.4999 66.07 99.4699C66.08 99.0199 66.16 98.6499 66.24 98.2799C66.28 98.0899 66.31 97.8999 66.33 97.7099C66.35 97.5199 66.35 97.3299 66.35 97.1299C66.35 96.9299 66.34 96.7299 66.33 96.5299C66.32 96.3299 66.3 96.1399 66.27 95.9399C66.21 95.5499 66.12 95.1699 65.93 94.8299C65.89 94.7699 65.92 94.6799 65.98 94.6499C66.03 94.6299 66.1 94.6399 66.14 94.6699Z"
    fill="#19212E"
  />
  <path
    d="M104.03 87.5C104.09 87.38 104.16 87.28 104.24 87.2C104.32 87.12 104.4 87.04 104.5 86.98C104.59 86.92 104.69 86.86 104.8 86.83C104.91 86.8 105.03 86.78 105.18 86.82C105.82 86.97 106.21 87.61 106.06 88.25C106.06 88.26 106.05 88.27 106.05 88.28C106.01 88.43 105.94 88.53 105.86 88.61C105.78 88.69 105.69 88.75 105.59 88.8C105.49 88.85 105.39 88.89 105.27 88.92C105.16 88.95 105.04 88.97 104.91 88.96C104.34 88.93 103.91 88.44 103.94 87.87C103.94 87.74 103.97 87.62 104.03 87.5Z"
    fill="#19212E"
  />
  <path
    d="M81.64 61.1301C82.7 62.6301 83.16 64.8101 82.66 66.7201C82.35 67.9101 81.7 68.9501 80.86 69.5701C79.47 70.6001 77.58 70.3501 76.17 69.2201C74.87 68.1801 74.16 66.1501 74.26 64.2201C74.34 62.6801 74.97 61.0401 75.95 60.1501C77.59 58.6401 79.94 59.0401 81.41 60.8301C81.49 60.9201 81.56 61.0201 81.64 61.1301Z"
    fill="#FFAB00"
  />
  <path
    d="M82.02 60.86C82.42 61.43 82.73 62.06 82.95 62.71C83.17 63.36 83.3 64.04 83.33 64.73C83.37 65.42 83.31 66.11 83.13 66.79C82.96 67.46 82.68 68.11 82.29 68.7C81.9 69.28 81.4 69.81 80.75 70.18C80.43 70.37 80.08 70.49 79.73 70.57C79.37 70.65 79.01 70.6801 78.65 70.6601C78.29 70.6401 77.93 70.58 77.6 70.47C77.26 70.3601 76.93 70.2301 76.63 70.0501C76.32 69.8701 76.04 69.6801 75.77 69.4401C75.5 69.2001 75.26 68.9401 75.06 68.6501C74.95 68.51 74.87 68.36 74.77 68.21C74.69 68.06 74.6 67.91 74.53 67.75C74.38 67.44 74.26 67.12 74.15 66.79C73.95 66.13 73.83 65.45 73.81 64.77C73.79 64.08 73.86 63.39 74.03 62.73C74.2 62.07 74.46 61.42 74.82 60.82C75 60.52 75.22 60.23 75.47 59.97C75.72 59.71 76.01 59.49 76.32 59.3C76.95 58.93 77.7 58.74 78.43 58.77C79.16 58.81 79.87 59.04 80.48 59.42C81.1 59.78 81.61 60.29 82.02 60.86ZM81.26 61.39C80.91 60.91 80.49 60.5 80 60.19C79.51 59.88 78.95 59.71 78.4 59.68C77.84 59.66 77.29 59.8001 76.81 60.0801C76.57 60.2301 76.34 60.4 76.15 60.6C75.95 60.8 75.78 61.04 75.62 61.29C75.31 61.79 75.08 62.36 74.93 62.94C74.78 63.53 74.7 64.13 74.71 64.73C74.73 65.93 75.05 67.17 75.74 68.14C75.91 68.38 76.11 68.6 76.33 68.78C76.43 68.88 76.56 68.9601 76.67 69.0501C76.79 69.1301 76.91 69.22 77.05 69.28C77.3 69.43 77.58 69.5401 77.85 69.6201C78.13 69.7101 78.41 69.75 78.7 69.77C78.98 69.78 79.27 69.76 79.54 69.7C79.81 69.63 80.08 69.54 80.31 69.39C80.79 69.11 81.2 68.6801 81.52 68.1901C82.8 66.1801 82.6 63.36 81.26 61.39Z"
    fill="#19212E"
  />
  <path
    d="M79.96 63.15C79.62 62.91 79.25 62.76 78.87 62.75C78.49 62.73 78.09 62.84 77.74 63.06C77.56 63.16 77.38 63.29 77.23 63.43C77.07 63.56 76.94 63.73 76.81 63.9C76.56 64.25 76.36 64.65 76.2 65.07C75.9 65.91 75.77 66.83 75.94 67.69C76.03 68.12 76.19 68.53 76.45 68.88C76.48 68.92 76.51 68.97 76.55 69C76.59 69.04 76.62 69.08 76.66 69.12C76.74 69.19 76.81 69.27 76.9 69.33C77.07 69.46 77.25 69.57 77.45 69.65C78.25 69.98 79.2 69.9 80 69.53C80.2 69.44 80.39 69.33 80.57 69.2C80.75 69.08 80.91 68.93 81.06 68.78C81.21 68.63 81.34 68.45 81.46 68.27C81.51 68.18 81.57 68.09 81.61 67.99C81.63 67.94 81.66 67.89 81.67 67.85C81.69 67.8 81.7 67.76 81.72 67.71C81.78 67.52 81.81 67.3 81.83 67.09C81.85 66.87 81.84 66.65 81.83 66.44C81.79 66 81.7 65.57 81.55 65.17C81.51 65.07 81.47 64.97 81.42 64.87L81.35 64.72L81.27 64.58C81.22 64.49 81.16 64.4 81.1 64.31C81.04 64.22 80.97 64.13 80.91 64.05C80.64 63.69 80.32 63.4 79.96 63.15ZM80.43 62.49C80.84 62.78 81.22 63.14 81.53 63.54C81.61 63.64 81.68 63.74 81.75 63.85C81.82 63.96 81.89 64.07 81.95 64.18L82.04 64.35L82.12 64.53C82.18 64.65 82.22 64.77 82.26 64.89C82.43 65.37 82.51 65.88 82.53 66.38C82.54 66.63 82.53 66.89 82.5 67.14C82.47 67.39 82.42 67.65 82.33 67.9C82.31 67.96 82.28 68.03 82.25 68.09C82.22 68.15 82.19 68.21 82.16 68.27C82.1 68.39 82.03 68.49 81.96 68.61C81.81 68.82 81.65 69.02 81.46 69.2C81.09 69.56 80.66 69.83 80.19 70.03C79.96 70.13 79.72 70.2 79.47 70.26C79.22 70.31 78.97 70.35 78.72 70.36C78.22 70.38 77.7 70.31 77.22 70.11C76.98 70.01 76.75 69.89 76.55 69.73C76.44 69.66 76.35 69.56 76.26 69.48C76.21 69.43 76.17 69.38 76.13 69.34C76.09 69.29 76.04 69.24 76.01 69.19C75.7 68.78 75.49 68.3 75.38 67.81C75.16 66.82 75.26 65.8 75.55 64.86C75.7 64.39 75.91 63.92 76.19 63.5C76.34 63.29 76.49 63.08 76.69 62.9C76.88 62.71 77.08 62.56 77.31 62.42C77.76 62.14 78.3 61.96 78.86 61.98C79.14 61.99 79.42 62.04 79.68 62.14C79.97 62.2 80.21 62.33 80.43 62.49Z"
    fill="#19212E"
  />
  <path
    d="M79.83 67.3401C79.7 67.1901 79.55 67.0501 79.39 66.9701C79.23 66.8901 79.07 66.8401 78.9 66.8401C78.73 66.8301 78.56 66.8601 78.39 66.9401C78.22 67.0201 78.06 67.1301 77.94 67.2701C77.81 67.4101 77.71 67.5801 77.63 67.7701C77.59 67.8601 77.56 67.9601 77.54 68.0601C77.52 68.1701 77.5 68.2801 77.49 68.3801C77.44 68.8101 77.45 69.2701 77.66 69.6201C77.77 69.7901 77.92 69.9201 78.11 69.9801C78.21 70.0101 78.31 70.0301 78.41 70.0301C78.51 70.0301 78.63 70.0301 78.75 70.0301C78.98 70.0201 79.2 69.9801 79.41 69.9101C79.62 69.8401 79.81 69.7401 79.96 69.5901C80.11 69.4501 80.22 69.2601 80.28 69.0701C80.34 68.8801 80.35 68.6701 80.33 68.4701C80.28 68.0601 80.09 67.6601 79.83 67.3401ZM80.34 66.9701C80.63 67.4101 80.81 67.9101 80.81 68.4401C80.82 68.9701 80.59 69.5101 80.18 69.8401C79.98 70.0001 79.74 70.1201 79.5 70.1901C79.26 70.2701 79.02 70.3001 78.77 70.3201C78.65 70.3301 78.53 70.3401 78.4 70.3301C78.27 70.3301 78.14 70.3101 78.01 70.2701C77.88 70.2301 77.76 70.1801 77.64 70.1001C77.53 70.0201 77.43 69.9201 77.35 69.8101C77.19 69.5901 77.1 69.3401 77.05 69.0901C77 68.8401 76.98 68.5901 76.98 68.3401C76.98 68.2101 76.99 68.0901 77 67.9701C77.01 67.8401 77.04 67.7101 77.07 67.5801C77.14 67.3201 77.25 67.0701 77.42 66.8501C77.59 66.6301 77.81 66.4401 78.06 66.3101C78.31 66.1701 78.61 66.0901 78.91 66.1001C79.21 66.1001 79.51 66.2201 79.75 66.3701C80 66.5401 80.19 66.7501 80.34 66.9701Z"
    fill="#19212E"
  />
  <path
    d="M52.42 60.2201C52.42 60.2201 52.31 59.5501 52.78 59.5001C53.26 59.4501 66.26 57.2601 70.94 56.4401C75.64 55.6201 79.52 55.2101 79.52 55.2101C79.52 55.2101 79.68 55.1401 79.92 56.0201C80.16 56.9001 80.67 58.9701 80.01 59.2601C79.35 59.5501 66.25 62.1101 52.9 63.1301C52.91 63.1301 52.55 60.9901 52.42 60.2201Z"
    fill="#DC3309"
  />
  <path
    d="M52.21 60.26C52.18 60.08 52.18 59.92 52.23 59.72C52.26 59.63 52.31 59.52 52.39 59.44C52.47 59.35 52.59 59.3 52.7 59.28L53.14 59.21L53.57 59.13L55.29 58.81C56.44 58.6 57.58 58.38 58.73 58.16C61.02 57.72 63.31 57.28 65.61 56.86C66.76 56.65 67.9 56.44 69.05 56.24L70.77 55.94C71.35 55.84 71.93 55.75 72.5 55.66C74.82 55.32 77.14 55.06 79.49 55L79.43 55.02C79.51 54.99 79.52 55 79.55 55C79.57 55 79.59 55.01 79.61 55.02C79.62 55.03 79.64 55.03 79.65 55.04C79.66 55.05 79.67 55.05 79.68 55.06C79.72 55.09 79.74 55.11 79.76 55.14C79.8 55.19 79.83 55.23 79.86 55.27C79.91 55.35 79.95 55.44 79.99 55.52C80.06 55.68 80.12 55.85 80.17 56.01C80.27 56.33 80.36 56.65 80.44 56.98C80.52 57.31 80.59 57.64 80.63 57.99C80.65 58.16 80.66 58.34 80.66 58.53C80.65 58.72 80.64 58.91 80.56 59.14C80.52 59.25 80.45 59.38 80.33 59.48C80.27 59.53 80.19 59.58 80.13 59.61C80.08 59.63 80.01 59.66 79.97 59.67C79.8 59.73 79.64 59.77 79.47 59.81C79.14 59.9 78.82 59.97 78.5 60.05C77.85 60.2 77.21 60.35 76.56 60.49C75.91 60.63 75.26 60.76 74.61 60.89C73.96 61.02 73.31 61.13 72.66 61.25C71.36 61.49 70.05 61.7 68.74 61.9C66.12 62.3 63.49 62.63 60.85 62.89C58.21 63.14 55.56 63.31 52.91 63.34L52.72 63.35L52.69 63.17C52.61 62.68 52.53 62.2 52.45 61.72L52.21 60.26ZM52.63 60.19L52.86 61.65C52.94 62.13 53.02 62.62 53.11 63.1L52.89 62.93C54.2 62.74 55.51 62.56 56.82 62.38L60.74 61.84C63.35 61.49 65.97 61.11 68.58 60.74L72.49 60.16L74.44 59.86C75.09 59.76 75.74 59.66 76.39 59.55C77.04 59.44 77.69 59.34 78.34 59.23C78.66 59.17 78.99 59.11 79.31 59.05C79.47 59.02 79.63 58.99 79.78 58.95L79.86 58.93C79.88 58.93 79.86 58.93 79.87 58.93C79.87 58.93 79.9 58.91 79.91 58.87C79.95 58.79 79.98 58.65 79.99 58.51C80 58.37 80 58.21 79.99 58.06C79.97 57.75 79.93 57.43 79.88 57.11C79.83 56.79 79.76 56.47 79.69 56.15C79.66 55.99 79.62 55.84 79.58 55.69C79.56 55.62 79.53 55.55 79.51 55.49C79.5 55.46 79.48 55.43 79.47 55.42C79.47 55.41 79.46 55.41 79.47 55.41C79.47 55.41 79.47 55.41 79.48 55.41C79.48 55.41 79.49 55.42 79.5 55.42C79.51 55.42 79.52 55.43 79.53 55.43C79.55 55.43 79.55 55.44 79.62 55.42L79.56 55.44C77.27 55.89 74.98 56.28 72.69 56.69C70.41 57.1 68.09 57.49 65.79 57.85C63.48 58.21 61.18 58.55 58.87 58.88L55.41 59.39L53.68 59.64L53.25 59.7L53 59.71L52.79 59.74C52.75 59.75 52.73 59.75 52.71 59.77C52.69 59.79 52.67 59.82 52.65 59.86C52.62 59.94 52.61 60.08 52.63 60.19Z"
    fill="#19212E"
  />
  <path
    d="M96.89 65.9599C97.2 65.5299 97.22 64.7699 96.93 64.1099C96.64 63.4499 96.06 62.9199 95.52 62.8299C95.71 62.3999 95.67 61.7599 95.41 61.2099C95.16 60.6599 94.7 60.2099 94.24 60.0599C94.42 59.5399 94.33 58.8099 94.01 58.1999C93.69 57.5899 93.14 57.1299 92.62 57.0299C92.79 56.4899 92.71 55.7799 92.42 55.1599C92.13 54.5299 91.64 54.0099 91.12 53.7699C91.33 52.7399 90.62 51.2599 89.69 50.7699C89.94 50.4599 89.96 49.8599 89.72 49.3599C89.48 48.8599 89.01 48.4799 88.61 48.4699C88.76 48.1199 88.69 47.5899 88.44 47.1699C88.2 46.7499 87.79 46.4599 87.43 46.4599C87.7 46.0599 87.68 45.3499 87.38 44.7699C87.08 44.1899 86.52 43.7799 86.05 43.7899L85.54 42.7399C84.92 41.4399 89.54 37.9299 95.86 34.8899C102.18 31.8499 107.81 30.4399 108.44 31.7299L108.91 32.7099C108.61 33.0699 108.58 33.7599 108.84 34.3599C109.11 34.9599 109.65 35.4199 110.13 35.4599C109.91 35.7399 109.88 36.2399 110.05 36.6899C110.22 37.1399 110.6 37.5299 110.96 37.6299C110.72 37.9599 110.72 38.5599 110.96 39.0599C111.21 39.5599 111.68 39.9199 112.08 39.9199C111.88 40.9499 112.6 42.4299 113.53 42.9099C113.39 43.4599 113.49 44.1799 113.8 44.7999C114.11 45.4199 114.62 45.9199 115.14 46.1199C114.9 46.5899 114.92 47.2999 115.19 47.9299C115.46 48.5599 115.98 49.0899 116.5 49.2699C116.33 49.7199 116.4 50.3599 116.67 50.8999C116.94 51.4399 117.41 51.8699 117.87 51.9899C117.6 52.4699 117.65 53.2499 117.99 53.8899C118.33 54.5299 118.93 54.9899 119.46 55.0199L120.25 56.6699L97.65 67.5399L96.89 65.9599Z"
    fill="#D9DEE7"
  />
  <path
    d="M96.35 65.92C96.37 65.86 96.39 65.79 96.42 65.73C96.43 65.7 96.45 65.67 96.47 65.64L96.49 65.61V65.6C96.5 65.58 96.52 65.57 96.53 65.54C96.56 65.5 96.58 65.45 96.6 65.4C96.64 65.29 96.67 65.17 96.68 65.04C96.71 64.78 96.67 64.5 96.59 64.23C96.5 63.96 96.36 63.7 96.17 63.48C95.98 63.26 95.75 63.07 95.48 62.99L95.45 62.98C95.37 62.96 95.32 62.87 95.35 62.79C95.35 62.78 95.36 62.77 95.36 62.76C95.44 62.53 95.45 62.27 95.41 62.02C95.37 61.77 95.29 61.52 95.17 61.3C95.05 61.08 94.9 60.88 94.71 60.71C94.53 60.55 94.32 60.42 94.12 60.36C93.96 60.32 93.86 60.16 93.9 59.99L93.91 59.93C93.98 59.7 93.99 59.42 93.94 59.15C93.89 58.88 93.8 58.61 93.67 58.38C93.54 58.14 93.36 57.93 93.16 57.75C92.96 57.58 92.73 57.45 92.52 57.42C92.3 57.3799 92.15 57.17 92.19 56.95V56.93L92.2 56.89C92.27 56.66 92.27 56.38 92.23 56.11C92.19 55.84 92.11 55.57 91.99 55.32C91.87 55.07 91.71 54.84 91.52 54.64C91.33 54.44 91.12 54.28 90.9 54.18L90.86 54.16C90.66 54.07 90.57 53.85 90.63 53.65C90.7 53.45 90.72 53.2 90.7 52.95C90.68 52.7 90.62 52.44 90.53 52.18C90.44 51.93 90.32 51.68 90.16 51.46C90.01 51.24 89.82 51.04 89.6 50.89C89.52 50.86 89.49 50.77 89.52 50.69C89.52 50.68 89.53 50.68 89.53 50.67L89.55 50.64C89.65 50.48 89.67 50.26 89.65 50.04C89.62 49.83 89.55 49.62 89.44 49.44C89.33 49.26 89.19 49.11 89.03 48.99C88.87 48.88 88.68 48.82 88.58 48.84L88.47 48.81C88.26 48.76 88.13 48.55 88.18 48.35C88.19 48.32 88.2 48.29 88.21 48.27C88.26 48.17 88.28 48 88.26 47.83C88.24 47.66 88.19 47.49 88.12 47.33C88.04 47.18 87.93 47.03 87.81 46.93C87.68 46.82 87.53 46.75 87.42 46.74H87.4C87.22 46.73 87.08 46.57 87.1 46.38C87.1 46.32 87.12 46.27 87.15 46.23C87.25 46.08 87.29 45.83 87.27 45.59C87.25 45.35 87.18 45.1 87.07 44.89C86.96 44.67 86.8 44.48 86.61 44.33C86.43 44.18 86.21 44.09 86.05 44.1H86.04C85.9 44.1 85.77 44.01 85.71 43.89L85.3 43.08L85.2 42.88C85.19 42.86 85.15 42.78 85.13 42.72C85.11 42.66 85.1 42.6 85.09 42.54C85.06 42.29 85.11 42.08 85.18 41.91C85.31 41.55 85.51 41.28 85.71 41.02C85.91 40.76 86.13 40.53 86.35 40.31C87.24 39.42 88.22 38.68 89.23 37.97C91.25 36.58 93.38 35.38 95.56 34.28C96.65 33.73 97.76 33.23 98.89 32.75C100.02 32.28 101.16 31.83 102.33 31.45C103.5 31.07 104.69 30.73 105.96 30.54C106.28 30.49 106.6 30.46 106.95 30.45C107.29 30.44 107.65 30.45 108.06 30.55C108.27 30.6 108.5 30.69 108.74 30.88C108.86 30.98 108.97 31.11 109.06 31.26L109.09 31.32L109.1 31.35L109.11 31.36L109.13 31.41L109.17 31.52C109.27 31.81 109.36 32.1 109.4 32.41L109.47 32.6C109.52 32.75 109.46 32.91 109.33 32.99C109.24 33.04 109.14 33.24 109.12 33.46C109.09 33.68 109.11 33.93 109.19 34.17C109.26 34.4 109.39 34.63 109.56 34.83C109.73 35.02 109.94 35.18 110.17 35.24C110.26 35.24 110.32 35.31 110.32 35.4C110.32 35.43 110.31 35.45 110.3 35.47L110.28 35.5C110.19 35.65 110.17 35.84 110.19 36.02C110.21 36.21 110.27 36.39 110.36 36.55C110.45 36.71 110.57 36.86 110.7 36.97C110.83 37.08 110.99 37.16 111.1 37.17L111.26 37.26C111.42 37.35 111.48 37.56 111.39 37.72C111.37 37.75 111.34 37.79 111.32 37.81C111.24 37.88 111.17 38.06 111.16 38.25C111.15 38.45 111.18 38.66 111.25 38.85C111.32 39.04 111.44 39.23 111.59 39.39C111.74 39.54 111.93 39.66 112.12 39.68C112.21 39.68 112.28 39.75 112.28 39.84C112.28 39.85 112.28 39.85 112.28 39.86V39.87C112.25 40.13 112.28 40.41 112.35 40.67C112.42 40.93 112.52 41.19 112.66 41.43C112.79 41.67 112.95 41.89 113.14 42.08C113.32 42.27 113.53 42.42 113.74 42.52L113.78 42.54C113.91 42.62 113.97 42.78 113.93 42.92C113.86 43.17 113.84 43.46 113.88 43.74C113.91 44.03 113.99 44.31 114.11 44.58C114.23 44.85 114.39 45.1 114.59 45.31C114.79 45.53 115.02 45.71 115.28 45.83C115.39 45.87 115.45 46 115.41 46.11V46.12L115.4 46.14C115.3 46.38 115.27 46.66 115.3 46.94C115.33 47.22 115.42 47.5 115.54 47.75C115.67 48 115.84 48.2299 116.03 48.42C116.23 48.61 116.46 48.76 116.68 48.82L116.71 48.84C116.9 48.92 116.99 49.14 116.92 49.34C116.85 49.52 116.83 49.75 116.86 49.98C116.88 50.21 116.95 50.45 117.05 50.66C117.15 50.87 117.29 51.07 117.46 51.24C117.62 51.41 117.82 51.54 118.01 51.6L118.03 51.61C118.21 51.67 118.31 51.86 118.25 52.05C118.24 52.07 118.23 52.09 118.22 52.11C118.11 52.31 118.07 52.59 118.1 52.86C118.12 53.14 118.2 53.42 118.33 53.66C118.46 53.91 118.63 54.14 118.85 54.31C119.06 54.49 119.31 54.61 119.52 54.62L119.64 54.65C119.72 54.67 119.79 54.74 119.82 54.81L120.45 56.53C120.49 56.61 120.45 56.71 120.37 56.75L97.72 67.69C97.67 67.73 97.59 67.72 97.55 67.67L97.51 67.62C97.13 67.12 96.72 66.55 96.35 65.92ZM97.42 66.01C97.56 66.43 97.66 66.91 97.79 67.47L97.57 67.39L120.2 56.51L120.12 56.73L119.17 55.16L119.46 55.35C119.02 55.32 118.67 55.12 118.38 54.88C118.09 54.64 117.86 54.34 117.69 54.02C117.52 53.69 117.42 53.33 117.39 52.96C117.36 52.59 117.39 52.2 117.59 51.82L117.8 52.32C117.45 52.23 117.17 52.04 116.93 51.82C116.69 51.6 116.5 51.34 116.35 51.06C116.2 50.77 116.1 50.47 116.06 50.15C116.02 49.83 116.02 49.49 116.14 49.14L116.38 49.65C116 49.5 115.71 49.26 115.48 48.99C115.24 48.72 115.06 48.41 114.93 48.09C114.8 47.76 114.73 47.42 114.72 47.06C114.71 46.71 114.77 46.35 114.95 46.02L115.07 46.33C114.73 46.2 114.43 46 114.18 45.75C113.93 45.51 113.72 45.22 113.55 44.91C113.38 44.6 113.26 44.26 113.2 43.91C113.13 43.56 113.12 43.19 113.2 42.81L113.38 43.21C113.07 43.03 112.83 42.79 112.64 42.54C112.44 42.28 112.29 42.01 112.16 41.72C112.04 41.43 111.95 41.13 111.91 40.82C111.87 40.51 111.86 40.19 111.94 39.88L112.1 40.07C111.79 40.09 111.51 39.96 111.28 39.8C111.05 39.63 110.86 39.42 110.71 39.17C110.57 38.92 110.47 38.64 110.44 38.34C110.42 38.19 110.42 38.03 110.45 37.87C110.48 37.71 110.53 37.54 110.64 37.37L110.86 38.02C110.55 37.9 110.35 37.71 110.18 37.5C110.01 37.29 109.89 37.06 109.81 36.82C109.73 36.57 109.7 36.32 109.73 36.07C109.75 35.82 109.83 35.56 110.02 35.35L110.13 35.61C109.78 35.61 109.46 35.45 109.2 35.26C108.94 35.06 108.71 34.81 108.54 34.51C108.37 34.21 108.26 33.88 108.23 33.52C108.21 33.34 108.22 33.15 108.25 32.96C108.29 32.76 108.36 32.56 108.51 32.36L108.44 32.93C108.22 32.7 108.05 32.45 107.89 32.19L107.83 32.09L107.8 32.04L107.79 32.03V32.04C107.8 32.06 107.81 32.08 107.81 32.08C107.81 32.09 107.76 32.05 107.67 32.03C107.5 31.98 107.24 31.96 106.98 31.97C106.72 31.97 106.44 32 106.16 32.03C105.04 32.18 103.89 32.48 102.76 32.83C100.49 33.53 98.27 34.44 96.1 35.44C93.93 36.45 91.81 37.57 89.8 38.86C88.8 39.51 87.82 40.19 86.96 40.97C86.75 41.17 86.54 41.37 86.36 41.58C86.18 41.79 86.02 42.01 85.93 42.22C85.89 42.32 85.87 42.41 85.87 42.47C85.87 42.48 85.87 42.5 85.87 42.51C85.87 42.52 85.87 42.52 85.87 42.53C85.87 42.53 85.87 42.53 85.87 42.54L85.88 42.57L85.97 42.78L86.34 43.61L86 43.4C86.21 43.4 86.41 43.45 86.58 43.52C86.75 43.59 86.9 43.69 87.03 43.8C87.3 44.02 87.51 44.29 87.66 44.6C87.81 44.9 87.9 45.23 87.92 45.57C87.93 45.91 87.89 46.27 87.67 46.61L87.4 46.1C87.73 46.1 88 46.24 88.21 46.39C88.43 46.55 88.6 46.76 88.74 46.99C88.88 47.22 88.97 47.47 89.01 47.74C89.05 48.01 89.06 48.29 88.94 48.6L88.57 48.03C88.77 48.05 88.94 48.11 89.08 48.19C89.22 48.27 89.35 48.37 89.45 48.47C89.66 48.68 89.82 48.93 89.93 49.2C90.03 49.47 90.08 49.75 90.07 50.04C90.05 50.32 89.98 50.61 89.77 50.85L89.72 50.61C90.02 50.74 90.27 50.93 90.5 51.16C90.72 51.38 90.92 51.64 91.08 51.91C91.24 52.19 91.37 52.48 91.46 52.8C91.55 53.12 91.59 53.47 91.55 53.84L91.28 53.31C91.65 53.49 91.94 53.74 92.19 54.01C92.44 54.29 92.64 54.6 92.79 54.94C92.94 55.28 93.04 55.63 93.08 56C93.12 56.37 93.11 56.75 92.99 57.13L92.67 56.6C93.08 56.7 93.41 56.92 93.67 57.16C93.94 57.41 94.15 57.71 94.31 58.03C94.47 58.35 94.57 58.7 94.61 59.05C94.65 59.41 94.64 59.78 94.5 60.15L94.29 59.73C94.62 59.86 94.87 60.07 95.08 60.3C95.29 60.53 95.45 60.8 95.57 61.08C95.69 61.36 95.75 61.66 95.77 61.97C95.78 62.27 95.74 62.59 95.61 62.87L95.49 62.65C95.87 62.69 96.2 62.87 96.48 63.09C96.76 63.32 97 63.6 97.18 63.92C97.36 64.25 97.48 64.61 97.52 65C97.54 65.19 97.54 65.4 97.51 65.61C97.49 65.72 97.47 65.82 97.43 65.93C97.41 65.98 97.39 66.04 97.36 66.09L97.35 66.11C97.34 66.12 97.35 66.11 97.35 66.11C97.36 66.1 97.36 66.09 97.37 66.07C97.43 66.07 97.43 66.04 97.42 66.01Z"
    fill="#19212E"
  />
  <path
    d="M110.252 64.3726C116.489 61.3741 121.041 57.8942 120.418 56.6C119.796 55.3058 114.236 56.6874 107.998 59.6859C101.761 62.6844 97.2096 66.1643 97.8318 67.4585C98.454 68.7527 104.015 67.3711 110.252 64.3726Z"
    fill="#8C95A6"
  />
  <path
    d="M119.68 56.95C119.7 57.01 119.75 57.03 119.73 57.02C119.73 57.02 119.71 57.01 119.7 57.01C119.69 57.01 119.69 57 119.67 57C119.63 56.99 119.61 56.98 119.56 56.97C119.39 56.93 119.16 56.92 118.93 56.92C118.46 56.93 117.94 57 117.43 57.1C116.4 57.3 115.36 57.58 114.34 57.91C112.28 58.56 110.26 59.38 108.28 60.28C106.31 61.2 104.37 62.2 102.53 63.36C101.62 63.94 100.72 64.56 99.91 65.24C99.51 65.58 99.11 65.94 98.79 66.33C98.63 66.52 98.48 66.72 98.39 66.9C98.36 66.95 98.35 66.99 98.33 67.03C98.32 67.07 98.31 67.11 98.3 67.14C98.29 67.2 98.3 67.22 98.3 67.23C98.31 67.23 98.32 67.25 98.37 67.28C98.4 67.29 98.44 67.31 98.47 67.32C98.52 67.33 98.56 67.35 98.61 67.36C98.81 67.4 99.06 67.42 99.31 67.41C99.81 67.4 100.34 67.31 100.86 67.21C101.9 67 102.94 66.68 103.97 66.34C106.02 65.63 108.02 64.74 109.96 63.77C111.91 62.79 113.8 61.72 115.6 60.52C116.5 59.92 117.37 59.29 118.16 58.61C118.55 58.27 118.94 57.91 119.24 57.55C119.39 57.37 119.52 57.18 119.6 57.03C119.62 56.99 119.63 56.96 119.64 56.93C119.65 56.91 119.64 56.91 119.65 56.89C119.65 56.88 119.66 56.87 119.66 56.86C119.66 56.85 119.65 56.89 119.68 56.95ZM121.14 56.25C121.28 56.56 121.29 56.89 121.25 57.14C121.24 57.21 121.22 57.26 121.21 57.31C121.19 57.36 121.18 57.43 121.16 57.47C121.12 57.56 121.08 57.67 121.04 57.75C120.87 58.09 120.67 58.35 120.47 58.59C120.07 59.07 119.63 59.46 119.19 59.84C118.31 60.58 117.37 61.22 116.43 61.83C114.53 63.03 112.55 64.05 110.53 64.99C108.51 65.92 106.44 66.75 104.31 67.43C103.25 67.77 102.17 68.07 101.05 68.28C100.49 68.38 99.92 68.47 99.32 68.48C99.02 68.49 98.71 68.48 98.37 68.4C98.29 68.39 98.2 68.35 98.11 68.33C98.02 68.3 97.93 68.26 97.84 68.21C97.65 68.11 97.46 67.93 97.33 67.69C97.22 67.44 97.21 67.18 97.24 66.97C97.26 66.87 97.29 66.77 97.32 66.68C97.35 66.6 97.39 66.51 97.43 66.43C97.58 66.12 97.77 65.87 97.96 65.64C98.34 65.18 98.77 64.79 99.2 64.42C100.06 63.68 100.97 63.02 101.9 62.41C103.76 61.17 105.7 60.08 107.69 59.08C109.68 58.09 111.72 57.18 113.84 56.45C114.9 56.09 115.98 55.76 117.12 55.53C117.69 55.42 118.26 55.33 118.89 55.31C119.2 55.3 119.53 55.31 119.9 55.39C119.99 55.41 120.09 55.44 120.19 55.47C120.24 55.48 120.3 55.51 120.35 55.53C120.4 55.56 120.45 55.57 120.51 55.61C120.74 55.73 120.99 55.94 121.14 56.25Z"
    fill="#19212E"
  />
  <path
    d="M117.82 52.1699C117.61 52.0299 117.34 52.0099 117.09 52.0099C116.83 52.0099 116.57 52.0499 116.32 52.0899C115.81 52.1799 115.3 52.3099 114.8 52.4599C113.8 52.7599 112.81 53.1199 111.84 53.5099C109.89 54.2799 107.98 55.1599 106.11 56.0899C105.17 56.5599 104.25 57.0499 103.34 57.5699C102.43 58.0799 101.52 58.5999 100.62 59.1299C100.17 59.3899 99.72 59.6599 99.28 59.9399C98.84 60.2099 98.4 60.4999 97.97 60.7899C97.54 61.0899 97.12 61.3899 96.73 61.7299C96.53 61.8999 96.34 62.0699 96.17 62.2599C96 62.4499 95.83 62.6599 95.8 62.8999C95.8 62.9199 95.78 62.9299 95.76 62.9299C95.74 62.9299 95.73 62.9099 95.73 62.8999C95.72 62.6099 95.87 62.3599 96.02 62.1399C96.17 61.9099 96.34 61.7099 96.53 61.5099C96.9 61.1199 97.29 60.7599 97.7 60.4199C98.52 59.7399 99.39 59.1399 100.28 58.5699C102.06 57.4299 103.98 56.5099 105.89 55.6199C107.8 54.7399 109.75 53.9199 111.73 53.1999C112.72 52.8499 113.73 52.5199 114.75 52.2599C115.26 52.1299 115.78 52.0199 116.31 51.9499C116.57 51.9199 116.84 51.8899 117.1 51.8999C117.36 51.9099 117.65 51.9399 117.87 52.1099C117.88 52.1199 117.89 52.1399 117.88 52.1599C117.85 52.1799 117.83 52.1799 117.82 52.1699Z"
    fill="#19212E"
  />
  <path
    d="M110.16 50.4699C109.09 50.8999 108.02 51.3499 106.98 51.8499C105.93 52.3399 104.91 52.8599 103.91 53.4299C103.41 53.7099 102.91 54.0099 102.43 54.3099L101.69 54.7599L100.95 55.1899C100.7 55.3299 100.45 55.4699 100.2 55.6199L99.44 56.0399C98.93 56.3199 98.42 56.5999 97.89 56.8499C97.87 56.8599 97.85 56.8499 97.85 56.8299C97.84 56.8199 97.85 56.7999 97.86 56.7899C98.28 56.3899 98.73 56.0099 99.19 55.6599C99.65 55.2999 100.12 54.9699 100.61 54.6399L100.98 54.3999C101.1 54.3199 101.23 54.2499 101.35 54.1699C101.6 54.0199 101.85 53.8799 102.11 53.7399C102.37 53.6099 102.63 53.4699 102.89 53.3399C103.15 53.2099 103.41 53.0799 103.67 52.9499C104.71 52.4399 105.78 51.9599 106.86 51.5299C107.94 51.1099 109.04 50.7199 110.15 50.3899C110.17 50.3799 110.19 50.3899 110.19 50.4099C110.19 50.4499 110.18 50.4599 110.16 50.4699Z"
    fill="#19212E"
  />
  <path
    d="M105.71 48.8499C104.54 49.3999 103.37 49.9599 102.22 50.5499C101.06 51.1299 99.92 51.7199 98.79 52.3399C98.23 52.6499 97.67 52.9699 97.12 53.3099L95.49 54.3099C95.22 54.4699 94.95 54.6499 94.7 54.8299C94.44 55.0099 94.19 55.1999 93.96 55.4099C93.73 55.6199 93.5 55.8399 93.32 56.0799C93.13 56.3299 92.98 56.5999 92.9 56.9099C92.9 56.9299 92.88 56.9399 92.86 56.9299C92.85 56.9299 92.84 56.9099 92.84 56.8999C92.82 56.5599 92.92 56.2299 93.07 55.9199C93.14 55.7599 93.23 55.6199 93.33 55.4799C93.43 55.3399 93.53 55.2099 93.64 55.0799C94.08 54.5699 94.6 54.1499 95.14 53.7599C95.41 53.5699 95.68 53.3899 95.96 53.2199C96.24 53.0499 96.53 52.8899 96.82 52.7399C97.4 52.4399 97.98 52.1499 98.57 51.8699C99.74 51.2999 100.92 50.7599 102.11 50.2399C103.3 49.7299 104.5 49.2299 105.71 48.7699C105.73 48.7599 105.75 48.7699 105.75 48.7899C105.74 48.8199 105.73 48.8399 105.71 48.8499Z"
    fill="#19212E"
  />
  <path
    d="M113.54 42.92C113.48 42.81 113.38 42.72 113.27 42.66C113.15 42.61 113.03 42.57 112.89 42.56C112.63 42.53 112.36 42.54 112.1 42.57C111.57 42.64 111.05 42.77 110.53 42.91C109.5 43.21 108.49 43.6 107.49 44.01C105.49 44.82 103.54 45.75 101.61 46.71C100.65 47.2 99.69 47.7 98.75 48.23C98.28 48.49 97.81 48.75 97.34 49.02C96.87 49.28 96.41 49.55 95.94 49.82C95.47 50.09 95.02 50.37 94.56 50.65C94.1 50.93 93.66 51.23 93.22 51.54C92.79 51.85 92.36 52.17 91.98 52.54C91.79 52.72 91.61 52.92 91.47 53.13C91.33 53.34 91.23 53.59 91.31 53.84C91.32 53.86 91.31 53.88 91.29 53.88C91.27 53.89 91.26 53.88 91.25 53.86C91.18 53.73 91.16 53.58 91.17 53.44C91.18 53.37 91.2 53.3 91.22 53.23C91.25 53.16 91.27 53.09 91.3 53.03C91.42 52.77 91.59 52.54 91.76 52.33C92.12 51.9 92.52 51.53 92.94 51.17C93.78 50.46 94.68 49.84 95.6 49.26C97.44 48.09 99.41 47.16 101.37 46.24C103.34 45.33 105.32 44.46 107.36 43.7C108.38 43.33 109.41 42.98 110.47 42.72C111 42.59 111.53 42.48 112.08 42.43C112.35 42.41 112.63 42.41 112.9 42.45C113.04 42.47 113.17 42.52 113.3 42.58C113.42 42.65 113.53 42.75 113.59 42.88C113.6 42.9 113.59 42.92 113.58 42.92C113.57 42.94 113.55 42.93 113.54 42.92Z"
    fill="#19212E"
  />
  <path
    d="M97.38 45.43C98.52 44.78 99.66 44.15 100.82 43.54C101.98 42.94 103.16 42.36 104.36 41.83L105.27 41.44L106.19 41.07C106.5 40.95 106.81 40.85 107.12 40.74C107.44 40.64 107.75 40.55 108.07 40.47L109.04 40.25C109.37 40.19 109.69 40.14 110.02 40.09C110.35 40.05 110.68 40.02 111.01 40C111.34 39.99 111.67 39.98 112 39.99C112.02 39.99 112.03 40.01 112.03 40.02C112.03 40.03 112.02 40.05 112.01 40.05C111.69 40.14 111.37 40.21 111.06 40.29C110.75 40.38 110.43 40.46 110.12 40.54C109.81 40.64 109.5 40.72 109.19 40.81L108.26 41.09C107.95 41.19 107.64 41.29 107.34 41.38C107.03 41.48 106.72 41.58 106.41 41.67L105.49 41.97L104.57 42.3C103.36 42.76 102.16 43.28 100.97 43.82C99.78 44.35 98.6 44.92 97.42 45.48C97.4 45.49 97.38 45.48 97.38 45.46C97.36 45.45 97.36 45.43 97.38 45.43Z"
    fill="#19212E"
  />
  <path
    d="M110.63 37.84C110.13 37.79 109.62 37.83 109.12 37.89C108.62 37.95 108.12 38.05 107.63 38.16C106.64 38.38 105.68 38.67 104.74 39.04C102.85 39.76 101.02 40.62 99.22 41.53C98.32 41.99 97.43 42.47 96.56 42.99C96.12 43.24 95.69 43.5 95.26 43.76C95.04 43.89 94.83 44.02 94.61 44.15C94.4 44.28 94.18 44.41 93.97 44.55L92.68 45.36C92.25 45.63 91.83 45.9 91.43 46.19C90.62 46.77 89.85 47.42 89.23 48.23C89.22 48.24 89.2 48.25 89.18 48.24C89.17 48.23 89.16 48.21 89.17 48.2C89.64 47.29 90.36 46.51 91.14 45.84C91.92 45.17 92.78 44.6 93.6 44.02C95.3 42.86 97.13 41.96 98.97 41.08C100.81 40.21 102.69 39.41 104.61 38.75C105.58 38.42 106.57 38.17 107.57 37.98C108.07 37.89 108.58 37.82 109.09 37.77C109.6 37.73 110.11 37.72 110.62 37.79C110.64 37.79 110.65 37.81 110.65 37.83C110.66 37.83 110.65 37.84 110.63 37.84Z"
    fill="#19212E"
  />
  <path
    d="M109.23 35.1199C108.09 35.2999 106.96 35.5199 105.85 35.8199C104.74 36.1099 103.64 36.4599 102.57 36.8599C101.49 37.2599 100.46 37.7599 99.4 38.1799L97.8 38.8199C97.26 39.0299 96.72 39.2399 96.17 39.4299C96.15 39.4399 96.13 39.4299 96.13 39.4099C96.13 39.3999 96.13 39.3799 96.14 39.3699C96.61 39.0199 97.1 38.7099 97.6 38.4099C98.1 38.1099 98.62 37.8399 99.14 37.5899C99.66 37.3399 100.2 37.1099 100.75 36.9199C101.03 36.8299 101.3 36.7299 101.58 36.6399C101.86 36.5499 102.13 36.4599 102.41 36.3699C103.52 36.0199 104.65 35.7299 105.78 35.4999C106.92 35.2799 108.07 35.1199 109.23 35.0499C109.25 35.0499 109.26 35.0599 109.26 35.0799C109.26 35.0999 109.25 35.1199 109.23 35.1199Z"
    fill="#19212E"
  />
  <path
    d="M110.01 34.77L118.62 52.68C118.62 52.68 112 52.72 103.45 57.44L95.16 40.2C95.16 40.2 103.33 33.49 110.01 34.77Z"
    fill="#FF8F73"
  />
  <path
    d="M110.33 34.37C113.31 40.32 116.32 46.32 119.31 52.36C119.49 52.73 119.34 53.18 118.97 53.37C118.87 53.42 118.77 53.44 118.67 53.45H118.63C118.5 53.45 118.33 53.46 118.18 53.47C118.02 53.48 117.86 53.49 117.7 53.51C117.38 53.54 117.06 53.58 116.74 53.63C116.1 53.72 115.46 53.84 114.82 53.97C113.54 54.24 112.28 54.59 111.04 55C109.8 55.41 108.57 55.88 107.38 56.42C106.18 56.95 105.01 57.54 103.86 58.17C103.47 58.39 102.97 58.25 102.75 57.85C102.74 57.84 102.74 57.82 102.73 57.81V57.8L94.77 40.4L94.76 40.38C94.67 40.19 94.73 39.98 94.89 39.85C95.44 39.41 95.98 39.01 96.55 38.62C97.11 38.23 97.69 37.86 98.28 37.5C99.45 36.79 100.67 36.14 101.94 35.6C103.21 35.06 104.53 34.61 105.91 34.35C106.6 34.22 107.3 34.13 108.01 34.12C108.36 34.11 108.72 34.12 109.08 34.14C109.26 34.15 109.44 34.17 109.61 34.19L109.74 34.21L109.81 34.22L109.92 34.24C110.04 34.26 110.19 34.31 110.33 34.37ZM109.7 35.18C109.67 35.21 109.65 35.22 109.64 35.23H109.63L109.57 35.22L109.45 35.2C109.29 35.18 109.13 35.16 108.97 35.15C108.65 35.12 108.33 35.12 108.01 35.12C107.36 35.13 106.72 35.2 106.07 35.32C104.78 35.56 103.52 35.97 102.3 36.48C101.08 36.99 99.89 37.61 98.74 38.29C98.17 38.63 97.6 38.99 97.05 39.37C96.5 39.74 95.95 40.14 95.44 40.54L95.56 40L104.18 57.08L103.05 56.72C104.24 56.07 105.47 55.47 106.72 54.93C107.97 54.39 109.24 53.91 110.54 53.49C111.84 53.08 113.16 52.72 114.5 52.45C115.17 52.31 115.85 52.2 116.53 52.11C116.87 52.06 117.21 52.02 117.56 51.99C117.73 51.97 117.91 51.96 118.08 51.95C118.26 51.94 118.42 51.93 118.63 51.93L117.95 53.02C115.19 47.11 112.46 41.17 109.7 35.18Z"
    fill="#19212E"
  />
  <path
    d="M114.04 48.8099C115.29 47.4599 116.02 45.6199 116.01 43.7999C116 43.3499 115.96 42.8899 115.86 42.4499C115.82 42.2299 115.74 42.0099 115.68 41.7999C115.61 41.5899 115.53 41.3699 115.43 41.1699C115.06 40.3399 114.51 39.5799 113.84 38.9599C113.5 38.6499 113.14 38.3699 112.75 38.1399C112.55 38.0399 112.36 37.9099 112.15 37.8299C112.05 37.7899 111.95 37.7299 111.84 37.6899L111.52 37.5799C111.09 37.4399 110.64 37.3299 110.18 37.2899C109.95 37.2499 109.72 37.2499 109.49 37.2399C109.37 37.2399 109.26 37.2399 109.14 37.2399C109.02 37.2399 108.91 37.2399 108.79 37.2499L108.44 37.2799L108.09 37.3299L107.92 37.3499L107.75 37.3799L107.4 37.4499L107.06 37.5399L106.89 37.5899L106.72 37.6499L106.39 37.7599L106.06 37.8899C105.95 37.9299 105.84 37.9799 105.74 38.0299C105.63 38.0799 105.53 38.1299 105.42 38.1799C105.22 38.2999 105 38.3999 104.82 38.5299C104.62 38.6499 104.45 38.7899 104.27 38.9299C104.1 39.0799 103.92 39.2299 103.77 39.3999C103.61 39.5599 103.47 39.7399 103.32 39.9199C103.19 40.1099 103.05 40.2899 102.93 40.4899C102.8 40.6799 102.7 40.8899 102.6 41.0999C102.51 41.3099 102.41 41.5199 102.34 41.7399C102.26 41.9599 102.2 42.1799 102.14 42.3999C102.09 42.6299 102.04 42.8499 102.01 43.0799C101.97 43.3099 101.96 43.5399 101.94 43.7699C101.94 43.9999 101.93 44.2299 101.94 44.4599C101.98 45.3699 102.22 46.2799 102.59 47.1299C102.97 47.9799 103.49 48.7599 104.14 49.3899C104.78 50.0099 105.59 50.4899 106.45 50.7699C107.31 51.0599 108.24 51.1699 109.16 51.1099C110.99 50.9799 112.78 50.1399 114.04 48.8099ZM115.12 49.8199C113.59 51.4399 111.45 52.4399 109.25 52.5699C108.15 52.6399 107.02 52.5099 105.97 52.1499C104.91 51.7999 103.93 51.2099 103.11 50.4299C102.3 49.6499 101.69 48.7099 101.24 47.6999C100.79 46.6999 100.53 45.5999 100.5 44.4899C100.49 44.2099 100.5 43.9399 100.51 43.6599C100.54 43.3899 100.56 43.1099 100.61 42.8399C100.65 42.5699 100.72 42.2999 100.78 42.0299C100.86 41.7699 100.93 41.4999 101.04 41.2399C101.13 40.9799 101.25 40.7299 101.37 40.4799C101.5 40.2399 101.62 39.9899 101.77 39.7599C101.91 39.5199 102.08 39.2999 102.24 39.0799C102.42 38.8699 102.59 38.6499 102.79 38.4499C102.98 38.2399 103.19 38.0599 103.4 37.8799C103.62 37.7099 103.84 37.5299 104.08 37.3799C104.31 37.2199 104.55 37.0999 104.79 36.9599C104.91 36.8999 105.03 36.8399 105.16 36.7799C105.28 36.7199 105.41 36.6599 105.53 36.6099L105.91 36.4599C106.04 36.4099 106.17 36.3699 106.3 36.3299L106.49 36.2599L106.69 36.2099L107.08 36.0999L107.48 36.0099L107.68 35.9699L107.88 35.9399L108.28 35.8799L108.69 35.8399C108.83 35.8299 108.96 35.8199 109.1 35.8199C109.24 35.8199 109.37 35.8099 109.51 35.8099C109.78 35.8199 110.06 35.8199 110.33 35.8599C110.88 35.9099 111.42 36.0299 111.96 36.1899L112.36 36.3199C112.49 36.3699 112.62 36.4299 112.75 36.4799C113.01 36.5799 113.25 36.7299 113.5 36.8599C113.98 37.1399 114.44 37.4699 114.85 37.8499C115.68 38.5999 116.35 39.5099 116.82 40.5299C116.94 40.7799 117.04 41.0399 117.13 41.3099C117.21 41.5799 117.3 41.8499 117.35 42.1199C117.48 42.6699 117.53 43.2299 117.53 43.7899C117.54 46.0199 116.63 48.1999 115.12 49.8199Z"
    fill="white"
  />
  <path
    d="M112.27 47.47C111.9 47.66 111.51 47.82 111.1 47.93C110.69 48.04 110.27 48.11 109.85 48.13C109.43 48.15 109.01 48.11 108.59 48.04C108.18 47.97 107.78 47.84 107.4 47.7C106.64 47.39 105.94 46.97 105.33 46.39C104.73 45.82 104.26 45.15 103.9 44.43C103.54 43.71 103.29 42.94 103.18 42.15C103.07 41.35 103.1 40.52 103.33 39.73C103.56 38.94 104.02 38.21 104.63 37.66C104.79 37.53 104.94 37.39 105.11 37.28C105.27 37.16 105.46 37.06 105.63 36.96C105.99 36.78 106.37 36.62 106.75 36.52C107.52 36.3 108.31 36.23 109.1 36.25C109.88 36.27 110.66 36.4 111.42 36.61C112.18 36.82 112.91 37.13 113.59 37.54C113.68 37.59 113.76 37.64 113.84 37.7L114.09 37.87C114.25 38 114.41 38.11 114.56 38.26C114.87 38.53 115.14 38.84 115.39 39.18L115.56 39.44C115.62 39.53 115.67 39.64 115.72 39.74L115.84 40.05L115.94 40.36C116.05 40.77 116.1 41.19 116.11 41.6C116.13 42.43 115.96 43.26 115.64 44.03C115.47 44.41 115.28 44.78 115.03 45.12C114.91 45.3 114.78 45.45 114.64 45.61C114.51 45.77 114.37 45.91 114.22 46.05C113.65 46.63 112.98 47.09 112.27 47.47ZM111.67 46.33C112.29 46.01 112.86 45.62 113.36 45.15C113.48 45.03 113.61 44.91 113.72 44.79C113.83 44.67 113.94 44.54 114.04 44.41C114.24 44.15 114.4 43.86 114.55 43.56C114.68 43.26 114.8 42.94 114.87 42.62C114.94 42.29 115 41.96 115 41.63C115.01 41.3 114.98 40.96 114.91 40.65L114.85 40.42L114.77 40.2C114.74 40.13 114.71 40.07 114.67 40L114.54 39.79C114.36 39.52 114.15 39.25 113.9 39.02C113.78 38.9 113.64 38.79 113.52 38.68L113.31 38.52C113.24 38.47 113.17 38.42 113.1 38.37C112.52 37.99 111.87 37.67 111.19 37.47C109.84 37.04 108.34 36.94 106.99 37.31C106.65 37.4 106.33 37.54 106.03 37.69C105.88 37.78 105.73 37.86 105.6 37.96C105.46 38.05 105.33 38.17 105.2 38.28C104.96 38.51 104.74 38.77 104.57 39.06C104.48 39.2 104.42 39.36 104.34 39.51C104.3 39.59 104.28 39.67 104.25 39.75C104.23 39.83 104.19 39.91 104.17 39.99C104 40.64 104 41.34 104.12 42.02C104.25 42.7 104.49 43.36 104.83 43.97C105.16 44.58 105.59 45.14 106.1 45.57L106.29 45.73C106.36 45.78 106.42 45.83 106.49 45.87C106.62 45.97 106.77 46.05 106.92 46.14C107.22 46.31 107.53 46.45 107.84 46.57C108.16 46.68 108.48 46.77 108.81 46.82C109.14 46.87 109.46 46.88 109.79 46.87C110.12 46.85 110.44 46.79 110.75 46.71C111.07 46.61 111.38 46.48 111.67 46.33Z"
    fill="white"
  />
  <path
    d="M112.1 41.1899C111.81 41.4999 111.47 41.7899 111.07 41.9999C110.67 42.2099 110.23 42.3199 109.78 42.3399C109.33 42.3599 108.89 42.2799 108.48 42.1399C108.06 41.9999 107.69 41.7799 107.35 41.5099C107.01 41.2299 106.72 40.8799 106.53 40.4799C106.43 40.2799 106.36 40.0699 106.31 39.8599C106.29 39.7599 106.27 39.6399 106.25 39.5399C106.24 39.4399 106.23 39.3399 106.22 39.2399C106.19 38.8299 106.21 38.4199 106.32 38.0099C106.42 37.5999 106.62 37.1899 106.95 36.8999C107.27 36.5899 107.69 36.4299 108.09 36.3599C108.29 36.3199 108.49 36.3099 108.69 36.3099C108.89 36.3099 109.07 36.3199 109.27 36.3399C109.65 36.3699 110.03 36.4099 110.41 36.4899C110.79 36.5599 111.17 36.6799 111.54 36.8599C111.9 37.0399 112.25 37.2899 112.52 37.6299C112.78 37.9599 112.98 38.3999 113.01 38.8399C113.03 39.0599 113.02 39.2899 112.98 39.4999C112.94 39.7199 112.88 39.9199 112.8 40.1199C112.62 40.5099 112.38 40.8699 112.1 41.1899ZM111.38 40.4899C111.85 40.0499 112.2 39.4599 112.23 38.8599C112.25 38.5599 112.16 38.2599 112 37.9899C111.83 37.7199 111.58 37.4899 111.29 37.3199C111 37.1399 110.66 37.0299 110.31 36.9399C109.96 36.8599 109.6 36.8199 109.24 36.7999C109.06 36.7899 108.87 36.7799 108.7 36.7899C108.53 36.7999 108.35 36.8099 108.19 36.8499C107.86 36.9299 107.56 37.0699 107.36 37.2999C107.15 37.5299 107.03 37.8299 106.98 38.1499C106.93 38.4699 106.95 38.8099 107.01 39.1499C107.03 39.2299 107.04 39.3199 107.06 39.3999C107.08 39.4799 107.1 39.5499 107.13 39.6299C107.18 39.7799 107.25 39.9199 107.33 40.0399C107.49 40.2999 107.72 40.5099 107.97 40.6899C108.49 41.0299 109.13 41.2199 109.73 41.1699C110.03 41.1499 110.32 41.0899 110.61 40.9899C110.68 40.9599 110.75 40.9299 110.82 40.8999C110.89 40.8599 110.96 40.8299 111.02 40.7899C111.14 40.6999 111.26 40.5899 111.38 40.4899Z"
    fill="white"
  />
  <path
    d="M108.8 63.15C109.27 64.06 109.54 65.07 109.62 66.1C109.7 67.13 109.61 68.17 109.34 69.17C109.07 70.17 108.64 71.13 108.04 72C107.44 72.87 106.68 73.64 105.77 74.23L105.58 72.85C106.65 73.18 107.53 73.9 108.12 74.77C108.71 75.65 109.03 76.71 108.94 77.78C108.85 78.84 108.36 79.82 107.66 80.55C106.96 81.28 106.02 81.8 105.02 81.93C104.83 81.96 104.65 81.82 104.62 81.62C104.6 81.43 104.72 81.26 104.9 81.23C105.72 81.06 106.45 80.58 106.98 79.95C107.51 79.31 107.82 78.51 107.83 77.73C107.84 76.95 107.54 76.17 107.06 75.55C106.58 74.93 105.9 74.48 105.19 74.32C104.79 74.23 104.54 73.83 104.62 73.43C104.67 73.21 104.8 73.04 104.98 72.94L104.99 72.93C105.75 72.51 106.43 71.92 106.99 71.22C107.55 70.52 107.99 69.71 108.28 68.85C108.58 67.99 108.73 67.07 108.72 66.15C108.71 65.23 108.53 64.31 108.17 63.46C108.09 63.28 108.18 63.07 108.36 62.99C108.52 62.91 108.72 62.99 108.8 63.15Z"
    fill="#19212E"
  />
  <path
    d="M71.49 67.47C75.62 67.11 86.23 64.24 90.21 63.05C92.05 62.5 93.93 61.83 95.27 60.46C96.61 59.1 97.25 56.86 96.26 55.22C95.6 54.13 94.34 53.5 93.07 53.34C91.8 53.18 90.52 53.42 89.28 53.74C86.38 54.48 67.88 61.92 65.29 63.44"
    fill="white"
  />
  <path
    d="M71.47 67.21C72.77 67 74.07 66.68 75.36 66.37C76.01 66.21 76.65 66.04 77.3 65.87C77.95 65.7 78.59 65.53 79.23 65.36C80.52 65 81.81 64.66 83.09 64.29C84.37 63.92 85.66 63.57 86.94 63.19L88.86 62.63C89.5 62.44 90.14 62.26 90.75 62.05C91.98 61.64 93.15 61.16 94.1 60.43C94.34 60.25 94.56 60.05 94.76 59.85C94.95 59.65 95.13 59.42 95.28 59.18C95.59 58.7 95.8 58.16 95.9 57.61C96 57.06 95.97 56.51 95.8 56.03C95.63 55.55 95.3 55.12 94.86 54.8C94.42 54.47 93.88 54.23 93.32 54.1C92.76 53.97 92.14 53.95 91.52 53.99C90.9 54.04 90.27 54.15 89.63 54.29C89.55 54.31 89.47 54.32 89.39 54.34L89.17 54.4L88.71 54.54C88.4 54.64 88.08 54.74 87.77 54.85C86.51 55.28 85.26 55.74 84.01 56.2C82.76 56.67 81.51 57.14 80.26 57.61C77.76 58.56 75.27 59.54 72.79 60.53C71.55 61.03 70.31 61.53 69.08 62.04C68.46 62.3 67.85 62.56 67.24 62.82C66.63 63.09 66.02 63.36 65.45 63.66H65.44C65.31 63.73 65.15 63.68 65.08 63.55C65.01 63.42 65.06 63.27 65.18 63.19C65.78 62.84 66.38 62.55 66.99 62.26C67.6 61.97 68.21 61.69 68.82 61.41C70.04 60.85 71.27 60.32 72.5 59.78C74.96 58.71 77.43 57.68 79.91 56.66C82.39 55.64 84.88 54.65 87.41 53.72C88.04 53.49 88.68 53.26 89.37 53.08C90.03 52.9 90.71 52.74 91.43 52.66C92.14 52.58 92.88 52.57 93.63 52.71C94.37 52.85 95.1 53.13 95.75 53.58C96.39 54.03 96.95 54.69 97.25 55.46C97.55 56.23 97.6 57.06 97.48 57.84C97.36 58.62 97.07 59.34 96.66 59.99C96.45 60.31 96.22 60.62 95.96 60.91C95.69 61.19 95.42 61.44 95.13 61.67C94.55 62.13 93.91 62.49 93.26 62.8C92.61 63.11 91.95 63.34 91.29 63.55C90.63 63.76 89.98 63.94 89.34 64.12C88.69 64.31 88.04 64.48 87.39 64.65C84.79 65.34 82.18 65.97 79.55 66.52C78.89 66.66 78.23 66.79 77.57 66.92C76.91 67.05 76.25 67.16 75.58 67.27C74.92 67.38 74.25 67.48 73.58 67.56C72.91 67.64 72.23 67.71 71.55 67.73C71.4 67.73 71.28 67.62 71.27 67.47C71.23 67.35 71.33 67.23 71.47 67.21Z"
    fill="#19212E"
  />
  <path
    d="M62.37 4.61998C64.75 3.85998 67.08 5.15998 69.05 6.42998C69.55 6.74998 70.03 7.08998 70.51 7.43998C74.7 10.52 78.5 14.24 82.12 17.96C83.53 19.4 84.91 20.87 86.28 22.36C90.51 26.96 96.19 32.13 94.32 39.01C92.71 44.94 87.74 49.34 83 52.92C82.92 52.98 82.85 53.03 82.77 53.09C76.71 57.63 70 61.42 63.04 64.37C58.03 66.49 51.82 69.72 46.27 67.52C40.64 65.29 37.59 58.34 35.79 53.04C34.8 50.11 34.05 47.1 33.46 44.07C32.92 41.28 32.55 38.62 32.34 35.79C32.14 33.05 31.94 30.1 32.16 27.34C32.33 25.25 32.96 21.95 35.02 20.91C36.64 20.09 39.21 21.74 40.44 22.65C41.94 23.75 44.79 25.14 46.57 26.19C48.23 27.17 49.73 25.78 51.32 24.58C53.05 23.27 54.12 22.19 56.05 20.78C58.43 19.05 58.24 11.4 59.29 8.63998C59.88 7.06998 60.61 5.17998 62.33 4.61998C62.35 4.61998 62.36 4.61998 62.37 4.61998Z"
    fill="white"
  />
  <path
    d="M62.25 4.25002C62.8 4.08002 63.37 3.99002 63.94 4.00002C64.51 4.01002 65.07 4.11002 65.61 4.26002C66.69 4.57002 67.67 5.07002 68.59 5.62002C69.51 6.17002 70.42 6.77002 71.27 7.40002C72.13 8.03002 72.98 8.68002 73.81 9.35002C77.14 12.03 80.2 15 83.18 18.02C83.92 18.78 84.65 19.55 85.38 20.33C86.11 21.1 86.82 21.9 87.54 22.66C88.26 23.43 88.99 24.21 89.7 25.01C90.41 25.81 91.11 26.63 91.76 27.49C92.42 28.35 93.03 29.25 93.56 30.22C94.09 31.18 94.53 32.2 94.83 33.28C95.13 34.35 95.27 35.48 95.22 36.6C95.2 37.16 95.13 37.71 95.02 38.26C94.97 38.53 94.9 38.8 94.83 39.07C94.75 39.33 94.68 39.6 94.59 39.85C93.9 41.93 92.78 43.82 91.45 45.52C90.79 46.37 90.07 47.17 89.33 47.94C88.58 48.7 87.8 49.43 86.99 50.13C85.38 51.54 83.69 52.82 81.97 54.08C81.54 54.39 81.11 54.7 80.67 55.01L79.36 55.91C78.48 56.5 77.59 57.09 76.69 57.65C73.1 59.92 69.36 61.97 65.51 63.78C64.55 64.23 63.57 64.67 62.61 65.09C61.65 65.52 60.68 65.96 59.7 66.38C57.74 67.22 55.73 68.01 53.6 68.48C53.07 68.6 52.53 68.69 51.98 68.76C51.44 68.83 50.88 68.87 50.33 68.88C49.22 68.9 48.1 68.77 47.01 68.47C46.47 68.32 45.94 68.12 45.42 67.9C44.91 67.66 44.41 67.4 43.94 67.1C43 66.49 42.14 65.77 41.37 64.98C39.83 63.39 38.63 61.54 37.62 59.62C36.61 57.7 35.8 55.69 35.09 53.67C34.38 51.64 33.79 49.57 33.31 47.49C32.83 45.4 32.4 43.31 32.14 41.18C32.08 40.65 32.01 40.12 31.96 39.58C31.91 39.05 31.87 38.51 31.84 37.98C31.77 36.91 31.75 35.84 31.7 34.78C31.61 32.66 31.54 30.52 31.67 28.38C31.7 27.84 31.74 27.31 31.81 26.77C31.88 26.23 31.97 25.7 32.09 25.17C32.33 24.11 32.67 23.05 33.29 22.1C33.6 21.63 33.99 21.19 34.47 20.86L34.66 20.74L34.85 20.63C34.99 20.56 35.14 20.5 35.28 20.46C35.58 20.38 35.88 20.36 36.17 20.37C36.76 20.4 37.3 20.56 37.81 20.77C38.32 20.98 38.81 21.23 39.27 21.51C39.74 21.79 40.18 22.09 40.62 22.41C41.03 22.71 41.47 22.99 41.92 23.27C42.82 23.81 43.75 24.32 44.67 24.83C45.13 25.09 45.6 25.34 46.06 25.6L46.75 26C46.96 26.12 47.18 26.2 47.4 26.24C47.85 26.32 48.33 26.21 48.78 26C49.23 25.79 49.66 25.5 50.08 25.19C50.5 24.88 50.92 24.55 51.34 24.23C51.76 23.91 52.16 23.58 52.57 23.24C53.38 22.57 54.18 21.86 55.02 21.2C55.23 21.03 55.44 20.87 55.65 20.71C55.76 20.63 55.87 20.55 55.95 20.48C56.04 20.4 56.12 20.32 56.2 20.23C56.51 19.87 56.74 19.42 56.93 18.95C57.3 18 57.52 16.97 57.7 15.94C57.88 14.91 58.01 13.86 58.15 12.81C58.29 11.76 58.42 10.7 58.65 9.64002C58.71 9.37002 58.78 9.11002 58.86 8.84002C58.91 8.70002 58.96 8.56002 59 8.44002L59.14 8.07002C59.33 7.57002 59.54 7.07002 59.79 6.58002C60.05 6.09002 60.36 5.61002 60.76 5.20002C61.17 4.77002 61.69 4.43002 62.25 4.25002ZM62.49 4.98002C62.04 5.12002 61.64 5.37002 61.31 5.71002C60.97 6.05002 60.69 6.46002 60.45 6.91002C60.2 7.36002 60 7.83002 59.81 8.32002L59.67 8.69002C59.62 8.82002 59.58 8.92002 59.54 9.04002C59.46 9.28002 59.4 9.53002 59.34 9.78002C59.11 10.79 58.98 11.84 58.83 12.88C58.69 13.93 58.54 14.98 58.35 16.03C58.16 17.08 57.93 18.14 57.53 19.16C57.32 19.67 57.07 20.18 56.69 20.62C56.59 20.73 56.49 20.83 56.37 20.93C56.25 21.03 56.14 21.1 56.04 21.18C55.83 21.33 55.62 21.49 55.41 21.65C54.58 22.29 53.77 22.96 52.95 23.64C52.54 23.98 52.13 24.32 51.7 24.64C51.28 24.96 50.87 25.29 50.43 25.61C50 25.93 49.55 26.24 49.03 26.48C48.52 26.72 47.92 26.87 47.32 26.76C47.02 26.71 46.74 26.6 46.49 26.46L45.8 26.07C45.34 25.81 44.87 25.57 44.41 25.32C43.48 24.82 42.54 24.32 41.62 23.78C41.16 23.51 40.7 23.23 40.26 22.91C39.84 22.6 39.41 22.31 38.96 22.05C38.51 21.79 38.06 21.55 37.59 21.37C37.12 21.19 36.63 21.05 36.16 21.03C35.92 21.02 35.69 21.04 35.48 21.1C35.37 21.13 35.27 21.17 35.17 21.22L35.02 21.31L34.87 21.41C34.48 21.68 34.16 22.05 33.89 22.47C33.36 23.31 33.05 24.3 32.85 25.31C32.75 25.81 32.68 26.33 32.62 26.84C32.57 27.35 32.55 27.88 32.53 28.4C32.48 30.49 32.63 32.59 32.83 34.69C32.92 35.75 33.05 36.79 33.21 37.82C33.36 38.86 33.54 39.89 33.72 40.92C33.91 41.95 34.1 42.98 34.31 44.01C34.51 45.04 34.74 46.06 34.98 47.08C35.47 49.12 36.02 51.13 36.7 53.1C37.37 55.08 38.13 57.02 39.05 58.87C39.98 60.71 41.07 62.48 42.44 63.97C43.12 64.72 43.88 65.38 44.71 65.94C45.12 66.22 45.56 66.46 46 66.68C46.45 66.89 46.91 67.08 47.39 67.21C48.34 67.49 49.34 67.63 50.35 67.63C50.85 67.63 51.36 67.61 51.87 67.55C52.38 67.5 52.88 67.42 53.39 67.32C55.41 66.92 57.38 66.2 59.33 65.4C60.3 65 61.27 64.58 62.25 64.17C63.23 63.76 64.2 63.36 65.17 62.94C67.1 62.09 69.01 61.19 70.87 60.2C72.74 59.22 74.58 58.19 76.37 57.07C77.27 56.52 78.15 55.94 79.03 55.36L80.33 54.46C80.76 54.15 81.19 53.85 81.62 53.54C82.04 53.22 82.47 52.92 82.89 52.6C83.31 52.28 83.72 51.96 84.14 51.63C84.96 50.97 85.78 50.3 86.56 49.6C88.12 48.19 89.59 46.69 90.82 45.01C92.05 43.33 93.06 41.49 93.65 39.53C93.73 39.29 93.79 39.04 93.86 38.79C93.92 38.54 93.97 38.3 94.01 38.05C94.1 37.55 94.14 37.05 94.15 36.55C94.16 35.55 94.01 34.55 93.71 33.6C93.42 32.64 92.98 31.72 92.47 30.84C91.95 29.96 91.36 29.12 90.71 28.31C90.07 27.5 89.38 26.72 88.67 25.94C87.96 25.16 87.24 24.4 86.51 23.63L84.35 21.31C83.63 20.54 82.91 19.77 82.17 19.01C79.24 15.97 76.31 12.93 73.13 10.18C72.34 9.49002 71.52 8.83002 70.7 8.18002C70.29 7.86002 69.87 7.54002 69.45 7.24002C69.03 6.94002 68.59 6.65002 68.15 6.37002C67.27 5.82002 66.36 5.32002 65.4 5.03002C64.92 4.89002 64.43 4.79002 63.94 4.78002C63.44 4.78002 62.95 4.84002 62.49 4.98002Z"
    fill="#19212E"
  />
  <path
    d="M55.0899 52.57C56.9199 52.88 58.5899 54.04 59.4999 55.65C60.7199 57.79 60.51 60.68 58.95 62.59C57.53 64.34 55.0599 65.18 52.8599 64.66C50.6599 64.14 48.8299 62.29 48.3399 60.09C47.4399 55.99 50.8499 51.86 55.0899 52.57Z"
    fill="#FFEBE6"
  />
  <path
    d="M55.86 55.99C54.84 56.35 53.81 56.66 52.78 56.97C52.52 57.05 52.27 57.13 52.01 57.2L51.24 57.43L50.47 57.66L49.7 57.9C48.68 58.22 47.65 58.56 46.64 58.91C45.62 59.26 44.61 59.62 43.59 59.98C43.5 60.01 43.39 59.96 43.36 59.87C43.33 59.78 43.37 59.69 43.45 59.65C44.42 59.15 45.41 58.71 46.41 58.29C47.41 57.88 48.43 57.5 49.46 57.15L50.23 56.9L51 56.67C51.52 56.52 52.04 56.37 52.57 56.24C53.62 55.98 54.69 55.76 55.77 55.64C55.87 55.63 55.96 55.7 55.97 55.8C55.99 55.88 55.93 55.96 55.86 55.99Z"
    fill="#8C95A6"
  />
  <path
    d="M56.34 57.65C55.48 58.06 54.63 58.49 53.79 58.94L53.16 59.28L52.54 59.62C52.13 59.85 51.71 60.09 51.3 60.33C50.48 60.82 49.68 61.32 48.88 61.84C48.08 62.36 47.3 62.89 46.5 63.43C46.42 63.49 46.31 63.46 46.25 63.38C46.2 63.31 46.21 63.21 46.28 63.15C46.99 62.49 47.75 61.89 48.53 61.33C49.32 60.77 50.13 60.24 50.96 59.76L51.59 59.4L52.23 59.06L52.87 58.73L53.52 58.42C54.39 58.01 55.29 57.64 56.2 57.33C56.29 57.3 56.4 57.35 56.43 57.44C56.47 57.52 56.42 57.61 56.34 57.65Z"
    fill="#8C95A6"
  />
  <path
    d="M57.31 59.3201C56.6 59.8201 55.91 60.3301 55.22 60.8601C54.54 61.3901 53.87 61.9301 53.21 62.5001C52.56 63.0701 51.92 63.6401 51.29 64.2401C50.66 64.8301 50.05 65.4401 49.43 66.0501C49.36 66.1201 49.24 66.1201 49.17 66.0501C49.11 65.9901 49.1 65.8901 49.15 65.8201C49.67 65.1101 50.25 64.4501 50.86 63.8201C51.47 63.1901 52.11 62.5901 52.78 62.0201C53.45 61.4501 54.15 60.9101 54.87 60.4101C55.59 59.9101 56.34 59.4401 57.1 59.0201C57.19 58.9701 57.3 59.0001 57.34 59.0901C57.4 59.1701 57.38 59.2701 57.31 59.3201Z"
    fill="#8C95A6"
  />
  <path
    d="M77.58 55.9201C77.17 55.8801 76.77 55.7801 76.41 55.6801C76.05 55.5701 75.72 55.4801 75.38 55.4101L75.67 55.3501C75.13 55.6901 74.64 56.1001 74.16 56.5501C73.68 57.0001 73.2 57.4901 72.7 57.9501C72.48 58.1501 72.14 58.1401 71.93 57.9201C71.73 57.7001 71.74 57.3601 71.96 57.1501C71.97 57.1401 71.97 57.1401 71.98 57.1301C72.49 56.7101 72.98 56.2601 73.5 55.8101C74.02 55.3601 74.59 54.9301 75.22 54.5801C75.31 54.5301 75.41 54.5101 75.51 54.5201C75.9 54.5501 76.29 54.6301 76.65 54.6901C77.01 54.7601 77.33 54.7901 77.66 54.7901C77.97 54.7901 78.22 55.0401 78.22 55.3501C78.22 55.6601 77.97 55.9101 77.66 55.9101C77.63 55.9201 77.61 55.9201 77.58 55.9201Z"
    fill="#19212E"
  />
  <path
    d="M77.41 49.66C77.37 49.42 77.2 49.19 76.97 49.12C76.65 49.02 76.26 49.34 76.02 49.52C75.57 49.88 75.05 50.09 74.61 50.48C74.12 50.91 74.27 51.49 74.75 51.69C75.23 51.88 76.49 52.41 76.83 52.02C77.28 51.51 77.5 50.23 77.41 49.66Z"
    fill="#19212E"
  />
  <path
    d="M77.2 49.69C77.18 49.55 77.09 49.42 76.98 49.36C76.95 49.34 76.92 49.33 76.9 49.33C76.88 49.32 76.85 49.32 76.82 49.33C76.76 49.34 76.69 49.36 76.61 49.4C76.46 49.48 76.31 49.59 76.16 49.72C75.99 49.86 75.82 49.98 75.65 50.09C75.48 50.2 75.31 50.3 75.15 50.41C75.07 50.46 75 50.52 74.92 50.58C74.84 50.64 74.78 50.7 74.73 50.75C74.68 50.81 74.64 50.86 74.61 50.92C74.58 50.98 74.57 51.04 74.57 51.1C74.56 51.22 74.6 51.35 74.71 51.47C74.74 51.5 74.77 51.53 74.8 51.55C74.84 51.58 74.89 51.6 74.93 51.63C75.02 51.68 75.11 51.73 75.2 51.77C75.38 51.85 75.57 51.91 75.76 51.97C75.95 52.02 76.14 52.07 76.34 52.07C76.39 52.07 76.44 52.07 76.48 52.07L76.55 52.06C76.57 52.06 76.59 52.05 76.61 52.04C76.65 52.03 76.68 52.01 76.72 51.99C76.74 51.96 76.77 51.95 76.8 51.9C76.9 51.75 76.98 51.57 77.04 51.39C77.1 51.21 77.14 51.02 77.18 50.83C77.21 50.64 77.23 50.44 77.24 50.25C77.23 50.05 77.23 49.86 77.2 49.69ZM77.62 49.62C77.65 49.85 77.63 50.06 77.61 50.27C77.58 50.48 77.54 50.68 77.49 50.89C77.44 51.09 77.37 51.29 77.29 51.48C77.21 51.67 77.11 51.86 76.96 52.03C76.93 52.07 76.88 52.12 76.82 52.15C76.76 52.18 76.71 52.21 76.65 52.21C76.53 52.24 76.43 52.23 76.32 52.22C76.11 52.2 75.91 52.15 75.71 52.1C75.51 52.05 75.32 51.98 75.13 51.91C75.03 51.88 74.93 51.85 74.83 51.83L74.68 51.79C74.62 51.77 74.56 51.75 74.51 51.73C74.4 51.68 74.29 51.59 74.21 51.49C74.13 51.38 74.07 51.25 74.06 51.1C74.05 50.96 74.07 50.82 74.12 50.69C74.17 50.56 74.24 50.45 74.33 50.36C74.42 50.27 74.5 50.19 74.59 50.13C74.68 50.06 74.76 50 74.85 49.94C75.03 49.83 75.21 49.72 75.38 49.62C75.55 49.52 75.71 49.42 75.86 49.31C76.02 49.19 76.2 49.06 76.41 48.96C76.52 48.91 76.64 48.87 76.78 48.86C76.85 48.86 76.93 48.86 77 48.88C77.07 48.9 77.14 48.93 77.2 48.96C77.43 49.12 77.58 49.37 77.62 49.62Z"
    fill="#19212E"
  />
  <path
    d="M76.64 51.13C76.63 51.49 76.59 51.84 76.54 52.2C76.49 52.55 76.41 52.91 76.32 53.26C76.22 53.61 76.1 53.96 75.94 54.3C75.78 54.64 75.58 54.97 75.27 55.24C75.18 55.32 75.05 55.31 74.97 55.22C74.91 55.15 74.9 55.05 74.95 54.97L74.96 54.96C75.13 54.69 75.25 54.39 75.36 54.07C75.47 53.75 75.56 53.42 75.65 53.09L75.92 52.08C76.01 51.74 76.11 51.4 76.23 51.06C76.27 50.95 76.39 50.89 76.5 50.93C76.59 50.95 76.64 51.04 76.64 51.13Z"
    fill="#19212E"
  />
  <path
    d="M67.98 47.17C68.27 47.49 68.5 47.84 68.71 48.21C68.92 48.58 69.09 48.97 69.24 49.37C69.39 49.77 69.5 50.18 69.59 50.6C69.67 51.02 69.73 51.43 69.73 51.86C69.73 52.3 69.38 52.65 68.94 52.65C68.65 52.65 68.39 52.49 68.25 52.25V52.24C68.04 51.88 67.88 51.52 67.73 51.16C67.58 50.8 67.44 50.44 67.3 50.08C67.16 49.72 67.03 49.36 66.91 48.99C66.79 48.62 66.68 48.24 66.61 47.82V47.81C66.54 47.37 66.83 46.96 67.27 46.89C67.54 46.87 67.81 46.97 67.98 47.17Z"
    fill="#19212E"
  />
  <path
    d="M76.62 40.14C76.91 40.46 77.14 40.81 77.35 41.18C77.56 41.55 77.73 41.94 77.88 42.34C78.03 42.74 78.14 43.15 78.23 43.57C78.31 43.99 78.37 44.4 78.37 44.83C78.37 45.27 78.02 45.62 77.58 45.63C77.29 45.63 77.03 45.47 76.89 45.23V45.22C76.68 44.86 76.52 44.5 76.37 44.14C76.22 43.78 76.08 43.42 75.94 43.06C75.8 42.7 75.67 42.34 75.55 41.97C75.43 41.6 75.32 41.22 75.25 40.8V40.79C75.18 40.35 75.47 39.94 75.91 39.87C76.17 39.84 76.44 39.95 76.62 40.14Z"
    fill="#19212E"
  />
  <path
    d="M64.45 38.77C64.66 38.88 64.81 39.04 64.94 39.21C65.08 39.38 65.21 39.55 65.34 39.72L65.73 40.23L66.11 40.74C66.17 40.82 66.15 40.94 66.07 41C66.01 41.05 65.93 41.05 65.86 41.01C65.67 40.89 65.49 40.76 65.32 40.62C65.15 40.48 64.98 40.34 64.82 40.19C64.66 40.04 64.5 39.9 64.34 39.75C64.18 39.6 64.04 39.45 63.95 39.24C63.87 39.06 63.95 38.84 64.13 38.76C64.24 38.71 64.36 38.72 64.45 38.77Z"
    fill="#8C95A6"
  />
  <path
    d="M62.1 41.9C62.42 41.75 62.63 41.89 62.85 41.97C63.07 42.07 63.28 42.19 63.49 42.32C63.91 42.57 64.33 42.78 64.75 43.01C64.84 43.06 64.87 43.17 64.82 43.26C64.78 43.33 64.69 43.37 64.62 43.35C64.15 43.23 63.69 43.06 63.23 42.93C63 42.86 62.77 42.8 62.55 42.71C62.33 42.61 62.1 42.57 61.97 42.24C61.92 42.1 61.98 41.96 62.1 41.9Z"
    fill="#8C95A6"
  />
  <path
    d="M60.78 44.84C60.84 44.71 60.9 44.64 60.96 44.59C61.02 44.54 61.07 44.53 61.13 44.53C61.24 44.52 61.35 44.53 61.46 44.54C61.69 44.57 61.92 44.65 62.16 44.71C62.4 44.77 62.64 44.82 62.88 44.91C63.11 45 63.33 45.12 63.53 45.26C63.61 45.32 63.63 45.43 63.58 45.51C63.53 45.58 63.44 45.61 63.36 45.58C63.16 45.5 62.95 45.44 62.75 45.42C62.54 45.4 62.33 45.39 62.12 45.41C61.9 45.44 61.68 45.51 61.45 45.54C61.34 45.55 61.22 45.55 61.1 45.54C61.04 45.54 60.98 45.52 60.93 45.46C60.87 45.41 60.82 45.33 60.77 45.19C60.72 45.08 60.73 44.95 60.78 44.84Z"
    fill="#8C95A6"
  />
  <path
    d="M88.43 30.2C90.26 30.51 91.93 31.67 92.84 33.28C94.06 35.42 93.85 38.31 92.29 40.22C90.87 41.97 88.4 42.81 86.2 42.29C84 41.77 82.17 39.92 81.68 37.72C80.77 33.62 84.19 29.49 88.43 30.2Z"
    fill="#FFEBE6"
  />
  <path
    d="M94.7 38.75C94.07 38.82 93.43 38.87 92.8 38.93C92.17 38.98 91.54 39.04 90.92 39.11C90.3 39.18 89.67 39.27 89.05 39.37C88.43 39.46 87.8 39.56 87.17 39.64C87.07 39.65 86.98 39.58 86.97 39.48C86.96 39.39 87.01 39.31 87.1 39.28C87.71 39.1 88.33 38.94 88.96 38.81C89.59 38.67 90.22 38.57 90.86 38.49C91.5 38.41 92.14 38.37 92.78 38.36C93.42 38.34 94.06 38.35 94.7 38.39C94.8 38.4 94.88 38.48 94.87 38.58C94.85 38.67 94.78 38.74 94.7 38.75Z"
    fill="#8C95A6"
  />
  <path
    d="M94.5399 34.5701C93.8399 34.7301 93.1499 34.8801 92.4799 35.0701C91.7999 35.2601 91.1499 35.4901 90.5099 35.7701C89.8699 36.0501 89.2399 36.3701 88.5999 36.6901C87.9599 37.0101 87.3099 37.3201 86.6599 37.6101C86.5699 37.6501 86.4599 37.6101 86.4199 37.5201C86.3799 37.4401 86.4199 37.3401 86.4899 37.2901C87.0999 36.9201 87.7099 36.5501 88.3299 36.1901C88.9499 35.8401 89.5899 35.4901 90.2599 35.2001C90.9299 34.9101 91.6299 34.6801 92.3399 34.5201C93.0499 34.3601 93.7699 34.2601 94.4899 34.2001C94.5899 34.1901 94.6799 34.2701 94.6799 34.3701C94.6899 34.4701 94.6199 34.5501 94.5399 34.5701Z"
    fill="#8C95A6"
  />
  <path
    d="M78.44 35.14C78.39 35.42 78.28 35.64 78.15 35.85C78.02 36.06 77.89 36.28 77.76 36.49L77.38 37.14C77.26 37.36 77.13 37.58 76.99 37.8C76.94 37.89 76.82 37.91 76.74 37.86C76.67 37.82 76.64 37.74 76.66 37.67C76.72 37.41 76.79 37.16 76.88 36.91C76.97 36.66 77.07 36.42 77.19 36.18C77.3 35.94 77.44 35.71 77.57 35.49C77.71 35.27 77.89 35.06 78.14 34.92C78.24 34.87 78.36 34.9 78.41 35C78.44 35.04 78.45 35.09 78.44 35.14Z"
    fill="#8C95A6"
  />
  <path
    d="M75.03 34.12C75.13 34.42 75.14 34.72 75.11 35C75.07 35.28 75 35.56 74.94 35.83L74.75 36.62C74.69 36.88 74.64 37.14 74.6 37.41V37.42C74.59 37.52 74.49 37.59 74.39 37.58C74.32 37.57 74.26 37.52 74.24 37.46C74.14 37.17 74.1 36.87 74.09 36.57C74.09 36.27 74.11 35.98 74.15 35.69C74.19 35.41 74.24 35.13 74.31 34.86C74.38 34.59 74.48 34.33 74.66 34.08C74.72 33.99 74.85 33.97 74.94 34.03C75 34.05 75.02 34.09 75.03 34.12Z"
    fill="#8C95A6"
  />
  <path
    d="M71.84 34.53C72.01 34.62 72.03 34.73 72.04 34.84L72.1 35.18L72.22 35.86C72.29 36.31 72.37 36.77 72.41 37.23C72.42 37.33 72.35 37.42 72.25 37.43C72.17 37.44 72.1 37.39 72.07 37.32C71.89 36.89 71.75 36.44 71.63 35.99C71.57 35.76 71.51 35.54 71.47 35.31L71.4 34.96C71.37 34.85 71.36 34.73 71.49 34.59C71.57 34.49 71.72 34.47 71.84 34.53Z"
    fill="#8C95A6"
  />
  <path
    d="M47.32 35.36C46.74 36.21 46.15 37.07 45.57 37.92C45.41 38.15 45.19 38.41 44.91 38.38C44.69 38.35 44.55 38.15 44.43 37.97C43.97 37.28 43.65 36.1 43.57 35.34C43.51 34.76 43.42 32.98 43.77 32.79C44.3 32.51 45.64 33.22 46.38 33.59C46.64 33.72 47.36 34.09 47.54 34.36C47.75 34.69 47.51 35.09 47.32 35.36Z"
    fill="#DC3309"
  />
  <path
    d="M47.61 35.55L46.56 37.15C46.38 37.41 46.21 37.68 46.04 37.95L45.91 38.15C45.86 38.22 45.81 38.3 45.75 38.38C45.69 38.46 45.61 38.54 45.51 38.62C45.41 38.7 45.28 38.77 45.12 38.81C44.96 38.84 44.78 38.83 44.63 38.77C44.48 38.71 44.37 38.62 44.28 38.54C44.11 38.37 44.03 38.23 43.93 38.07C43.75 37.76 43.62 37.44 43.52 37.11C43.32 36.47 43.24 35.79 43.24 35.12C43.24 34.79 43.25 34.47 43.27 34.14C43.29 33.81 43.32 33.49 43.39 33.15C43.41 33.06 43.43 32.98 43.47 32.89C43.49 32.84 43.51 32.8 43.55 32.75C43.57 32.73 43.59 32.7 43.62 32.67C43.64 32.66 43.65 32.65 43.67 32.64C43.69 32.63 43.7 32.63 43.71 32.62C43.92 32.54 44.11 32.55 44.28 32.57C44.63 32.62 44.93 32.73 45.24 32.84C45.55 32.95 45.85 33.07 46.14 33.21C46.43 33.34 46.72 33.47 47.01 33.63C47.16 33.71 47.3 33.79 47.45 33.9C47.52 33.95 47.6 34.01 47.67 34.08C47.71 34.11 47.75 34.16 47.79 34.22C47.82 34.27 47.85 34.33 47.88 34.39C47.93 34.51 47.94 34.64 47.93 34.76C47.92 34.88 47.89 34.98 47.86 35.08C47.79 35.25 47.7 35.41 47.61 35.55ZM47.04 35.17C47.13 35.05 47.21 34.94 47.25 34.83C47.3 34.72 47.31 34.64 47.3 34.58C47.3 34.57 47.29 34.55 47.28 34.54C47.27 34.53 47.26 34.51 47.24 34.49C47.21 34.45 47.15 34.4 47.1 34.36C46.99 34.27 46.86 34.19 46.73 34.11C46.47 33.95 46.19 33.8 45.92 33.64C45.65 33.48 45.37 33.33 45.09 33.2C44.81 33.07 44.52 32.96 44.23 32.92C44.09 32.9 43.95 32.91 43.86 32.96L43.85 32.97C43.85 32.97 43.85 32.97 43.84 32.98C43.83 32.99 43.82 33.02 43.81 33.05C43.79 33.11 43.77 33.18 43.76 33.25C43.71 33.54 43.72 33.85 43.74 34.16C43.76 34.47 43.79 34.78 43.84 35.09C43.86 35.25 43.89 35.39 43.93 35.54C43.97 35.69 44.01 35.83 44.06 35.98C44.15 36.27 44.25 36.56 44.36 36.83C44.47 37.11 44.59 37.37 44.73 37.61C44.8 37.72 44.88 37.86 44.93 37.91C44.96 37.94 44.97 37.95 44.97 37.95C44.97 37.95 44.95 37.95 44.95 37.96C44.94 37.98 45.02 37.94 45.1 37.85C45.14 37.81 45.18 37.76 45.22 37.7L45.36 37.51C45.55 37.25 45.74 37 45.92 36.74L47.04 35.17Z"
    fill="#19212E"
  />
  <path
    d="M93.52 31.81C92.86 32.13 92.18 32.42 91.51 32.7C90.84 32.98 90.17 33.25 89.52 33.56C88.88 33.87 88.27 34.23 87.68 34.64C87.09 35.04 86.52 35.49 85.94 35.93C85.86 35.99 85.75 35.98 85.69 35.9C85.64 35.83 85.64 35.73 85.7 35.67C86.2 35.12 86.74 34.61 87.33 34.15C87.47 34.03 87.63 33.92 87.78 33.82C87.93 33.71 88.09 33.61 88.25 33.51C88.57 33.31 88.9 33.13 89.24 32.97C89.92 32.65 90.61 32.39 91.31 32.15C92 31.91 92.7 31.69 93.4 31.48C93.5 31.45 93.6 31.51 93.62 31.6C93.64 31.68 93.6 31.77 93.52 31.81Z"
    fill="#8C95A6"
  />
  <path
    d="M70.33 15.95C70.36 15.98 70.38 16.02 70.41 16.05C70.53 16.21 70.65 16.41 70.59 16.59C70.53 16.78 70.3 16.87 70.1 16.91C69.77 16.98 69.43 17.01 69.1 17.04C68.09 17.11 67.07 17.16 66.06 17.19C65.96 17.19 65.86 17.18 65.78 17.11C65.63 16.98 65.67 16.74 65.72 16.58C65.81 16.28 66.01 15.67 66.13 15.37C66.27 15 66.4 14.28 66.49 13.53C66.53 13.18 66.82 12.84 67.22 13.08C67.53 13.27 67.82 13.51 68.1 13.74C68.9 14.42 69.68 15.13 70.33 15.95Z"
    fill="#DC3309"
  />
  <path
    d="M70.72 15.6501C70.81 15.7701 70.94 15.9201 71.03 16.1801C71.08 16.3101 71.11 16.4901 71.06 16.6701C71.02 16.8501 70.91 17.0201 70.78 17.1201C70.66 17.2201 70.54 17.2801 70.43 17.3201C70.33 17.3601 70.22 17.3801 70.14 17.4001C69.97 17.4301 69.81 17.4601 69.64 17.4701C69.31 17.5001 69.01 17.5201 68.7 17.5401L67.78 17.5901L66.86 17.6201L66.4 17.6301H66.17H66.05C65.99 17.6301 65.92 17.6301 65.85 17.6101C65.78 17.6001 65.7 17.5701 65.61 17.5301C65.52 17.4801 65.44 17.4101 65.39 17.3401C65.27 17.1801 65.24 17.0101 65.24 16.8801C65.24 16.7501 65.26 16.6401 65.29 16.5301L65.31 16.4601L65.33 16.4001L65.37 16.2901C65.47 16.0001 65.58 15.7101 65.69 15.4101L65.73 15.3001L65.77 15.2001C65.8 15.1401 65.82 15.0801 65.84 15.0101C65.88 14.8801 65.92 14.7401 65.96 14.5901C66.02 14.3001 66.07 14.0101 66.1 13.7101L66.12 13.4801C66.13 13.3701 66.16 13.2601 66.21 13.1501C66.26 13.0401 66.32 12.9401 66.42 12.8501C66.51 12.7601 66.65 12.6701 66.8 12.6401C66.95 12.6101 67.11 12.6301 67.23 12.6701C67.29 12.6901 67.35 12.7201 67.4 12.7501L67.51 12.8101C67.65 12.8901 67.79 12.9901 67.92 13.0801C68.19 13.2701 68.43 13.4501 68.67 13.6401C68.92 13.8301 69.16 14.0301 69.4 14.2401C69.64 14.4501 69.87 14.6601 70.09 14.9001C70.32 15.1401 70.52 15.3901 70.72 15.6501ZM69.94 16.2501C69.76 16.0301 69.56 15.8101 69.35 15.6001C69.15 15.3901 68.94 15.1801 68.73 14.9701C68.52 14.7601 68.3 14.5501 68.08 14.3501C67.86 14.1401 67.64 13.9301 67.42 13.7501C67.31 13.6601 67.2 13.5701 67.09 13.4901L67.01 13.4301C67 13.4201 66.98 13.4101 66.97 13.4101C66.95 13.4001 66.95 13.4001 66.95 13.3901C66.95 13.3901 66.95 13.3801 66.93 13.4001C66.91 13.4101 66.89 13.4401 66.87 13.4701C66.85 13.5001 66.84 13.5401 66.83 13.5801L66.81 13.8001C66.76 14.1101 66.72 14.4201 66.66 14.7301C66.63 14.8901 66.61 15.0401 66.57 15.2101C66.55 15.2901 66.53 15.3701 66.5 15.4601L66.43 15.6801C66.34 15.9601 66.25 16.2601 66.17 16.5401L66.14 16.6501L66.12 16.7001L66.11 16.7401C66.1 16.7901 66.1 16.8301 66.1 16.8501C66.1 16.8701 66.11 16.8601 66.08 16.8201C66.07 16.8001 66.05 16.7901 66.03 16.7801C66.01 16.7701 66.01 16.7701 66.01 16.7701C66.01 16.7701 66.02 16.7701 66.04 16.7701H66.15L66.38 16.7601L66.84 16.7401L67.75 16.6901L68.66 16.6301C68.96 16.6101 69.27 16.5901 69.55 16.5501C69.69 16.5301 69.83 16.5101 69.96 16.4801C70.03 16.4701 70.07 16.4501 70.11 16.4401C70.15 16.4301 70.17 16.4101 70.16 16.4101C70.16 16.4101 70.13 16.4401 70.12 16.4801C70.11 16.5201 70.12 16.5401 70.11 16.5201C70.1 16.4701 70.04 16.3701 69.94 16.2501Z"
    fill="#19212E"
  />
</svg>
