<svg viewBox="0 0 136 104" fill="none" xmlns="http://www.w3.org/2000/svg">
  <rect width="136" height="104" fill="white" />
  <path
    d="M9.23006 92.4801L12.9001 92.4301L16.5701 92.4001L23.9201 92.3301L38.6101 92.2401C43.5101 92.2001 48.4101 92.2101 53.3001 92.2001L68.0001 92.1801L82.6901 92.2101L90.0401 92.2201L93.7101 92.2301L97.3801 92.2501L112.07 92.34L119.42 92.4101L123.09 92.4501L126.76 92.5001C126.91 92.5001 127.03 92.6301 127.03 92.7801C127.03 92.9301 126.91 93.0501 126.76 93.0501L123.09 93.1001L119.42 93.1401L112.07 93.2101L97.3801 93.3001L93.7101 93.3201L90.0401 93.3301L82.6901 93.34L68.0001 93.3301L53.3101 93.3001C48.4101 93.2901 43.5101 93.2901 38.6201 93.2601L23.9301 93.1701L16.5801 93.1001L12.9101 93.0701L9.24006 93.0201C9.09006 93.0201 8.97007 92.8901 8.97007 92.7401C8.96007 92.6001 9.08006 92.4901 9.23006 92.4801Z"
    fill="#19212E"
  />
  <path
    d="M78.36 86.85C80.09 88.04 82.46 88.24 84.36 87.34C84.97 87.05 85.53 86.66 86.15 86.4C86.77 86.14 87.5 86.03 88.11 86.31C89.12 86.77 89.41 88.19 88.93 89.19C88.45 90.19 87.43 90.83 86.38 91.21C83.44 92.29 79.95 91.71 77.52 89.73L78.36 86.85Z"
    fill="white"
  />
  <path
    d="M78.4699 86.69C79.4099 87.19 80.4499 87.43 81.4699 87.42C81.9799 87.42 82.4799 87.35 82.9699 87.22C83.0899 87.19 83.2099 87.15 83.3299 87.11C83.4499 87.08 83.5599 87.03 83.6799 86.98C83.7999 86.94 83.8999 86.88 84.0199 86.83C84.1299 86.78 84.2399 86.72 84.3499 86.66C84.7999 86.41 85.2599 86.09 85.8299 85.83C86.1199 85.7 86.4299 85.59 86.7599 85.53C87.0899 85.47 87.4499 85.45 87.8199 85.51C88.1799 85.57 88.5599 85.73 88.8699 85.97C89.1799 86.21 89.4099 86.52 89.5699 86.85C89.7299 87.18 89.8099 87.53 89.8399 87.88C89.8699 88.23 89.8399 88.58 89.7599 88.92C89.7199 89.09 89.6599 89.26 89.5799 89.42C89.5099 89.58 89.4299 89.72 89.3299 89.87C89.1499 90.15 88.9299 90.4 88.6899 90.62C88.2099 91.05 87.6699 91.37 87.1199 91.6C86.8399 91.72 86.5599 91.82 86.2799 91.9C85.9999 92 85.7099 92.05 85.4299 92.12C85.2899 92.15 85.1399 92.17 84.9999 92.19L84.7799 92.22L84.5599 92.24C84.4099 92.25 84.2699 92.27 84.1199 92.28L83.6799 92.29C83.0999 92.29 82.5199 92.25 81.9499 92.14C81.6599 92.1 81.3899 92.02 81.1099 91.95C80.9699 91.91 80.8299 91.87 80.6999 91.82C80.6299 91.8 80.5599 91.78 80.4999 91.75L80.2999 91.67C79.2199 91.27 78.2399 90.66 77.4099 89.88L77.6599 89.57C79.4399 90.78 81.5799 91.33 83.6399 91.19L84.0299 91.16C84.1599 91.15 84.2899 91.12 84.4099 91.1L84.5999 91.07L84.7899 91.03C84.9199 91 85.0399 90.98 85.1699 90.95C85.4099 90.88 85.6599 90.82 85.8999 90.72C86.1399 90.64 86.3799 90.55 86.5999 90.44C87.0499 90.23 87.4599 89.97 87.7899 89.65C87.9499 89.49 88.0899 89.32 88.2099 89.14C88.2699 89.05 88.3199 88.95 88.3599 88.86C88.3999 88.77 88.4299 88.68 88.4499 88.59C88.5399 88.21 88.4999 87.77 88.3399 87.44C88.2599 87.27 88.1499 87.14 88.0299 87.04C87.9099 86.94 87.7599 86.87 87.5899 86.84C87.2399 86.77 86.7899 86.85 86.3699 87.03C85.9299 87.21 85.4699 87.49 84.9399 87.75C82.7599 88.84 80.0199 88.52 78.2699 87.02L78.4699 86.69Z"
    fill="#19212E"
  />
  <path
    d="M74.78 69.62C77.89 72.4 84.22 76.09 87.83 78.19C89.5 79.16 91.29 80.07 93.21 80.12C95.14 80.17 97.22 79.09 97.74 77.24C98.08 76 97.68 74.64 96.92 73.6C96.17 72.56 95.1 71.78 94.02 71.09C91.47 69.47 79.91 65.39 77.01 64.54L74.78 69.62Z"
    fill="white"
  />
  <path
    d="M74.9601 69.42C75.8301 70.08 76.7501 70.69 77.6701 71.28C78.1301 71.58 78.6001 71.87 79.0701 72.15C79.5401 72.44 80.0101 72.72 80.4801 73.01C82.3701 74.14 84.2901 75.23 86.2001 76.33L87.6401 77.15C88.1201 77.43 88.6001 77.7 89.0701 77.95C90.0101 78.46 90.9601 78.9 91.9301 79.13C92.4101 79.25 92.9101 79.31 93.3801 79.31C93.8501 79.31 94.3201 79.23 94.7701 79.08C95.2201 78.93 95.6401 78.72 96.0001 78.45C96.3601 78.18 96.6601 77.84 96.8501 77.46C97.2501 76.71 97.2001 75.75 96.8401 74.87C96.4901 73.99 95.8101 73.22 95.0001 72.56C94.6001 72.23 94.1701 71.91 93.7201 71.61C93.3001 71.34 92.8101 71.09 92.3301 70.85C91.3501 70.38 90.3401 69.94 89.3301 69.51C87.3001 68.65 85.2401 67.85 83.1801 67.06C82.1501 66.66 81.1101 66.28 80.0801 65.9C79.0401 65.52 78.0001 65.14 76.9601 64.79L77.1101 64.27C79.2601 64.87 81.3601 65.56 83.4701 66.26C85.5701 66.97 87.6601 67.71 89.7401 68.51C90.7801 68.91 91.8101 69.33 92.8401 69.79C93.3501 70.03 93.8601 70.26 94.3901 70.58C94.8701 70.87 95.3601 71.18 95.8301 71.53C96.3001 71.88 96.7501 72.28 97.1501 72.74C97.5501 73.19 97.9201 73.72 98.1701 74.3C98.4301 74.87 98.6101 75.51 98.6301 76.17C98.6601 76.83 98.5301 77.52 98.2301 78.14C97.9401 78.76 97.4901 79.28 96.9801 79.68C96.4701 80.09 95.8901 80.39 95.2901 80.59C94.6901 80.79 94.0601 80.9 93.4101 80.91C92.7801 80.91 92.1601 80.84 91.5701 80.69C90.3801 80.41 89.3001 79.91 88.3101 79.36C87.8101 79.09 87.3301 78.79 86.8501 78.51C86.3701 78.23 85.9001 77.94 85.4201 77.65C83.5201 76.5 81.6501 75.3 79.8201 74.02C78.9101 73.38 78.0101 72.72 77.1301 72.02C76.9101 71.84 76.6901 71.67 76.4801 71.49L75.8401 70.94C75.6301 70.75 75.4201 70.56 75.2201 70.37L74.6201 69.78L74.9601 69.42Z"
    fill="#19212E"
  />
  <path
    d="M58.72 4.38C56.21 4.4 54.38 6.37 52.89 8.21C52.52 8.67 52.16 9.15 51.81 9.63C48.76 13.89 46.29 18.63 43.98 23.32C43.08 25.14 42.22 26.98 41.37 28.83C38.76 34.56 34.94 41.27 38.88 47.28C42.28 52.46 48.41 55.11 54.06 57.06C54.15 57.09 54.24 57.12 54.33 57.15C61.55 59.6 69.15 61.13 76.74 61.78C82.2 62.25 89.15 63.39 93.77 59.55C98.46 55.66 99.21 48.06 99.28 42.42C99.32 39.31 99.09 36.19 98.7 33.1C98.21 29.17 97.66 25.1 96.93 21.15C96.55 19.1 96.12 17.06 95.62 15.03C95.24 13.49 94.94 11.58 93.45 10.7C92.08 9.9 90.73 10.94 89.54 11.59C87.14 12.9 84.8 14.39 82.57 15.97C80.99 17.09 79.41 17.57 77.43 17.26C73.82 16.7 69.18 16.57 67.83 14.65C66.13 12.23 64.77 9.59 62.9 7.28C61.84 5.97001 60.55 4.38 58.73 4.38C58.74 4.38 58.73 4.38 58.72 4.38Z"
    fill="white"
  />
  <path
    d="M58.7201 4.77C58.2301 4.78 57.75 4.87 57.2901 5.04C56.8301 5.2 56.39 5.44 55.98 5.72C55.15 6.29 54.45 7.04 53.78 7.84C53.61 8.04 53.4501 8.24 53.2901 8.45C53.1301 8.66 52.98 8.87 52.82 9.08C52.51 9.5 52.2 9.91 51.91 10.35C51.33 11.21 50.7601 12.1 50.2201 13C49.6801 13.9 49.1501 14.81 48.6501 15.73C48.1401 16.65 47.66 17.58 47.17 18.52C46.69 19.45 46.22 20.4 45.75 21.34C45.29 22.29 44.81 23.23 44.37 24.19L41.67 29.92C41.22 30.88 40.7601 31.83 40.3301 32.79C39.8901 33.74 39.4801 34.7 39.11 35.67C38.74 36.64 38.43 37.62 38.19 38.61C38.08 39.11 37.98 39.61 37.91 40.11C37.84 40.61 37.81 41.11 37.8 41.62C37.76 43.63 38.34 45.61 39.5 47.28L39.93 47.91L40.41 48.51C40.49 48.61 40.5701 48.71 40.6501 48.81L40.91 49.09C41.09 49.28 41.2501 49.47 41.43 49.66C41.8 50.02 42.1601 50.39 42.5601 50.72L42.85 50.97C42.95 51.06 43.0501 51.14 43.1501 51.22L43.7701 51.7C44.6101 52.31 45.4801 52.89 46.4001 53.4C46.8501 53.67 47.32 53.9 47.78 54.14L48.4901 54.48L48.84 54.65L49.2001 54.81C51.1101 55.67 53.09 56.41 55.09 57.07C57.09 57.73 59.12 58.33 61.16 58.84C63.2001 59.36 65.27 59.78 67.35 60.14C69.43 60.5 71.5201 60.79 73.6101 61.01C74.1301 61.07 74.66 61.11 75.18 61.16L76.75 61.29C77.8101 61.37 78.87 61.47 79.92 61.55C82.02 61.72 84.11 61.82 86.17 61.65C86.68 61.61 87.19 61.54 87.7 61.46C88.2 61.37 88.7001 61.27 89.1901 61.14C89.6801 61 90.1601 60.85 90.6201 60.66C91.0801 60.47 91.5401 60.25 91.96 60C92.39 59.74 92.8 59.47 93.18 59.15L93.32 59.03L93.46 58.91L93.74 58.66C93.91 58.48 94.1001 58.31 94.2601 58.13C94.93 57.4 95.49 56.56 95.96 55.67C96.89 53.88 97.46 51.89 97.82 49.87C98.18 47.84 98.34 45.76 98.39 43.68C98.41 42.64 98.4201 41.59 98.4001 40.55C98.3801 39.51 98.32 38.46 98.25 37.42C98.18 36.38 98.0801 35.33 97.9701 34.29L97.6 31.15C97.35 29.05 97.11 26.96 96.84 24.87C96.57 22.78 96.2701 20.69 95.9001 18.62C95.7101 17.58 95.5201 16.55 95.2901 15.52C95.05 14.48 94.89 13.43 94.5 12.52C94.3101 12.06 94.04 11.65 93.7 11.33L93.6 11.22C93.56 11.18 93.51 11.14 93.46 11.11L93.31 11.01C93.26 10.98 93.2101 10.96 93.1601 10.93C93.0601 10.87 92.96 10.85 92.85 10.81C92.74 10.79 92.64 10.76 92.52 10.76C92.08 10.72 91.6101 10.87 91.1601 11.08C90.7001 11.29 90.2601 11.57 89.7901 11.83C87.93 12.83 86.1301 13.93 84.3701 15.09C83.9301 15.38 83.49 15.68 83.06 15.98L82.74 16.21C82.63 16.29 82.5201 16.36 82.4001 16.44C82.1701 16.59 81.9401 16.73 81.6901 16.85C81.2001 17.1 80.6901 17.31 80.1501 17.45C79.6101 17.58 79.0601 17.65 78.5101 17.64C78.3701 17.63 78.23 17.63 78.1 17.62C77.96 17.61 77.8301 17.6 77.6901 17.58C77.4101 17.55 77.16 17.5 76.9001 17.47C76.3801 17.4 75.8601 17.33 75.3301 17.26C74.2801 17.13 73.23 17.01 72.17 16.83C71.64 16.74 71.12 16.64 70.59 16.5C70.07 16.36 69.55 16.2 69.0401 15.96C68.7901 15.84 68.54 15.7 68.31 15.54C68.08 15.37 67.86 15.17 67.67 14.94C67.57 14.82 67.51 14.71 67.43 14.6L67.2 14.27C67.05 14.05 66.9001 13.83 66.7601 13.61C65.5901 11.83 64.53 10 63.28 8.33C62.97 7.91 62.6401 7.51 62.3101 7.1C61.9801 6.7 61.6401 6.31 61.2701 5.96C60.9 5.62 60.5101 5.3 60.0801 5.09C59.6501 4.88 59.1901 4.76 58.7201 4.77ZM58.7201 4C59.3101 4 59.91 4.16 60.42 4.43C60.94 4.69 61.38 5.06 61.78 5.44C62.18 5.82 62.53 6.24 62.87 6.65C63.2 7.06 63.54 7.49 63.85 7.92C65.11 9.65 66.1601 11.51 67.3001 13.27C67.4401 13.49 67.5901 13.71 67.7301 13.93L67.95 14.26C68.02 14.36 68.1 14.49 68.17 14.57C68.31 14.75 68.48 14.91 68.68 15.06C68.8801 15.2 69.09 15.32 69.32 15.43C69.7701 15.65 70.2601 15.81 70.7601 15.94C71.2601 16.07 71.7701 16.18 72.2901 16.27C73.32 16.45 74.37 16.58 75.42 16.71C75.95 16.78 76.4701 16.84 77 16.92C77.26 16.96 77.53 17 77.78 17.03C77.91 17.05 78.0301 17.05 78.1601 17.07C78.2901 17.08 78.41 17.08 78.5401 17.09C79.05 17.09 79.55 17.04 80.0401 16.91C80.5301 16.79 81 16.6 81.45 16.36C81.68 16.24 81.9001 16.11 82.1101 15.97C82.2201 15.9 82.32 15.83 82.43 15.75L82.7601 15.52C83.2001 15.22 83.6301 14.91 84.07 14.62C85.83 13.43 87.64 12.31 89.5 11.28C89.9501 11.03 90.4001 10.74 90.9001 10.5C91.1501 10.38 91.42 10.27 91.7 10.2C91.98 10.12 92.29 10.08 92.59 10.1C92.74 10.1 92.9001 10.14 93.0501 10.17C93.1901 10.22 93.3501 10.26 93.4801 10.34C93.7601 10.47 93.9901 10.65 94.2201 10.84C94.66 11.24 94.98 11.73 95.21 12.24C95.4501 12.75 95.6101 13.28 95.75 13.8L96.1601 15.34C96.4301 16.37 96.7001 17.4 96.9401 18.43C97.4401 20.5 97.88 22.58 98.28 24.67C98.67 26.76 99.0101 28.86 99.3001 30.96C99.4501 32.01 99.59 33.06 99.71 34.12C99.83 35.18 99.93 36.25 100.01 37.32C100.16 39.45 100.21 41.61 100.13 43.75C100.09 44.82 100.02 45.9 99.9101 46.97C99.8001 48.04 99.64 49.12 99.43 50.18C99.2201 51.25 98.95 52.3 98.59 53.34C98.24 54.38 97.8 55.4 97.27 56.37C96.73 57.34 96.0801 58.26 95.3001 59.07C95.1101 59.28 94.9 59.47 94.7 59.66L94.38 59.94L94.2201 60.08L94.0501 60.21C93.6101 60.56 93.1301 60.87 92.6501 61.14C92.16 61.42 91.65 61.65 91.13 61.85C90.61 62.05 90.0801 62.21 89.5401 62.35C89 62.48 88.46 62.59 87.92 62.67C87.38 62.74 86.84 62.8 86.2901 62.84C84.12 62.98 81.98 62.82 79.8601 62.61L76.7 62.28L75.1101 62.11C74.5801 62.04 74.05 61.99 73.53 61.92C71.42 61.64 69.32 61.3 67.24 60.9C65.15 60.5 63.08 60.02 61.03 59.49C58.98 58.95 56.93 58.36 54.92 57.69C53.9 57.35 52.9001 57 51.9001 56.64C50.9001 56.27 49.91 55.88 48.94 55.45L48.57 55.29L48.21 55.12L47.48 54.78C47 54.54 46.52 54.31 46.05 54.05C45.1 53.55 44.19 52.98 43.3 52.37L42.6501 51.9C42.5401 51.82 42.4301 51.74 42.3301 51.65L42.01 51.4C41.58 51.07 41.1901 50.69 40.7901 50.33C40.5901 50.14 40.4101 49.94 40.2201 49.75L39.94 49.46C39.85 49.36 39.76 49.25 39.67 49.15L39.14 48.53L38.66 47.87C38.01 46.99 37.4801 45.98 37.1301 44.92C36.9501 44.39 36.8201 43.84 36.7201 43.29C36.6801 43.01 36.63 42.74 36.62 42.46C36.61 42.32 36.59 42.18 36.59 42.04L36.5801 41.62C36.5701 41.06 36.59 40.51 36.66 39.96C36.71 39.41 36.81 38.87 36.92 38.33C37.15 37.26 37.4601 36.21 37.8301 35.2C38.2001 34.18 38.6001 33.19 39.0401 32.21C39.4701 31.23 39.93 30.27 40.37 29.32C40.8 28.37 41.2601 27.4 41.7201 26.44L43.09 23.56C44.96 19.76 46.9801 15.99 49.3101 12.42C49.8901 11.53 50.5 10.65 51.12 9.78C51.43 9.34 51.77 8.93 52.1 8.5C52.27 8.29 52.43 8.07 52.6 7.87C52.77 7.66 52.95 7.46 53.12 7.26C53.83 6.45 54.6101 5.67 55.5401 5.05C56.01 4.74 56.51 4.48 57.05 4.3C57.57 4.1 58.1401 4 58.7201 4Z"
    fill="#19212E"
  />
  <path
    d="M81 46.18C79.35 47.05 78.11 48.68 77.74 50.51C77.24 52.94 78.34 55.64 80.43 56.98C82.34 58.21 84.96 58.25 86.9 57.06C88.84 55.88 90.01 53.54 89.8 51.27C89.39 47.06 84.83 44.17 81 46.18Z"
    fill="#FFEBE6"
  />
  <path
    d="M81.4099 51.0699C82.3799 51.0899 83.3499 51.1599 84.3099 51.2799L85.0299 51.3799L85.7499 51.4899L86.4699 51.6199L87.1799 51.7699C88.1299 51.9699 89.0699 52.2199 89.9999 52.5099C90.9299 52.8099 91.8399 53.1399 92.7199 53.5499C92.8099 53.5899 92.8499 53.6999 92.8099 53.7899C92.7699 53.8699 92.6799 53.9099 92.5999 53.8899C91.6699 53.6299 90.7499 53.3599 89.8299 53.1099C88.9099 52.8599 87.9799 52.6299 87.0399 52.4199C86.5699 52.3199 86.0999 52.2199 85.6399 52.1299L84.9299 51.9999L84.2199 51.8699C83.2799 51.7099 82.3299 51.5699 81.3699 51.4399C81.2699 51.4299 81.1999 51.3399 81.2099 51.2399C81.2399 51.1299 81.3199 51.0699 81.4099 51.0699Z"
    fill="#8C95A6"
  />
  <path
    d="M81.07 52.98C81.94 53.14 82.8 53.36 83.64 53.61L84.27 53.81L84.9 54.03L85.52 54.26L86.14 54.5C86.96 54.83 87.76 55.21 88.54 55.62C89.32 56.04 90.08 56.49 90.8 57C90.88 57.06 90.9 57.17 90.84 57.25C90.79 57.32 90.69 57.35 90.61 57.31C89.83 56.92 89.05 56.53 88.26 56.16C87.48 55.79 86.68 55.43 85.88 55.09C85.48 54.92 85.08 54.76 84.67 54.6L84.06 54.37L83.45 54.15C82.63 53.86 81.8 53.58 80.97 53.33C80.87 53.3 80.82 53.2 80.85 53.1C80.89 53.01 80.98 52.96 81.07 52.98Z"
    fill="#8C95A6"
  />
  <path
    d="M62.2801 53.37C62.5101 52.98 62.6801 52.53 62.8701 52.06C63.0601 51.59 63.2401 51.09 63.5201 50.61C63.6101 50.45 63.7701 50.37 63.9401 50.37C64.4501 50.39 64.9501 50.46 65.4301 50.55C65.9201 50.64 66.4001 50.74 66.8701 50.86C67.8201 51.1 68.7601 51.38 69.6801 51.71C69.9601 51.81 70.1101 52.13 70.0101 52.41C69.9101 52.69 69.5901 52.84 69.3101 52.74C69.3001 52.74 69.3001 52.74 69.2901 52.73C68.4201 52.38 67.5101 52.08 66.6101 51.82C66.1601 51.69 65.7001 51.57 65.2401 51.47C64.7801 51.37 64.3201 51.29 63.8701 51.26L64.2901 51.02C64.0901 51.44 63.9501 51.9 63.8001 52.39C63.6501 52.87 63.5001 53.38 63.2501 53.9C63.1201 54.18 62.7801 54.3 62.5001 54.16C62.2201 54.03 62.1001 53.69 62.2401 53.41C62.2601 53.4 62.2701 53.38 62.2801 53.37Z"
    fill="#19212E"
  />
  <path
    d="M81.3 49.3301C82.37 49.1101 83.46 48.9801 84.55 48.9001C85.1 48.8601 85.64 48.8401 86.19 48.8201L87.01 48.8101H87.83C88.92 48.8201 90.02 48.8601 91.11 48.9501C92.2 49.0401 93.29 49.1501 94.37 49.3201C94.47 49.3401 94.54 49.4301 94.52 49.5301C94.51 49.6201 94.43 49.6801 94.34 49.6801C93.25 49.6601 92.17 49.6201 91.09 49.6101C90.01 49.5901 88.93 49.5901 87.84 49.6001L87.03 49.6101L86.22 49.6301L85.41 49.6501C85.14 49.6601 84.87 49.6701 84.6 49.6701C83.52 49.6901 82.44 49.7201 81.34 49.7001C81.24 49.7001 81.16 49.6101 81.16 49.5101C81.15 49.4201 81.21 49.3401 81.3 49.3301Z"
    fill="#8C95A6"
  />
  <path
    d="M62.2999 46.36C62.2199 46.12 62.2699 45.84 62.4499 45.67C62.6899 45.44 63.1899 45.54 63.4799 45.6C64.0499 45.72 64.6099 45.67 65.1799 45.82C65.8199 45.99 65.9399 46.58 65.5999 46.97C65.2599 47.36 64.3599 48.4 63.8799 48.21C63.2599 47.97 62.4799 46.91 62.2999 46.36Z"
    fill="#19212E"
  />
  <path
    d="M62.0999 46.42C62.0199 46.17 62.0399 45.89 62.1899 45.65C62.2299 45.59 62.2699 45.54 62.3299 45.49C62.3899 45.44 62.4599 45.4 62.5199 45.37C62.6499 45.31 62.7799 45.3 62.8999 45.3C63.1399 45.29 63.3499 45.33 63.5499 45.37C63.7399 45.4 63.9299 45.42 64.1299 45.43C64.3299 45.44 64.5299 45.45 64.7499 45.47C64.8599 45.48 64.9599 45.5 65.0699 45.52C65.1799 45.54 65.28 45.57 65.41 45.61C65.53 45.66 65.6399 45.72 65.7499 45.82C65.8499 45.91 65.9399 46.03 65.9899 46.16C66.0399 46.29 66.0599 46.44 66.0299 46.57C65.9999 46.7 65.9499 46.83 65.8699 46.93C65.8299 46.98 65.7899 47.02 65.7399 47.06L65.6199 47.16C65.5399 47.23 65.4699 47.3 65.3899 47.37C65.2399 47.51 65.0999 47.66 64.9499 47.8C64.7999 47.94 64.6399 48.07 64.4599 48.19C64.3699 48.25 64.27 48.3 64.16 48.33C64.1 48.35 64.0399 48.35 63.9799 48.35C63.9099 48.35 63.8499 48.32 63.7999 48.3C63.5899 48.21 63.4199 48.09 63.2599 47.95C63.0999 47.81 62.9499 47.66 62.8099 47.51C62.6699 47.35 62.5399 47.19 62.4299 47.01C62.2899 46.82 62.1799 46.64 62.0999 46.42ZM62.5099 46.29C62.5599 46.45 62.6499 46.63 62.7399 46.8C62.8399 46.97 62.9399 47.13 63.0599 47.29C63.1799 47.45 63.2999 47.6 63.4399 47.74C63.5799 47.88 63.7199 48.01 63.8799 48.09C63.9199 48.11 63.9499 48.13 63.9899 48.13C64.0299 48.13 64.0699 48.13 64.1099 48.13C64.1899 48.12 64.2799 48.08 64.3599 48.03C64.5299 47.94 64.6799 47.81 64.8299 47.68C64.9699 47.54 65.1199 47.4 65.2499 47.25C65.3099 47.17 65.3699 47.09 65.4299 47C65.4599 46.96 65.4899 46.91 65.5099 46.87C65.5299 46.83 65.5499 46.79 65.5599 46.75C65.5999 46.59 65.5799 46.45 65.5199 46.35C65.4899 46.3 65.4499 46.25 65.3999 46.21C65.3499 46.17 65.2799 46.14 65.2199 46.11C65.1799 46.1 65.1499 46.09 65.1099 46.08C65.0699 46.07 65.0199 46.06 64.9699 46.05C64.8799 46.03 64.7899 46.02 64.6899 46.01C64.4999 45.99 64.2999 45.97 64.0999 45.95C63.8999 45.93 63.6799 45.9 63.4699 45.85C63.2699 45.8 63.0899 45.77 62.9199 45.76C62.8399 45.76 62.7599 45.77 62.6999 45.79C62.6699 45.8 62.6499 45.81 62.6299 45.83C62.6099 45.85 62.5899 45.87 62.5699 45.9C62.4899 46 62.4699 46.16 62.5099 46.29Z"
    fill="#19212E"
  />
  <path
    d="M64.1801 46.6099C64.1901 46.9699 64.1701 47.3299 64.1401 47.6799L64.0601 48.7299C64.0301 49.0799 64.0201 49.4199 64.0201 49.7599C64.0201 50.0999 64.0401 50.4299 64.1101 50.7399V50.7599C64.1401 50.8699 64.0601 50.9899 63.9501 51.0099C63.8601 51.0299 63.7701 50.9899 63.7201 50.9099C63.5101 50.5599 63.4401 50.1699 63.3901 49.7999C63.3501 49.4299 63.3501 49.0599 63.3701 48.6899C63.3901 48.3199 63.4401 47.9599 63.5101 47.6099C63.5701 47.2499 63.6601 46.8999 63.7601 46.5599C63.7901 46.4499 63.9101 46.3799 64.0301 46.4199C64.1201 46.4399 64.1701 46.5199 64.1801 46.6099Z"
    fill="#19212E"
  />
  <path
    d="M42.98 36.6201C41.33 37.4901 40.09 39.1201 39.72 40.9501C39.22 43.3801 40.32 46.08 42.41 47.42C44.32 48.65 46.94 48.6901 48.88 47.5001C50.82 46.3201 51.99 43.9801 51.78 41.7101C51.37 37.5001 46.82 34.6101 42.98 36.6201Z"
    fill="#FFEBE6"
  />
  <path
    d="M39.55 46.41C40.15 46.17 40.76 45.96 41.37 45.78C41.68 45.69 41.99 45.6 42.3 45.52C42.61 45.44 42.93 45.37 43.25 45.31C44.52 45.06 45.81 44.93 47.09 44.9C47.19 44.9 47.27 44.98 47.28 45.08C47.28 45.17 47.22 45.25 47.13 45.26C45.87 45.5 44.61 45.67 43.37 45.93C42.75 46.06 42.13 46.2 41.51 46.34C40.89 46.49 40.27 46.64 39.64 46.76C39.54 46.78 39.45 46.72 39.43 46.62C39.42 46.52 39.47 46.44 39.55 46.41Z"
    fill="#8C95A6"
  />
  <path
    d="M38.44 42.35C39.15 42.18 39.86 42.05 40.59 41.98C41.32 41.91 42.06 41.91 42.79 41.98C43.52 42.05 44.24 42.18 44.95 42.32C45.66 42.46 46.36 42.62 47.06 42.79C47.16 42.81 47.22 42.91 47.19 43.01C47.17 43.1 47.09 43.16 47 43.15C46.28 43.09 45.56 42.99 44.85 42.88C44.14 42.78 43.44 42.66 42.73 42.6C42.03 42.53 41.33 42.52 40.62 42.54C39.91 42.57 39.2 42.63 38.49 42.7C38.39 42.71 38.3 42.64 38.29 42.54C38.29 42.45 38.35 42.37 38.44 42.35Z"
    fill="#8C95A6"
  />
  <path
    d="M68.56 43.2C68.61 42.93 68.7 42.73 68.82 42.56C68.93 42.39 69.07 42.26 69.22 42.15C69.37 42.04 69.54 41.97 69.7 41.9C69.87 41.83 70.04 41.76 70.21 41.7C70.9 41.46 71.66 41.35 72.41 41.38C73.16 41.41 73.91 41.59 74.59 41.88C75.27 42.17 75.88 42.63 76.27 43.25C76.3 43.3 76.28 43.36 76.24 43.38C76.22 43.39 76.19 43.4 76.17 43.39C75.81 43.32 75.5 43.22 75.18 43.15C74.87 43.08 74.57 43.01 74.26 42.95C73.96 42.9 73.66 42.87 73.36 42.87C73.06 42.87 72.76 42.9 72.47 42.93C71.88 43.01 71.3 43.15 70.71 43.3C70.56 43.34 70.41 43.38 70.27 43.42C70.12 43.46 69.98 43.52 69.82 43.54C69.66 43.57 69.49 43.57 69.3 43.54C69.11 43.51 68.9 43.47 68.65 43.34C68.57 43.34 68.54 43.27 68.56 43.2Z"
    fill="#19212E"
  />
  <path
    d="M38.63 39.38C39.37 39.36 40.1 39.36 40.84 39.37C41.58 39.38 42.32 39.41 43.07 39.51C43.44 39.56 43.82 39.63 44.18 39.72C44.36 39.77 44.55 39.81 44.73 39.87C44.91 39.92 45.09 39.98 45.27 40.05C45.98 40.31 46.65 40.63 47.3 40.99C47.39 41.04 47.42 41.15 47.37 41.24C47.33 41.32 47.23 41.35 47.15 41.32C46.46 41.08 45.77 40.83 45.08 40.63C44.39 40.43 43.69 40.27 42.98 40.18C42.27 40.08 41.54 40.04 40.81 39.98C40.08 39.92 39.34 39.86 38.61 39.76C38.51 39.75 38.44 39.65 38.46 39.55C38.46 39.45 38.54 39.39 38.63 39.38Z"
    fill="#8C95A6"
  />
  <path
    d="M62.5901 37.17C62.6401 37.58 62.6501 37.99 62.6401 38.38C62.6301 38.77 62.6101 39.16 62.5901 39.55C62.5601 39.94 62.5301 40.32 62.4901 40.71C62.4501 41.1 62.4001 41.5 62.3001 41.9V41.91C62.2001 42.34 61.7701 42.61 61.3401 42.51C61.0501 42.44 60.8401 42.23 60.7601 41.96C60.6401 41.55 60.5701 41.13 60.5301 40.7C60.4901 40.28 60.4801 39.84 60.5101 39.41C60.5301 38.98 60.5901 38.55 60.6801 38.14C60.7701 37.72 60.8901 37.31 61.0801 36.92C61.2701 36.52 61.7501 36.34 62.1501 36.53C62.4101 36.65 62.5701 36.89 62.6101 37.15L62.5901 37.17Z"
    fill="#19212E"
  />
  <path
    d="M69.7401 34.27C69.8301 34.48 69.8501 34.69 69.8601 34.9C69.8701 35.12 69.8701 35.33 69.8701 35.55C69.8701 35.77 69.8701 35.99 69.8501 36.21C69.8401 36.43 69.8101 36.66 69.7701 36.88C69.7501 36.98 69.6601 37.05 69.5601 37.03C69.4801 37.02 69.4301 36.96 69.4101 36.88L69.2801 36.25C69.2401 36.04 69.1901 35.83 69.1601 35.62C69.1201 35.41 69.0801 35.19 69.0401 34.98C69.0001 34.76 68.9801 34.54 69.0401 34.32C69.0901 34.12 69.2901 34.01 69.4901 34.06C69.6101 34.09 69.7001 34.16 69.7401 34.27Z"
    fill="#8C95A6"
  />
  <path
    d="M73.3202 34.79C73.4802 35.1 73.3502 35.31 73.2802 35.54C73.2002 35.76 73.0902 35.98 72.9902 36.2C72.7802 36.64 72.6002 37.09 72.3702 37.53C72.3202 37.62 72.2102 37.65 72.1202 37.61C72.0402 37.57 72.0102 37.49 72.0302 37.41C72.1402 36.94 72.2602 36.48 72.3602 36C72.4102 35.76 72.4502 35.52 72.5302 35.29C72.6202 35.06 72.6502 34.81 72.9802 34.68C73.1102 34.61 73.2502 34.66 73.3202 34.79Z"
    fill="#8C95A6"
  />
  <path
    d="M76.3501 35.8699C76.4201 35.9999 76.4401 36.0899 76.4401 36.1699C76.4401 36.2499 76.4201 36.3099 76.3801 36.3499C76.3101 36.4499 76.2301 36.5299 76.1501 36.6099C75.9801 36.7599 75.7701 36.8799 75.6101 37.0199C75.4501 37.1699 75.3101 37.3299 75.1901 37.4999C75.0701 37.6699 74.9701 37.8599 74.9001 38.0699C74.8701 38.1599 74.7601 38.2099 74.6701 38.1799C74.5901 38.1499 74.5401 38.0699 74.5501 37.9799C74.5801 37.7399 74.6401 37.4899 74.7301 37.2599C74.8201 37.0199 74.9401 36.7999 75.0601 36.5799C75.1801 36.3599 75.2701 36.1299 75.4001 35.9399C75.4601 35.8399 75.5401 35.7599 75.6201 35.6799C75.6601 35.6399 75.7101 35.6099 75.7801 35.5999C75.8501 35.5899 75.9401 35.5899 76.0901 35.6299H76.1001C76.2001 35.6799 76.3001 35.7599 76.3501 35.8699Z"
    fill="#8C95A6"
  />
  <path
    d="M57.7901 27.4701C58.0601 27.5901 58.2501 27.7801 58.4101 27.9901C58.5701 28.2001 58.7201 28.4201 58.8601 28.6501C59.0001 28.8801 59.1201 29.1101 59.2401 29.3501C59.3501 29.5901 59.4501 29.8301 59.5301 30.0901C59.5601 30.1901 59.5101 30.2901 59.4101 30.3201C59.3301 30.3401 59.2501 30.3201 59.2101 30.2601C59.0501 30.0501 58.9101 29.8401 58.7601 29.6401L58.3201 29.0001C58.1701 28.8001 58.0201 28.5901 57.8701 28.3901C57.7201 28.1901 57.5901 27.9701 57.5201 27.7001C57.4901 27.5901 57.5501 27.4801 57.6601 27.4501C57.7001 27.4401 57.7501 27.4501 57.7901 27.4701Z"
    fill="#8C95A6"
  />
  <path
    d="M62.2901 25.85C62.5001 26.09 62.6201 26.34 62.7201 26.6C62.8101 26.86 62.8801 27.14 62.9601 27.42C63.0301 27.7 63.0801 27.99 63.1101 28.29C63.1301 28.59 63.1201 28.9 63.0501 29.2C63.0301 29.3 62.9201 29.36 62.8201 29.34C62.7501 29.32 62.7001 29.27 62.6801 29.2V29.19C62.6101 28.92 62.5401 28.67 62.4601 28.41L62.2001 27.63C62.1101 27.37 62.0201 27.1 61.9501 26.82C61.8901 26.54 61.8701 26.24 61.9401 25.93C61.9701 25.82 62.0801 25.75 62.1801 25.78C62.2301 25.79 62.2601 25.82 62.2901 25.85Z"
    fill="#8C95A6"
  />
  <path
    d="M67.0702 25.9601C67.2202 26.0901 67.2101 26.2101 67.2001 26.3201L67.1702 26.6701C67.1502 26.9101 67.1102 27.1401 67.0802 27.3701C67.0002 27.8301 66.9001 28.2901 66.7701 28.7401C66.7401 28.8401 66.6402 28.8901 66.5402 28.8601C66.4602 28.8401 66.4102 28.7601 66.4102 28.6901C66.4102 28.2201 66.4402 27.7601 66.4702 27.3001L66.5201 26.6101L66.5402 26.2701C66.5402 26.1601 66.5602 26.0401 66.7102 25.9401C66.8202 25.8601 66.9702 25.8801 67.0702 25.9601Z"
    fill="#8C95A6"
  />
  <path
    d="M86.5101 22.3199C87.3401 22.9499 88.1601 23.5899 88.9901 24.2199C89.2201 24.3899 89.5101 24.5699 89.7601 24.4499C89.9601 24.3599 90.0401 24.1199 90.1001 23.9099C90.3301 23.0999 90.5501 22.2899 90.7801 21.4899C90.9001 21.0699 91.0001 20.5799 90.7501 20.2299C90.5901 20.0199 90.3301 19.8999 90.0701 19.8699C89.8101 19.8399 89.5401 19.8899 89.2801 19.9499C88.4101 20.1499 87.5701 20.4499 86.7801 20.8599C86.5201 20.9899 86.0901 21.1299 86.0001 21.4399C85.8901 21.8099 86.2501 22.1199 86.5101 22.3199Z"
    fill="#DC3309"
  />
  <path
    d="M86.7202 22.0499L88.2102 23.1499C88.4602 23.3299 88.7102 23.5199 88.9602 23.6999L89.1502 23.8399L89.2402 23.9099C89.2702 23.9299 89.2902 23.9499 89.3202 23.9699C89.4202 24.0399 89.5302 24.0799 89.5702 24.0799C89.5902 24.0799 89.5802 24.0699 89.5702 24.0699C89.5602 24.0699 89.5502 24.0799 89.5602 24.0699C89.5702 24.0499 89.6202 23.9499 89.6502 23.8099C89.7302 23.5099 89.8102 23.2199 89.9002 22.9199C89.9902 22.6299 90.0802 22.3299 90.1902 22.0399C90.2402 21.8899 90.2902 21.7499 90.3502 21.5999L90.5002 21.1799C90.5902 20.9199 90.6402 20.6599 90.5702 20.4699C90.5102 20.2699 90.2902 20.1199 90.0302 20.0799C89.7702 20.0399 89.4702 20.0899 89.1802 20.1599C88.8802 20.2299 88.5902 20.3199 88.3102 20.4199C88.0302 20.5299 87.7502 20.6499 87.4802 20.7799C87.3502 20.8499 87.2102 20.9199 87.0802 20.9899L86.8802 21.0999L86.6702 21.2099C86.5402 21.2799 86.4202 21.3499 86.3502 21.4199C86.2802 21.4899 86.2802 21.5199 86.2902 21.5899C86.3002 21.6499 86.3402 21.7199 86.4202 21.8099C86.5002 21.8799 86.6002 21.9699 86.7202 22.0499ZM86.3002 22.5999C86.1702 22.4899 86.0402 22.3799 85.9202 22.2299C85.8602 22.1499 85.8002 22.0699 85.7502 21.9699C85.7002 21.8699 85.6702 21.7499 85.6702 21.6299C85.6702 21.4999 85.6902 21.3899 85.7502 21.2599C85.8102 21.1399 85.8902 21.0499 85.9702 20.9799C86.1302 20.8499 86.3002 20.7799 86.4402 20.7199L86.6502 20.6299L86.8702 20.5299C87.0102 20.4699 87.1602 20.4099 87.3102 20.3499C87.6102 20.2399 87.9102 20.1399 88.2102 20.0499C88.5102 19.9599 88.8102 19.8799 89.1202 19.8099C89.4202 19.7399 89.7402 19.6499 90.1002 19.6699C90.2802 19.6799 90.4602 19.7199 90.6302 19.8099C90.8002 19.8999 90.9602 20.0399 91.0602 20.2199C91.1602 20.3999 91.2102 20.5999 91.2202 20.7899C91.2302 20.9799 91.2202 21.1499 91.1902 21.3199C91.1702 21.4899 91.1302 21.6399 91.1102 21.7899C91.0802 21.9399 91.0502 22.0899 91.0202 22.2399C90.9602 22.5399 90.8802 22.8399 90.8102 23.1399C90.7302 23.4399 90.6502 23.7399 90.5602 24.0299C90.5102 24.1899 90.4602 24.3899 90.2702 24.6099C90.1802 24.7199 90.0402 24.8199 89.8902 24.8699C89.7402 24.9199 89.5702 24.9199 89.4402 24.8999C89.1702 24.8399 89.0002 24.7199 88.8602 24.6199C88.8202 24.5899 88.7902 24.5699 88.7602 24.5399L88.6702 24.4699L88.4902 24.3199C88.2502 24.1199 88.0102 23.9299 87.7702 23.7399L86.3002 22.5999Z"
    fill="#19212E"
  />
  <path
    d="M55.7401 17.1699C55.6701 17.3999 55.6101 17.6799 55.7701 17.8599C55.9501 18.0799 56.3001 18.0099 56.5701 17.9299C57.6101 17.6099 58.6301 17.2399 59.6401 16.8299C59.9501 16.6999 60.5501 16.5599 60.5801 16.2199C60.6101 15.9399 60.1401 15.6599 59.9301 15.4599C59.4201 14.9799 58.9201 14.4999 58.4101 14.0299C58.2401 13.8699 57.8701 13.3599 57.6401 13.3099C57.4301 13.2599 57.4101 13.4099 57.3201 13.5899C56.7201 14.7199 56.0401 15.8999 55.7401 17.1699Z"
    fill="#DC3309"
  />
  <path
    d="M56.23 17.2999L56.2 17.3999C56.19 17.4299 56.19 17.4499 56.18 17.4699C56.17 17.5199 56.17 17.5499 56.17 17.5599C56.17 17.5699 56.17 17.5599 56.16 17.5399C56.15 17.5199 56.13 17.5099 56.12 17.5099C56.1 17.5099 56.19 17.5299 56.29 17.4999C56.34 17.4899 56.4 17.4799 56.47 17.4599L56.69 17.3899C57.26 17.2099 57.83 17.0199 58.4 16.8199C58.68 16.7199 58.96 16.6099 59.24 16.4999L59.45 16.4199L59.57 16.3699L59.68 16.3299C59.82 16.2799 59.95 16.2299 60.06 16.1799C60.11 16.1599 60.15 16.1299 60.18 16.1099C60.21 16.0899 60.2 16.0899 60.19 16.1199C60.18 16.1399 60.18 16.1499 60.18 16.1799C60.18 16.2099 60.19 16.2199 60.19 16.2199C60.19 16.2199 60.17 16.1899 60.14 16.1499C60.07 16.0699 59.97 15.9799 59.85 15.8799L59.76 15.7999C59.73 15.7699 59.68 15.7299 59.66 15.7099L59.5 15.5499C59.29 15.3299 59.07 15.1199 58.86 14.8999C58.64 14.6899 58.42 14.4799 58.2 14.2699C58.12 14.1999 58.07 14.1399 58.02 14.0799L57.87 13.9099C57.77 13.8099 57.67 13.7099 57.59 13.6599C57.57 13.6499 57.56 13.6399 57.57 13.6499C57.57 13.6499 57.6 13.6599 57.59 13.6599C57.59 13.6599 57.6 13.6599 57.61 13.6599C57.63 13.6699 57.72 13.6399 57.75 13.6099C57.79 13.5799 57.79 13.5699 57.78 13.5899L57.74 13.6799L57.71 13.7399L57.68 13.7899L57.58 13.9999C57.32 14.5499 57.06 15.0899 56.84 15.6299C56.73 15.8999 56.62 16.1699 56.52 16.4399C56.47 16.5699 56.42 16.7099 56.37 16.8399L56.31 17.0399L56.23 17.2999ZM55.26 17.0399L55.31 16.8199L55.37 16.5899C55.41 16.4299 55.46 16.2799 55.51 16.1299C55.62 15.8299 55.75 15.5399 55.89 15.2599C56.17 14.6999 56.5 14.1699 56.81 13.6499L56.93 13.4599L56.98 13.3799L57.04 13.2699C57.07 13.2199 57.11 13.1499 57.2 13.0699C57.25 13.0299 57.31 12.9899 57.38 12.9699C57.44 12.9499 57.51 12.9399 57.56 12.9399C57.61 12.9399 57.66 12.9499 57.69 12.9499C57.72 12.9499 57.79 12.9699 57.82 12.9899C57.9 13.0199 57.95 13.0599 58 13.0899C58.17 13.2199 58.27 13.3499 58.38 13.4699L58.53 13.6499C58.58 13.7099 58.63 13.7599 58.66 13.7999C58.88 14.0099 59.1 14.2199 59.32 14.4199C59.55 14.6199 59.77 14.8199 60.01 15.0199L60.18 15.1699C60.21 15.1999 60.22 15.2099 60.25 15.2299L60.33 15.2899C60.45 15.3799 60.58 15.4799 60.73 15.6199C60.8 15.6899 60.88 15.7799 60.94 15.9199C60.97 15.9899 61 16.0799 61.01 16.1799C61.02 16.2899 61 16.3799 60.97 16.4699C60.9 16.6499 60.79 16.7599 60.7 16.8299C60.6 16.9099 60.52 16.9599 60.43 16.9999C60.26 17.0899 60.1 17.1399 59.96 17.1999L59.86 17.2399L59.76 17.2799L59.55 17.3699C59.27 17.4899 58.98 17.5999 58.69 17.7099C58.12 17.9299 57.53 18.1299 56.95 18.3199L56.73 18.3899C56.65 18.4099 56.56 18.4399 56.47 18.4599C56.37 18.4799 56.27 18.4999 56.15 18.4999C56.03 18.4999 55.89 18.4899 55.74 18.4299C55.59 18.3699 55.44 18.2599 55.35 18.1199C55.25 17.9799 55.2 17.8099 55.19 17.6799C55.18 17.5399 55.19 17.4199 55.21 17.3199C55.22 17.2699 55.23 17.2199 55.24 17.1699L55.26 17.0999V17.0399Z"
    fill="#19212E"
  />
  <path
    d="M51.2101 68.5801C47.7201 66.2901 42.5301 61.1201 39.5701 58.1701C38.2001 56.8101 36.8601 55.3101 36.3201 53.4601C35.7801 51.6101 36.2801 49.3201 37.9401 48.3401C39.0501 47.6901 40.46 47.7301 41.67 48.1901C42.87 48.6501 43.8901 49.4801 44.8401 50.3501C47.0601 52.3901 50.9301 57.2701 52.5001 59.8401L51.2101 68.5801Z"
    fill="white"
  />
  <path
    d="M51.0701 68.8C50.2001 68.31 49.3701 67.75 48.5701 67.17C47.7701 66.59 46.9901 65.97 46.2301 65.34C44.7001 64.09 43.2301 62.77 41.8001 61.42C41.0801 60.74 40.3701 60.06 39.6701 59.38C39.3201 59.04 38.9701 58.7 38.6101 58.34C38.2601 57.98 37.9101 57.61 37.5701 57.22C36.9101 56.43 36.2901 55.55 35.8601 54.54C35.7501 54.29 35.6601 54.03 35.5801 53.77C35.5001 53.5 35.4301 53.22 35.3901 52.94C35.3001 52.38 35.3001 51.81 35.3701 51.25C35.4401 50.69 35.6001 50.13 35.8401 49.61C36.0901 49.09 36.4401 48.59 36.8901 48.19C37.3401 47.79 37.8901 47.49 38.4501 47.32C38.7301 47.23 39.0201 47.18 39.3101 47.15C39.6001 47.12 39.8801 47.12 40.1701 47.14C40.4501 47.16 40.7301 47.2 41.0001 47.27C41.2701 47.33 41.5401 47.41 41.8001 47.51C42.3201 47.7 42.7901 47.96 43.2401 48.25C43.6801 48.54 44.1001 48.86 44.4801 49.2C44.8701 49.54 45.2201 49.88 45.5801 50.24C46.9901 51.68 48.2201 53.22 49.4201 54.8C50.0201 55.59 50.5901 56.39 51.1501 57.21C51.7101 58.03 52.2401 58.86 52.7301 59.72L52.2701 60C51.7301 59.2 51.1401 58.42 50.5401 57.65C49.9401 56.88 49.3201 56.13 48.6901 55.38C48.0601 54.63 47.4201 53.9 46.7601 53.18C46.1101 52.46 45.4401 51.75 44.7401 51.1C44.4001 50.78 44.0301 50.46 43.6601 50.17C43.2901 49.88 42.9201 49.61 42.5301 49.38C42.1401 49.15 41.7401 48.95 41.3301 48.82C41.1301 48.75 40.9201 48.7 40.7101 48.66C40.5001 48.62 40.2901 48.6 40.0801 48.59C39.6601 48.58 39.2601 48.62 38.8901 48.74C38.5201 48.86 38.1901 49.05 37.9101 49.31C37.3501 49.83 37.0301 50.62 36.9401 51.44C36.7201 53.12 37.6001 54.75 38.8101 56.16C39.4101 56.87 40.0901 57.54 40.7801 58.25L42.8401 60.34C44.2201 61.73 45.6001 63.11 47.0001 64.47C48.4101 65.82 49.8301 67.15 51.3501 68.36L51.0701 68.8Z"
    fill="#19212E"
  />
  <path
    d="M52.0499 92.99C51.4999 92.83 50.9699 92.61 50.6199 92.16C47.3499 87.92 46.7299 83.07 47.1199 77.59C47.5099 72.16 49.4699 66.94 52.1099 62.17C52.4399 61.58 53.0199 61.17 53.6899 61.07C60.4799 60.01 69.1999 59.88 75.9799 61.04C76.6899 61.16 77.2999 61.62 77.5999 62.28C78.8899 65.05 80.2899 68.64 81.0399 71.36C81.9999 74.84 82.5899 78.45 82.4299 82.05C82.2899 85.29 81.3099 88.95 79.7399 91.89C79.4099 92.5 78.7999 92.86 78.1299 93.01C68.3099 95.31 59.7299 95.26 52.0499 92.99Z"
    fill="white"
  />
  <path
    d="M51.88 93.57C51.56 93.48 51.22 93.36 50.89 93.17C50.72 93.08 50.56 92.96 50.4 92.82C50.32 92.75 50.25 92.67 50.18 92.59L50.13 92.53L50.09 92.48L50.02 92.38C49.63 91.87 49.27 91.34 48.94 90.78C48.28 89.68 47.75 88.49 47.35 87.27C46.54 84.82 46.29 82.24 46.32 79.71C46.33 79.08 46.35 78.45 46.38 77.82C46.39 77.51 46.43 77.19 46.45 76.87C46.47 76.55 46.51 76.24 46.55 75.92C46.71 74.66 46.94 73.41 47.24 72.18C47.84 69.71 48.73 67.33 49.79 65.05C49.92 64.76 50.05 64.48 50.2 64.2C50.34 63.92 50.47 63.63 50.62 63.35C50.77 63.07 50.9 62.79 51.06 62.51L51.28 62.09L51.39 61.88L51.45 61.77L51.53 61.63C51.98 60.92 52.74 60.42 53.56 60.29C54.19 60.2 54.8 60.1 55.43 60.03C57.92 59.72 60.42 59.54 62.92 59.47C65.42 59.39 67.93 59.44 70.43 59.61C71.68 59.7 72.93 59.81 74.18 59.98C74.8 60.05 75.43 60.16 76.05 60.26L76.11 60.27L76.19 60.29C76.24 60.3 76.29 60.31 76.34 60.33C76.44 60.36 76.54 60.39 76.64 60.42C76.84 60.49 77.02 60.59 77.2 60.7C77.55 60.93 77.85 61.22 78.08 61.58C78.19 61.75 78.29 61.96 78.35 62.09L78.55 62.52L78.93 63.38C79.18 63.96 79.42 64.53 79.66 65.11C80.13 66.27 80.57 67.44 80.98 68.63C81.39 69.81 81.75 71.04 82.05 72.26C82.36 73.48 82.61 74.72 82.8 75.97C82.99 77.22 83.12 78.48 83.17 79.76C83.19 80.4 83.2 81.03 83.18 81.67C83.17 82.31 83.12 82.95 83.04 83.59C82.89 84.86 82.64 86.12 82.3 87.34C82.13 87.95 81.93 88.56 81.72 89.16C81.5 89.76 81.26 90.35 80.99 90.93C80.93 91.08 80.85 91.22 80.78 91.36C80.71 91.5 80.64 91.65 80.57 91.79L80.46 92L80.4 92.11L80.37 92.16L80.36 92.19L80.34 92.22C80.24 92.4 80.11 92.58 79.97 92.73C79.69 93.04 79.34 93.26 78.99 93.42C78.81 93.5 78.63 93.56 78.45 93.61L78.31 93.64L78.19 93.67L77.96 93.72C76.74 94 75.51 94.24 74.28 94.45C71.81 94.87 69.31 95.16 66.8 95.27C61.79 95.5 56.71 95 51.88 93.57ZM52.22 92.42C53.39 92.76 54.58 93.05 55.78 93.29C56.98 93.53 58.19 93.71 59.41 93.84C60.63 93.98 61.85 94.05 63.07 94.08C64.29 94.11 65.52 94.09 66.74 94.03C69.19 93.9 71.63 93.61 74.05 93.17C75.26 92.95 76.46 92.7 77.66 92.42L77.88 92.37L78 92.35L78.09 92.33C78.21 92.3 78.32 92.25 78.43 92.21C78.64 92.11 78.83 91.99 78.96 91.83C79.03 91.75 79.09 91.67 79.13 91.59L79.33 91.2C79.4 91.07 79.46 90.93 79.53 90.8C79.59 90.66 79.66 90.53 79.72 90.39C79.97 89.84 80.18 89.28 80.39 88.71C80.59 88.14 80.77 87.57 80.93 86.98C81.24 85.82 81.48 84.63 81.61 83.44C81.68 82.84 81.72 82.25 81.73 81.65C81.75 81.05 81.74 80.44 81.72 79.84C81.67 78.63 81.55 77.42 81.36 76.22C81.17 75.02 80.92 73.82 80.62 72.64C80.32 71.45 79.97 70.3 79.57 69.14C79.17 67.98 78.73 66.83 78.27 65.7C78.04 65.13 77.8 64.57 77.55 64L77.18 63.16C77.05 62.89 76.91 62.56 76.82 62.43C76.71 62.26 76.56 62.11 76.39 62C76.3 61.95 76.21 61.9 76.12 61.86C76.07 61.84 76.02 61.83 75.97 61.82C75.95 61.81 75.92 61.81 75.9 61.8L75.86 61.79L75.81 61.78C75.21 61.69 74.6 61.59 74 61.52C72.79 61.36 71.57 61.25 70.34 61.16C67.89 61 65.43 60.95 62.97 61.03C60.51 61.1 58.06 61.27 55.62 61.58C55.01 61.65 54.4 61.75 53.8 61.83C53.4 61.89 53.03 62.14 52.81 62.48L52.77 62.55L52.72 62.65L52.61 62.85L52.39 63.25C52.24 63.52 52.11 63.79 51.97 64.06C51.83 64.33 51.7 64.61 51.56 64.88C51.42 65.15 51.29 65.43 51.17 65.71C50.15 67.92 49.29 70.22 48.69 72.57C48.09 74.93 47.78 77.32 47.71 79.77C47.64 82.2 47.84 84.63 48.55 86.92C48.9 88.06 49.39 89.16 49.99 90.19C50.29 90.7 50.62 91.2 50.98 91.68L51.05 91.77L51.08 91.82L51.1 91.85C51.13 91.89 51.17 91.93 51.2 91.96C51.27 92.03 51.36 92.1 51.46 92.15C51.69 92.24 51.94 92.34 52.22 92.42Z"
    fill="#19212E"
  />
  <path
    d="M74.4902 93.5C74.8002 93.67 75.0402 93.96 75.3302 94.16C75.6602 94.38 76.0102 94.58 76.4002 94.62C76.7902 94.66 77.2302 94.8999 77.4302 94.5599C77.6502 94.2099 77.5202 92.8999 77.2602 92.5899C76.7002 91.9399 74.7102 91.85 73.9802 91.72C73.2202 91.59 69.6502 90.86 74.4902 93.5Z"
    fill="white"
  />
  <path
    d="M69.9701 91.5901C67.8001 90.9401 66.4001 91.3101 65.0001 92.0001C63.6001 92.6901 62.5101 93.7901 62.2301 95.3201C61.9501 96.8601 62.2201 98.2101 63.5901 98.9501C64.4801 99.4301 66.3101 99.4101 67.3301 99.4201C68.8601 99.4301 71.0001 99.5701 72.5201 99.4201C74.2701 99.2501 75.2201 99.1601 76.4701 97.9101C77.2601 97.1201 77.7701 95.0501 77.7501 93.9401L69.9701 91.5901Z"
    fill="white"
  />
  <path
    d="M69.9101 91.78C69.2801 91.64 68.6501 91.56 68.0301 91.57C67.7201 91.57 67.4101 91.61 67.1101 91.67C66.8101 91.73 66.5101 91.81 66.2301 91.92C65.9401 92.03 65.6601 92.16 65.3801 92.3C65.1001 92.44 64.8401 92.59 64.5901 92.77C64.0901 93.11 63.6601 93.53 63.3501 94.01C63.1901 94.25 63.0701 94.51 62.9701 94.77C62.9501 94.84 62.9201 94.9 62.9101 94.97L62.8601 95.17C62.8301 95.31 62.8101 95.44 62.7901 95.6C62.7501 95.9 62.7401 96.19 62.7501 96.47C62.7601 96.75 62.8101 97.02 62.8901 97.26C63.0601 97.74 63.3701 98.13 63.8501 98.39C63.9101 98.43 63.9601 98.45 64.0101 98.48C64.0601 98.5 64.1301 98.53 64.1901 98.55C64.3201 98.59 64.4501 98.63 64.6001 98.66C64.8901 98.72 65.1901 98.76 65.5001 98.79C66.1201 98.85 66.7601 98.85 67.4201 98.86C68.0901 98.88 68.7401 98.91 69.3901 98.94C70.0401 98.97 70.6901 98.99 71.3301 98.99C71.6501 98.99 71.9701 98.99 72.2801 98.97L72.5101 98.96L72.7501 98.94L73.2301 98.9C73.8701 98.84 74.4701 98.76 75.0101 98.52C75.2801 98.4 75.5301 98.25 75.7701 98.06C75.8901 97.97 76.0101 97.87 76.1201 97.77C76.1801 97.72 76.2401 97.67 76.2801 97.62L76.3501 97.55C76.3701 97.52 76.3901 97.49 76.4201 97.47C76.6001 97.25 76.7501 96.97 76.8801 96.69C77.0101 96.41 77.1201 96.11 77.2101 95.81C77.3901 95.21 77.5401 94.57 77.5701 93.95V93.94C77.5801 93.83 77.6701 93.74 77.7801 93.75C77.8901 93.76 77.9701 93.84 77.9701 93.94C78.0001 94.63 77.9001 95.29 77.7401 95.95C77.6601 96.28 77.5701 96.6 77.4401 96.92C77.3201 97.24 77.1701 97.56 76.9601 97.86C76.9301 97.9 76.9101 97.94 76.8801 97.97L76.7901 98.08C76.7301 98.16 76.6701 98.21 76.6101 98.28C76.4901 98.4 76.3601 98.52 76.2301 98.64C75.9701 98.87 75.6701 99.07 75.3401 99.24C75.0201 99.4 74.6701 99.52 74.3301 99.61C73.9901 99.69 73.6501 99.74 73.3201 99.79L72.8301 99.85L72.5901 99.88L72.3401 99.91C72.0001 99.94 71.6701 99.96 71.3301 99.98C70.6501 100.01 69.9901 100 69.3301 100C68.6701 99.99 68.0201 99.98 67.3801 99.99C66.7301 100 66.0601 100 65.3801 99.96C65.0401 99.94 64.6901 99.9 64.3401 99.83C64.1601 99.8 63.9801 99.75 63.8001 99.69C63.7101 99.66 63.6101 99.63 63.5201 99.59C63.4301 99.55 63.3201 99.5 63.2401 99.45C62.9001 99.26 62.5801 99.01 62.3201 98.71C62.0501 98.4 61.8501 98.03 61.7301 97.66C61.6001 97.28 61.5501 96.9 61.5401 96.52C61.5301 96.15 61.5701 95.78 61.6301 95.43C61.6601 95.26 61.7001 95.08 61.7501 94.89L61.8401 94.62C61.8701 94.53 61.9101 94.45 61.9401 94.36C62.0901 94.02 62.2701 93.69 62.4901 93.4C62.9301 92.81 63.4901 92.34 64.0901 91.98C64.3901 91.8 64.7101 91.64 65.0201 91.51C65.3301 91.38 65.6601 91.26 65.9901 91.16C66.6601 90.96 67.3701 90.88 68.0501 90.94C68.3901 90.97 68.7301 91.01 69.0601 91.1C69.3901 91.18 69.7101 91.28 70.0301 91.39C70.1301 91.43 70.1901 91.54 70.1501 91.65C70.1101 91.75 70.0101 91.8 69.9101 91.78Z"
    fill="#19212E"
  />
  <path
    d="M70.14 95.4801C70.09 95.8201 70.07 96.1601 70.07 96.4901C70.07 96.5701 70.08 96.6601 70.08 96.7401C70.08 96.8201 70.09 96.9001 70.1 96.9901C70.12 97.1501 70.14 97.3201 70.17 97.4801C70.23 97.8101 70.31 98.1301 70.41 98.4501C70.52 98.7701 70.61 99.0901 70.56 99.4901C70.55 99.5701 70.47 99.6301 70.38 99.6201C70.35 99.6201 70.33 99.6001 70.31 99.5901C69.99 99.3401 69.84 99.0001 69.75 98.6501C69.64 98.3001 69.57 97.9401 69.54 97.5701C69.52 97.3901 69.52 97.2001 69.52 97.0101C69.52 96.8201 69.54 96.6401 69.57 96.4501C69.63 96.0801 69.74 95.7301 69.9 95.4001C69.93 95.3301 70.01 95.3001 70.08 95.3401C70.12 95.3601 70.15 95.4201 70.14 95.4801Z"
    fill="#19212E"
  />
  <path
    d="M66.67 94.8101C66.48 95.1501 66.39 95.5401 66.33 95.9201C66.3 96.1201 66.28 96.3101 66.27 96.5101C66.26 96.7101 66.26 96.9101 66.26 97.1101C66.26 97.3201 66.26 97.5101 66.28 97.7001C66.3 97.8901 66.32 98.0801 66.37 98.2701C66.41 98.4601 66.45 98.6501 66.48 98.8401C66.51 99.0401 66.54 99.2401 66.54 99.4701C66.54 99.5501 66.47 99.6201 66.39 99.6201C66.36 99.6201 66.32 99.6101 66.3 99.5901C66.11 99.4401 65.97 99.2601 65.86 99.0601C65.75 98.8601 65.67 98.6501 65.62 98.4201C65.57 98.2001 65.54 97.9701 65.53 97.7501C65.52 97.5201 65.52 97.2901 65.54 97.0801C65.57 96.6501 65.64 96.2101 65.78 95.7801C65.91 95.3601 66.12 94.9301 66.47 94.6201C66.53 94.5701 66.61 94.5701 66.66 94.6301C66.69 94.6901 66.7 94.7601 66.67 94.8101Z"
    fill="#19212E"
  />
  <path
    d="M56.0601 92.8199C56.3301 93.0599 56.6101 93.28 56.9001 93.48C57.2301 93.7 57.5801 93.9 57.9701 93.9399C58.3601 93.9799 58.8001 94.2199 59.0001 93.8799C59.2201 93.5299 59.0901 92.22 58.8301 91.91C58.2701 91.26 57.4001 91.12 56.6701 91.05C56.0601 90.99 55.3201 92.1599 56.0601 92.8199Z"
    fill="white"
  />
  <path
    d="M51.5301 90.91C49.3701 90.27 47.9601 90.63 46.5601 91.33C45.1601 92.02 44.0701 93.12 43.7901 94.65C43.5101 96.19 43.7801 97.54 45.1501 98.28C46.0401 98.76 47.8701 98.74 48.8901 98.75C50.4201 98.76 52.5601 98.9 54.0801 98.75C55.8301 98.58 56.7801 98.49 58.0301 97.24C58.8201 96.45 59.3301 94.38 59.3101 93.27L51.5301 90.91Z"
    fill="white"
  />
  <path
    d="M51.47 91.1C50.82 91.05 50.19 91.02 49.59 91.06C48.99 91.11 48.42 91.23 47.86 91.44C47.58 91.54 47.31 91.66 47.03 91.79C46.75 91.92 46.49 92.06 46.24 92.22C45.74 92.54 45.31 92.92 44.99 93.38C44.83 93.61 44.7 93.85 44.59 94.11C44.57 94.18 44.54 94.24 44.52 94.3L44.46 94.5C44.43 94.64 44.4 94.77 44.38 94.92C44.29 95.5 44.29 96.08 44.44 96.57C44.6 97.06 44.92 97.45 45.39 97.72C45.45 97.76 45.5 97.78 45.55 97.81C45.61 97.83 45.67 97.86 45.73 97.88C45.86 97.92 45.99 97.96 46.14 97.99C46.43 98.05 46.73 98.09 47.04 98.12C47.66 98.17 48.3 98.19 48.96 98.2C49.63 98.21 50.28 98.25 50.93 98.27C51.58 98.3 52.23 98.32 52.87 98.32C53.19 98.32 53.51 98.32 53.82 98.3L54.05 98.29L54.29 98.27L54.77 98.23C55.41 98.17 56.01 98.09 56.55 97.85C56.82 97.73 57.07 97.58 57.31 97.39C57.43 97.3 57.55 97.2 57.66 97.09C57.72 97.04 57.78 96.98 57.82 96.94L57.89 96.87C57.91 96.84 57.93 96.81 57.96 96.79C58.14 96.56 58.29 96.29 58.42 96.01C58.55 95.73 58.66 95.43 58.75 95.13C58.94 94.53 59.08 93.89 59.11 93.27V93.26C59.11 93.15 59.21 93.06 59.32 93.07C59.43 93.07 59.51 93.16 59.51 93.26C59.53 93.95 59.43 94.61 59.28 95.27C59.2 95.6 59.11 95.92 58.98 96.24C58.86 96.56 58.71 96.88 58.5 97.18C58.47 97.22 58.45 97.26 58.42 97.29L58.33 97.4C58.27 97.48 58.21 97.53 58.15 97.59C58.03 97.71 57.9 97.83 57.77 97.95C57.51 98.18 57.21 98.38 56.88 98.55C56.56 98.71 56.21 98.83 55.87 98.92C55.53 99 55.19 99.05 54.86 99.1L54.37 99.16L54.13 99.19L53.88 99.22C53.54 99.25 53.21 99.27 52.87 99.29C52.2 99.32 51.54 99.31 50.89 99.3C50.23 99.29 49.58 99.28 48.94 99.29C48.29 99.3 47.62 99.31 46.94 99.26C46.6 99.24 46.25 99.2 45.9 99.13C45.72 99.1 45.54 99.05 45.36 98.99C45.27 98.96 45.17 98.93 45.08 98.89C44.99 98.85 44.88 98.8 44.8 98.75C44.46 98.56 44.14 98.32 43.88 98.01C43.61 97.7 43.41 97.34 43.28 96.97C43.15 96.59 43.09 96.21 43.08 95.84C43.07 95.47 43.1 95.1 43.15 94.75C43.17 94.58 43.21 94.39 43.26 94.21L43.34 93.94C43.37 93.85 43.4 93.76 43.44 93.67C43.58 93.32 43.76 92.98 43.97 92.68C44.4 92.06 44.96 91.57 45.56 91.18C45.86 90.99 46.18 90.81 46.49 90.67C46.8 90.52 47.13 90.4 47.48 90.29C48.17 90.09 48.91 90.01 49.61 90.1C50.32 90.18 50.98 90.41 51.58 90.72C51.68 90.77 51.72 90.9 51.67 91C51.64 91.07 51.56 91.11 51.47 91.1Z"
    fill="#19212E"
  />
  <path
    d="M51.7001 94.8C51.6501 95.14 51.6301 95.48 51.6301 95.81C51.6301 95.89 51.6401 95.98 51.6401 96.06C51.6401 96.14 51.6501 96.22 51.6601 96.31C51.6801 96.47 51.7001 96.64 51.7301 96.8C51.7901 97.13 51.8701 97.45 51.9701 97.77C52.0801 98.09 52.1701 98.41 52.1201 98.81C52.1101 98.89 52.0301 98.95 51.9401 98.94C51.9101 98.94 51.8901 98.92 51.8701 98.91C51.5501 98.66 51.4001 98.32 51.3101 97.97C51.2001 97.62 51.1301 97.26 51.1001 96.89C51.0801 96.71 51.0801 96.52 51.0801 96.33C51.0801 96.14 51.1001 95.96 51.1301 95.77C51.1901 95.4 51.3001 95.05 51.4601 94.72C51.4901 94.65 51.5701 94.62 51.6401 94.66C51.6801 94.69 51.7101 94.74 51.7001 94.8Z"
    fill="#19212E"
  />
  <path
    d="M48.2401 94.1299C48.0501 94.4699 47.9601 94.8599 47.9001 95.2399C47.8701 95.4399 47.8501 95.6299 47.8401 95.8299C47.8301 96.0299 47.8301 96.2299 47.8301 96.4299C47.8301 96.6399 47.8301 96.8299 47.8501 97.0199C47.8701 97.2099 47.8901 97.3999 47.9401 97.5899C47.9801 97.7799 48.0201 97.9699 48.0501 98.1599C48.0801 98.3599 48.1101 98.5599 48.1101 98.7899C48.1101 98.8699 48.0401 98.9399 47.9601 98.9399C47.9301 98.9399 47.8901 98.9299 47.8701 98.9099C47.6801 98.7599 47.5401 98.5799 47.4301 98.3799C47.3201 98.1799 47.2401 97.9699 47.1901 97.7399C47.1401 97.5199 47.1101 97.2899 47.1001 97.0699C47.0901 96.8399 47.0901 96.6099 47.1101 96.3999C47.1401 95.9699 47.2101 95.5299 47.3501 95.0999C47.4801 94.6799 47.6901 94.2499 48.0401 93.9399C48.1001 93.8899 48.1801 93.8899 48.2301 93.9499C48.2601 94.0099 48.2701 94.0799 48.2401 94.1299Z"
    fill="#19212E"
  />
  <path
    d="M136 95.6999V99.3699H132.87C131.08 99.3699 129.29 99.3599 127.51 99.3499C127.37 99.3399 127.25 99.2499 127.2 99.1199C127.18 99.0499 127.16 98.9599 127.16 98.8599C127.16 98.7999 127.16 98.7199 127.17 98.6399C127.17 98.5699 127.18 98.4899 127.19 98.4099C127.2 98.3499 127.21 98.2799 127.23 98.2099C127.24 98.1299 127.26 98.0599 127.28 97.9799C127.3 97.8799 127.33 97.7799 127.36 97.6799C127.39 97.5899 127.42 97.4999 127.45 97.4099L127.46 97.3899C127.46 97.3699 127.47 97.3599 127.48 97.3399C127.8 96.4899 128.33 95.6799 128.85 95.6899H129.04C130.05 95.6999 132.6 95.7099 136 95.6999Z"
    fill="#4C9AFF"
  />
  <path
    d="M132.12 95.2199L128.83 95.1899C128.56 95.1999 128.34 95.2999 128.17 95.4099C128.01 95.5299 127.9 95.6399 127.79 95.7699L127.78 95.7799C127.74 95.8199 127.71 95.8699 127.68 95.9099C127.63 95.9599 127.6 96.0099 127.57 96.0599C127.51 96.1299 127.46 96.2099 127.42 96.2899C127.39 96.3399 127.36 96.3899 127.33 96.4399C127.33 96.4499 127.33 96.4599 127.32 96.4699C127.3 96.4999 127.29 96.5399 127.27 96.5699C127.26 96.5899 127.25 96.5999 127.25 96.6199V96.6299L127.24 96.6399C127.21 96.6999 127.18 96.7599 127.16 96.8199C127.11 96.9099 127.07 97.0099 127.04 97.1099C127.01 97.1599 126.99 97.2199 126.98 97.2799C126.96 97.3199 126.95 97.3499 126.94 97.3899C126.93 97.4099 126.93 97.4199 126.93 97.4399C126.91 97.4899 126.89 97.5399 126.89 97.5899C126.89 97.5899 126.89 97.5899 126.88 97.5899C126.86 97.6499 126.85 97.7099 126.83 97.7699C126.82 97.7999 126.81 97.8299 126.81 97.8699C126.79 97.9299 126.78 97.9899 126.78 98.0499C126.76 98.0799 126.76 98.1099 126.76 98.1499C126.75 98.1699 126.75 98.1999 126.75 98.2299C126.74 98.2399 126.74 98.2599 126.74 98.2699C126.73 98.3299 126.73 98.3699 126.73 98.4299V98.4399C126.72 98.5099 126.71 98.5799 126.71 98.6599V98.7399C126.71 98.7999 126.71 98.8599 126.72 98.9299C126.72 98.9499 126.72 98.9799 126.73 98.9999C126.73 99.0399 126.74 99.0799 126.75 99.1199V99.1499C126.77 99.1999 126.78 99.2499 126.82 99.3299C126.88 99.4799 127 99.5999 127.14 99.6699C127.21 99.7099 127.28 99.7399 127.36 99.7499C127.4 99.7599 127.44 99.7699 127.48 99.7699H127.52L127.54 99.7599L127.95 99.7399C128.5 99.7099 129.05 99.6899 129.59 99.6699C130.69 99.5999 131.78 99.6599 132.87 99.6799L136 99.7099V99.0199L132.87 99.0499C131.78 99.0599 130.69 99.1199 129.6 99.0399C129.05 99.0199 128.51 98.9799 127.96 98.9499L127.62 98.9299V98.9699C127.6 98.9499 127.59 98.9399 127.56 98.9299H127.62C127.61 98.9199 127.61 98.9099 127.61 98.8999C127.61 98.8599 127.61 98.8099 127.62 98.7599C127.62 98.6499 127.64 98.5399 127.67 98.4199C127.77 97.9499 127.95 97.4599 128.17 97.0199C128.28 96.7999 128.41 96.5899 128.54 96.4299C128.61 96.3499 128.68 96.2799 128.74 96.2399C128.81 96.1899 128.85 96.1899 128.85 96.1899L132.11 96.1799C133.41 96.1699 134.71 96.1699 136 96.1599V95.2599L132.12 95.2199Z"
    fill="#19212E"
  />
  <path
    d="M127.25 98.58C126.84 98.89 126.39 99.14 125.93 99.34C125.74 99.42 125.54 99.49 125.34 99.46C125.93 98.99 126.6 98.62 127.12 98.07C126.78 98.09 126.43 98.03 126.1 97.91C126.04 97.89 125.97 97.83 125.99 97.77C126 97.74 126.03 97.73 126.06 97.72C126.48 97.56 126.96 97.67 127.38 97.49C127.26 97.38 127.1 97.33 126.96 97.27C126.69 97.16 126.43 97.01 126.19 96.83C126.09 96.75 125.98 96.66 125.95 96.53C126.46 96.57 126.98 96.61 127.49 96.67C127.42 96.5 127.26 96.39 127.11 96.27C126.83 96.04 126.6 95.74 126.45 95.41C126.88 95.55 127.3 95.72 127.69 95.93L127.25 98.58Z"
    fill="#19212E"
  />
  <path
    d="M127.16 98.43C126.89 98.63 126.6 98.81 126.3 98.97C126.01 99.12 125.67 99.33 125.34 99.29C125.38 99.39 125.42 99.49 125.47 99.6C126.06 99.13 126.72 98.76 127.25 98.21C127.35 98.1 127.28 97.9 127.12 97.9C126.91 97.91 126.71 97.89 126.5 97.85C126.41 97.83 126.32 97.81 126.24 97.78C126.21 97.77 126.19 97.76 126.16 97.75C126.16 97.8 126.17 97.84 126.17 97.89C126.19 97.9 126.29 97.86 126.31 97.85C126.68 97.77 127.07 97.82 127.43 97.68C127.54 97.64 127.62 97.47 127.51 97.38C127.3 97.2 127.03 97.14 126.78 97.01C126.66 96.95 126.54 96.88 126.42 96.8C126.31 96.72 126.17 96.63 126.12 96.5C126.06 96.58 126 96.65 125.95 96.73C126.46 96.77 126.98 96.81 127.49 96.87C127.64 96.89 127.7 96.71 127.65 96.6C127.54 96.35 127.29 96.22 127.1 96.04C126.89 95.84 126.73 95.6 126.61 95.34C126.54 95.43 126.47 95.52 126.41 95.6C126.82 95.73 127.22 95.9 127.61 96.1C127.82 96.21 128 95.9 127.79 95.79C127.38 95.58 126.95 95.4 126.5 95.25C126.34 95.2 126.24 95.38 126.3 95.51C126.42 95.77 126.57 96 126.77 96.21C126.95 96.4 127.23 96.54 127.34 96.78C127.39 96.69 127.44 96.6 127.5 96.51C126.99 96.45 126.47 96.41 125.96 96.37C125.85 96.36 125.75 96.49 125.79 96.6C125.89 96.88 126.16 97.06 126.41 97.21C126.54 97.29 126.69 97.36 126.83 97.42C126.98 97.48 127.15 97.53 127.27 97.63C127.3 97.53 127.32 97.43 127.35 97.33C127.07 97.44 126.77 97.43 126.48 97.46C126.28 97.48 125.92 97.5 125.84 97.73C125.75 97.98 126.06 98.09 126.25 98.15C126.54 98.24 126.84 98.27 127.14 98.26C127.1 98.16 127.06 98.06 127.01 97.95C126.49 98.5 125.82 98.87 125.23 99.34C125.09 99.45 125.22 99.63 125.36 99.65C125.72 99.7 126.08 99.5 126.4 99.34C126.74 99.17 127.06 98.97 127.36 98.75C127.53 98.6 127.35 98.29 127.16 98.43Z"
    fill="#19212E"
  />
  <path
    d="M122 99.3499C122.14 99.3499 122.26 99.26 122.31 99.12C122.56 98.32 123.34 95.68 122.38 95.69H115.46C113.13 95.68 110.79 95.66 108.46 95.65H107.96C107.13 95.6399 106.3 95.6399 105.47 95.6299C105.03 95.6299 104.6 95.6399 104.19 95.65C102.8 95.69 101.59 95.7199 100.54 95.2499C99.4601 94.7599 98.4901 93.8499 97.8301 92.6799C96.3101 90.0199 96.3601 86.64 96.5301 84.87C96.7101 82.97 97.2801 81.27 98.1901 79.94C99.7301 77.69 102.42 77.1399 104.41 77.0699C106.98 76.9799 109.89 77.65 112.2 78.86L113.89 75.62C108.64 72.88 99.3601 71.7699 95.1801 77.8799C93.9201 79.7199 93.1301 82.0199 92.9001 84.5299C92.6901 86.7299 92.6501 90.9599 94.6701 94.4899C95.7201 96.3299 97.2801 97.78 99.0601 98.58C100.87 99.3899 102.69 99.34 104.3 99.3C104.7 99.29 105.08 99.2799 105.46 99.2799C106.29 99.2799 107.12 99.29 107.94 99.3H108.44C110.78 99.31 113.11 99.3299 115.45 99.3399L122 99.3499Z"
    fill="#4C9AFF"
  />
  <path
    d="M113.24 75.74C113.15 75.88 113.06 76.02 112.98 76.17C112.82 76.43 112.69 76.7 112.54 76.97L111.95 78.09C111.99 78.1 112.03 78.12 112.06 78.14C112.06 78.11 112.07 78.08 112.09 78.05C112.1 78.02 112.12 77.98 112.13 77.95C112.14 77.92 112.15 77.89 112.17 77.86C112.17 77.82 112.19 77.8 112.21 77.77C112.38 77.38 112.58 77.02 112.81 76.67C112.88 76.54 112.97 76.41 113.06 76.3C113.06 76.29 113.06 76.29 113.07 76.29C113.17 76.14 113.29 75.99 113.41 75.85C113.36 75.82 113.3 75.78 113.24 75.74ZM113.24 75.74C113.15 75.88 113.06 76.02 112.98 76.17C112.82 76.43 112.69 76.7 112.54 76.97L111.95 78.09C111.99 78.1 112.03 78.12 112.06 78.14C112.06 78.11 112.07 78.08 112.09 78.05C112.1 78.02 112.12 77.98 112.13 77.95C112.14 77.92 112.15 77.89 112.17 77.86C112.17 77.82 112.19 77.8 112.21 77.77C112.38 77.38 112.58 77.02 112.81 76.67C112.88 76.54 112.97 76.41 113.06 76.3C113.06 76.29 113.06 76.29 113.07 76.29C113.17 76.14 113.29 75.99 113.41 75.85C113.36 75.82 113.3 75.78 113.24 75.74ZM113.24 75.74C113.15 75.88 113.06 76.02 112.98 76.17C112.82 76.43 112.69 76.7 112.54 76.97L111.95 78.09C111.99 78.1 112.03 78.12 112.06 78.14C112.06 78.11 112.07 78.08 112.09 78.05C112.1 78.02 112.12 77.98 112.13 77.95C112.14 77.92 112.15 77.89 112.17 77.86C112.17 77.82 112.19 77.8 112.21 77.77C112.38 77.38 112.58 77.02 112.81 76.67C112.88 76.54 112.97 76.41 113.06 76.3C113.06 76.29 113.06 76.29 113.07 76.29C113.17 76.14 113.29 75.99 113.41 75.85C113.36 75.82 113.3 75.78 113.24 75.74ZM123.19 96.28C123.19 96.21 123.18 96.14 123.17 96.07C123.16 96.02 123.14 95.96 123.12 95.9C123.11 95.88 123.1 95.85 123.09 95.82C123.05 95.71 122.98 95.59 122.86 95.49C122.75 95.39 122.59 95.34 122.45 95.33C122.37 95.32 122.35 95.32 122.31 95.32H121.97L121.06 95.31L119.23 95.29L111.95 95.21L108.3 95.16L106.48 95.14L105.57 95.13C105.27 95.13 104.95 95.13 104.65 95.14C104.03 95.15 103.43 95.17 102.85 95.16C102.26 95.14 101.7 95.09 101.18 94.93C100.68 94.78 100.2 94.5 99.7701 94.16C99.3301 93.81 98.9501 93.39 98.6301 92.94C98.3101 92.48 98.0501 91.97 97.8301 91.44C97.6201 90.9 97.4501 90.35 97.3301 89.78C97.0801 88.65 96.9901 87.47 97.0201 86.29C97.0301 85.71 97.0701 85.11 97.1401 84.54C97.2201 83.96 97.3301 83.39 97.4901 82.84C97.6501 82.29 97.8501 81.75 98.1101 81.24C98.3601 80.73 98.6601 80.24 99.0101 79.83C99.7201 79 100.7 78.42 101.78 78.08C102.86 77.75 104.02 77.63 105.18 77.65C106.35 77.68 107.52 77.85 108.65 78.13C109.48 78.34 110.3 78.62 111.09 78.96C111.3 79.05 111.51 79.15 111.71 79.25C111.79 79.28 111.86 79.32 111.94 79.36L112.32 79.56L112.45 79.62L112.71 79.12L113.55 77.49C113.69 77.22 113.83 76.96 113.96 76.68C114.08 76.41 114.19 76.15 114.3 75.87C114.3 75.86 114.3 75.84 114.31 75.83L114.5 75.34L114.11 75.19C114.09 75.18 114.06 75.17 114.04 75.17C113.81 75.08 113.57 75 113.34 74.92C112.91 74.78 112.49 74.65 112.08 74.49C111.42 74.24 110.74 74.02 110.06 73.84C108.7 73.47 107.29 73.24 105.88 73.15C104.46 73.06 103.03 73.13 101.63 73.42C100.23 73.69 98.8601 74.2 97.6401 74.98C96.4201 75.76 95.3801 76.82 94.6001 78.04C94.2101 78.65 93.8801 79.29 93.5901 79.95C93.3101 80.61 93.0801 81.29 92.9001 81.99C92.5201 83.38 92.3701 84.81 92.3401 86.24C92.3101 87.66 92.4101 89.09 92.6901 90.5C92.9701 91.91 93.4401 93.3 94.1401 94.58C94.8401 95.86 95.8001 97.01 96.9701 97.9C97.5501 98.35 98.1901 98.73 98.8601 99.03C99.2001 99.18 99.5501 99.31 99.9101 99.41C100.26 99.51 100.63 99.59 100.99 99.65C102.44 99.87 103.88 99.74 105.25 99.72L113.62 99.66C114.32 99.66 115.02 99.66 115.72 99.65L116.77 99.63L117.81 99.62L122 99.66C122.16 99.66 122.3 99.6 122.42 99.51C122.47 99.46 122.52 99.4 122.56 99.33C122.58 99.3 122.59 99.28 122.61 99.24V99.23L122.63 99.17C122.64 99.14 122.65 99.1 122.66 99.07C122.68 99.01 122.7 98.95 122.72 98.9C122.73 98.84 122.75 98.78 122.77 98.73C122.78 98.71 122.78 98.69 122.79 98.67C122.8 98.61 122.82 98.55 122.84 98.49V98.48C122.84 98.46 122.85 98.43 122.86 98.41C122.87 98.37 122.88 98.32 122.89 98.28C122.9 98.26 122.9 98.25 122.9 98.23C122.92 98.17 122.94 98.12 122.95 98.06C122.97 97.98 122.99 97.91 123.01 97.83C123.02 97.8 123.02 97.78 123.03 97.75C123.04 97.69 123.05 97.64 123.06 97.58C123.07 97.55 123.08 97.52 123.08 97.48C123.09 97.45 123.09 97.42 123.09 97.39C123.11 97.36 123.11 97.33 123.11 97.29C123.13 97.23 123.14 97.17 123.14 97.11C123.15 97.07 123.15 97.03 123.15 96.99C123.16 96.96 123.17 96.92 123.17 96.89C123.17 96.86 123.18 96.84 123.17 96.81C123.18 96.76 123.19 96.7 123.18 96.64H123.19C123.19 96.64 123.19 96.64 123.19 96.63V96.62C123.2 96.54 123.2 96.47 123.2 96.39C123.2 96.38 123.2 96.38 123.2 96.37C123.2 96.34 123.2 96.31 123.19 96.28ZM113.56 75.67L113.67 76.03C113.59 75.97 113.5 75.91 113.41 75.85C113.36 75.82 113.3 75.78 113.24 75.74C113.15 75.88 113.06 76.02 112.98 76.17C112.82 76.43 112.69 76.7 112.54 76.97L111.95 78.09C111.99 78.1 112.03 78.12 112.06 78.14C112.2 78.2 112.34 78.27 112.47 78.34L111.92 78.52L111.69 78.59L111.95 78.09C111.78 78.01 111.61 77.93 111.43 77.86C110.62 77.51 109.79 77.23 108.94 77.01C107.73 76.69 106.48 76.51 105.21 76.47C103.95 76.43 102.66 76.56 101.42 76.96C100.8 77.15 100.19 77.42 99.6301 77.77C99.0701 78.12 98.5501 78.56 98.1201 79.07C97.6801 79.59 97.3501 80.14 97.0601 80.72C96.7801 81.3 96.5501 81.91 96.3801 82.52C96.2001 83.14 96.0901 83.77 96.0101 84.4C95.9401 85.03 95.9001 85.65 95.8901 86.27C95.8801 87.52 95.9801 88.78 96.2601 90.02C96.5501 91.26 97.0101 92.47 97.7601 93.55C98.1401 94.08 98.6001 94.57 99.1201 94.98C99.6401 95.38 100.22 95.72 100.89 95.92C101.54 96.11 102.2 96.16 102.83 96.17C103.46 96.18 104.07 96.15 104.67 96.13C104.97 96.13 105.26 96.12 105.57 96.12H106.48L108.3 96.13H111.94L115.59 96.12L119.24 96.09L121.06 96.07L121.97 96.05H122.4C122.4 96.05 122.42 96.06 122.43 96.09C122.47 96.16 122.49 96.29 122.49 96.41C122.5 96.54 122.5 96.68 122.48 96.82C122.46 97.1 122.41 97.39 122.35 97.68C122.29 97.97 122.22 98.26 122.14 98.55C122.1 98.69 122.06 98.83 122.02 98.98L122.01 99.02L122 99.03L117.81 99.07L116.77 99.06L115.72 99.04L113.63 99L105.24 98.85C104.53 98.85 103.84 98.87 103.15 98.87C102.47 98.86 101.8 98.82 101.14 98.7C100.82 98.64 100.49 98.57 100.18 98.48C99.8701 98.38 99.5601 98.27 99.2601 98.14C98.6701 97.86 98.1001 97.51 97.5801 97.11C96.5301 96.3 95.6601 95.26 95.0201 94.09C94.3701 92.92 93.9301 91.63 93.6501 90.31C93.3701 88.98 93.2601 87.61 93.2701 86.25C93.2801 84.88 93.4001 83.52 93.7201 82.2C93.8901 81.54 94.0901 80.89 94.3401 80.26C94.6001 79.64 94.9001 79.03 95.2601 78.45C95.9601 77.3 96.9001 76.31 98.0201 75.56C99.1401 74.82 100.43 74.31 101.76 74.02C103.09 73.73 104.47 73.66 105.85 73.73C107.22 73.8 108.58 74.03 109.92 74.39C110.58 74.57 111.24 74.77 111.88 75.02C112.21 75.15 112.52 75.31 112.83 75.49C112.97 75.57 113.11 75.65 113.24 75.74C113.32 75.62 113.39 75.51 113.47 75.4L113.56 75.67ZM113.24 75.74C113.15 75.88 113.06 76.02 112.98 76.17C112.82 76.43 112.69 76.7 112.54 76.97L111.95 78.09C111.99 78.1 112.03 78.12 112.06 78.14C112.06 78.11 112.07 78.08 112.09 78.05C112.1 78.02 112.12 77.98 112.13 77.95C112.14 77.92 112.15 77.89 112.17 77.86C112.17 77.82 112.19 77.8 112.21 77.77C112.38 77.38 112.58 77.02 112.81 76.67C112.88 76.54 112.97 76.41 113.06 76.3C113.06 76.29 113.06 76.29 113.07 76.29C113.17 76.14 113.29 75.99 113.41 75.85C113.36 75.82 113.3 75.78 113.24 75.74ZM113.24 75.74C113.15 75.88 113.06 76.02 112.98 76.17C112.82 76.43 112.69 76.7 112.54 76.97L111.95 78.09C111.99 78.1 112.03 78.12 112.06 78.14C112.06 78.11 112.07 78.08 112.09 78.05C112.1 78.02 112.12 77.98 112.13 77.95C112.14 77.92 112.15 77.89 112.17 77.86C112.17 77.82 112.19 77.8 112.21 77.77C112.38 77.38 112.58 77.02 112.81 76.67C112.88 76.54 112.97 76.41 113.06 76.3C113.06 76.29 113.06 76.29 113.07 76.29C113.17 76.14 113.29 75.99 113.41 75.85C113.36 75.82 113.3 75.78 113.24 75.74ZM113.24 75.74C113.15 75.88 113.06 76.02 112.98 76.17C112.82 76.43 112.69 76.7 112.54 76.97L111.95 78.09C111.99 78.1 112.03 78.12 112.06 78.14C112.06 78.11 112.07 78.08 112.09 78.05C112.1 78.02 112.12 77.98 112.13 77.95C112.14 77.92 112.15 77.89 112.17 77.86C112.17 77.82 112.19 77.8 112.21 77.77C112.38 77.38 112.58 77.02 112.81 76.67C112.88 76.54 112.97 76.41 113.06 76.3C113.06 76.29 113.06 76.29 113.07 76.29C113.17 76.14 113.29 75.99 113.41 75.85C113.36 75.82 113.3 75.78 113.24 75.74ZM113.24 75.74C113.15 75.88 113.06 76.02 112.98 76.17C112.82 76.43 112.69 76.7 112.54 76.97L111.95 78.09C111.99 78.1 112.03 78.12 112.06 78.14C112.08 78.1 112.09 78.06 112.11 78.02C112.11 77.99 112.12 77.97 112.13 77.95C112.14 77.92 112.15 77.89 112.17 77.86C112.17 77.82 112.19 77.8 112.21 77.77C112.38 77.38 112.58 77.02 112.81 76.67C112.88 76.54 112.97 76.41 113.06 76.3C113.06 76.29 113.06 76.29 113.07 76.29C113.17 76.14 113.29 75.99 113.41 75.85C113.36 75.82 113.3 75.78 113.24 75.74Z"
    fill="#19212E"
  />
  <path
    d="M122.86 96.29C123.27 95.98 123.72 95.73 124.18 95.53C124.37 95.45 124.57 95.38 124.77 95.41C124.18 95.88 123.51 96.25 122.99 96.8C123.33 96.78 123.68 96.84 124.01 96.96C124.07 96.98 124.14 97.04 124.12 97.1C124.11 97.13 124.08 97.14 124.05 97.15C123.63 97.31 123.15 97.2 122.73 97.38C122.85 97.49 123.01 97.54 123.15 97.6C123.42 97.71 123.68 97.86 123.92 98.04C124.02 98.12 124.13 98.21 124.16 98.34C123.65 98.3 123.13 98.26 122.62 98.2C122.69 98.37 122.85 98.48 123 98.6C123.28 98.83 123.51 99.13 123.66 99.46C123.23 99.32 122.81 99.15 122.42 98.94L122.86 96.29Z"
    fill="#19212E"
  />
  <path
    d="M122.95 96.45C123.22 96.25 123.51 96.07 123.81 95.91C124.1 95.76 124.44 95.55 124.77 95.59C124.73 95.49 124.69 95.39 124.64 95.28C124.05 95.75 123.39 96.12 122.86 96.67C122.76 96.78 122.83 96.98 122.99 96.98C123.2 96.97 123.4 96.99 123.61 97.03C123.7 97.05 123.79 97.07 123.87 97.1C123.9 97.11 123.92 97.12 123.95 97.13C123.95 97.08 123.94 97.04 123.94 96.99C123.92 96.98 123.82 97.02 123.8 97.03C123.43 97.11 123.04 97.06 122.68 97.2C122.57 97.24 122.49 97.41 122.6 97.5C122.81 97.68 123.08 97.74 123.33 97.87C123.45 97.93 123.57 98 123.69 98.08C123.8 98.16 123.94 98.25 123.99 98.38C124.05 98.3 124.11 98.23 124.16 98.15C123.65 98.11 123.13 98.07 122.62 98.01C122.47 97.99 122.41 98.17 122.46 98.28C122.57 98.53 122.82 98.66 123.01 98.84C123.22 99.04 123.38 99.28 123.5 99.54C123.57 99.45 123.64 99.36 123.7 99.28C123.29 99.15 122.89 98.98 122.5 98.78C122.29 98.67 122.11 98.98 122.32 99.09C122.73 99.3 123.16 99.48 123.61 99.63C123.77 99.68 123.87 99.5 123.81 99.37C123.69 99.11 123.54 98.88 123.34 98.67C123.16 98.48 122.88 98.34 122.77 98.1C122.72 98.19 122.67 98.28 122.61 98.37C123.12 98.43 123.64 98.47 124.15 98.51C124.26 98.52 124.36 98.39 124.32 98.28C124.22 98 123.95 97.82 123.7 97.67C123.57 97.59 123.42 97.52 123.28 97.46C123.13 97.4 122.96 97.35 122.84 97.25C122.81 97.35 122.79 97.45 122.76 97.55C123.04 97.44 123.34 97.45 123.63 97.42C123.83 97.4 124.19 97.38 124.27 97.15C124.36 96.9 124.05 96.79 123.86 96.73C123.57 96.64 123.27 96.61 122.97 96.62C123.01 96.72 123.05 96.82 123.1 96.93C123.62 96.38 124.29 96.01 124.88 95.54C125.02 95.43 124.89 95.25 124.75 95.23C124.39 95.18 124.03 95.38 123.71 95.54C123.37 95.71 123.05 95.91 122.75 96.13C122.58 96.27 122.76 96.59 122.95 96.45Z"
    fill="#19212E"
  />
  <path
    d="M111.8 82.55C111.05 80.05 111.98 77.38 113.69 75.52C114.79 74.33 116.48 73.39 118.08 73.41C119.82 73.44 121.02 74.26 122.44 75.33C123.82 76.37 123.38 77.46 123.15 77.85C121.72 80.32 120.29 82.79 118.85 85.27C118.23 86.34 117.96 87.02 116.66 86.78C115.62 86.58 112.39 84.52 111.8 82.55Z"
    fill="#4C9AFF"
  />
  <path
    d="M123.72 76.38C123.68 76.26 123.65 76.14 123.59 76.03C123.49 75.81 123.34 75.62 123.19 75.44C123.11 75.35 123.03 75.27 122.95 75.19L122.7 74.97L122.21 74.6C121.57 74.1 120.87 73.61 120.06 73.27C119.65 73.11 119.22 72.98 118.78 72.91L118.45 72.87L118.12 72.85C118.01 72.84 117.89 72.84 117.78 72.84C117.66 72.85 117.55 72.86 117.44 72.86C116.53 72.95 115.69 73.27 114.93 73.71C114.55 73.92 114.19 74.18 113.85 74.46C113.67 74.6 113.5 74.75 113.34 74.92C113.25 75.01 113.16 75.11 113.07 75.21C113.02 75.26 112.97 75.32 112.92 75.38C112.89 75.42 112.86 75.45 112.83 75.49C112.3 76.11 111.87 76.82 111.54 77.57C111.5 77.66 111.46 77.76 111.43 77.86C111.36 78.03 111.3 78.21 111.25 78.4C111.18 78.58 111.13 78.77 111.09 78.96C111.01 79.34 110.95 79.72 110.92 80.11C110.87 80.99 110.97 81.88 111.24 82.72C111.4 83.19 111.63 83.59 111.9 83.94C112.17 84.29 112.46 84.61 112.77 84.9C113.39 85.48 114.07 85.97 114.79 86.39C115.15 86.6 115.52 86.8 115.92 86.96C116.12 87.04 116.33 87.11 116.58 87.17C116.8 87.2 117.03 87.23 117.28 87.21C117.52 87.19 117.78 87.11 118.01 86.97C118.23 86.84 118.4 86.65 118.54 86.47C118.67 86.28 118.78 86.1 118.88 85.92L119.17 85.39C119.4 84.97 119.64 84.55 119.88 84.14C120.06 83.81 120.25 83.48 120.44 83.16C120.82 82.51 121.2 81.86 121.58 81.22C121.66 81.09 121.73 80.95 121.82 80.82C122 80.5 122.2 80.18 122.39 79.85C122.53 79.62 122.67 79.38 122.81 79.15L123.43 78.12L123.47 78.06L123.52 77.98C123.55 77.93 123.57 77.87 123.6 77.82C123.65 77.71 123.69 77.6 123.72 77.48C123.79 77.25 123.81 77 123.79 76.75C123.78 76.62 123.75 76.5 123.72 76.38ZM122.98 77.29C122.97 77.37 122.94 77.44 122.91 77.52C122.9 77.56 122.88 77.59 122.86 77.63L122.83 77.69L122.8 77.75L122.21 78.8L121.79 79.55C121.61 79.88 121.43 80.21 121.24 80.53C121.17 80.66 121.1 80.78 121.03 80.9C120.65 81.57 120.28 82.23 119.9 82.89C119.71 83.22 119.52 83.54 119.33 83.86C119.09 84.27 118.85 84.67 118.61 85.07C118.4 85.41 118.21 85.77 117.99 86.05C117.88 86.18 117.76 86.29 117.64 86.36C117.52 86.42 117.39 86.45 117.23 86.46C117.08 86.46 116.9 86.43 116.73 86.4C116.59 86.35 116.42 86.29 116.25 86.21C115.92 86.04 115.59 85.84 115.27 85.63C114.63 85.19 114.03 84.7 113.51 84.15C113.25 83.88 113.01 83.59 112.81 83.29C112.61 82.99 112.45 82.68 112.36 82.38C112.18 81.68 112.12 80.95 112.2 80.23C112.23 80.01 112.27 79.78 112.32 79.56C112.43 79.07 112.59 78.58 112.8 78.13C113.1 77.46 113.49 76.82 113.95 76.25C114.06 76.12 114.17 75.99 114.3 75.87C114.42 75.72 114.56 75.59 114.71 75.46C114.98 75.22 115.28 75 115.58 74.8C116.2 74.42 116.88 74.13 117.57 74.03C117.66 74.02 117.75 74.01 117.83 74C117.92 73.99 118.01 73.99 118.09 73.99H118.36L118.63 74.01C118.99 74.05 119.34 74.13 119.68 74.25C120.37 74.49 121.03 74.89 121.68 75.33L122.16 75.68L122.37 75.84C122.44 75.9 122.5 75.96 122.56 76.01C122.67 76.14 122.78 76.26 122.85 76.4C122.9 76.47 122.92 76.54 122.95 76.61C122.97 76.69 122.99 76.76 123 76.83C123.02 76.98 123.02 77.14 122.98 77.29Z"
    fill="#19212E"
  />
  <path
    d="M57.8 64.19C56.43 65.68 55.87 67.87 56.55 69.81C56.97 71.02 57.83 72.07 58.94 72.71C60.77 73.77 63.24 73.54 65.06 72.42C66.74 71.39 67.64 69.36 67.48 67.41C67.35 65.86 66.5 64.2 65.22 63.28C63.06 61.74 59.99 62.11 58.1 63.89C57.99 63.99 57.9 64.09 57.8 64.19Z"
    fill="#FFAB00"
  />
  <path
    d="M58.19 64.55C57.3 65.53 56.78 66.87 56.81 68.18C56.82 68.51 56.85 68.84 56.93 69.15C57 69.47 57.11 69.78 57.25 70.08C57.53 70.68 57.92 71.22 58.41 71.66C60.34 73.5 63.84 73.13 65.69 71.27C66.6 70.3 67.06 68.92 66.98 67.6C66.95 66.94 66.76 66.29 66.49 65.68C66.21 65.07 65.83 64.51 65.35 64.06C64.88 63.62 64.3 63.28 63.67 63.08C63.04 62.88 62.37 62.8 61.71 62.85C60.38 62.96 59.09 63.58 58.19 64.55ZM57.41 63.83C58.5 62.65 60.04 61.91 61.63 61.8C62.43 61.74 63.24 61.83 64 62.08C64.77 62.33 65.48 62.74 66.08 63.3C66.67 63.86 67.12 64.53 67.45 65.25C67.78 65.97 67.98 66.76 68.01 67.56C68.07 69.16 67.5 70.76 66.4 71.94C66.27 72.09 66.11 72.22 65.97 72.36C65.81 72.49 65.66 72.62 65.49 72.72C65.32 72.84 65.15 72.93 64.98 73.03C64.89 73.08 64.8 73.12 64.72 73.16C64.63 73.2 64.54 73.25 64.45 73.28C64.09 73.44 63.72 73.56 63.34 73.67C62.96 73.76 62.57 73.84 62.18 73.86C62.08 73.87 61.98 73.88 61.88 73.88C61.78 73.88 61.68 73.89 61.58 73.89C61.38 73.88 61.18 73.88 60.99 73.86C60.59 73.83 60.2 73.74 59.81 73.63C59.42 73.52 59.05 73.35 58.69 73.16C58.34 72.96 58.01 72.72 57.71 72.46C57.11 71.93 56.62 71.27 56.27 70.55C56.18 70.37 56.11 70.18 56.04 69.99C55.98 69.8 55.91 69.6 55.88 69.4C55.78 69.01 55.74 68.6 55.73 68.2C55.69 66.59 56.33 65.01 57.41 63.83Z"
    fill="#19212E"
  />
  <path
    d="M59.4801 65.51C59.7501 65.37 60.0301 65.25 60.3201 65.17C60.6101 65.09 60.9101 65.03 61.2201 65.01C61.5201 64.99 61.8301 65.02 62.1301 65.06C62.4301 65.11 62.7201 65.2 62.9901 65.3C63.5401 65.52 64.0501 65.82 64.4901 66.23C64.9301 66.63 65.2701 67.12 65.5401 67.63C65.8001 68.15 65.9901 68.7 66.0801 69.27C66.1701 69.84 66.1501 70.44 65.9901 71.02C65.8301 71.59 65.5001 72.12 65.0701 72.52C64.8501 72.72 64.6101 72.89 64.3501 73.03C64.0901 73.16 63.8201 73.28 63.5401 73.35C62.9901 73.52 62.4101 73.57 61.8501 73.56C61.2801 73.55 60.7201 73.46 60.1801 73.32C59.6301 73.17 59.1001 72.96 58.6101 72.66C58.4801 72.59 58.3701 72.5 58.2501 72.42C58.1401 72.33 58.0101 72.25 57.9101 72.15C57.6901 71.96 57.4901 71.73 57.3101 71.49L57.1801 71.3C57.1401 71.23 57.1001 71.16 57.0601 71.09L56.9701 70.87L56.9001 70.65C56.8201 70.35 56.7801 70.05 56.7701 69.75C56.7501 69.15 56.8601 68.55 57.0901 67.99C57.2101 67.72 57.3501 67.44 57.5201 67.2C57.6001 67.07 57.7001 66.96 57.8001 66.84C57.9001 66.72 58.0001 66.62 58.1001 66.52C58.4901 66.12 58.9801 65.78 59.4801 65.51ZM59.9201 66.33C59.4801 66.57 59.0701 66.85 58.7101 67.2C58.6201 67.29 58.5301 67.37 58.4601 67.47C58.3801 67.56 58.3001 67.65 58.2401 67.75C58.0901 67.94 57.9801 68.15 57.8801 68.37C57.6901 68.81 57.5701 69.29 57.5701 69.77C57.5701 70.01 57.5901 70.25 57.6401 70.48L57.6901 70.65L57.7501 70.81C57.7701 70.86 57.7901 70.91 57.8201 70.95L57.9101 71.1C58.0401 71.3 58.1901 71.49 58.3801 71.65C58.4601 71.74 58.5701 71.81 58.6601 71.89C58.7601 71.96 58.8601 72.04 58.9701 72.11C59.3901 72.38 59.8601 72.6 60.3501 72.75C61.3301 73.05 62.4101 73.11 63.3801 72.83C63.6201 72.76 63.8501 72.66 64.0701 72.55C64.2901 72.43 64.4901 72.29 64.6601 72.12C64.8301 71.95 64.9901 71.76 65.1101 71.55C65.1801 71.45 65.2201 71.33 65.2701 71.23C65.2901 71.17 65.3101 71.11 65.3301 71.06C65.3501 71 65.3701 70.95 65.3801 70.89C65.5001 70.42 65.4901 69.92 65.4001 69.43C65.3001 68.94 65.1201 68.46 64.8801 68.03C64.6301 67.59 64.3201 67.19 63.9501 66.88C63.5901 66.57 63.1401 66.33 62.6801 66.17C62.4501 66.09 62.2201 66.03 61.9801 65.99C61.7401 65.96 61.5101 65.95 61.2701 65.96C61.0401 65.98 60.8001 66.02 60.5801 66.09C60.3501 66.12 60.1301 66.21 59.9201 66.33Z"
    fill="#19212E"
  />
  <path
    d="M59.6501 70.04C59.8501 69.81 60.1001 69.6 60.3901 69.45C60.6701 69.3 61.0001 69.21 61.3201 69.2C61.6401 69.18 61.9601 69.24 62.2601 69.34C62.5601 69.44 62.8301 69.59 63.0801 69.79C63.3301 69.99 63.5401 70.24 63.6801 70.53C63.7501 70.67 63.8101 70.82 63.8401 70.98C63.8801 71.14 63.9001 71.28 63.9101 71.43C63.9301 71.72 63.9201 72.02 63.8501 72.32C63.7801 72.61 63.6401 72.91 63.4001 73.13C63.1701 73.35 62.8701 73.48 62.5801 73.53C62.2901 73.59 62.0001 73.57 61.7301 73.56C61.4601 73.54 61.1801 73.52 60.9001 73.46C60.6201 73.41 60.3501 73.33 60.0801 73.2C59.8201 73.07 59.5601 72.9 59.3701 72.65C59.1801 72.41 59.0301 72.1 59.0101 71.78C58.9801 71.46 59.0401 71.14 59.1601 70.85C59.2801 70.53 59.4501 70.27 59.6501 70.04ZM60.1701 70.54C59.8401 70.86 59.5801 71.29 59.5701 71.73C59.5601 71.95 59.6201 72.16 59.7501 72.36C59.8701 72.56 60.0601 72.72 60.2701 72.84C60.4801 72.96 60.7301 73.04 60.9801 73.1C61.2301 73.15 61.4901 73.18 61.7601 73.19C62.0301 73.2 62.2801 73.2 62.5201 73.15C62.7601 73.09 62.9701 72.98 63.1201 72.82C63.2701 72.66 63.3501 72.44 63.3901 72.21C63.4201 71.98 63.4101 71.73 63.3601 71.49C63.3101 71.24 63.2401 71.04 63.1201 70.85C63.0001 70.66 62.8401 70.51 62.6501 70.39C62.2701 70.15 61.8101 70.02 61.3801 70.06C61.1601 70.08 60.9501 70.12 60.7501 70.2C60.5301 70.25 60.3501 70.38 60.1701 70.54Z"
    fill="#19212E"
  />
  <path
    d="M79.1101 60.23C79.1101 60.23 79.1901 59.55 78.7201 59.52C78.2401 59.49 65.0701 57.83 60.3301 57.2C55.5701 56.57 51.6501 56.32 51.6501 56.32C51.6501 56.32 51.4801 56.25 51.2801 57.15C51.0801 58.05 50.6501 60.15 51.3201 60.41C51.9901 60.67 65.2801 62.7 78.7501 63.16C78.7401 63.18 79.0101 61.01 79.1101 60.23Z"
    fill="#DC3309"
  />
  <path
    d="M78.9001 60.21C78.9101 60.1 78.9001 59.96 78.8601 59.88C78.8401 59.84 78.8201 59.8 78.8001 59.79C78.7801 59.77 78.7601 59.77 78.7201 59.76L78.5101 59.74L78.2901 59.72L77.8501 59.68L76.1001 59.5L72.5901 59.14C70.2501 58.9 67.9201 58.65 65.5801 58.39C64.4101 58.25 63.2501 58.12 62.0801 57.97L60.3301 57.75C59.7501 57.67 59.1701 57.59 58.5901 57.52C56.2701 57.21 53.9501 56.91 51.6201 56.56L51.5601 56.55C51.6301 56.57 51.6301 56.56 51.6501 56.56C51.6601 56.56 51.6701 56.55 51.6801 56.55C51.6901 56.55 51.6901 56.55 51.7001 56.54C51.7001 56.54 51.7001 56.54 51.7101 56.54C51.7201 56.54 51.7101 56.54 51.7101 56.55C51.7001 56.57 51.6901 56.6 51.6701 56.62C51.6501 56.68 51.6201 56.75 51.6001 56.83C51.5601 56.98 51.5301 57.14 51.5101 57.3C51.4501 57.62 51.4001 57.95 51.3601 58.27C51.3201 58.59 51.2901 58.92 51.2901 59.23C51.2901 59.39 51.2901 59.54 51.3101 59.68C51.3301 59.82 51.3601 59.96 51.4001 60.04C51.4201 60.08 51.4401 60.1 51.4501 60.1C51.4601 60.1 51.4401 60.1 51.4601 60.1L51.5401 60.12C51.6901 60.15 51.8501 60.17 52.0101 60.2C52.3301 60.25 52.6601 60.29 52.9901 60.34C53.6501 60.43 54.3101 60.5 54.9601 60.58C55.6201 60.66 56.2801 60.74 56.9401 60.81L58.9201 61.03L62.8801 61.45C65.5201 61.72 68.1601 61.99 70.8101 62.23L74.7801 62.61C76.1001 62.74 77.4301 62.85 78.7501 62.99L78.5401 63.17C78.6101 62.68 78.6701 62.19 78.7301 61.7L78.9001 60.21ZM79.3201 60.26L79.1201 61.73C79.0601 62.22 79.0001 62.71 78.9401 63.2L78.9201 63.38H78.7301C76.0601 63.46 73.3901 63.4 70.7301 63.26C68.0701 63.11 65.4101 62.9 62.7501 62.6C61.4201 62.45 60.1001 62.3 58.7801 62.11C58.1201 62.02 57.4601 61.93 56.8001 61.83C56.1401 61.73 55.4801 61.62 54.8201 61.51C54.1601 61.4 53.5001 61.28 52.8501 61.15C52.5201 61.08 52.1901 61.02 51.8601 60.95C51.6901 60.91 51.5301 60.87 51.3501 60.83C51.3101 60.82 51.2401 60.8 51.1901 60.78C51.1301 60.76 51.0401 60.71 50.9801 60.66C50.8501 60.56 50.7801 60.43 50.7301 60.32C50.6401 60.1 50.6201 59.9 50.6001 59.71C50.5901 59.52 50.6001 59.34 50.6101 59.17C50.6401 58.82 50.6901 58.48 50.7601 58.15C50.8301 57.82 50.9001 57.49 50.9901 57.16C51.0401 57 51.0901 56.83 51.1501 56.66C51.1801 56.58 51.2201 56.49 51.2701 56.4C51.3001 56.36 51.3201 56.31 51.3601 56.26C51.3801 56.24 51.4001 56.21 51.4401 56.18C51.4501 56.17 51.4601 56.17 51.4701 56.16C51.4801 56.15 51.5001 56.14 51.5101 56.14C51.5301 56.13 51.5501 56.13 51.5701 56.12C51.6001 56.12 51.6101 56.11 51.6901 56.13L51.6301 56.12C53.9901 56.08 56.3501 56.24 58.6901 56.49C59.2801 56.56 59.8601 56.63 60.4501 56.7L62.1901 56.93C63.3501 57.08 64.5201 57.25 65.6801 57.41L72.6501 58.43C73.8101 58.6 74.9701 58.77 76.1401 58.94L77.8801 59.19L78.3201 59.25L78.7601 59.31C78.8701 59.32 78.9901 59.37 79.0801 59.46C79.1701 59.54 79.2201 59.64 79.2601 59.73C79.2901 59.82 79.3101 59.91 79.3101 60C79.3401 60.08 79.3301 60.16 79.3201 60.26Z"
    fill="#19212E"
  />
  <path
    d="M47.36 47.73C47.07 47.73 46.83 47.51 46.8 47.22C46.77 46.91 47 46.64 47.31 46.61C48.32 46.52 49.34 46.34 50.32 46.06C50.62 45.98 50.93 46.15 51.01 46.45C51.09 46.75 50.92 47.06 50.62 47.14C49.57 47.43 48.49 47.62 47.41 47.72C47.39 47.73 47.37 47.73 47.36 47.73Z"
    fill="#19212E"
  />
  <path
    d="M40.27 48.8299L39.66 45.7999H39.65L39.6 45.5299C39.51 45.5499 39.42 45.5699 39.33 45.5899H39.32C39.29 45.5899 39.26 45.5999 39.23 45.6099C39.01 45.6499 38.79 45.6999 38.56 45.7599C38.34 45.7999 38.12 45.8599 37.89 45.9199C32.57 47.2299 25.66 50.1599 23.72 57.3799C22.44 62.1299 22.89 67.4799 23.47 72.2399C23.51 72.5699 23.55 72.8899 23.58 73.1999C23.72 74.3899 23.9 75.5899 24.06 76.7399C24.58 80.3499 25.07 83.7499 24.73 87.1799C24.56 88.8099 23.89 91.1099 22.94 92.3499C22.19 93.3199 20.43 95.6099 15.1 95.6099C11.71 95.6099 7.54 95.5999 3.51 95.5999H0V99.2499C1.69 99.2399 2.93 99.2499 3.51 99.2499C7.54 99.2599 11.7 99.2699 15.1 99.2699C17.96 99.2699 20.41 98.7099 22.38 97.6099C24.13 96.6399 25.19 95.4099 25.84 94.5799C27.38 92.5699 28.16 89.5399 28.36 87.5499C28.75 83.6799 28.21 79.8899 27.68 76.2199C27.52 75.0899 27.35 73.9199 27.21 72.7699C27.17 72.4499 27.14 72.1299 27.1 71.8099C26.57 67.4099 25.88 62.3899 27.2 58.4799C29.36 52.0799 34.73 50.3299 38.81 49.4299C39.04 49.3699 39.27 49.3299 39.48 49.2799C39.68 49.2399 39.87 49.1999 40.05 49.1599C40.09 49.1599 40.13 49.1499 40.17 49.1399C40.23 49.1299 40.28 49.1199 40.33 49.1099L40.27 48.8299Z"
    fill="#FF8F73"
  />
  <path
    d="M40.6 49.0499L39.88 45.47L39.82 45.2L39.54 45.25C39.43 45.27 39.33 45.29 39.22 45.31C39 45.36 38.77 45.4 38.55 45.45C38.32 45.5 38.1 45.5499 37.88 45.5999C36.06 46.0299 34.27 46.58 32.54 47.34C30.3 48.32 28.17 49.67 26.46 51.5C25.61 52.41 24.88 53.4399 24.3 54.5499C23.72 55.6599 23.32 56.86 23.04 58.06C22.47 60.47 22.31 62.9499 22.36 65.3899C22.4 67.84 22.64 70.2699 22.92 72.6699C23.18 75.0899 23.58 77.49 23.86 79.86C24.15 82.24 24.34 84.6199 24.11 86.9599C24 88.09 23.72 89.24 23.31 90.3C23.1 90.83 22.86 91.3499 22.56 91.7799L22.44 91.94L22.31 92.12C22.22 92.23 22.13 92.34 22.04 92.44C21.86 92.65 21.67 92.8499 21.47 93.0299C20.66 93.77 19.64 94.2599 18.54 94.5599C17.45 94.8599 16.29 94.98 15.12 94.98H7.87C5.25 94.99 2.63 94.99 0 95.01V96.18L7.87 96.22L15.12 96.2399C16.37 96.2399 17.64 96.12 18.88 95.79C20.11 95.45 21.33 94.87 22.32 93.98C22.57 93.76 22.8 93.5299 23.01 93.2799C23.12 93.16 23.22 93.03 23.32 92.91L23.46 92.72L23.61 92.51C23.99 91.95 24.27 91.3599 24.5 90.7699C24.73 90.1699 24.91 89.5699 25.06 88.9499C25.2 88.3399 25.32 87.71 25.37 87.08C25.6 84.6 25.4 82.1199 25.1 79.7099C24.78 77.2899 24.38 74.9199 24.1 72.5299C23.8 70.1399 23.53 67.75 23.46 65.3699C23.42 64.1699 23.44 62.9799 23.52 61.7999C23.6 60.6099 23.75 59.4399 24.01 58.2799C24.13 57.7099 24.28 57.14 24.47 56.59C24.65 56.04 24.88 55.5 25.14 54.9799C25.66 53.9299 26.33 52.96 27.11 52.09C28.68 50.35 30.69 49.0199 32.84 48.0099C34.46 47.2599 36.16 46.68 37.91 46.22C38.13 46.16 38.35 46.1099 38.57 46.0499C38.79 45.9999 39.02 45.94 39.24 45.9C39.29 45.88 39.33 45.87 39.38 45.86L39.32 45.59H39.33L39.65 45.7999C39.56 45.8199 39.47 45.84 39.38 45.86L39.96 48.7299L39.99 48.8899C40.01 48.8799 40.02 48.88 40.04 48.88C40.12 48.86 40.19 48.85 40.27 48.83L40.12 49.0499L40.05 49.16L39.99 48.8899C39.78 48.9299 39.56 48.97 39.35 49.02C39.12 49.06 38.9 49.1099 38.67 49.1699C37.85 49.3399 37.04 49.54 36.23 49.79C34.9 50.2 33.59 50.7299 32.38 51.4599C31.17 52.1799 30.07 53.0899 29.16 54.1899C28.25 55.2699 27.55 56.53 27.05 57.84C26.79 58.5 26.59 59.1899 26.44 59.8699C26.3 60.5599 26.2 61.2599 26.14 61.9599C26.02 63.3599 26.03 64.76 26.11 66.1399C26.19 67.5299 26.33 68.8999 26.49 70.2699L26.72 72.33C26.8 73.01 26.88 73.6999 26.97 74.3799C27.33 77.1199 27.77 79.83 27.94 82.55C27.97 83.22 28 83.9 28 84.58C28 85.26 27.98 85.93 27.93 86.61C27.92 86.7799 27.91 86.94 27.89 87.11C27.87 87.2799 27.86 87.45 27.84 87.61C27.81 87.94 27.75 88.2699 27.69 88.5999C27.57 89.2599 27.41 89.91 27.21 90.54C26.82 91.81 26.28 93.0499 25.52 94.0899C24.74 95.1499 23.79 96.0799 22.69 96.7799C21.6 97.4899 20.36 97.9799 19.07 98.29C17.79 98.61 16.45 98.7399 15.1 98.7399L0 98.8V99.7099L15.1 99.79C16.51 99.79 17.93 99.6699 19.32 99.3499C20.02 99.18 20.7 98.9699 21.37 98.6999C22.04 98.4299 22.68 98.0999 23.29 97.7099C24.51 96.93 25.56 95.89 26.4 94.73C27.25 93.53 27.8 92.1999 28.21 90.8499C28.42 90.1699 28.58 89.4799 28.7 88.7799C28.76 88.43 28.82 88.08 28.85 87.72C28.87 87.55 28.88 87.3699 28.9 87.1999C28.91 87.0199 28.93 86.8499 28.94 86.6699C28.98 85.9699 28.99 85.27 28.99 84.57C28.98 83.88 28.94 83.18 28.9 82.48C28.7 79.7 28.23 76.98 27.85 74.26C27.75 73.58 27.67 72.91 27.58 72.22L27.32 70.18C27.16 68.8099 27 67.45 26.91 66.09C26.82 64.7299 26.8 63.37 26.9 62.02C27.01 60.68 27.25 59.3499 27.72 58.0999C28.19 56.8399 28.84 55.6499 29.69 54.6199C30.53 53.5799 31.57 52.6999 32.71 52.0099C33.86 51.2999 35.11 50.77 36.41 50.36C37.24 50.1 38.08 49.8799 38.94 49.6899C39.16 49.6399 39.39 49.59 39.62 49.54C39.85 49.49 40.08 49.4399 40.31 49.3899C40.33 49.3899 40.36 49.38 40.38 49.38L40.66 49.33L40.6 49.0499Z"
    fill="#19212E"
  />
  <path
    d="M46.8701 43.9499C46.6001 43.9499 46.3601 43.7499 46.3101 43.4699C46.2601 43.1599 46.4701 42.8799 46.7801 42.8299L49.8501 42.3699C50.1601 42.3199 50.4401 42.5299 50.4901 42.8399C50.5401 43.1499 50.3301 43.4299 50.0201 43.4799L46.9501 43.9399C46.9301 43.9499 46.9001 43.9499 46.8701 43.9499Z"
    fill="#19212E"
  />
  <path
    d="M42.0198 51.97C39.7598 50.68 38.5898 48.1 38.5498 45.57C38.5298 43.95 39.0998 42.1 40.2798 41.02C41.5598 39.84 42.9998 39.61 44.7698 39.41C46.4898 39.22 46.9198 40.31 47.0298 40.75C47.6898 43.53 48.3598 46.31 49.0198 49.09C49.3098 50.29 49.5798 50.98 48.4698 51.69C47.5698 52.26 43.7998 52.98 42.0198 51.97Z"
    fill="#FF8F73"
  />
  <path
    d="M39.9599 48.7299L39.9899 48.8899C40.0099 48.8799 40.0199 48.88 40.0399 48.88C40.0099 48.83 39.9899 48.78 39.9599 48.7299ZM39.9599 48.7299L39.9899 48.8899C40.0099 48.8799 40.0199 48.88 40.0399 48.88C40.0099 48.83 39.9899 48.78 39.9599 48.7299ZM49.5999 50.16C49.5699 49.9399 49.5199 49.7299 49.4699 49.5299L49.3199 48.95C49.1999 48.47 49.0799 47.9899 48.9599 47.5099C48.8699 47.1499 48.7799 46.7799 48.6999 46.4199C48.5299 45.6999 48.3599 44.99 48.1899 44.27C48.1499 44.1 48.1099 43.93 48.0799 43.77C47.9899 43.4 47.9099 43.0299 47.8299 42.6699C47.7699 42.4199 47.7199 42.1699 47.6599 41.9199L47.3999 40.74L47.3899 40.6699L47.3699 40.58C47.3499 40.52 47.3399 40.47 47.3199 40.41C47.2799 40.3 47.2299 40.18 47.1699 40.08C47.0599 39.86 46.9099 39.66 46.7199 39.5C46.6199 39.41 46.5199 39.3399 46.4099 39.2799C46.2999 39.2199 46.1899 39.1599 46.0799 39.1199C45.8499 39.0299 45.6099 38.9899 45.3799 38.9599C45.2699 38.9599 45.1499 38.95 45.0399 38.95L44.6999 38.97L44.0899 39.02C43.2799 39.11 42.4399 39.2299 41.6199 39.5499C41.2099 39.7099 40.8099 39.9199 40.4399 40.1699L40.1699 40.3699L39.9199 40.58C39.8299 40.65 39.7499 40.73 39.6699 40.81C39.5899 40.89 39.5099 40.98 39.4299 41.06C38.8399 41.75 38.4499 42.56 38.1999 43.4C38.0699 43.82 37.9899 44.25 37.9299 44.68C37.8999 44.99 37.8799 45.2899 37.8799 45.5999C37.8799 45.7099 37.8799 45.8099 37.8899 45.9199V45.99C37.8899 46.07 37.8999 46.14 37.9099 46.22C37.9599 47.01 38.1399 47.79 38.3999 48.54C38.4799 48.75 38.5699 48.9599 38.6699 49.1699C38.7099 49.2599 38.7599 49.35 38.8099 49.43C38.8499 49.52 38.8899 49.6099 38.9399 49.6899C39.1599 50.0799 39.4199 50.4599 39.7099 50.7999C40.2699 51.4699 40.9599 52.05 41.7299 52.47C42.1699 52.7 42.6099 52.83 43.0499 52.9C43.4899 52.97 43.9199 53.01 44.3399 53C45.1899 52.99 46.0199 52.8799 46.8299 52.6899C47.2399 52.5899 47.6399 52.4799 48.0499 52.32C48.2499 52.24 48.4499 52.15 48.6599 52.02C48.8499 51.89 49.0299 51.7599 49.1999 51.57C49.3599 51.3899 49.4999 51.15 49.5699 50.8899C49.6399 50.6399 49.6299 50.3899 49.5999 50.16ZM47.7699 51.5499C47.4099 51.6599 47.0299 51.7399 46.6499 51.7999C45.8899 51.9299 45.1199 51.9799 44.3599 51.9399C43.9799 51.9299 43.6099 51.88 43.2599 51.81C42.9099 51.73 42.5799 51.6099 42.3099 51.4599C41.6899 51.0699 41.1499 50.58 40.7099 50C40.5699 49.8 40.4299 49.5999 40.3099 49.3899C40.2599 49.3099 40.2099 49.2299 40.1699 49.1399C40.1499 49.11 40.1399 49.0799 40.1199 49.0499C40.0899 48.9999 40.0599 48.94 40.0399 48.88C40.0099 48.83 39.9899 48.78 39.9599 48.7299C39.8599 48.5199 39.7799 48.2999 39.6999 48.07C39.4499 47.38 39.2999 46.65 39.2399 45.91V45.9C39.2299 45.8 39.2199 45.71 39.2299 45.61C39.2199 45.51 39.2199 45.41 39.2199 45.31C39.2199 45.15 39.2199 44.9799 39.2399 44.82C39.2699 44.4599 39.3399 44.09 39.4299 43.74C39.6099 43.04 39.9099 42.36 40.3399 41.81C40.3899 41.74 40.4499 41.67 40.5099 41.61C40.5699 41.55 40.6199 41.4799 40.6899 41.4199L40.8799 41.24L41.0899 41.07C41.3799 40.85 41.6899 40.6599 42.0199 40.5099C42.6799 40.2099 43.4299 40.05 44.2099 39.93L44.7999 39.84L45.0699 39.82C45.1499 39.81 45.2399 39.82 45.3199 39.81C45.4899 39.83 45.6499 39.8399 45.7999 39.8899C45.8799 39.9099 45.9399 39.9499 46.0199 39.9799C46.0799 40.0199 46.1499 40.0599 46.1999 40.0999C46.3199 40.1999 46.4199 40.31 46.5099 40.45C46.5499 40.52 46.5799 40.59 46.6099 40.66C46.6299 40.7 46.6399 40.7399 46.6499 40.7799L46.6699 40.84L46.6899 40.91L46.9899 42.08C47.0499 42.31 47.1099 42.54 47.1699 42.77C47.2599 43.14 47.3499 43.4999 47.4399 43.8699C47.4899 44.0499 47.5399 44.23 47.5799 44.41C47.7499 45.11 47.9199 45.82 48.0899 46.52C48.1799 46.88 48.2699 47.25 48.3499 47.61C48.4699 48.11 48.5799 48.5999 48.6899 49.0999C48.7799 49.4899 48.8799 49.89 48.9099 50.24C48.9299 50.41 48.9199 50.57 48.8799 50.7C48.8399 50.83 48.7599 50.9399 48.6499 51.0499C48.5399 51.1599 48.3899 51.2599 48.2399 51.3499C48.1099 51.4199 47.9399 51.4899 47.7699 51.5499ZM39.9599 48.7299L39.9899 48.8899C40.0099 48.8799 40.0199 48.88 40.0399 48.88C40.0099 48.83 39.9899 48.78 39.9599 48.7299Z"
    fill="#19212E"
  />
</svg>
