<svg xmlns="http://www.w3.org/2000/svg" fill="none" viewBox="0 0 70 104">
  <path
    fill="#fff"
    d="M51.28 91.86c3.37.8 7.65 3.38 7.4 7.4-.13 2.02-2.02 3.53-3.9 3.92-3.87.83-7.35-.7-10.14-3.55-1.56-1.58-2.95-4.47-2.38-6.67"
  />
  <path
    fill="#19212E"
    d="M51.33 91.65a9.68 9.68 0 0 1 4.4 1.44c.68.42 1.3.93 1.84 1.53.55.6 1.02 1.3 1.33 2.07a5.56 5.56 0 0 1 .19 3.76c-.15.41-.37.8-.63 1.14a5.71 5.71 0 0 1-3.07 2.08 5.57 5.57 0 0 1-1.18.24c-1.57.22-3.2.04-4.68-.47a12.19 12.19 0 0 1-4.84-3.16c-.26-.27-.53-.55-.78-.86a10.17 10.17 0 0 1-1.94-4.18 5.31 5.31 0 0 1 .08-2.33.21.21 0 0 1 .27-.15c.1.03.17.14.15.25a4.8 4.8 0 0 0 .06 2.12 9.46 9.46 0 0 0 3.58 5.25c1.13.9 2.4 1.6 3.76 2.03a9.17 9.17 0 0 0 5.17.08 4.9 4.9 0 0 0 2.39-1.66c.37-.52.59-1.1.6-1.72a4.38 4.38 0 0 0-.34-1.91 5.76 5.76 0 0 0-1.1-1.67c-.46-.5-1-.95-1.57-1.36a22.24 22.24 0 0 0-3.78-2.1.22.22 0 0 1 .1-.42Z"
  />
  <path
    fill="#19212E"
    d="M52.36 99.7a5.56 5.56 0 0 1 1.65 2.54c.12.32.19.65.08 1.02a.16.16 0 0 1-.19.1.2.2 0 0 1-.07-.03 1.84 1.84 0 0 1-.47-.87 13.02 13.02 0 0 0-.72-1.74l-.48-.84a.13.13 0 0 1 .2-.17ZM54.98 98.3c.38.15.7.45.94.78a3.85 3.85 0 0 1 .65 2.33c-.04.42-.19.82-.5 1.12a.13.13 0 0 1-.23-.1c-.03-.4.01-.74.04-1.07a5.16 5.16 0 0 0-.4-2.01 2.4 2.4 0 0 0-.62-.84.13.13 0 0 1-.02-.18c.04-.04.1-.05.14-.03Z"
  />
  <path
    fill="#fff"
    d="M30.47 96.56c.28.25.58.48.89.69.34.23.72.44 1.13.49.42.05.88.29 1.1-.06.22-.37.1-1.76-.19-2.09-.59-.69-1.5-.83-2.28-.9-.66-.07-1.43 1.16-.65 1.87Z"
  />
  <path
    fill="#fff"
    d="M25.68 94.53a6.51 6.51 0 0 0-5.24.44c-1.48.73-2.63 1.89-2.92 3.5-.3 1.63-.01 3.06 1.44 3.85.94.5 2.87.49 3.95.49 1.61 0 3.87.16 5.48 0 1.85-.18 2.85-.27 4.17-1.59.83-.83 1.37-3.02 1.35-4.2"
  />
  <path
    fill="#19212E"
    d="M25.63 94.72a12.2 12.2 0 0 0-2-.07 6.24 6.24 0 0 0-1.84.4 10.15 10.15 0 0 0-1.73.82c-.52.34-1 .75-1.34 1.24-.34.5-.57 1.04-.65 1.66-.1.62-.1 1.25.07 1.77.17.53.52.96 1.03 1.25.22.13.5.22.8.28.31.07.64.11.96.14.66.06 1.34.07 2.03.08.7.01 1.4.05 2.08.07a59.12 59.12 0 0 0 3.06.03l1.02-.08a6.05 6.05 0 0 0 1.89-.4c.29-.13.56-.3.81-.5s.52-.42.7-.64c.37-.5.63-1.13.82-1.77.2-.64.35-1.31.38-1.97a.2.2 0 0 1 .38 0 8.1 8.1 0 0 1-1.07 4.12c-.1.15-.25.31-.37.43l-.4.38a4.61 4.61 0 0 1-1.98 1c-.36.09-.71.14-1.06.19-.36.04-.69.09-1.05.12-.35.03-.7.06-1.06.07-.7.02-1.4.02-2.1.01l-2.05-.02c-.69.01-1.4.02-2.11-.03a9.33 9.33 0 0 1-1.66-.28l-.3-.11-.28-.15a3.27 3.27 0 0 1-1.57-1.85 4.93 4.93 0 0 1-.14-2.32c.1-.76.4-1.53.85-2.16a5.88 5.88 0 0 1 1.66-1.57 7.63 7.63 0 0 1 2.02-.93 5.64 5.64 0 0 1 4.3.41c.1.05.14.17.1.27a.2.2 0 0 1-.2.1Z"
  />
  <path
    fill="#19212E"
    d="M22.2 97.93c-.22.36-.32.76-.39 1.17a8.8 8.8 0 0 0 .03 2.5c.08.4.18.8.2 1.27a.14.14 0 0 1-.23.11 2.26 2.26 0 0 1-.68-1.23 5.84 5.84 0 0 1 .16-2.78c.14-.44.35-.88.7-1.21a.13.13 0 0 1 .19 0c.04.05.04.11.01.16ZM25.86 98.64a7.2 7.2 0 0 0 0 2.12c.06.35.14.69.25 1.03.11.34.22.68.18 1.1-.01.07-.08.13-.16.12a.15.15 0 0 1-.08-.03 1.92 1.92 0 0 1-.58-1 6 6 0 0 1-.22-1.14 4.64 4.64 0 0 1 .36-2.28c.03-.06.1-.09.17-.06.05.03.08.08.07.14Z"
  />
  <path
    fill="#fff"
    d="M49.44 84.76a6.49 6.49 0 0 0 6.34.51c.64-.3 1.23-.72 1.89-.99.66-.27 1.42-.4 2.07-.1 1.07.5 1.37 1.99.87 3.05-.5 1.06-1.59 1.73-2.7 2.13a9.78 9.78 0 0 1-9.36-1.56"
  />
  <path
    fill="#19212E"
    d="M49.55 84.6a6.46 6.46 0 0 0 6.23 0c.48-.26.97-.6 1.57-.86.3-.14.62-.25.96-.31.35-.07.71-.09 1.1-.02a2.39 2.39 0 0 1 1.8 1.38c.31.68.36 1.43.19 2.14-.19.73-.61 1.3-1.1 1.76-.5.45-1.07.78-1.65 1.03-.29.12-.58.22-.88.31-.29.1-.6.16-.9.23a9.66 9.66 0 0 1-8.45-2.31l.26-.3a10.01 10.01 0 0 0 7.95 1.5l.78-.24c.26-.09.5-.18.75-.3.48-.22.92-.5 1.27-.84a3.04 3.04 0 0 0 .6-.85 1.94 1.94 0 0 0-.02-1.56 1.1 1.1 0 0 0-.85-.66c-.37-.1-.86 0-1.32.2-.47.18-.96.48-1.5.75a6.55 6.55 0 0 1-7.01-.73l.22-.32Z"
  />
  <path
    fill="#fff"
    d="M49.06 93.27c.88-.54 1.7-1.2 2.43-1.98 3.4-3.69 3.4-9.37 3.07-14.14-.42-5.9-2.48-11.56-5.26-16.75a2.31 2.31 0 0 0-1.66-1.2c-7.16-1.15-16.35-1.29-23.49-.04-.75.13-1.38.64-1.7 1.35a71.42 71.42 0 0 0-3.63 9.87c-2.26 8.44-3.53 19.85 6 23.92C29.59 96.34 35 96.7 40.08 96c3.03-.42 6.3-1.09 8.98-2.73Z"
  />
  <path
    fill="#19212E"
    d="M48.78 92.81a10.42 10.42 0 0 0 2.8-2.47c.76-.98 1.33-2.12 1.7-3.32.38-1.2.6-2.47.7-3.75.11-1.27.12-2.57.07-3.86a53.04 53.04 0 0 0-.32-3.88c-.16-1.28-.4-2.55-.7-3.8a44.33 44.33 0 0 0-2.54-7.34 53.1 53.1 0 0 0-1.7-3.5l-.06-.11-.03-.05-.02-.04-.1-.15a1.58 1.58 0 0 0-.82-.6c-.12-.04-.2-.05-.38-.08l-.49-.07-.96-.14a77.57 77.57 0 0 0-7.8-.63c-2.6-.09-5.22-.05-7.82.12-.65.04-1.3.1-1.95.16-.64.07-1.3.13-1.93.22l-.97.13-.96.15-.24.04a1.56 1.56 0 0 0-.48.18 1.64 1.64 0 0 0-.7.76l-.2.43-.4.9a83.26 83.26 0 0 0-2.1 5.48 56.6 56.6 0 0 0-1.12 3.73 52.9 52.9 0 0 0-.83 3.8c-.46 2.56-.7 5.15-.5 7.7.01.32.06.63.09.95l.14.94c.12.62.26 1.24.45 1.84.37 1.2.9 2.35 1.61 3.37.72 1.01 1.6 1.9 2.64 2.61 1.02.72 2.17 1.25 3.38 1.69 2.41.88 4.97 1.35 7.55 1.49a34.71 34.71 0 0 0 11.5-1.36c1.23-.38 2.4-.89 3.49-1.54Zm.56.92a16.77 16.77 0 0 1-3.72 1.66c-1.28.4-2.6.7-3.91.92a43.26 43.26 0 0 1-3.97.49c-1.33.1-2.67.11-4.01.05a27.4 27.4 0 0 1-7.9-1.5 15.66 15.66 0 0 1-3.67-1.81 11.77 11.77 0 0 1-2.96-2.9c-.81-1.13-1.4-2.4-1.81-3.7-.42-1.31-.65-2.67-.75-4.02-.21-2.7.03-5.4.5-8.02a53.56 53.56 0 0 1 1.97-7.74 80.37 80.37 0 0 1 2.13-5.58l.4-.91.2-.46a3.09 3.09 0 0 1 1.27-1.38 2.98 2.98 0 0 1 .9-.32l.26-.05.98-.16 1-.13c.65-.1 1.32-.16 1.98-.23.66-.06 1.32-.13 1.98-.16 2.65-.18 5.31-.22 7.96-.13 2.65.08 5.3.3 7.94.64.33.04.65.1.98.15l.5.07a2.95 2.95 0 0 1 2.28 1.5l.03.08.03.05.06.11a54.2 54.2 0 0 1 1.75 3.6 43.08 43.08 0 0 1 2.6 7.57c.3 1.3.54 2.62.7 3.96.04.33.08.66.1 1 .02.33.06.67.07 1 .04.66.08 1.33.09 2 .03 1.33 0 2.67-.12 4.01a18.45 18.45 0 0 1-.82 4c-.1.32-.24.63-.36.95-.13.32-.29.63-.43.94-.18.3-.34.6-.53.9-.2.28-.38.58-.6.85-.86 1.1-1.93 2-3.1 2.7Z"
  />
  <path
    fill="#fff"
    d="M61.46 66.65a9.4 9.4 0 0 0-5.3-3.9 20.47 20.47 0 0 0-5.88-.52c.67 1.49 1.37 2.63 2.06 4.19 1.12.17 2.28.67 2.95 1.28 1.21 1.1 1.77 3.16.94 4.73-.27.53-.77.75-1.3.96-1.56.64-3.07 1.54-3.6 3.24a4.48 4.48 0 0 0 .85 4.22c1.57 1.8 4.04 1.38 5.94.34a10.18 10.18 0 0 0 4.64-5.2c.19-.5.33-1 .42-1.51a10.9 10.9 0 0 0-1.72-7.83Z"
  />
  <path
    fill="#19212E"
    d="M61.17 66.84a9.59 9.59 0 0 0-2.06-2.23 8.2 8.2 0 0 0-2.68-1.39c-.97-.3-2-.44-3.03-.52a25.46 25.46 0 0 0-3.1.02l.44-.7c.3.7.63 1.4.98 2.09.34.7.68 1.41.99 2.14l-.31-.23c.93.18 1.82.51 2.62 1.04.4.26.77.62 1.05 1.01.28.4.5.83.65 1.29.3.9.34 1.93-.01 2.86l-.15.34c-.06.11-.13.24-.22.34-.17.22-.39.39-.6.52-.23.13-.45.22-.66.31l-.59.28c-.77.38-1.47.88-1.97 1.5a3.53 3.53 0 0 0-.8 2.15 4.1 4.1 0 0 0 .55 2.21c.4.65.96 1.18 1.66 1.4.69.24 1.5.21 2.28.02a9.73 9.73 0 0 0 5.72-4.65 8 8 0 0 0 .83-2.4c.15-.83.2-1.7.11-2.56-.15-1.72-.75-3.4-1.7-4.84Zm.58-.38a11.7 11.7 0 0 1 1.9 7.93 8.9 8.9 0 0 1-.83 2.7 10.78 10.78 0 0 1-3.7 4.19c-.77.52-1.64.97-2.59 1.22-.47.12-.97.2-1.47.22-.51 0-1.03-.06-1.54-.23-.5-.16-.98-.42-1.37-.77l-.29-.27c-.09-.1-.18-.19-.26-.3a4.54 4.54 0 0 1-.97-2.07 4.84 4.84 0 0 1 1.15-4.23 7.14 7.14 0 0 1 2.39-1.56c.21-.1.42-.18.64-.26.2-.08.4-.16.57-.25.17-.1.31-.2.42-.33.06-.06.1-.13.15-.21l.12-.27c.3-.75.3-1.62.03-2.4a3.62 3.62 0 0 0-1.45-1.93 5.94 5.94 0 0 0-2.37-.82l-.2-.03-.1-.21c-.33-.7-.7-1.37-1.06-2.06-.37-.68-.75-1.37-1.09-2.09l-.34-.71h.78c1.06.02 2.14.04 3.2.16 1.08.11 2.14.3 3.18.64a9.4 9.4 0 0 1 2.88 1.55c.86.67 1.61 1.48 2.22 2.38Z"
  />
  <path
    fill="#FFAB00"
    d="M32.13 62.4a6 6 0 0 0-1.05 5.98 5.77 5.77 0 0 0 2.66 2.94c1.98 1.03 4.58.67 6.45-.6a5.7 5.7 0 0 0 2.3-5.4 6.18 6.18 0 0 0-2.58-4.25 6.05 6.05 0 0 0-7.78 1.32Z"
  />
  <path
    fill="#19212E"
    d="M32.52 62.72a5.69 5.69 0 0 0-1.12 4.97 5.27 5.27 0 0 0 1.7 2.6c2.16 1.87 5.86 1.3 7.73-.77a5.35 5.35 0 0 0 .58-6 5.57 5.57 0 0 0-1.3-1.66 4.72 4.72 0 0 0-1.83-.97 5.72 5.72 0 0 0-5.76 1.83Zm-.79-.65a6.74 6.74 0 0 1 6.82-2.16c.81.22 1.58.62 2.23 1.18A6.53 6.53 0 0 1 43 65.46a6.34 6.34 0 0 1-2.39 5.52 6.77 6.77 0 0 1-2.2 1.1 7.75 7.75 0 0 1-2.46.32 6.2 6.2 0 0 1-2.43-.62 6.12 6.12 0 0 1-2.66-2.62c-.1-.19-.19-.38-.27-.58-.07-.2-.15-.4-.2-.6a6.68 6.68 0 0 1 1.34-5.91Z"
  />
  <path
    fill="#19212E"
    d="M33.99 63.74a4.83 4.83 0 0 1 1.79-.6c.63-.07 1.27.02 1.86.21a5.03 5.03 0 0 1 2.79 2.32c.3.52.52 1.1.64 1.69.12.6.13 1.23 0 1.84a3.44 3.44 0 0 1-1.62 2.19 5.72 5.72 0 0 1-2.6.68 7.09 7.09 0 0 1-3.45-.8 4.51 4.51 0 0 1-1.43-1.16l-.14-.19-.14-.22-.1-.22-.09-.23a4.57 4.57 0 0 1 1.06-4.37c.42-.45.9-.83 1.42-1.14Zm.46.76c-.46.28-.89.6-1.25.98a3.85 3.85 0 0 0-.98 3.54l.06.18.07.17.09.15.1.16c.3.4.71.75 1.18 1.02.46.27.97.48 1.5.6 1.05.27 2.2.28 3.22-.06a3.26 3.26 0 0 0 1.33-.82c.36-.37.6-.85.7-1.36.11-.5.08-1.04-.04-1.56a5.04 5.04 0 0 0-1.66-2.64 4.42 4.42 0 0 0-2.14-.86 3.72 3.72 0 0 0-2.18.5Z"
  />
  <path
    fill="#19212E"
    d="M34.4 68.5a2.35 2.35 0 0 1 1.7-.96 2.8 2.8 0 0 1 1.85.52 2.32 2.32 0 0 1 .95 1.65c.04.3.05.61-.01.93-.06.3-.2.63-.43.86-.23.25-.53.4-.83.46-.3.07-.61.07-.9.07-.28 0-.58-.02-.87-.07-.3-.04-.58-.11-.87-.23-.28-.12-.55-.29-.77-.54a1.67 1.67 0 0 1-.4-.89 2 2 0 0 1 .1-.97 3 3 0 0 1 .48-.84Zm.52.45a1.9 1.9 0 0 0-.58 1.3c0 .47.33.92.8 1.15.48.24 1.04.3 1.6.3.28 0 .55 0 .8-.08.25-.07.47-.2.63-.38.3-.37.3-.93.2-1.44a1.85 1.85 0 0 0-.3-.67c-.13-.2-.31-.36-.51-.48a2.2 2.2 0 0 0-1.39-.3c-.46.05-.9.23-1.25.6Z"
  />
  <path
    fill="#F6491E"
    d="M21.1 60.45s0 .72.5.69c.51-.03 14.53-.03 19.58 0 5.07.03 9.22-.23 9.22-.23s.18.05.27-.92c.1-.97.26-3.23-.47-3.42-.74-.18-14.93-.55-29.11.75v3.13Z"
  />
  <path
    fill="#19212E"
    d="M21.3 60.45c0 .11.03.26.09.35.05.1.1.12.18.12l.46-.02h.46l1.87-.05 3.72-.07a437.13 437.13 0 0 1 14.88-.13c2.47.02 4.95.01 7.43.06l.06.01h-.09a.2.2 0 0 0-.04.02v-.01l.03-.1.05-.22.04-.5.04-1.04a9.44 9.44 0 0 0-.13-1.5c-.04-.15-.09-.3-.15-.38l-.07-.07h-.02l-.09-.01-.5-.02-1.05-.02h-2.1c-1.4 0-2.8.03-4.2.04l-4.22.08c-2.8.07-5.6.14-8.4.23l-8.43.29.18-.2c0 .53-.01 1.05 0 1.57v1.57Zm-.41 0 .01-1.57v-1.74l.17-.02c2.8-.43 5.6-.7 8.4-.9a153.58 153.58 0 0 1 12.68-.38 123.4 123.4 0 0 1 6.34.21l1.06.08a11.65 11.65 0 0 1 .72.09c.06.02.16.05.22.1.14.08.23.2.3.3.12.21.16.41.2.6.04.2.06.39.07.57.02.37 0 .73-.02 1.1a16.82 16.82 0 0 1-.2 1.6 2.04 2.04 0 0 1-.17.43.4.4 0 0 1-.14.14.22.22 0 0 1-.05.03c-.04 0-.04.02-.13 0l.07.01c-2.48.33-4.96.47-7.45.52l-1.87.01h-1.86l-3.72-.04-7.44-.14-3.72-.06-1.86-.03H21.57A.61.61 0 0 1 21 61a1.26 1.26 0 0 1-.12-.55Z"
  />
  <path
    fill="#fff"
    d="M21.03.4c-2.63.37-4.27 2.68-5.57 4.81-.33.54-.64 1.08-.94 1.64-2.6 4.89-4.52 10.2-6.3 15.43-.68 2.03-1.33 4.07-1.95 6.13-1.94 6.36-5.01 13.92-.05 19.66 4.28 4.95 11.07 6.88 17.26 8.13l.3.06c7.9 1.57 16.06 2.1 24.1 1.73 5.78-.26 13.22-.03 17.53-4.7 4.37-4.72 4.1-12.78 3.39-18.7-.4-3.26-1.07-6.49-1.9-9.67-1.05-4.05-2.2-8.23-3.51-12.27-.69-2.1-1.42-4.17-2.22-6.22-.61-1.56-1.2-3.52-2.88-4.24-1.54-.65-2.82.63-3.97 1.48a76.98 76.98 0 0 0-6.69 5.56 6.98 6.98 0 0 1-5.2 2.06c-3.87-.09-8.73.42-10.42-1.4-2.11-2.3-3.9-4.87-6.18-7.04C24.54 1.62 22.97.14 21.06.39h-.03Z"
  />
  <path
    fill="#19212E"
    d="M21.08.76a5.33 5.33 0 0 0-2.76 1.38c-.79.72-1.43 1.6-2.02 2.53l-.43.7-.4.73c-.27.48-.54.96-.78 1.46-.5 1-.97 2-1.41 3.01-1.8 4.07-3.2 8.3-4.6 12.53l-2.02 6.38c-.34 1.07-.68 2.13-1 3.19a49.34 49.34 0 0 0-.88 3.19c-.5 2.13-.8 4.3-.55 6.43A10.2 10.2 0 0 0 6.83 48l.55.6.59.57.3.28.3.26.64.52c.44.32.87.66 1.33.95l.7.44.71.41c.97.53 1.96 1.01 3 1.41.5.22 1.03.4 1.55.59l.79.26.79.25c2.12.63 4.3 1.13 6.49 1.55a95.03 95.03 0 0 0 13.27 1.51 97.26 97.26 0 0 0 10.01-.08c1.12-.06 2.24-.1 3.35-.17 2.23-.11 4.44-.29 6.57-.75s4.2-1.24 5.86-2.54a9.92 9.92 0 0 0 1.44-1.36l.25-.3c.16-.2.33-.4.47-.63.61-.87 1.08-1.83 1.45-2.83a21.48 21.48 0 0 0 1.16-6.35c.1-2.18-.02-4.38-.26-6.58a67.88 67.88 0 0 0-1.75-9.78l-.82-3.23c-.56-2.16-1.1-4.32-1.68-6.47a140.88 140.88 0 0 0-2.95-9.58c-.4-1.05-.71-2.13-1.26-3.03-.27-.45-.6-.85-1-1.15a2.13 2.13 0 0 0-1.37-.44c-.47.02-.95.25-1.4.54-.45.28-.87.64-1.33.97a74.82 74.82 0 0 0-6.46 5.3l-.31.27-.32.29a7.23 7.23 0 0 1-3.9 1.8c-.57.07-1.16.05-1.7.04H40.2c-1.11 0-2.23.03-3.36-.01-.56-.02-1.13-.06-1.7-.13a9.44 9.44 0 0 1-1.69-.35 3.96 3.96 0 0 1-1.57-.87c-.12-.11-.2-.21-.3-.32l-.28-.31-.56-.63c-1.47-1.7-2.84-3.47-4.38-5.06-.38-.4-.78-.78-1.19-1.15-.4-.38-.81-.74-1.25-1.05A5.4 5.4 0 0 0 22.56.9a3.15 3.15 0 0 0-1.48-.15Zm-.1-.73c.61-.08 1.25 0 1.82.2.57.21 1.08.53 1.55.87.47.34.9.72 1.3 1.11.41.39.82.79 1.21 1.2 1.57 1.63 2.92 3.42 4.36 5.11.18.22.36.43.55.63l.27.31.27.3c.35.34.83.58 1.33.74.51.17 1.04.27 1.59.34.54.07 1.09.11 1.64.14 1.11.05 2.22.04 3.34.03h1.68c.57 0 1.1.02 1.64-.05a6.45 6.45 0 0 0 3.6-1.66l.31-.27.31-.29L49 7.62a75.4 75.4 0 0 1 5.22-4.25c.44-.33.87-.7 1.36-1.02.24-.16.5-.3.79-.42.28-.12.6-.2.9-.22.17-.02.33 0 .49 0 .16.04.32.06.47.12.3.1.57.25.83.41.5.36.91.83 1.22 1.33.32.5.56 1.03.78 1.55l.64 1.56a133.45 133.45 0 0 1 3.48 9.48c.7 2.13 1.34 4.28 1.93 6.44a83.3 83.3 0 0 1 1.62 6.56c.46 2.21.8 4.46 1.02 6.7a44 44 0 0 1 .16 6.83c-.07 1.14-.2 2.28-.43 3.41a19.43 19.43 0 0 1-.95 3.35 14.08 14.08 0 0 1-1.67 3.09c-.17.24-.36.46-.54.7l-.3.33-.3.32c-.41.43-.87.81-1.33 1.17-.95.7-2 1.26-3.07 1.7a18.77 18.77 0 0 1-3.32.95 42.2 42.2 0 0 1-6.75.65l-3.35.1a110.58 110.58 0 0 1-16.8-.73A96.4 96.4 0 0 1 17.9 55.2a16.3 16.3 0 0 1-.81-.24l-.8-.25c-.54-.2-1.08-.36-1.6-.57a29.8 29.8 0 0 1-3.1-1.38l-.76-.4c-.25-.14-.48-.3-.73-.45-.5-.28-.95-.62-1.42-.95l-.68-.53-.33-.26-.32-.3-.64-.57-.6-.62a11.27 11.27 0 0 1-3.01-6.22 15.73 15.73 0 0 1-.11-3.48c.09-1.15.27-2.29.51-3.4.48-2.23 1.19-4.38 1.84-6.5.32-1.06.67-2.14 1.01-3.2l1.04-3.2c.7-2.13 1.47-4.24 2.28-6.33.82-2.1 1.69-4.17 2.66-6.2.48-1.02 1-2.03 1.53-3.02.26-.5.56-.98.84-1.47l.44-.73.46-.72a13.6 13.6 0 0 1 2.21-2.64 6.8 6.8 0 0 1 1.47-1 5.6 5.6 0 0 1 1.7-.53Z"
  />
  <path
    fill="#FFEBE6"
    d="M51.9 32.52a6.78 6.78 0 0 0-2.82 4.98 6.73 6.73 0 0 0 3.72 6.4 6.58 6.58 0 0 0 6.79-.8 6.58 6.58 0 0 0 2.22-6.46c-1-4.37-6.18-6.76-9.92-4.12ZM13.37 29.85a6.78 6.78 0 0 0-2.82 4.98 6.73 6.73 0 0 0 3.72 6.4 6.58 6.58 0 0 0 6.79-.8 6.58 6.58 0 0 0 2.23-6.47c-1.02-4.36-6.19-6.75-9.92-4.11Z"
  />
  <path
    fill="#8C95A6"
    d="M52.65 35.79c1.1-.37 2.22-.65 3.35-.88a54.96 54.96 0 0 1 6.87-.87c1.15-.07 2.3-.1 3.46-.08.1 0 .17.08.17.18 0 .09-.07.16-.16.17a189 189 0 0 0-6.82.8c-1.13.16-2.26.34-3.39.52-1.13.17-2.26.36-3.4.5a.18.18 0 0 1-.2-.15.18.18 0 0 1 .12-.19ZM53.01 37.6a32.67 32.67 0 0 1 12.2 1.02c.09.02.14.12.11.21a.17.17 0 0 1-.2.12c-1-.16-2-.3-3-.44a68.84 68.84 0 0 0-6.05-.52 76.43 76.43 0 0 0-3.04-.05.17.17 0 0 1-.17-.17c0-.09.07-.16.15-.17ZM52.92 39.64a28.27 28.27 0 0 1 10.75 2.86.17.17 0 0 1-.15.32 89.05 89.05 0 0 0-5.25-1.68 55.16 55.16 0 0 0-5.4-1.15.17.17 0 0 1 .04-.35ZM9.89 42.05c.37-.2.75-.38 1.13-.56a35.34 35.34 0 0 1 7.18-2.46c.41-.09.82-.18 1.24-.25.1-.02.18.04.2.14a.18.18 0 0 1-.12.2l-1.2.36-1.2.38a136.9 136.9 0 0 0-5.91 2.07l-1.18.44a.17.17 0 0 1-.14-.32ZM6.86 37.74c.47-.17.94-.32 1.41-.47l.71-.2.72-.19a28.63 28.63 0 0 1 5.88-.8l.74-.01h.75c.5.02.98.04 1.48.08.1 0 .16.09.15.19 0 .08-.08.15-.16.15l-.74.02-.73.03-.73.03-.73.05a46.82 46.82 0 0 0-5.79.79l-.72.15-.7.16-.72.17-.71.18a.17.17 0 0 1-.21-.13.17.17 0 0 1 .1-.2ZM6.37 32.96l.76-.13.75-.11.76-.08.77-.07a26.34 26.34 0 0 1 9.08.97c.1.03.15.12.12.22a.18.18 0 0 1-.2.12 43.95 43.95 0 0 0-8.98-.73l-.75.02-.75.04-.76.04-.75.06a.17.17 0 0 1-.05-.34Z"
  />
  <path
    fill="#19212E"
    d="M28.89 36.94c.01.5.07 1.02.18 1.49.05.24.12.47.2.69.09.21.2.42.32.6.26.35.59.59 1 .72l.32.08.34.06h.34l.34-.02a4.3 4.3 0 0 0 2.5-1.22 5.49 5.49 0 0 0 1.44-2.55v-.04c.03-.07.1-.12.18-.1.06.02.1.08.1.14.25.87.6 1.72 1.1 2.44.25.36.54.69.87.94.16.13.34.24.52.32l.28.12.3.08.3.05c.1.02.2.01.3.02a3.58 3.58 0 0 0 1.82-.4 2.95 2.95 0 0 0 1.42-2.02v-.02c.02-.08.1-.13.18-.1.06 0 .1.06.1.13a2.97 2.97 0 0 1-1.33 2.6c-.44.27-.94.44-1.44.51-.12.03-.25.03-.37.04-.13 0-.25.03-.38.02-.13 0-.26 0-.38-.03a3.25 3.25 0 0 1-1.76-.76 3.97 3.97 0 0 1-.96-1.16 6.8 6.8 0 0 1-.85-2.74h.29a5.08 5.08 0 0 1-1.2 3 4.72 4.72 0 0 1-2.9 1.61c-.58.08-1.18.05-1.74-.14a2.54 2.54 0 0 1-1.42-1.14 3.98 3.98 0 0 1-.46-1.65 4.8 4.8 0 0 1 .18-1.61.15.15 0 0 1 .28.04h-.01Z"
  />
  <g fill="#19212E">
    <path
      d="M34.09 34.84a.72.72 0 0 1 .06-.74c.22-.27.76-.23 1.08-.21.6.04 1.2-.08 1.8 0 .7.08.9.68.6 1.14-.3.46-1.1 1.68-1.63 1.54-.68-.18-1.64-1.17-1.91-1.73Z"
    />
    <path
      d="M33.9 34.93a.95.95 0 0 1-.01-.8.75.75 0 0 1 .3-.33c.12-.07.25-.1.37-.13.25-.04.48-.02.7-.01.2 0 .4 0 .6-.02l.66-.04a3.2 3.2 0 0 1 .7.06c.25.06.52.21.66.48.15.25.12.58-.01.8l-.11.16-.11.12-.2.25-.4.51c-.15.17-.3.33-.47.48-.08.06-.18.14-.3.18-.05.03-.11.03-.18.05-.07 0-.14-.01-.2-.03a3.2 3.2 0 0 1-1.13-.7c-.33-.3-.63-.6-.87-1.03Zm.37-.17c.17.33.44.67.72.97.3.29.62.57.98.72.16.08.34-.02.5-.14.17-.12.32-.27.45-.43a4.98 4.98 0 0 0 .53-.8l.07-.14a.59.59 0 0 0 .04-.13.57.57 0 0 0-.1-.43.56.56 0 0 0-.36-.22 2 2 0 0 0-.28-.03l-.3-.02-.63.02-.67-.01a2.68 2.68 0 0 0-.6-.01.7.7 0 0 0-.22.06.26.26 0 0 0-.08.05.37.37 0 0 0-.05.09.54.54 0 0 0 0 .44Z"
    />
  </g>
  <path
    fill="#19212E"
    d="M31.39 31.38a2.54 2.54 0 0 1-1.31-.41c-.17-.1-.32-.24-.48-.36l-.47-.36c-.64-.46-1.27-.93-1.92-1.33a8.03 8.03 0 0 0-4.44-1.31.1.1 0 0 1-.1-.1c0-.02.03-.05.05-.07.37-.24.8-.4 1.24-.5.44-.09.9-.1 1.35-.06a9.12 9.12 0 0 1 5.31 2.55c.15.15.32.3.45.47.13.18.25.38.33.6.08.22.13.47.12.77 0 .06-.06.11-.13.11Z"
  />
  <g fill="#8C95A6">
    <path
      d="M22.6 19.15c.23.2.37.45.48.7a9.2 9.2 0 0 1 .46 1.6c.06.28.1.56.1.84.01.1-.06.18-.16.18a.18.18 0 0 1-.17-.1l-.28-.77-.27-.76c-.1-.25-.18-.5-.29-.74-.09-.25-.17-.5-.18-.8a.19.19 0 0 1 .31-.15ZM27.64 18.75c.13.3.18.6.2.89.02.14.01.3.02.44v.46c-.01.3-.03.61-.09.92-.05.31-.15.63-.3.91a.18.18 0 0 1-.33-.1c.02-.29.02-.57 0-.86 0-.28-.02-.57-.04-.86l-.02-.45v-.45c.01-.3.06-.61.21-.91.05-.1.16-.13.26-.08.04.02.07.05.09.09ZM32.47 20.2c.1.16.07.28.02.4l-.13.34a13.06 13.06 0 0 1-.99 2 .18.18 0 0 1-.32-.14c.14-.47.3-.93.47-1.4l.24-.68.12-.34c.04-.12.08-.23.26-.3.13-.05.27 0 .33.11Z"
    />
  </g>
  <g fill="#8C95A6">
    <path
      d="M42.97 21.97c.12.2.17.42.2.65l.12.68c.06.46.1.93.1 1.4a.18.18 0 0 1-.34.05l-.43-1.3-.2-.65a1.77 1.77 0 0 1-.1-.7.35.35 0 0 1 .65-.14ZM47.77 21.68c.19.3.08.54.04.79-.05.25-.13.49-.2.73-.16.5-.29 1-.46 1.48a.18.18 0 0 1-.22.1.17.17 0 0 1-.11-.18c.05-.5.12-1 .16-1.52.02-.25.03-.51.08-.76.06-.25.07-.52.37-.71a.24.24 0 0 1 .33.07ZM52.54 22.45c.08.11.12.2.12.29a.3.3 0 0 1-.04.19 1.7 1.7 0 0 1-.21.3c-.16.2-.35.35-.5.52-.15.18-.27.37-.37.57-.1.2-.17.42-.22.64a.17.17 0 0 1-.34-.03c0-.26.03-.52.09-.78.06-.25.16-.5.25-.74.1-.24.17-.49.28-.7a2 2 0 0 1 .2-.3.28.28 0 0 1 .14-.12.67.67 0 0 1 .3-.02h.01a.4.4 0 0 1 .3.18Z"
    />
  </g>
  <path
    fill="#F6491E"
    d="M19.69 14.2c-.04.25-.07.55.12.72.23.2.58.09.85-.04 1.04-.48 2.06-1 3.06-1.58.3-.17.91-.41.9-.76-.01-.3-.54-.53-.79-.7l-1.78-1.3c-.2-.14-.66-.63-.9-.65-.23-.02-.23.14-.3.34-.48 1.27-1.03 2.6-1.16 3.97Z"
  />
  <path
    fill="#19212E"
    d="m20.16 14.26-.02.11v.21l-.03-.02c0 .01.1 0 .2-.03l.19-.07.21-.1a37.26 37.26 0 0 0 2.55-1.29l.2-.11.12-.06.12-.06a3.44 3.44 0 0 0 .5-.3l.01-.02.01.08s-.02-.04-.07-.08c-.08-.07-.2-.15-.34-.24l-.11-.07a2.42 2.42 0 0 1-.11-.09l-.2-.15c-.5-.4-1-.79-1.53-1.15l-.4-.32c-.11-.1-.24-.19-.33-.23l-.02-.01s-.01 0 0 0h.02c.02 0 .09-.02.12-.06.03-.03.02-.03.02-.01l-.03.1-.04.13-.08.23c-.2.61-.4 1.22-.56 1.82l-.23.89c-.07.3-.13.58-.17.9Zm-.94-.13a7.65 7.65 0 0 1 .42-1.95c.21-.63.48-1.23.73-1.82l.1-.22.03-.1.05-.12c.02-.05.05-.13.13-.22.09-.1.23-.16.33-.17a.7.7 0 0 1 .27.02c.04 0 .07.02.1.04l.09.04c.2.11.31.23.44.34.13.1.25.23.34.3.51.38 1.05.74 1.58 1.1l.2.13.09.05.1.06c.13.08.28.16.44.29.09.07.18.14.26.28a.73.73 0 0 1 .1.53.85.85 0 0 1-.23.4c-.09.09-.17.15-.25.21-.16.12-.32.2-.46.27l-.1.06-.1.05-.2.12a35.41 35.41 0 0 1-2.59 1.36l-.22.1-.26.12c-.2.06-.42.14-.74.06a.88.88 0 0 1-.65-.68 1.85 1.85 0 0 1-.02-.52l.02-.12Z"
  />
  <path
    fill="#F6491E"
    d="m52.62 15.32 2.86 1.65c.26.15.6.3.84.13.2-.12.25-.38.28-.61l.37-2.63c.07-.46.11-.99-.2-1.32-.2-.2-.49-.29-.77-.28-.28 0-.55.1-.81.19-.88.32-1.72.76-2.5 1.3-.24.17-.68.37-.73.71-.05.41.37.68.67.86Z"
  />
  <path
    fill="#19212E"
    d="m52.79 15.03 1.7.95.87.47.21.11.1.06.1.05c.12.06.24.1.3.09l.02-.01v-.02c.03-.04.06-.15.07-.3a22.31 22.31 0 0 1 .32-1.93l.2-.94c.06-.3.07-.57-.04-.77-.09-.2-.35-.33-.63-.34-.29 0-.59.1-.9.2a7.8 7.8 0 0 0-1.7.9l-.39.27-.2.14-.2.15c-.13.08-.24.18-.31.26-.07.1-.07.14-.05.22.03.13.26.31.53.45Zm-.33.58c-.15-.1-.3-.2-.45-.34-.14-.13-.3-.32-.34-.58a.82.82 0 0 1 .03-.38.83.83 0 0 1 .19-.3c.15-.17.3-.26.45-.35l.85-.5a13.58 13.58 0 0 1 1.8-.82c.31-.11.63-.25 1-.27.19-.01.38 0 .57.07.18.07.37.2.5.37.13.17.2.37.23.56.04.19.05.37.04.55l-.02.5-.04.5a26.19 26.19 0 0 1-.23 1.94c-.03.17-.06.38-.21.63a.88.88 0 0 1-.8.4 1.5 1.5 0 0 1-.63-.2l-.12-.08-.1-.06-.21-.13-.84-.5-1.68-1.01ZM41.6 31.9c.01-.3.1-.54.2-.76.11-.2.25-.39.4-.55.16-.15.34-.28.5-.41l.55-.37a9.17 9.17 0 0 1 5.05-1.5c.45.02.9.08 1.33.23.43.14.83.36 1.17.65.03.03.04.09 0 .13a.1.1 0 0 1-.07.03c-.43-.03-.83-.06-1.22-.05a7.93 7.93 0 0 0-3.34.8c-.71.32-1.4.7-2.08 1.09l-.51.3-.52.29a2.58 2.58 0 0 1-1.35.25.12.12 0 0 1-.12-.13Z"
  />
  <path
    fill="#fff"
    d="M21.1 61.8c-4.18-2.53-6.87-5.13-9.07-9.7-.95-1.96-2.09-4.43-3.05-5.3-.66-.6-.72.07-2.64.12-3.5.1-6.12.39-5.53 3.23.98 4.71 4.46 8.74 8.36 11.34 1.94 1.3 7.92 4.15 10.23 4.57"
  />
  <path
    fill="#19212E"
    d="M20.95 62.04c-1.01-.59-2-1.22-2.94-1.92s-1.83-1.49-2.64-2.35c-.82-.85-1.55-1.79-2.2-2.77a27.08 27.08 0 0 1-1.73-3.08c-.5-1.04-.99-2.09-1.55-3.08a9.75 9.75 0 0 0-.92-1.38c-.09-.1-.17-.2-.26-.27a.72.72 0 0 0-.21-.16h-.03a.5.5 0 0 0-.1.02l-.4.13c-.59.2-1.25.28-1.83.3-.58.03-1.14.08-1.7.13s-1.1.13-1.61.25c-.5.13-.96.33-1.22.63-.26.28-.34.7-.3 1.2l.06.37.08.4.1.4.12.4c.33 1.07.78 2.1 1.34 3.08a20.26 20.26 0 0 0 5.64 6.27 21.73 21.73 0 0 0 1.4.95 57.43 57.43 0 0 0 7.77 3.72c.54.2 1.09.38 1.63.49a.29.29 0 0 1-.1.56c-.6-.1-1.17-.28-1.73-.46a59.62 59.62 0 0 1-7.98-3.6 13.14 13.14 0 0 1-1.5-.97c-.47-.34-.94-.7-1.4-1.08a20.66 20.66 0 0 1-4.65-5.35 16.15 16.15 0 0 1-1.48-3.28l-.13-.43-.11-.44-.1-.44a3.17 3.17 0 0 1-.04-1.54c.07-.36.24-.73.5-1.02.25-.3.55-.5.86-.66.3-.16.62-.27.93-.36a9.94 9.94 0 0 1 1.82-.29c.6-.05 1.18-.05 1.76-.05a6 6 0 0 0 1.6-.15l.44-.11c.09-.02.2-.04.33-.04s.28.03.4.09c.23.1.37.23.48.35.13.12.23.25.33.37.38.5.69 1.01.98 1.53.58 1.03 1.09 2.08 1.58 3.13.5 1.04 1 2.05 1.61 3.02.6.96 1.3 1.87 2.06 2.71a25.15 25.15 0 0 0 5.32 4.3.28.28 0 0 1-.29.48Z"
  />
  <path
    fill="#fff"
    d="M6.34 46.92a44.08 44.08 0 0 1-.1-4.67c.02-.52.04-1.04.22-1.52.19-.52.68-1.03 1.22-.9.56.15.73.84.82 1.41.39 2.79 1.09 5.4 2.14 8.28"
  />
  <path
    fill="#19212E"
    d="M6.03 46.94c-.24-.75-.2-1.52-.23-2.28-.01-.76 0-1.53.04-2.3.02-.37.04-.77.12-1.17.04-.2.1-.4.18-.61.09-.22.2-.4.36-.58.15-.17.34-.32.58-.42a1.06 1.06 0 0 1 .78-.01c.26.09.45.29.58.48.12.2.2.41.25.61.05.2.08.4.1.6l.1.55a22.74 22.74 0 0 0 .78 3.28c.21.72.43 1.44.66 2.15.23.71.45 1.43.6 2.18a.3.3 0 0 1-.25.35.3.3 0 0 1-.32-.15c-.39-.67-.65-1.38-.88-2.11a35.8 35.8 0 0 1-1.02-4.47l-.18-1.13-.08-.57a4.35 4.35 0 0 0-.1-.52c-.08-.33-.25-.6-.45-.66a.44.44 0 0 0-.33.01.93.93 0 0 0-.31.27c-.1.11-.17.25-.22.39-.05.15-.1.31-.12.48-.05.34-.05.7-.05 1.08l.03 2.25c.01.75.11 1.5-.02 2.25a.31.31 0 0 1-.6.05Z"
  />
  <path
    fill="#fff"
    d="M.83 46.72c-.5 1.17-.74 2.96.45 4.07.89.84 2.48 1.03 3.6.78a4.72 4.72 0 0 0 3-2.3c.74-1.29.15-3.7-.47-4.3-.83-.8-1.95-1.17-3.54-.93-1.51.23-2.58 1.56-3.04 2.68Z"
  />
  <path
    fill="#19212E"
    d="M1.09 46.83a3.9 3.9 0 0 0-.06 2.74 2.54 2.54 0 0 0 1.95 1.48c.45.1.92.11 1.37.07a3.8 3.8 0 0 0 1.29-.38 4.34 4.34 0 0 0 1.91-1.87c.17-.37.24-.84.23-1.3a5.48 5.48 0 0 0-.45-2.06c-.05-.1-.1-.18-.16-.24l-.02-.02-.03-.03-.06-.06-.13-.12c-.35-.3-.76-.52-1.22-.65a4.3 4.3 0 0 0-1.43-.13l-.37.03a2.98 2.98 0 0 0-1.01.32 4 4 0 0 0-1.81 2.22Zm-.52-.22a6.1 6.1 0 0 1 2.11-2.39 3.44 3.44 0 0 1 1.16-.43l.4-.05a5.03 5.03 0 0 1 1.62.04c.54.1 1.08.35 1.52.7l.17.13.08.07.04.03.05.05c.12.12.2.25.28.38a6.3 6.3 0 0 1 .66 2.4c.03.54 0 1.12-.22 1.7-.13.3-.28.53-.43.77a5.08 5.08 0 0 1-5.25 2.08 4.02 4.02 0 0 1-1.6-.7c-.52-.37-.84-.94-1-1.51a3.97 3.97 0 0 1-.08-1.71c.1-.55.26-1.07.49-1.56Z"
  />
  <path
    fill="#fff"
    d="M7.1 48.37c-.04.63.24 1.22 1 1.5.57.21 1.35 0 1.81-.34.55-.38.87-1 .94-1.62.09-.73-.21-1.58-1.06-1.83a1.9 1.9 0 0 0-1.62.36 2.73 2.73 0 0 0-1.07 1.93Z"
  />
  <path
    fill="#19212E"
    d="M7.6 48.4c-.02.18 0 .36.07.5.06.15.16.28.3.39.08.04.15.1.24.14.09.04.16.06.25.08a1.85 1.85 0 0 0 2.1-1.85c0-.22-.04-.43-.12-.62a1.1 1.1 0 0 0-.37-.46 1.2 1.2 0 0 0-1.12-.1c-.2.07-.37.18-.52.3-.16.14-.3.3-.42.48-.24.34-.4.75-.41 1.14Zm-1-.06a2.98 2.98 0 0 1 2.12-2.62c.3-.08.6-.1.9-.04A1.83 1.83 0 0 1 11 46.8c.12.27.17.56.17.85a2.72 2.72 0 0 1-1.91 2.61c-.28.09-.58.14-.9.11a1.97 1.97 0 0 1-.9-.31 1.79 1.79 0 0 1-.68-.75 2.08 2.08 0 0 1-.17-.97Z"
  />
</svg>
