<svg xmlns="http://www.w3.org/2000/svg" fill="none" viewBox="0 0 81 24">
  <path
    fill="#19212E"
    d="M70.585 18.161a5.558 5.558 0 0 1-2.348-2.326c-.563-1.003-.828-2.158-.828-3.463 0-1.305.282-2.46.828-3.463.545-1.004 1.34-1.773 2.349-2.326 1.025-.535 2.2-.82 3.54-.82 1.34 0 2.514.268 3.54.82a5.654 5.654 0 0 1 2.349 2.326c.546 1.004.827 2.158.827 3.463 0 1.322-.281 2.476-.827 3.48a5.709 5.709 0 0 1-2.35 2.309c-1.025.535-2.2.82-3.54.82-1.34 0-2.53-.268-3.54-.82Zm5.857-3.095c.562-.686.86-1.59.86-2.677 0-1.104-.281-1.991-.86-2.677-.58-.686-1.34-1.037-2.316-1.037-.96 0-1.72.351-2.3 1.037-.579.686-.86 1.573-.86 2.677s.281 2.008.86 2.677c.58.686 1.34 1.037 2.3 1.037.976 0 1.737-.351 2.316-1.037ZM66.202 5.931v12.514c0 1.69-.563 3.045-1.654 4.05C63.438 23.497 61.718 24 59.386 24c-1.803 0-3.259-.401-4.367-1.205-1.108-.803-1.704-1.94-1.787-3.413h3.524c.165.62.496 1.088.976 1.422.48.335 1.125.502 1.919.502.992 0 1.77-.25 2.316-.753.546-.501.827-1.254.827-2.225v-1.355c-.926 1.188-2.25 1.774-3.937 1.774-1.125 0-2.134-.268-3.028-.803-.893-.536-1.588-1.289-2.1-2.276-.513-.97-.761-2.125-.761-3.43 0-1.288.248-2.426.76-3.413a5.389 5.389 0 0 1 2.118-2.275c.893-.535 1.919-.803 3.044-.803 1.67 0 2.994.652 3.97 1.957l.298-1.773h3.044Zm-4.285 8.984c.563-.669.844-1.539.844-2.61 0-1.087-.281-1.974-.844-2.66-.562-.686-1.323-1.02-2.266-1.02-.943 0-1.704.334-2.267 1.02-.579.67-.86 1.556-.86 2.644 0 1.087.281 1.974.86 2.643.58.67 1.324 1.004 2.267 1.004.943-.017 1.704-.351 2.266-1.02ZM51.76 5.931v12.9h-3.11l-.298-1.808c-1.009 1.289-2.332 1.924-3.97 1.924-1.125 0-2.134-.267-3.027-.803-.894-.535-1.589-1.305-2.101-2.308-.513-1.004-.761-2.159-.761-3.497 0-1.305.248-2.46.76-3.463a5.52 5.52 0 0 1 2.118-2.326c.893-.535 1.919-.82 3.044-.82.86 0 1.621.168 2.283.502a4.696 4.696 0 0 1 1.638 1.372l.347-1.706h3.077v.033Zm-4.285 9.152c.563-.67.844-1.573.844-2.677 0-1.121-.281-2.025-.844-2.71-.562-.687-1.323-1.038-2.266-1.038-.943 0-1.704.351-2.266 1.037-.58.686-.86 1.59-.86 2.71 0 1.105.28 1.992.86 2.678.579.686 1.323 1.02 2.266 1.02.943 0 1.704-.351 2.266-1.02ZM27.79 18.83V1.263h3.722v14.338h6.898v3.23H27.79Z"
  />
  <g fill="#19212E">
    <path
      d="M20.084 11.693a9.936 9.936 0 0 1-2.833 5.558 9.936 9.936 0 0 1-5.558 2.833c0-.018-.018-.036-.018-.054v-.018c-.018-.036-.018-.054-.036-.108a77.22 77.22 0 0 1-.054-.163c-.09-.252-.144-.541-.199-.83v-.018c0-.036-.018-.072-.018-.108v-.018c0-.036-.018-.072-.018-.09v-.036c0-.036-.018-.073-.018-.127-.018-.09-.018-.18-.018-.288v-.127c0-.108-.018-.216-.018-.343 0-3.573 2.924-6.496 6.497-6.496h.469c.09 0 .198.018.288.036.037 0 .09 0 .145.018.036 0 .072.018.09.018h.018c.036 0 .072 0 .108.018h.018c.289.055.56.127.848.217l.163.054c.036.018.054.018.09.036h.018c0 .018.018.036.036.036Z"
    />
    <path
      d="M20.21 10.213h-.018c-.162-.054-.324-.09-.487-.144-.018 0-.036-.018-.072-.018a3.327 3.327 0 0 0-.451-.09h-.018c-.036 0-.09-.018-.126-.018H19c-.054 0-.108-.018-.144-.018-.054 0-.126-.018-.162-.018-.108-.018-.235-.018-.343-.036H17.756a7.94 7.94 0 0 0-7.94 7.94c0 .126 0 .252.019.396v.09c0 .037 0 .073.018.109.018.108.018.235.036.343 0 .054.018.108.018.162 0 .054.018.108.018.145.018.072.018.126.036.18.054.343.144.686.252 1.029v.018A9.94 9.94 0 0 1 4.06 18.28V17.847c0-7.561 6.154-13.715 13.714-13.715H18.207c1.336 1.697 2.022 3.844 2.003 6.082Z"
      opacity=".6"
    />
    <path
      d="M16.908 2.617c-.072 0-.162.018-.234.018-.127 0-.235.018-.361.036-.036 0-.09 0-.127.018-.036 0-.054 0-.09.018a8.027 8.027 0 0 0-.65.09c-.162.018-.306.054-.469.072-.09.018-.198.036-.288.054-.109.018-.217.054-.343.072-.036.019-.09.019-.127.037-.072.018-.162.036-.234.054-.036 0-.054.018-.09.018-.09.018-.18.036-.253.072-.036.018-.09.018-.126.036-.072.018-.127.036-.199.054-.054.018-.108.036-.144.054-.09.018-.162.054-.235.072-.018 0-.036.019-.054.019a2.41 2.41 0 0 0-.325.126c-.126.036-.234.09-.342.126a.669.669 0 0 0-.199.09c-.072.018-.126.055-.199.073-.108.054-.234.09-.342.144-.199.09-.397.18-.596.289a14.83 14.83 0 0 0-.74.397c-.072.054-.162.09-.234.144-.09.054-.18.108-.289.18-.09.055-.18.109-.253.163-.072.054-.162.108-.234.162l-.217.163c-.18.126-.343.252-.505.379-.072.054-.126.108-.198.162-.109.09-.235.199-.343.289-.09.072-.18.162-.271.234-.072.054-.126.127-.199.18-.216.217-.433.416-.65.65a1.797 1.797 0 0 0-.18.199c-.09.09-.162.18-.234.27-.108.109-.199.235-.289.343-.054.073-.108.127-.162.199-.127.162-.253.343-.38.505l-.162.217c-.054.072-.108.162-.162.234-.054.09-.108.163-.162.253-.055.09-.127.18-.18.289-.055.072-.091.162-.145.234-.145.235-.271.487-.397.722a8.989 8.989 0 0 0-.289.595 1.957 1.957 0 0 0-.144.343c-.018.054-.054.127-.073.199-.036.072-.054.144-.09.198-.054.109-.09.235-.126.343-.036.108-.072.217-.126.325 0 .018-.018.036-.018.054-.037.072-.055.163-.073.235-.018.054-.036.108-.054.144-.018.072-.036.127-.054.199-.018.036-.018.09-.036.126-.018.09-.054.18-.072.253 0 .018-.018.054-.018.09-.018.072-.036.162-.054.234 0 .037-.018.073-.036.127-.018.108-.055.216-.073.343-.018.09-.036.18-.054.288a4.216 4.216 0 0 0-.072.47c-.036.216-.054.432-.09.65 0 .035 0 .053-.018.09 0 .035 0 .072-.018.126-.018.126-.018.234-.036.36 0 .073-.018.163-.018.235C.956 15.068.036 12.722 0 10.232A10.042 10.042 0 0 1 2.779 3.14c.054-.072.126-.126.18-.18l.18-.181A10.123 10.123 0 0 1 10.106 0h.127c2.49.036 4.836.956 6.676 2.617Z"
      opacity=".3"
    />
  </g>
</svg>
