<svg xmlns="http://www.w3.org/2000/svg" fill="none" viewBox="0 0 40 40">
  <rect width="40" height="40" fill="#FC6600" rx="12" />
  <path
    fill="#fff"
    d="M20.027 25.158c1.609-2.053 4.038-4.745 6.89-6.852l.483 1.142c-4.392 4.085-6.51 8.456-7.378 9.925-.445-.751-1.255-2.322-2.477-4.145l.852-2.01c.6.68 1.63 1.94 1.63 1.94Zm6.392 4.81h3.474l-3.067-7.34a32.994 32.994 0 0 0-2.343 2.788l1.936 4.552Zm-4.864-19.952H18.483l-8.338 19.952h3.475l6.032-14.22.284-.772h.16l.285.772 1.785 4.214a32.513 32.513 0 0 1 2.574-2.31l-3.185-7.636Z"
  />
</svg>
