<svg xmlns="http://www.w3.org/2000/svg" viewBox="0 0 176 144.7">
  <path
    fill="#009a46"
    d="M0 31.6c0-9.4 2.7-17.4 8.5-23.1l10 10C7.4 29.6 17.1 64.1 48.8 95.8s66.2 41.4 77.3 30.3l10 10c-18.8 18.8-61.5 5.4-97.3-30.3C14 80.9 0 52.8 0 31.6z"
  />
  <path
    fill="#ff5805"
    d="M63.1 144.7c-9.4 0-17.4-2.7-23.1-8.5l10-10c11.1 11.1 45.6 1.4 77.3-30.3s41.4-66.2 30.3-77.3l10-10c18.8 18.8 5.4 61.5-30.3 97.3-24.9 24.8-53.1 38.8-74.2 38.8z"
  />
  <path
    fill="#f5afcb"
    d="M140.5 91.6C134.4 74.1 122 55.4 105.6 39 69.8 3.2 27.1-10.1 8.3 8.6 7 10 8.2 13.3 10.9 16s6.1 3.9 7.4 2.6c11.1-11.1 45.6-1.4 77.3 30.3 15 15 26.2 31.8 31.6 47.3 4.7 13.6 4.3 24.6-1.2 30.1-1.3 1.3-.2 4.6 2.6 7.4s6.1 3.9 7.4 2.6c9.6-9.7 11.2-25.6 4.5-44.7z"
  />
  <path
    fill="#ff9b00"
    d="M167.5 8.6C157.9-1 142-2.6 122.9 4c-17.5 6.1-36.2 18.5-52.6 34.9-35.8 35.8-49.1 78.5-30.3 97.3 1.3 1.3 4.7.2 7.4-2.6s3.9-6.1 2.6-7.4c-11.1-11.1-1.4-45.6 30.3-77.3 15-15 31.8-26.2 47.2-31.6 13.6-4.7 24.6-4.3 30.1 1.2 1.3 1.3 4.6.2 7.4-2.6s3.9-5.9 2.5-7.3z"
  />
</svg>
