<svg xmlns="http://www.w3.org/2000/svg" fill="none" viewBox="0 0 40 40">
  <rect width="40" height="40" fill="#19212E" rx="12" />
  <g fill="#fff">
    <path
      d="M30 19.83a7.87 7.87 0 0 1-.12 1.52 9.18 9.18 0 0 1-.18.87l-.01.06-.01.05c-.06.25-.14.49-.22.73l-.06.15a1 1 0 0 1-1.39.38l-6.76-3.9a1 1 0 0 1-.5-.87v-7.81a1 1 0 0 1 1.19-.99c.26.05.52.11.78.19l.06.02a7.04 7.04 0 0 1 1.04.37c.17.06.34.14.5.22l.13.06.14.08.07.03.25.14.05.03.28.17h.01c.2.12.39.25.58.39l.14.1.45.36.05.04c.38.32.73.67 1.06 1.05l.29.34a15.36 15.36 0 0 1 .72 1.04l.31.55.04.08c.11.21.22.43.31.66l.14.35.08.21.03.08.09.28c.08.25.15.5.2.76l.08.38c.11.59.17 1.2.17 1.83H30Z"
      opacity=".6"
    />
    <path
      d="M27.52 26.41c-.11.13-.22.26-.35.38a9.5 9.5 0 0 1-3.7 2.42 10 10 0 0 1-1.32.39l-.45.08-.68.1c-.34.03-.68.05-1.02.05l-.43-.01-.44-.03c-.08 0-.15 0-.22-.02-.3-.03-.6-.08-.89-.14l-.06-.01a10.02 10.02 0 0 1-7.75-7.74l-.02-.09c-.05-.28-.1-.57-.13-.87l-.02-.22-.03-.44-.01-.43c0-.63.06-1.24.17-1.83l.08-.38a9.15 9.15 0 0 1 1.2-2.97l.25-.39a10 10 0 0 1 4.86-3.82l.41-.14c.17-.06.35-.11.53-.15l.36-.09.2-.04a1 1 0 0 1 1.19.99v8.67a1 1 0 0 0 .5.87l7.51 4.33a1 1 0 0 1 .26 1.53Z"
    />
  </g>
</svg>
