<svg xmlns="http://www.w3.org/2000/svg" fill="none" viewBox="0 0 41 41">
  <g fill="#0C1E3D">
    <path
      d="M40.28 8.94a8 8 0 0 0-8-8h-24a8 8 0 0 0-8 8v13.88h13.9l1.04-3.45h-3.7l.57-2.55h3.74l1.57-5.38h3.23l-1.58 5.38h4.82l1.58-5.38h3.24l-1.57 5.38h13.16V8.94Z"
    />
    <path
      d="M40.28 19.37H26.5l-1.03 3.45h3.8l-.58 2.55h-3.83l-1.48 5.07h-3.25l1.5-5.07h-4.8l-1.52 5.07H12.1l1.5-5.07H.28v7.57a8 8 0 0 0 8 8h24a8 8 0 0 0 8-8V19.37Z"
    />
    <path d="m18.46 19.37-1 3.45h4.79l1-3.45h-4.79Z" />
  </g>
</svg>
