<svg xmlns="http://www.w3.org/2000/svg" fill="none" viewBox="0 0 40 40">
  <rect width="40" height="40" fill="#000" rx="12" />
  <path
    fill="#fff"
    d="M31.47 18.53c-.54 0-.99-.36-1.13-.85h2.96l.4-.64h-3.36c.14-.48.6-.84 1.13-.84h2.03l.4-.64h-2.48a1.8 1.8 0 0 0 0 3.6h2.14l.4-.64h-2.5m-8.46.63h2.14l.41-.63h-2.5a1.16 1.16 0 1 1 0-2.32h2.04l.4-.64h-2.48a1.8 1.8 0 1 0-.01 3.6Zm-13.15-.62h-2c-.64 0-1.17-.52-1.17-1.16 0-.65.53-1.16 1.16-1.16h2c.65 0 1.17.52 1.17 1.16 0 .64-.52 1.16-1.16 1.16Zm-2.05.62h2.09c1 0 1.8-.8 1.8-1.8s-.8-1.8-1.8-1.8h-2.1a1.8 1.8 0 0 0 0 3.6ZM15.1 18a1.22 1.22 0 1 0 0-2.43h-3.03v3.6h.7V16.2h2.28c.32 0 .58.25.58.58 0 .32-.26.58-.58.58H13.1l2.07 1.8h1l-1.39-1.18h.32m11.45.55v-2.97h-.7v3.26c0 .1.04.17.1.24.08.07.17.1.26.1h3.16l.4-.63h-3.22Zm-8.47-.64h1.84l-.97-1.58-1.8 2.84h-.82l2.18-3.4c.09-.15.25-.23.43-.23a.5.5 0 0 1 .41.22l2.2 3.43h-.81l-.39-.64h-1.87l-.4-.64ZM6.34 21.32h.91l1.12 2.34v-2.34h.59v2.97h-.87l-1.15-2.47v2.46h-.6v-2.96ZM9.63 21.32h1.99v.5h-1.35v.7h1.26v.49h-1.26v.8h1.4v.48H9.62v-2.97ZM12.9 21.81H12v-.49h2.41v.5h-.88v2.47h-.64v-2.48ZM15.19 23.42c.01.21.03.6.72.6.61 0 .7-.39.7-.54 0-.33-.27-.4-.69-.5-.45-.11-.65-.16-.8-.26a.67.67 0 0 1-.31-.58c0-.6.56-.87 1.12-.87.2 0 .6.03.84.29.16.18.17.38.18.5h-.43c-.02-.36-.33-.45-.62-.45-.4 0-.66.19-.66.48 0 .27.17.35.53.44.7.19.79.2.96.31.28.19.3.47.3.6 0 .52-.41.92-1.18.92-.22 0-.68-.03-.92-.33-.17-.22-.17-.45-.17-.6h.43ZM18.09 21.32v1.84c0 .31.07.45.13.53.18.24.47.3.67.3.8 0 .8-.64.8-.86v-1.8h.4v1.83c0 .16 0 .48-.25.79-.29.37-.74.4-.96.4-.28 0-.78-.08-1.05-.47-.09-.13-.17-.3-.17-.75v-1.8h.43ZM20.94 24.3h.41v-2.98h-.4v2.97ZM22.95 24.3v-2.63h-1v-.35h2.4v.35h-1v2.62h-.4ZM24.84 21.32h1.86v.35h-1.45v.93h1.38v.35h-1.38v.99h1.48v.35h-1.89v-2.97Z"
  />
</svg>
