<svg xmlns="http://www.w3.org/2000/svg" fill="none" viewBox="0 0 40 40">
  <rect width="40" height="40" fill="#191919" rx="12" />
  <path
    fill="#fff"
    fill-rule="evenodd"
    d="m21 10.14-.411 4.93a5.306 5.306 0 0 0-.59-.032c-.25 0-.494.016-.732.054l-.234-2.39a.132.132 0 0 1 .134-.14h.416l-.2-2.416a.131.131 0 0 1 .128-.14h1.361c.078 0 .139.064.128.14v-.005Zm-3.433.244a.134.134 0 0 0-.173-.087l-1.277.454a.126.126 0 0 0-.073.173l1.04 2.206-.395.14c-.072.027-.106.108-.072.173l1.06 2.168c.384-.206.8-.362 1.24-.46l-1.345-4.767h-.005Zm-3.134 1.373 2.94 4.032a4.782 4.782 0 0 0-1 .844l-1.762-1.687a.128.128 0 0 1 .006-.19l.322-.259-1.75-1.724a.124.124 0 0 1 .01-.19l1.04-.848a.13.13 0 0 1 .189.022h.005Zm-2.466 2.335a.134.134 0 0 0-.19.043l-.677 1.146a.126.126 0 0 0 .055.178l2.256 1.038-.211.352a.123.123 0 0 0 .061.178l2.244 1c.162-.405.378-.784.645-1.124l-4.183-2.811Zm-1.662 3.113c.012-.075.09-.118.162-.102l4.916 1.248c-.128.406-.2.833-.21 1.276l-2.462-.194a.126.126 0 0 1-.117-.152l.073-.4-2.484-.227a.127.127 0 0 1-.116-.151L10.3 17.2l.005.005Zm-.183 3.233c-.078.005-.128.076-.117.151l.24 1.303c.01.076.088.119.16.103l2.412-.611.072.4c.01.076.089.119.16.103l2.379-.638a4.572 4.572 0 0 1-.25-1.265l-5.061.454h.005Zm.789 3.427a.126.126 0 0 1 .056-.178l4.588-2.12c.173.4.406.774.684 1.109l-2.011 1.394a.133.133 0 0 1-.19-.038l-.21-.356-2.05 1.378a.134.134 0 0 1-.19-.043l-.683-1.146h.006Zm5.561-.93-3.572 3.52a.124.124 0 0 0 .011.188l1.044.849a.13.13 0 0 0 .19-.022l1.444-1.978.322.265c.061.048.15.038.194-.027l1.4-1.979a4.968 4.968 0 0 1-1.027-.816h-.006Zm-.705 5.649a.126.126 0 0 1-.073-.173l2.117-4.498c.389.195.811.341 1.25.422l-.622 2.325c-.017.07-.1.113-.172.086l-.395-.14-.661 2.34a.134.134 0 0 1-.172.086l-1.278-.454.006.006Zm3.644-4.19L19 29.325a.131.131 0 0 0 .128.14h1.36c.079 0 .14-.064.129-.14l-.2-2.416h.416a.132.132 0 0 0 .134-.14l-.234-2.39a4.686 4.686 0 0 1-.733.055c-.2 0-.395-.011-.589-.038Zm4.9-13.345a.124.124 0 0 0-.072-.173l-1.278-.454a.134.134 0 0 0-.172.086l-.661 2.34-.395-.14a.134.134 0 0 0-.172.087l-.622 2.324c.444.086.86.232 1.25.422l2.122-4.492ZM27.1 13.01l-3.572 3.519c-.3-.314-.645-.59-1.028-.817l1.4-1.978a.138.138 0 0 1 .194-.027l.323.265 1.444-1.978a.131.131 0 0 1 .189-.022l1.044.849a.129.129 0 0 1 .011.189H27.1Zm1.933 2.767a.122.122 0 0 0 .056-.178l-.684-1.146a.139.139 0 0 0-.188-.043l-2.05 1.378-.212-.351a.127.127 0 0 0-.188-.038l-2.012 1.395c.278.335.506.708.684 1.108l4.589-2.12.005-.005Zm.722 1.795.234 1.303a.131.131 0 0 1-.117.151l-5.061.46a4.533 4.533 0 0 0-.25-1.265l2.378-.638a.127.127 0 0 1 .16.102l.073.4 2.411-.61c.072-.017.15.027.161.102l.011-.005Zm-.227 4.784c.072.016.15-.027.16-.103l.234-1.303a.131.131 0 0 0-.117-.151l-2.483-.227.072-.4a.131.131 0 0 0-.116-.151l-2.461-.195a4.62 4.62 0 0 1-.212 1.276l4.917 1.248.006.006Zm-1.311 2.973a.139.139 0 0 1-.19.043l-4.183-2.81c.267-.341.484-.72.645-1.125l2.244 1c.072.032.1.113.061.178l-.21.352 2.255 1.037a.126.126 0 0 1 .055.179l-.677 1.146Zm-5.595-1.66 2.939 4.033a.13.13 0 0 0 .189.021l1.039-.848a.128.128 0 0 0 .01-.19l-1.75-1.724.323-.26c.061-.048.061-.134.006-.189l-1.761-1.686c-.295.324-.628.61-1 .843h.005Zm-.028 5.492a.134.134 0 0 1-.172-.086l-1.344-4.768a4.846 4.846 0 0 0 1.239-.46l1.06 2.168c.034.07 0 .152-.072.173l-.394.14 1.039 2.206c.033.07 0 .146-.072.173l-1.278.454h-.006Z"
    clip-rule="evenodd"
  />
</svg>
