<svg xmlns="http://www.w3.org/2000/svg" fill="none" viewBox="0 0 40 40">
  <rect width="40" height="40" fill="#3D2798" rx="12" />
  <path
    fill="#FDFDFE"
    d="M26.1 22.7h-1c-.6 0-1-.2-1-.8l-.6-2c0-.3-.3-.7-.6-1-.2-.2-.3-.5-.3-.7 0-.3-.3-.4-.4-.2-.4.4-1 .6-1.4.8-.7.4-1.4 1-1.7 1.7-.2.4-.1.6.3.8l.6.1c.4 0 .6.3.7.6 0 .3 0 .4-.2.5l-1 .2h-1.9c-.7 0-1-.3-1.1-1-.1-1.1 0-2 .8-2.9 0-.1.3-.3.2-.5-.2-.2-.4-.1-.6 0-.8 0-1.7.2-2.4.8-.5.5-1 1-1.3 1.7-.2.4-.2.5.2.7l.6.2c.2 0 .3.2.3.4 0 .3-.1.4-.4.5l-.7.1h-1.8l-.5-.1c-.1-.1-.3-.1-.4 0-1.1.4-2.3 0-2.8-1.2-.2-.5-.3-1 0-1.5.4-.7.4-1.5.5-2.3l-.1-.8c-1-1.7 0-4.2 1.8-5.2 1.2-.7 2.4-1.2 3.7-1.5.9-.2 1.7 0 2.5.1l3.6.6h1.6c1.2 0 2.3 0 3.5.4 1 .3 2 .2 3 .2l.4-.2c.4-.4.9-.3 1.2.1.1.2.2.2.4.3.8.3 1.6.8 2.4 1.4.4.4.4.6-.1 1-.4.1-.6.3-.5.7 0 .2-.1.2-.3.3a21.2 21.2 0 0 1-5.2.8c-.3 0-.4.2-.4.4-.2 1.7.2 3.1 1 4.5l.5.4c.3 0 .6.2.8.3.3.1.5.3.5.6s-.2.4-.5.6l-1 .1h-.9Zm-15.7-1 .3-.8.4-1.8s0-.2-.2-.2h-.2l-1 1.5a.5.5 0 0 0 0 .6l.7.8Z"
  />
  <path
    fill="#FAFAFC"
    d="M15.6 27.7c0 1-.5 1.8-1.3 2.1-1 .4-2 .2-2.6-.5-.7-.8-.7-1.7-.4-2.6.3-.7 1-1.2 1.8-1.2.9-.1 1.7.1 2.2 1l.3 1.2Zm-1 0c.1-1-.7-1.6-1.6-1.4-.5.1-.9.5-1 1 0 .6 0 1.3.6 1.7.4.3 1 .3 1.4 0 .5-.2.7-.7.7-1.3ZM26.7 27.7c0 1.4-.8 2.3-2.2 2.3-1.4 0-2.2-.9-2.2-2.3 0-1.3.8-2.2 2.1-2.2 1.4 0 2.3.8 2.3 2.2Zm-3.5 0c0 .5 0 1 .5 1.2.4.4 1 .4 1.4.1.6-.3.7-.8.7-1.5 0-.5-.2-1-.7-1.1h-.2c-1-.4-1.7.2-1.7 1.3Z"
  />
  <path
    fill="#FAF9FC"
    d="M18.8 25.5c.8 0 1.4.2 1.8.9 0 .2 0 .3-.2.3l-.2.1c-.2 0-.4 0-.5-.2-.2-.5-1.1-.6-1.5-.2-.2.2-.1.6.2.7.3.2.6.2.9.2.3 0 .5.2.8.3.4.1.7.4.7.9s0 .9-.5 1.2c-.7.5-2 .4-2.7-.2-.3-.2-.5-.5-.5-.8v-.2h.3c.3-.2.5-.2.6.2.2.6 1.3.8 1.7.4.3-.3.3-.7 0-.9l-1-.2-.8-.2c-.4-.2-.7-.6-.7-1 0-.6.3-1 .8-1.2.2-.1.5-.2.8-.1Z"
  />
</svg>
