<svg viewBox="0 0 40 40" fill="none" xmlns="http://www.w3.org/2000/svg">
  <rect width="40" height="40" rx="12" fill="#49B881" />
  <path
    d="M22.461 23.2949H10.9604C10.4322 23.2949 10 22.8758 10 22.3635C10 21.8512 10.4322 21.4321 10.9604 21.4321H22.461C22.9892 21.4321 23.4214 21.8512 23.4214 22.3635C23.4214 22.8758 22.9892 23.2949 22.461 23.2949Z"
    fill="white"
  />
  <path
    d="M20.012 29C19.0756 29 18.1392 28.8603 17.2509 28.6041C16.7467 28.4411 16.4586 27.9288 16.6266 27.4398C16.7947 26.9508 17.3229 26.6714 17.8271 26.8344C18.5234 27.044 19.2677 27.1604 20.012 27.1604C23.2773 27.1604 26.1104 25.1345 27.0468 22.1074C27.1909 21.6184 27.7431 21.3389 28.2473 21.4787C28.7515 21.6184 29.0396 22.1539 28.8955 22.6429C27.6711 26.4385 24.1176 29 20.012 29Z"
    fill="white"
  />
  <path
    d="M29.0396 18.5679H17.539C17.0108 18.5679 16.5786 18.1488 16.5786 17.6365C16.5786 17.1242 17.0108 16.7051 17.539 16.7051H29.0396C29.5678 16.7051 30 17.1242 30 17.6365C30 18.1488 29.5678 18.5679 29.0396 18.5679Z"
    fill="white"
  />
  <path
    d="M12.0408 18.5679C11.9448 18.5679 11.8487 18.5446 11.7527 18.5213C11.2485 18.3816 10.9604 17.846 11.1044 17.357C12.3289 13.5614 15.8823 11 20.012 11C20.9484 11 21.8847 11.1397 22.7731 11.3959C23.2773 11.5589 23.5654 12.0712 23.3973 12.5602C23.2293 13.0492 22.7011 13.3286 22.1969 13.1656C21.5006 12.956 20.7563 12.8396 20.012 12.8396C16.7467 12.8396 13.9136 14.8655 12.9772 17.8926C12.8331 18.3118 12.449 18.5679 12.0408 18.5679Z"
    fill="white"
  />
  <path
    d="M25.7023 15.0285C26.2327 15.0285 26.6627 14.6114 26.6627 14.097C26.6627 13.5826 26.2327 13.1656 25.7023 13.1656C25.1719 13.1656 24.7419 13.5826 24.7419 14.097C24.7419 14.6114 25.1719 15.0285 25.7023 15.0285Z"
    fill="white"
  />
  <path
    d="M14.2977 26.8577C14.8281 26.8577 15.2581 26.4407 15.2581 25.9262C15.2581 25.4118 14.8281 24.9948 14.2977 24.9948C13.7673 24.9948 13.3373 25.4118 13.3373 25.9262C13.3373 26.4407 13.7673 26.8577 14.2977 26.8577Z"
    fill="white"
  />
</svg>
