<svg xmlns="http://www.w3.org/2000/svg" fill="none" viewBox="0 0 40 40">
  <rect width="40" height="40" fill="#00B9EA" rx="12" />
  <path
    fill="#fff"
    fill-rule="evenodd"
    d="M21.48 20.07c.16-.2.22-.45.16-.72a3.46 3.46 0 1 0-6.75 1.52 3.5 3.5 0 0 0 3.35 2.63 3.43 3.43 0 0 0 1.88-.55c.3-.2.58-.47.88-.84l.02-.02c.1-.13.14-.28.12-.44a.49.49 0 0 0-.18-.33.54.54 0 0 0-.32-.12c-.12 0-.27.04-.42.23v.02l-.16.2a2.42 2.42 0 0 1-1.8.83 2.49 2.49 0 0 1-2.43-2.02v-.04h4.85c.34 0 .62-.13.8-.35Zm-5.61-.66a2.45 2.45 0 0 1 4.74 0h-4.74Zm13.55.56a.88.88 0 1 1-1.76 0 .88.88 0 0 1 1.76 0Zm-4.6-2.38h-.2c-1 .13-1.1.61-1.1 1.77v3.57a.5.5 0 0 1-.5.5.5.5 0 0 1-.49-.5v-5.8c0-.29.22-.5.5-.5.21 0 .4.14.47.34.35-.25.75-.38 1.18-.38h.14c.28 0 .5.23.5.5 0 .28-.2.48-.5.5Zm-10.07 5.03a.5.5 0 1 1-.72.7l-2.58-2.6-2.6 2.61a.5.5 0 1 1-.7-.72l2.6-2.6-2.6-2.6a.5.5 0 0 1 .35-.86.5.5 0 0 1 .35.14l2.6 2.6 2.6-2.6a.5.5 0 0 1 .71.7l-2.6 2.62 2.6 2.6Zm13.8-6.12a3.47 3.47 0 0 0 0 6.95 3.47 3.47 0 0 0 0-6.95Zm0 5.9a2.43 2.43 0 0 1 0-4.86 2.43 2.43 0 0 1 0 4.87Z"
    clip-rule="evenodd"
  />
</svg>
